<?xml version="1.0" encoding="UTF-8"?>
<svg width="31px" height="30px" viewBox="0 0 31 30" version="1.1" xmlns="http://www.w3.org/2000/svg" xmlns:xlink="http://www.w3.org/1999/xlink">
    <!-- Generator: Sketch 53.2 (72643) - https://sketchapp.com -->
    <title>ico_telega_lp</title>
    <desc>Created with Sketch.</desc>
    <g id="Landing---What-is...-" stroke="none" stroke-width="1" fill="none" fill-rule="evenodd">
        <g id="cma_3-list-1-copy-49" transform="translate(-492.000000, -868.000000)">
            <g id="Group-6" transform="translate(474.500000, 861.000000)">
                <g id="ico_telega_lp" transform="translate(18.000000, 7.000000)">
                    <rect id="Rectangle-Copy-4" fill="#191919" fill-rule="nonzero" opacity="0.011971" x="0" y="0" width="30" height="30"></rect>
                    <g id="iconmonstr-telegram-1" transform="translate(1.000000, 6.000000)" fill="#EFEBEB">
                        <path d="M19.1499786,19.9693323 C19.4853876,20.1995246 19.9176694,20.2570727 20.3030773,20.1157266 C20.6884852,19.9733708 20.9718121,19.6543323 21.0572268,19.2676496 C21.9624146,15.1443804 24.1581979,4.70798617 24.9821375,0.957265021 C25.0446361,0.674572713 24.9404718,0.380774636 24.7113103,0.191976559 C24.4821489,0.00317848211 24.1644478,-0.0513407487 23.8811209,0.0506304052 C19.513512,1.61755348 6.06277644,6.50914002 0.564984905,8.48091887 C0.216034514,8.60611117 -0.011043651,8.93120733 0.000414421519,9.28760156 C0.012914137,9.64500541 0.260825161,9.95495733 0.618108696,10.0589477 C3.08367758,10.7737554 6.32006225,11.7682266 6.32006225,11.7682266 C6.32006225,11.7682266 7.83252782,16.19539 8.62105154,18.4468323 C8.72000762,18.7295246 8.94812743,18.95164 9.24916225,19.0283708 C9.54915542,19.1040919 9.86998145,19.0243323 10.0939347,18.8193804 C11.3605725,17.6603419 13.3188613,15.8682746 13.3188613,15.8682746 C13.3188613,15.8682746 17.0396099,18.5124573 19.1499786,19.9693323 Z M7.6814896,11.2088996 L9.43040812,16.8001496 L9.81894095,13.2594285 C9.81894095,13.2594285 16.5760788,7.35216887 20.4280745,3.98510156 C20.5405719,3.88615925 20.5561966,3.72058233 20.4624487,3.60447656 C20.3697425,3.48837079 20.198913,3.46111117 20.0707909,3.53986117 C15.6063092,6.30317848 7.6814896,11.2088996 7.6814896,11.2088996 Z" id="telegram-1"></path>
                    </g>
                </g>
            </g>
        </g>
    </g>
</svg>