<?xml version="1.0" encoding="UTF-8"?>
<svg width="122px" height="80px" viewBox="0 0 122 80" version="1.1" xmlns="http://www.w3.org/2000/svg" xmlns:xlink="http://www.w3.org/1999/xlink">
    <!-- Generator: Sketch 53.2 (72643) - https://sketchapp.com -->
    <title>hiw_3</title>
    <desc>Created with Sketch.</desc>
    <g id="How-it-works" stroke="none" stroke-width="1" fill="none" fill-rule="evenodd">
        <g id="Artboard" transform="translate(-243.000000, -553.000000)">
            <g id="hiw_3" transform="translate(243.000000, 553.000000)">
                <rect id="Rectangle-Copy-2" fill="#FFFFFF" fill-rule="nonzero" opacity="0.00667317708" x="0" y="0" width="122" height="80"></rect>
                <path d="M61.000125,11 C45.0094929,11 32,24.0094369 32,40 C32,55.9905631 45.0094929,69 60.999875,69 C76.9905071,69 90,55.9905631 90,40 C90,24.0094369 76.990757,11 61.000125,11 Z M58.6675486,13.2578382 L63.1662494,13.2578382 L63.1662494,17.7565196 L58.6675486,17.7565196 L58.6675486,13.2578382 Z M81.253276,40 C81.253276,51.1677267 72.1676499,60.2530638 61.000125,60.2530638 C49.8326001,60.2530638 40.7472239,51.1674768 40.7472239,40 C40.7472239,28.8325232 49.83285,19.7469362 61.000125,19.7469362 C72.1676499,19.7469362 81.253276,28.8325232 81.253276,40 Z M43.6811266,19.5000086 L46.8622079,22.6810762 L43.6811266,25.8621439 L40.5000452,22.6810762 L43.6811266,19.5000086 Z M38.6733228,42.2493407 L34.174622,42.2493407 L34.174622,37.7506593 L38.6733228,37.7506593 L38.6733228,42.2493407 Z M43.6811266,60.5002413 L40.5000452,57.3191737 L43.6811266,54.1381061 L46.8622079,57.3191737 L43.6811266,60.5002413 Z M63.1662494,66.7421618 L58.6675486,66.7421618 L58.6675486,62.2434804 L63.1662494,62.2434804 L63.1662494,66.7421618 Z M78.3191234,60.5002413 L75.138042,57.3191737 L78.3191234,54.1381061 L81.5002047,57.3191737 L78.3191234,60.5002413 Z M78.3191234,25.8621439 L75.138042,22.6810762 L78.3191234,19.5000086 L81.5002047,22.6810762 L78.3191234,25.8621439 Z M83.1604752,42.2493407 L83.1604752,37.7506593 L87.659176,37.7506593 L87.659176,42.2493407 L83.1604752,42.2493407 Z" id="Shape" fill="#191919" fill-rule="nonzero"></path>
                <g id="Group-Copy-6" transform="translate(48.000000, 29.000000)" stroke="#191919" stroke-width="2.2">
                    <path d="M19.4063809,21.0884757 L1.50176507,8.64853157 C0.0575896473,7.64510078 -0.297287847,5.6642162 0.708868142,4.2241507 C0.895937497,3.95650467 1.12333069,3.71911909 1.3828721,3.52028448 L5.68796152,0.223968737 L23.1093841,12.284621 C24.8067267,13.4596658 25.2274249,15.7841929 24.0490266,17.4767052 C23.8086078,17.8220059 23.5113754,18.1243339 23.1699392,18.3708391 L19.4063809,21.0884757 Z" id="Stroke-1"></path>
                    <path d="M9.98362819,6.44186816 L1.63008079,12.4175459 C-0.0488320301,13.6185677 -0.433502052,15.9494509 0.770947454,17.6237239 C1.03367597,17.9887837 1.36042378,18.303824 1.73567105,18.5530926 L5.54939163,21.0884757 L10.1104196,17.9481601" id="Stroke-3"></path>
                    <path d="M14.8335744,14.5942252 L23.4030137,8.64148462 C24.9100999,7.59466671 25.2807743,5.52769877 24.2308303,4.02490157 C24.0301811,3.73763461 23.7851895,3.48380614 23.5048626,3.27308844 L19.267811,0.0857931944 L14.8335744,3.26383068" id="Stroke-5"></path>
                </g>
            </g>
        </g>
    </g>
</svg>