<?xml version="1.0" encoding="UTF-8"?>
<svg width="122px" height="119px" viewBox="0 0 122 119" version="1.1" xmlns="http://www.w3.org/2000/svg" xmlns:xlink="http://www.w3.org/1999/xlink">
    <!-- Generator: Sketch 53.2 (72643) - https://sketchapp.com -->
    <title>hiw_5</title>
    <desc>Created with Sketch.</desc>
    <g id="How-it-works" stroke="none" stroke-width="1" fill="none" fill-rule="evenodd">
        <g id="Artboard" transform="translate(-243.000000, -793.000000)">
            <g id="hiw_5" transform="translate(243.000000, 793.000000)">
                <rect id="Rectangle-Copy-4" fill="#FFFFFF" fill-rule="nonzero" opacity="0.00667317708" x="0" y="0" width="122" height="119"></rect>
                <g id="casino-token-svgrepo-com-copy" transform="translate(14.000000, 7.000000)">
                    <path d="M14.5000625,0 C6.50474647,0 0,6.50471844 0,14.5 C0,22.4952816 6.50474647,29 14.4999375,29 C22.4952535,29 29,22.4952816 29,14.5 C29,6.50471844 22.4953785,0 14.5000625,0 Z M13.3337743,1.12891911 L15.5831247,1.12891911 L15.5831247,3.37825982 L13.3337743,3.37825982 L13.3337743,1.12891911 Z M24.626638,14.5 C24.626638,20.0838634 20.0838249,24.6265319 14.5000625,24.6265319 C8.91630003,24.6265319 4.37361193,20.0837384 4.37361193,14.5 C4.37361193,8.91626161 8.916425,4.37346812 14.5000625,4.37346812 C20.0838249,4.37346812 24.626638,8.91626161 24.626638,14.5 Z M5.84056329,4.25000431 L7.43110395,5.84053812 L5.84056329,7.43107193 L4.25002262,5.84053812 L5.84056329,4.25000431 Z M3.3366614,15.6246704 L1.08731099,15.6246704 L1.08731099,13.3753296 L3.3366614,13.3753296 L3.3366614,15.6246704 Z M5.84056329,24.7501207 L4.25002262,23.1595868 L5.84056329,21.569053 L7.43110395,23.1595868 L5.84056329,24.7501207 Z M15.5831247,27.8710809 L13.3337743,27.8710809 L13.3337743,25.6217402 L15.5831247,25.6217402 L15.5831247,27.8710809 Z M23.1595617,24.7501207 L21.569021,23.1595868 L23.1595617,21.569053 L24.7501023,23.1595868 L23.1595617,24.7501207 Z M23.1595617,7.43107193 L21.569021,5.84053812 L23.1595617,4.25000431 L24.7501023,5.84053812 L23.1595617,7.43107193 Z M25.5802376,15.6246704 L25.5802376,13.3753296 L27.829588,13.3753296 L27.829588,15.6246704 L25.5802376,15.6246704 Z" id="Shape" fill="#191919" fill-rule="nonzero"></path>
                    <g id="Group-Copy-6" transform="translate(8.000000, 9.000000)" stroke="#191919" stroke-width="1.166">
                        <path d="M10.0913181,11.5028049 L0.780917835,4.71738086 C0.0299466166,4.17005497 -0.154589681,3.08957247 0.368611434,2.3040822 C0.465887499,2.15809346 0.584131959,2.02861041 0.719093492,1.92015517 L2.95773999,0.122164766 L12.0168797,6.70070235 C12.8994979,7.34163589 13.118261,8.60955979 12.5054938,9.53274828 C12.3804761,9.7210941 12.2259152,9.88600033 12.0483684,10.0204577 L10.0913181,11.5028049 Z" id="Stroke-1"></path>
                        <path d="M5.19148666,3.51374627 L0.84764201,6.77320683 C-0.0253926557,7.42830964 -0.225421067,8.69970049 0.400892676,9.61294034 C0.537511505,9.81206385 0.707420364,9.98390398 0.902548944,10.1198687 L2.88568365,11.5028049 L5.25741821,9.78990552" id="Stroke-3"></path>
                        <path d="M7.7134587,7.96048646 L12.1695671,4.71353707 C12.9532519,4.14254548 13.1460027,3.01510842 12.6000317,2.19540085 C12.4956941,2.03870979 12.3682985,1.90025789 12.2225285,1.78532097 L10.0192617,0.0467962879 L7.7134587,1.78027128" id="Stroke-5"></path>
                    </g>
                </g>
                <g id="Group-2" opacity="0.79906064" style="mix-blend-mode: darken;" transform="translate(35.000000, 68.000000)" fill-rule="nonzero">
                    <g id="Group-19" style="mix-blend-mode: darken;">
                        <g id="Group-10" transform="translate(10.238806, 9.001795)" fill="#AFAFAF">
                            <path d="M3.31957235,17.6311012 C5.15292154,17.6311012 6.6391447,15.657673 6.6391447,13.2233259 C6.6391447,11.6004278 5.80925161,7.19265254 4.14946544,0 C1.38315515,7.19265254 0,11.6004278 0,13.2233259 C0,15.657673 1.48622317,17.6311012 3.31957235,17.6311012 Z" id="Oval-17"></path>
                            <path d="M25.4500547,17.6311012 C27.2834039,17.6311012 28.769627,15.657673 28.769627,13.2233259 C28.769627,11.6004278 27.939734,7.19265254 26.2799478,0 C23.5136375,7.19265254 22.1304823,11.6004278 22.1304823,13.2233259 C22.1304823,15.657673 23.6167055,17.6311012 25.4500547,17.6311012 Z" id="Oval-17" transform="translate(25.450055, 8.815551) scale(-1, 1) translate(-25.450055, -8.815551) "></path>
                        </g>
                        <g id="Group-4" stroke="#191919" stroke-width="2">
                            <g id="Group">
                                <path d="M24.3880261,16.6246504 C23.9405195,10.282957 21.8150109,7.11211027 18.0115002,7.11211027 C12.3062341,7.11211027 8.0630192,14.6123403 8.0630192,20.9507506 C8.0630192,24.2621341 10.0733962,27.4015374 12.7291126,27.4015374 C15.384829,27.4015374 16.8175656,24.8426421 16.8175656,20.9507506 C16.8175656,12.8013659 9.81310962,0 5.0328931,0 C0.252676583,1.03586758e-15 -2.66856191,22.2859634 3.51085177,32.2107622 C8.36915727,40.0137202 15.3282154,43.9151991 24.3880261,43.9151991" id="Path-Copy-7"></path>
                                <path d="M48.7760523,16.6246504 C48.3285457,10.282957 46.203037,7.11211027 42.3995263,7.11211027 C36.6942602,7.11211027 32.4510453,14.6123403 32.4510453,20.9507506 C32.4510453,24.2621341 34.4614223,27.4015374 37.1171387,27.4015374 C39.7728551,27.4015374 41.2055918,24.8426421 41.2055918,20.9507506 C41.2055918,12.8013659 34.2011358,0 29.4209192,0 C24.6407027,1.03586758e-15 21.7194642,22.2859634 27.8988779,32.2107622 C32.7571834,40.0137202 39.7162415,43.9151991 48.7760523,43.9151991" id="Path-Copy-6" transform="translate(36.582039, 21.957600) scale(-1, 1) translate(-36.582039, -21.957600) "></path>
                            </g>
                        </g>
                        <ellipse id="Oval-15" stroke="#191919" stroke-width="2" fill="#FFFFFF" cx="24.8656716" cy="16.5032901" rx="3.65671642" ry="3.75074776"></ellipse>
                        <path d="M30.3076568,32.4786415 C30.0929663,32.498123 29.8245242,32.535017 29.4738242,32.5920315 C29.2317635,32.6313841 28.229453,32.8055094 28.0017382,32.8435461 C26.3808413,33.1142953 25.1149848,33.2511985 23.7686567,33.2511985 C22.4223286,33.2511985 21.1564722,33.1142953 19.5355752,32.8435461 C19.3078605,32.8055094 18.3055499,32.6313841 18.0634892,32.5920315 C17.7127892,32.535017 17.4443472,32.498123 17.2296566,32.4786415 C17.9857621,33.517166 20.942729,35.0514451 23.7686567,35.0514451 C26.5945844,35.0514451 29.5515513,33.517166 30.3076568,32.4786415 Z" id="Oval-10-Copy-2" stroke="#191919" stroke-width="1.91146667" fill="#242424"></path>
                    </g>
                </g>
                <text id="#" font-family="OpenSans-Bold, Open Sans" font-size="29" font-weight="bold" fill="#191919">
                    <tspan x="78" y="31">#</tspan>
                </text>
                <text id="+" font-family="OpenSans-Bold, Open Sans" font-size="24" font-weight="bold" fill="#191919">
                    <tspan x="53" y="29">+</tspan>
                </text>
                <path d="" id="Path-2" stroke="#979797" stroke-width="2" fill-rule="nonzero"></path>
                <path id="Path-3" d="M61.6108502,59.1114093 L67.5217472,52.8711243 L68.5381584,53.8338851 L60.7227014,62.0848627 L59.8312562,63.0259842 L59.5332449,61.7644084 L56.9205273,50.7039515 L58.2830291,50.3820993 L60.2590498,58.7472176 L62.1395295,51.7672868 L62.1705852,51.6520149 L62.2380924,51.5535524 C65.8668428,46.2608471 72.1959823,44.3865045 83.8329853,43.6519794 C84.8858334,43.5855238 85.5822261,43.5471899 87.6654822,43.4372693 C97.6824624,42.9087351 101.580059,42.2664107 104.336044,40.065989 C107.788426,37.309553 107.56891,32.0574905 102.775289,22.9507241 L104.014141,22.2986166 C109.082807,31.9279044 109.331136,37.8693192 105.20956,41.1600503 C102.118266,43.628188 98.1155935,44.2878289 87.739249,44.8353246 C85.6611622,44.9449724 84.9673933,44.9831619 83.9211775,45.0491988 C72.7774524,45.7525883 66.7699395,47.5141621 63.4598503,52.2483239 L61.6108502,59.1114093 Z" fill="#191919" fill-rule="nonzero"></path>
            </g>
        </g>
    </g>
</svg>