<?xml version="1.0" encoding="UTF-8"?>
<svg width="122px" height="102px" viewBox="0 0 122 102" version="1.1" xmlns="http://www.w3.org/2000/svg" xmlns:xlink="http://www.w3.org/1999/xlink">
    <!-- Generator: Sketch 53.2 (72643) - https://sketchapp.com -->
    <title>hiw_11</title>
    <desc>Created with Sketch.</desc>
    <g id="How-it-works" stroke="none" stroke-width="1" fill="none" fill-rule="evenodd">
        <g id="Artboard" transform="translate(-243.000000, -1999.000000)" fill-rule="nonzero">
            <g id="hiw_11" transform="translate(243.000000, 1999.000000)">
                <rect id="Rectangle-Copy-10" fill="#FFFFFF" opacity="0.00667317708" x="0" y="0" width="122" height="102"></rect>
                <path d="M73.0515307,61.200564 C70.5945355,61.200564 68.3949416,62.319879 66.935469,64.0744109 L57.4416648,58.6915502 C57.7368974,57.8618793 57.8991641,56.9697978 57.8991641,56.0401219 C57.8991641,55.1106311 57.7368974,54.2185497 57.4416648,53.3888787 L66.9347272,48.0047217 C68.3940143,49.7598091 70.5939791,50.8794945 73.0511598,50.8794945 C77.4340282,50.8794945 80.9998146,47.3172801 80.9998146,42.9385435 C81.0001854,38.5611033 77.4343991,35 73.0515307,35 C68.6681059,35 65.1019486,38.5611033 65.1019486,42.9383583 C65.1019486,43.8680342 65.2640298,44.7603009 65.5594478,45.590157 L56.0658291,50.9744992 C54.606542,49.2203378 52.4071336,48.1013932 49.9506947,48.1013932 C45.5667136,48.1013932 42,51.6624965 42,56.0399367 C42,60.4171917 45.5667136,63.978295 49.9506947,63.978295 C52.4071336,63.978295 54.6063566,62.8593503 56.0656437,61.1053741 L65.5594478,66.48842 C65.2640298,67.3182761 65.1017632,68.210728 65.1017632,69.1405891 C65.1017632,73.5178441 68.6679204,77.0789474 73.0513452,77.0789474 C77.4342137,77.0789474 81,73.5176589 81,69.1405891 C81.0001854,64.7625933 77.4343991,61.200564 73.0515307,61.200564 Z M73.0515307,37.7779161 C75.900562,37.7779161 78.2184715,40.0928462 78.2184715,42.9383583 C78.2184715,45.7853519 75.900562,48.1013932 73.0515307,48.1013932 C70.2019429,48.1013932 67.8836625,45.7853519 67.8836625,42.9383583 C67.8836625,40.0928462 70.2019429,37.7779161 73.0515307,37.7779161 Z M49.9508802,61.200564 C47.1007361,61.200564 44.7818994,58.8854487 44.7818994,56.0401219 C44.7818994,53.1944246 47.1007361,50.8794945 49.9508802,50.8794945 C52.7999116,50.8794945 55.1176356,53.1944246 55.1176356,56.0401219 C55.1176356,58.8854487 52.7997261,61.200564 49.9508802,61.200564 Z M73.0515307,74.3012164 C70.2019429,74.3012164 67.8836625,71.9861012 67.8836625,69.1407743 C67.8836625,66.2943362 70.2019429,63.9784802 73.0515307,63.9784802 C75.900562,63.9784802 78.2184715,66.2943362 78.2184715,69.1407743 C78.2184715,71.9861012 75.900562,74.3012164 73.0515307,74.3012164 Z" id="Shape" fill="#000000"></path>
            </g>
        </g>
    </g>
</svg>