<?xml version="1.0" encoding="UTF-8"?>
<svg width="122px" height="80px" viewBox="0 0 122 80" version="1.1" xmlns="http://www.w3.org/2000/svg" xmlns:xlink="http://www.w3.org/1999/xlink">
    <!-- Generator: Sketch 53.2 (72643) - https://sketchapp.com -->
    <title>hiw_6</title>
    <desc>Created with Sketch.</desc>
    <g id="How-it-works" stroke="none" stroke-width="1" fill="none" fill-rule="evenodd">
        <g id="Artboard" transform="translate(-243.000000, -1028.000000)" fill-rule="nonzero">
            <g id="hiw_6" transform="translate(243.000000, 1028.000000)">
                <rect id="Rectangle-Copy-5" fill="#FFFFFF" opacity="0.00667317708" x="0" y="0" width="122" height="80"></rect>
                <path d="M79,39.9391958 L79,39.8450474 C79,39.7979732 79,39.7979732 78.9540816,39.750899 L78.9540816,39.6567506 C78.9540816,39.6096764 78.9081633,39.6096764 78.9081633,39.5626022 C78.9081633,39.5626022 78.9081633,39.515528 78.8622449,39.515528 L61.7806122,10.4707421 C61.7346939,10.4236679 61.6887755,10.3295195 61.6428571,10.2824452 L61.5969388,10.2824452 C61.5510204,10.235371 61.505102,10.1882968 61.4591837,10.1882968 C61.4591837,10.1882968 61.4132653,10.1882968 61.4132653,10.1412226 C61.3673469,10.0941484 61.3214286,10.0941484 61.2755102,10.0941484 L61.2295918,10.0941484 C61.1377551,10 61.0918367,10 61,10 C60.9081633,10 60.8622449,10 60.7704082,10.0470742 L60.7244898,10.0470742 C60.6785714,10.0470742 60.6326531,10.0941484 60.5867347,10.0941484 C60.5867347,10.0941484 60.5408163,10.0941484 60.5408163,10.1412226 C60.494898,10.1882968 60.4489796,10.1882968 60.4030612,10.235371 L60.3571429,10.235371 C60.3112245,10.2824452 60.2653061,10.3295195 60.2193878,10.4236679 L43.1377551,39.515528 C43.1377551,39.515528 43.1377551,39.5626022 43.0918367,39.5626022 C43.0918367,39.6096764 43.0459184,39.6096764 43.0459184,39.6567506 L43.0459184,39.750899 C43.0459184,39.7979732 43.0459184,39.7979732 43,39.8450474 L43,40.2216411 C43,40.2687153 43,40.2687153 43.0459184,40.3157895 L43.0459184,40.3628637 C43.0918367,40.4570121 43.1377551,40.5040863 43.1836735,40.5511605 L43.2295918,40.5982347 L43.3673469,40.7394573 C43.3673469,40.7394573 43.4132653,40.7394573 43.4132653,40.7865315 L60.5408163,51.0487087 L60.5867347,51.0487087 C60.6326531,51.0957829 60.6785714,51.0957829 60.7244898,51.0957829 L60.7704082,51.0957829 C60.8622449,51.0957829 60.9081633,51.1428571 61,51.1428571 C61.0918367,51.1428571 61.1377551,51.1428571 61.2295918,51.0957829 L61.2755102,51.0957829 C61.3214286,51.0957829 61.3673469,51.0487087 61.4132653,51.0487087 L61.4591837,51.0487087 L78.5408163,40.8336058 C78.5867347,40.8336058 78.5867347,40.7865315 78.6326531,40.7865315 L78.6785714,40.7394573 L78.7704082,40.6453089 L78.8163265,40.5982347 C78.8163265,40.5511605 78.8622449,40.5511605 78.8622449,40.5040863 C78.8622449,40.4570121 78.9081633,40.4570121 78.9081633,40.4099379 C78.9081633,40.3628637 78.9081633,40.3628637 78.9540816,40.3157895 C78.9540816,40.2687153 78.9540816,40.2687153 79,40.2216411 L79,40.1274926 L79,40.0333442 L79,39.9391958 L79,39.9391958 Z M60.0816327,31.4658385 L46.2602041,37.9150049 L60.0816327,14.3308271 L60.0816327,31.4658385 L60.0816327,31.4658385 Z M60.0816327,33.5371036 L60.0816327,48.60085 L45.9387755,40.1274926 L60.0816327,33.5371036 Z M61.9183673,33.5371036 L76.0612245,40.1274926 L61.9183673,48.60085 L61.9183673,33.5371036 Z M61.9183673,31.4658385 L61.9183673,14.3308271 L75.7397959,37.9150049 L61.9183673,31.4658385 Z" id="Shape" fill="#000000"></path>
                <path d="M77.6844023,43.5597087 L61.0385022,53.8053216 L44.392602,43.5597087 C44.0237178,43.3236347 43.516502,43.4180643 43.2398389,43.7485679 C42.9631757,44.0790716 42.9170652,44.5512196 43.1476178,44.9289381 L60.3007337,69.5750667 L60.3468443,69.6222816 C60.3929548,69.6694964 60.3929548,69.7167112 60.4390653,69.7167112 L60.4851758,69.763926 C60.5312864,69.8111408 60.5773969,69.8111408 60.5773969,69.8583556 C60.5773969,69.8583556 60.6235074,69.8583556 60.6235074,69.9055704 C60.6696179,69.9055704 60.7157285,69.9527852 60.761839,69.9527852 L60.8079495,69.9527852 C60.8540601,69.9527852 60.9462811,70 60.9923916,70 C61.0846127,70 61.1307232,70 61.1768337,69.9527852 L61.2229443,69.9527852 C61.2690548,69.9527852 61.3151653,69.9055704 61.3612758,69.9055704 C61.3612758,69.9055704 61.4073864,69.9055704 61.4073864,69.8583556 C61.4534969,69.8583556 61.4996074,69.8111408 61.4996074,69.763926 L61.545718,69.7167112 L61.637939,69.6222816 L61.6840495,69.5750667 L78.8371655,44.9289381 C79.0677181,44.5512196 79.0677181,44.0790716 78.7449444,43.7485679 C78.4221707,43.4180643 78.099397,43.3708495 77.6844023,43.5597087 Z M60.1162916,55.410625 L60.1162916,66.0811711 L47.2053442,47.5257524 L60.1162916,55.410625 L60.1162916,55.410625 Z M61.9607127,66.0811711 L61.9607127,55.410625 L74.8716602,47.4785376 L61.9607127,66.0811711 Z" id="Shape" fill="#000000"></path>
            </g>
        </g>
    </g>
</svg>