<?xml version="1.0" encoding="UTF-8"?>
<svg width="122px" height="80px" viewBox="0 0 122 80" version="1.1" xmlns="http://www.w3.org/2000/svg" xmlns:xlink="http://www.w3.org/1999/xlink">
    <!-- Generator: Sketch 53.2 (72643) - https://sketchapp.com -->
    <title>hiw_4</title>
    <desc>Created with Sketch.</desc>
    <g id="How-it-works" stroke="none" stroke-width="1" fill="none" fill-rule="evenodd">
        <g id="Artboard" transform="translate(-243.000000, -668.000000)">
            <g id="hiw_4" transform="translate(243.000000, 668.000000)">
                <rect id="Rectangle-Copy-3" fill="#FFFFFF" fill-rule="nonzero" opacity="0.00667317708" x="0" y="0" width="122" height="80"></rect>
                <g id="fingerprint-svgrepo-com" transform="translate(66.000000, 22.000000)" fill="#000000" fill-rule="nonzero">
                    <path d="M19.5,0 C8.74757813,0 0,8.64255532 0,19.2658844 C0,21.6305459 0.429,23.9405706 1.2748125,26.1315382 C1.38465234,26.416011 1.65887109,26.5909091 1.94977148,26.5909091 C2.0353125,26.5909091 2.12237695,26.5757824 2.20700391,26.5438732 C2.57956055,26.403443 2.76648633,25.9911079 2.62434961,25.6228737 C1.84145508,23.5949136 1.44437109,21.4561746 1.44437109,19.2658844 C1.44444727,9.42944629 9.54403125,1.42710533 19.5,1.42710533 C29.4559688,1.42710533 37.5555527,9.42944629 37.5555527,19.2658844 C37.5555527,19.6599319 37.8789023,19.9793994 38.2777383,19.9793994 C38.6765742,19.9793994 39,19.6599319 39,19.2658844 C39,8.64255532 30.2524219,0 19.5,0 Z" id="Path"></path>
                    <path d="M19.4207536,3.54545455 C15.04927,3.54545455 10.5205426,5.61900299 7.31429125,9.09211192 C4.47453224,12.1681327 3.04366795,15.8978842 3.39326066,19.3248306 L3.47414863,20.1266881 C4.04312977,25.6813279 4.04243842,25.6813279 2.97414886,27.7535208 C2.89979031,27.8978822 2.82036187,28.0515816 2.73609397,28.2165016 C2.55634294,28.5693098 2.70198736,28.998177 3.06164306,29.1745435 C3.16619056,29.2258268 3.27719066,29.25 3.38673124,29.25 C3.65382284,29.25 3.9110819,29.1053373 4.03875122,28.8551711 C4.12179005,28.6922091 4.20006625,28.540317 4.27365663,28.3976123 C5.53383425,25.9534834 5.52246538,25.8415789 4.92229667,19.9840586 L4.84033327,19.1825778 C4.53168385,16.1564095 5.82504628,12.8277373 8.38918705,10.0503044 C11.323661,6.8712651 15.4540171,4.97340536 19.4207536,4.97340536 C27.4530897,4.97340536 33.9977939,11.3794539 33.9977939,19.2536666 L33.9977939,22.8236942 C33.9977939,23.217996 34.3238807,23.5376696 34.7261697,23.5376696 C35.1284587,23.5376696 35.4545455,23.217996 35.4545455,22.8236942 L35.4545455,19.2537419 C35.4544686,10.5921305 28.2560544,3.54545455 19.4207536,3.54545455 Z" id="Path"></path>
                    <path d="M24.359998,7.94021421 C22.9155865,7.37662142 21.388423,7.09090909 19.8212602,7.09090909 C16.5161535,7.09090909 13.4211389,8.33730464 11.1062258,10.6004866 C8.77670497,12.8781275 7.49374386,15.9424938 7.49374386,19.2291646 C7.49374386,21.0525574 7.66437195,22.6427265 7.81503862,24.0456087 C8.20378922,27.6686729 8.41801122,29.6645174 5.64115566,31.4873831 C5.30800642,31.7061481 5.21783586,32.1494766 5.44008832,32.4775111 C5.57974179,32.6839258 5.80971878,32.7954545 6.04413165,32.7954545 C6.18225551,32.7954545 6.32206194,32.7567471 6.4456545,32.6755668 C9.95244036,30.3736773 9.64560042,27.514822 9.25723222,23.895749 C9.11046606,22.5276584 8.9440444,20.9772511 8.9440444,19.2291646 C8.9440444,13.2234824 13.7219369,8.51894358 19.8212602,8.51894358 C21.2047932,8.51894358 22.5520745,8.77084335 23.825705,9.26779001 C24.1976298,9.41283006 24.6193436,9.23360093 24.7670275,8.86700957 C24.914482,8.50049352 24.7323053,8.08540487 24.359998,7.94021421 Z" id="Path"></path>
                    <path d="M31.7320334,18.8404487 C31.7234077,14.9455839 29.8815318,11.267711 26.8010661,8.99701117 C26.4898836,8.76775094 26.0569181,8.84128582 25.8340392,9.16199423 C25.6113796,9.48240158 25.6829435,9.92827734 25.9942722,10.1576881 C28.7190381,12.1661612 30.3458567,15.4223187 30.3458567,18.8679961 C30.3458567,18.8862857 30.3465146,18.9045753 30.3479035,18.9227144 C30.3547017,19.0143131 31.0159554,28.1520567 29.6734189,33.6813226 C29.5807293,34.0635986 29.806386,34.4510679 30.1778752,34.546731 C30.2342345,34.5611821 30.2907401,34.5681818 30.3463684,34.5681818 C30.6568931,34.5681818 30.9394939,34.3517921 31.0182946,34.0273956 C32.3918251,28.3704786 31.780425,19.5059506 31.7320334,18.8404487 Z" id="Path"></path>
                    <path d="M27.4333685,16.3767571 C26.1909252,12.9432715 22.920797,10.6363636 19.296294,10.6363636 C14.5213664,10.6363636 10.636486,14.5556191 10.636486,19.3733108 C10.636486,19.403489 10.6383888,19.4337441 10.6421183,19.4636152 C10.6491967,19.5208233 11.3437136,25.2486233 10.6437166,30.1915585 C10.5873181,30.5895581 10.8614715,30.9583777 11.2561854,31.0152787 C11.29074,31.02027 11.3250663,31.0227273 11.3590881,31.0227273 C11.7123213,31.0227273 12.0211816,30.7605682 12.0726329,30.397431 C12.7734671,25.4477382 12.1522455,19.9359469 12.0800157,19.3299248 C12.1030775,15.3352621 15.3314966,12.0925215 19.296294,12.0925215 C22.317005,12.0925215 25.0421752,14.0149447 26.0774431,16.8761955 C26.2141392,17.2539227 26.6289466,17.447816 27.0029582,17.3104397 C27.3773504,17.1726027 27.5699124,16.7544843 27.4333685,16.3767571 Z" id="Path"></path>
                    <path d="M19.706188,14.1818182 C16.8931541,14.1818182 14.5996517,16.4432437 14.5996517,19.22299 C14.5996517,19.2510936 14.5985756,19.2792731 14.6019577,19.3069969 C14.6161777,19.4267788 15.9826864,31.3328159 12.5451231,36.0884707 C12.3111455,36.4121934 12.3863965,36.8619264 12.7139958,37.0931352 C12.8424375,37.1838261 12.9900954,37.2272727 13.1367541,37.2272727 C13.3639675,37.2272727 13.5879526,37.122454 13.7301531,36.9257291 C17.4189886,31.8225015 16.1615516,20.1317985 16.0523262,19.1834171 C16.0738484,17.2159398 17.7104613,15.6220879 19.7064186,15.6220879 C21.7157506,15.6220879 23.3605111,17.2373592 23.3605111,19.222914 L23.3605111,24.2640859 C23.3605111,24.6617893 23.6868037,24.9842967 24.0893465,24.9842967 C24.4918892,24.9842967 24.8181818,24.6618652 24.8181818,24.2640859 L24.8181818,19.222914 C24.818105,16.4432437 22.519222,14.1818182 19.706188,14.1818182 Z" id="Path"></path>
                    <path d="M34.8345731,24.8208514 C34.4649556,24.7875974 34.1313687,25.068871 34.0988481,25.4493233 L33.6844612,30.2710113 C33.651654,30.6515365 33.9280792,30.986775 34.3017796,31.020029 C34.3218363,31.0218522 34.3418931,31.0227273 34.3618066,31.0227273 C34.7100063,31.0227273 35.0066314,30.7514444 35.0375045,30.3915571 L35.4518915,25.5698692 C35.4847702,25.1893439 35.2083451,24.8541054 34.8345731,24.8208514 Z" id="Path"></path>
                    <path d="M11.2266402,32.028261 C10.9213838,31.8110052 10.5085094,31.8991041 10.3048416,32.2249504 L8.9753567,34.3521874 C8.77168885,34.6780337 8.85427774,35.118229 9.15967436,35.3354848 C9.27297118,35.416105 9.40099097,35.4545455 9.5277488,35.4545455 C9.74263416,35.4545455 9.95345318,35.3437114 10.081473,35.1387954 L11.4109578,33.0115584 C11.6146958,32.6857869 11.5321069,32.2455168 11.2266402,32.028261 Z" id="Path"></path>
                    <path d="M28.5791561,19.1797213 C28.4957026,18.7931363 28.111283,18.5468395 27.7212236,18.6296683 C27.3310118,18.7124971 27.0824042,19.0930417 27.1660101,19.4796266 C27.1871974,19.5774809 29.240687,29.3359568 25.7809106,36.1910439 C25.6025716,36.5447842 25.7472244,36.9747844 26.104131,37.1516168 C26.2078572,37.2029602 26.3181378,37.2272727 26.4268179,37.2272727 C26.6918113,37.2272727 26.9470495,37.0822279 27.0737159,36.8314007 C30.7577879,29.5318164 28.6698498,19.5990753 28.5791561,19.1797213 Z" id="Path"></path>
                    <path d="M19.8846897,19.1437833 C19.7871812,18.7686522 19.3920918,18.5412709 19.0039727,18.6345555 C18.6147812,18.7283567 18.3782484,19.108285 18.4753739,19.4831209 C18.4893913,19.5372909 19.8525188,24.9532606 17.7647032,30.9879052 C17.6379344,31.3545492 17.8435985,31.7507137 18.2240578,31.8730022 C18.3001191,31.8974303 18.3776356,31.9090909 18.4538501,31.9090909 C18.7577886,31.9090909 19.0412756,31.7237025 19.1426906,31.4304168 C21.3629432,25.0131872 19.9460443,19.3803159 19.8846897,19.1437833 Z" id="Path"></path>
                    <path d="M18.1955842,32.850041 C17.8551606,32.6942019 17.4681181,32.8833721 17.3316262,33.2732503 L16.0022498,37.0716377 C15.8659682,37.4611153 16.0316232,37.9033137 16.3725375,38.0590727 C16.4535073,38.0961696 16.5369307,38.1136364 16.6192324,38.1136364 C16.8829625,38.1136364 17.1325317,37.9329592 17.2365656,37.6358634 L18.565942,33.8374759 C18.7022236,33.4479984 18.5364985,33.0058801 18.1955842,32.850041 Z" id="Path"></path>
                    <path d="M23.2234105,27.4772727 C23.2230366,27.4772727 23.222887,27.4772727 23.2227375,27.4772727 C22.8317036,27.4772727 22.5144046,27.807463 22.5136567,28.197559 C22.5136567,28.2388141 22.4828467,32.3759652 20.443847,37.122245 C20.289647,37.4813064 20.4563355,37.9007211 20.8164098,38.0546259 C20.9074939,38.0934937 21.0021677,38.1136364 21.095271,38.1136364 C21.3703183,38.1136364 21.6320545,37.9539126 21.747368,37.6855677 C23.9069906,32.6585591 23.9318182,28.3772016 23.9318182,28.197932 C23.9317434,27.807463 23.6146687,27.4772727 23.2234105,27.4772727 Z" id="Path"></path>
                </g>
                <text id="#" font-family="OpenSans-Bold, Open Sans" font-size="34" font-weight="bold" fill="#191919">
                    <tspan x="18" y="53">#</tspan>
                </text>
                <text id="=" font-family="OpenSans-Bold, Open Sans" font-size="24" font-weight="bold" fill="#191919">
                    <tspan x="46" y="50">=</tspan>
                </text>
            </g>
        </g>
    </g>
</svg>