<?xml version="1.0" encoding="UTF-8"?>
<svg width="122px" height="80px" viewBox="0 0 122 80" version="1.1" xmlns="http://www.w3.org/2000/svg" xmlns:xlink="http://www.w3.org/1999/xlink">
    <!-- Generator: Sketch 53.2 (72643) - https://sketchapp.com -->
    <title>hiw_1</title>
    <desc>Created with Sketch.</desc>
    <g id="How-it-works" stroke="none" stroke-width="1" fill="none" fill-rule="evenodd">
        <g id="Artboard" transform="translate(-243.000000, -326.000000)" fill-rule="nonzero">
            <g id="hiw_1" transform="translate(243.000000, 326.000000)">
                <rect id="Rectangle" fill="#FFFFFF" opacity="0.00667317708" x="0" y="0" width="122" height="80"></rect>
                <path d="M80.5554956,38.7333775 C80.9061618,38.7322733 81.2232724,38.5263466 81.3652722,38.207795 L81.3714945,38.1936617 L84.919934,30.2595741 C84.9717117,30.146618 84.9989339,30.0241661 84.9999339,29.900058 L84.9999339,14.8834148 C85.0058228,14.4014468 84.61749,14.0059349 84.1324906,14.0000828 C84.1253795,13.9999724 84.1181573,13.9999724 84.1110462,14.0000828 L68.1110683,14.0000828 C67.7725132,13.9982057 67.4624025,14.1876804 67.3110694,14.4885654 L63.7555187,21.555221 L63.7644076,21.555221 C63.7006299,21.6772312 63.6671855,21.8126019 63.6666299,21.9500704 L63.6666299,29.016726 L58.333304,29.016726 L58.333304,14.8834148 C58.3391928,14.4014468 57.95086,14.0059349 57.4658607,14.0000828 C57.4587496,13.9999724 57.4515274,13.9999724 57.4444163,14.0000828 L41.4444383,14.0000828 C41.1075499,13.9999724 40.7994392,14.1891159 40.6488839,14.4885654 L37.0933332,21.555221 L37.1022221,21.555221 C37.0368888,21.6769 37.0018889,21.8122706 37,21.9500704 L37,37.8500455 C37,38.3378656 37.3979995,38.7333775 37.8888877,38.7333775 L44.999989,38.7333775 L44.999989,42.2667053 L41.4444383,42.2667053 C41.1075499,42.2665949 40.7994392,42.4557384 40.6488839,42.7551879 L37.0933332,49.8218435 L37.1022221,49.8218435 C37.0368888,49.9435225 37.0018889,50.0788931 37,50.2166929 L37,66.116668 C37,66.6044881 37.3979995,67 37.8888877,67 L53.8888656,67 C54.2395318,66.9988958 54.5566425,66.7929691 54.6986423,66.4744175 L54.7048645,66.4602842 L58.0221933,59.0500124 L63.6666299,59.0500124 L63.6666299,66.116668 C63.6666299,66.6044881 64.0646294,67 64.5555176,67 L80.5554956,67 C80.9061618,66.9988958 81.2232724,66.7929691 81.3652722,66.4744175 L81.3714945,66.4602842 L84.919934,58.5261966 C84.9717117,58.4132405 84.9989339,58.2907886 84.9999339,58.1666805 L84.9999339,43.1500373 C85.0058228,42.6680693 84.61749,42.2725574 84.1324906,42.2667053 C84.1253795,42.2665949 84.1181573,42.2665949 84.1110462,42.2667053 L73.4443943,42.2667053 L73.4443943,38.7333775 L80.5554956,38.7333775 Z M83.2221586,29.7127916 L81.4443832,33.6877854 L81.4443832,22.1585367 L83.2221586,18.6252089 L83.2221586,29.7127916 Z M68.6604008,15.7667467 L82.672826,15.7667467 L80.006163,21.0667384 L65.9937379,21.0667384 L68.6604008,15.7667467 Z M54.7777533,29.016726 L54.7777533,22.1585367 L56.5555286,18.6252089 L56.5555286,29.016726 L54.7777533,29.016726 L54.7777533,29.016726 Z M56.0764182,30.7833899 L54.7777533,33.6877854 L54.7777533,30.7833899 L56.0764182,30.7833899 Z M41.9937709,15.7667467 L56.006196,15.7667467 L53.3395331,21.0667384 L39.3271079,21.0667384 L41.9937709,15.7667467 Z M38.7777753,36.9667136 L38.7777753,22.8334023 L52.999978,22.8334023 L52.999978,29.016726 L44.999989,29.016726 L44.999989,30.7833899 L52.999978,30.7833899 L52.999978,36.9667136 L38.7777753,36.9667136 Z M41.9937709,44.0333692 L44.999989,44.0333692 L44.999989,49.3333609 L39.3271079,49.3333609 L41.9937709,44.0333692 Z M52.999978,65.2333361 L38.7777753,65.2333361 L38.7777753,51.1000248 L44.999989,51.1000248 L44.999989,59.0500124 L46.7777643,59.0500124 L46.7777643,51.1000248 L52.999978,51.1000248 L52.999978,65.2333361 Z M53.3395331,49.3333609 L46.7777643,49.3333609 L46.7777643,44.0333692 L56.006196,44.0333692 L53.3395331,49.3333609 Z M54.7777533,61.9544079 L54.7777533,59.0500124 L56.0764182,59.0500124 L54.7777533,61.9544079 Z M56.5555286,57.2833485 L54.7777533,57.2833485 L54.7777533,50.4251592 L56.5555286,46.8918314 L56.5555286,57.2833485 Z M63.7555187,49.8218435 L63.7644076,49.8218435 C63.7006299,49.9438537 63.6671855,50.0792244 63.6666299,50.2166929 L63.6666299,57.2833485 L58.333304,57.2833485 L58.333304,43.1500373 C58.3391928,42.6680693 57.95086,42.2725574 57.4658607,42.2667053 C57.4587496,42.2665949 57.4515274,42.2665949 57.4444163,42.2667053 L46.7777643,42.2667053 L46.7777643,38.7333775 L53.8888656,38.7333775 C54.2395318,38.7322733 54.5566425,38.5263466 54.6986423,38.207795 L54.7048645,38.1936617 L58.0221933,30.7833899 L63.6666299,30.7833899 L63.6666299,37.8500455 C63.6666299,38.3378656 64.0646294,38.7333775 64.5555176,38.7333775 L71.6666189,38.7333775 L71.6666189,42.2667053 L68.1110683,42.2667053 C67.7725132,42.2648282 67.4624025,42.4543029 67.3110694,42.7551879 L63.7555187,49.8218435 Z M71.6666189,44.0333692 L71.6666189,49.3333609 L65.9937379,49.3333609 L68.6604008,44.0333692 L71.6666189,44.0333692 Z M79.6666079,65.2333361 L65.4444053,65.2333361 L65.4444053,59.0500124 L73.4443943,59.0500124 L73.4443943,57.2833485 L65.4444053,57.2833485 L65.4444053,51.1000248 L79.6666079,51.1000248 L79.6666079,65.2333361 Z M83.2221586,57.9794141 L81.4443832,61.9544079 L81.4443832,50.4251592 L83.2221586,46.8918314 L83.2221586,57.9794141 Z M82.672826,44.0333692 L80.006163,49.3333609 L73.4443943,49.3333609 L73.4443943,44.0333692 L82.672826,44.0333692 Z M71.6666189,29.016726 L71.6666189,36.9667136 L65.4444053,36.9667136 L65.4444053,22.8334023 L79.6666079,22.8334023 L79.6666079,36.9667136 L73.4443943,36.9667136 L73.4443943,29.016726 L71.6666189,29.016726 Z" id="Shape" fill="#000000"></path>
            </g>
        </g>
    </g>
</svg>