<?xml version="1.0" encoding="UTF-8"?>
<svg width="122px" height="102px" viewBox="0 0 122 102" version="1.1" xmlns="http://www.w3.org/2000/svg" xmlns:xlink="http://www.w3.org/1999/xlink">
    <!-- Generator: Sketch 53.2 (72643) - https://sketchapp.com -->
    <title>hiw_12</title>
    <desc>Created with Sketch.</desc>
    <g id="How-it-works" stroke="none" stroke-width="1" fill="none" fill-rule="evenodd">
        <g id="Artboard" transform="translate(-243.000000, -2130.000000)" fill-rule="nonzero">
            <g id="hiw_12" transform="translate(243.000000, 2130.000000)">
                <rect id="Rectangle-Copy-11" fill="#FFFFFF" opacity="0.00667317708" x="0" y="0" width="122" height="102"></rect>
                <rect id="Rectangle" stroke="#191919" stroke-width="1.62" fill="#FFFFFF" x="32.81" y="17.81" width="56.38" height="66.38" rx="14.58"></rect>
                <rect id="Rectangle" fill="#191919" x="50.125" y="71.4" width="21.75" height="5.44"></rect>
                <g id="Group-2" opacity="0.79906064" style="mix-blend-mode: darken;" transform="translate(41.062500, 28.786667)">
                    <g id="Group-19" style="mix-blend-mode: darken;">
                        <g id="Group-10" transform="translate(8.376801, 7.356960)" fill="#AFAFAF">
                            <path d="M2.71588276,14.4094934 C4.21582339,14.4094934 5.43176552,12.7966559 5.43176552,10.80712 C5.43176552,9.4807628 4.75279483,5.87838946 3.39485345,0 C1.13161782,5.87838946 0,9.4807628 0,10.80712 C0,12.7966559 1.21594213,14.4094934 2.71588276,14.4094934 Z" id="Oval-17"></path>
                            <path d="M20.8217678,14.4094934 C22.3217085,14.4094934 23.5376506,12.7966559 23.5376506,10.80712 C23.5376506,9.4807628 22.8586799,5.87838946 21.5007385,0 C19.2375029,5.87838946 18.1058851,9.4807628 18.1058851,10.80712 C18.1058851,12.7966559 19.3218272,14.4094934 20.8217678,14.4094934 Z" id="Oval-17" transform="translate(20.821768, 7.204747) scale(-1, 1) translate(-20.821768, -7.204747) "></path>
                        </g>
                        <g id="Group-4" stroke="#191919" stroke-width="1.62">
                            <g id="Group">
                                <path d="M19.9528773,13.5869443 C19.5867532,8.40402418 17.8477845,5.81256411 14.7359713,5.81256411 C10.0682514,5.81256411 6.59669757,11.9423296 6.59669757,17.1225665 C6.59669757,19.828884 8.24147214,22.3946461 10.4142262,22.3946461 C12.5869803,22.3946461 13.7591629,20.3033199 13.7591629,17.1225665 C13.7591629,10.4622619 8.02852068,0 4.11762305,0 C0.206725416,8.46590743e-16 -2.18326354,18.2138052 2.87237656,26.325115 C6.84716209,32.702293 12.5406623,35.890882 19.9528773,35.890882" id="Path-Copy-7"></path>
                                <path d="M39.9057546,13.5869443 C39.5396305,8.40402418 37.8006618,5.81256411 34.6888485,5.81256411 C30.0211287,5.81256411 26.5495749,11.9423296 26.5495749,17.1225665 C26.5495749,19.828884 28.1943494,22.3946461 30.3671035,22.3946461 C32.5398576,22.3946461 33.7120401,20.3033199 33.7120401,17.1225665 C33.7120401,10.4622619 27.981398,0 24.0705003,0 C20.1596027,8.46590743e-16 17.7696137,18.2138052 22.8252538,26.325115 C26.8000394,32.702293 32.4935396,35.890882 39.9057546,35.890882" id="Path-Copy-6" transform="translate(29.929316, 17.945441) scale(-1, 1) translate(-29.929316, -17.945441) "></path>
                            </g>
                        </g>
                        <ellipse id="Oval-15" stroke="#191919" stroke-width="1.62" fill="#FFFFFF" cx="20.3436593" cy="13.4877594" rx="2.9917146" ry="3.06539986"></ellipse>
                        <path d="M24.810784,26.5357415 C24.6323249,26.5512897 24.408041,26.5818623 24.1124074,26.6298736 C23.9143112,26.6620447 23.0942533,26.8043577 22.9079949,26.8354367 C21.5822965,27.0566427 20.5470702,27.1684847 19.4461449,27.1684847 C18.3452197,27.1684847 17.3099933,27.0566427 15.984295,26.8354367 C15.7980365,26.8043577 14.9779786,26.6620447 14.7798825,26.6298736 C14.4842489,26.5818623 14.2599649,26.5512897 14.0815059,26.5357415 C14.6891324,27.3880645 17.1217595,28.6536946 19.4461449,28.6536946 C21.7705303,28.6536946 24.2031575,27.3880645 24.810784,26.5357415 Z M13.7110367,26.525607 C13.7075627,26.5255729 13.7064274,26.525314 13.7077173,26.5247004 C13.7096165,26.523797 13.7115086,26.5228734 13.7133936,26.5219302 Z" id="Oval-10-Copy-2" stroke="#191919" stroke-width="1.548288" fill="#242424"></path>
                    </g>
                </g>
            </g>
        </g>
    </g>
</svg>