<?xml version="1.0" encoding="UTF-8"?>
<svg width="303px" height="290px" viewBox="0 0 303 290" version="1.1" xmlns="http://www.w3.org/2000/svg" xmlns:xlink="http://www.w3.org/1999/xlink">
    <!-- Generator: Sketch 53.2 (72643) - https://sketchapp.com -->
    <title>auhtorship</title>
    <desc>Created with Sketch.</desc>
    <defs>
        <linearGradient x1="100%" y1="0%" x2="0%" y2="0%" id="linearGradient-1">
            <stop stop-color="#FE5D26" offset="0%"></stop>
            <stop stop-color="#D18E06" offset="100%"></stop>
        </linearGradient>
        <filter x="-52.9%" y="-57.3%" width="205.7%" height="213.6%" filterUnits="objectBoundingBox" id="filter-2">
            <feOffset dx="0" dy="3" in="SourceAlpha" result="shadowOffsetOuter1"></feOffset>
            <feGaussianBlur stdDeviation="3" in="shadowOffsetOuter1" result="shadowBlurOuter1"></feGaussianBlur>
            <feColorMatrix values="0 0 0 0 0   0 0 0 0 0   0 0 0 0 0  0 0 0 0.5 0" type="matrix" in="shadowBlurOuter1" result="shadowMatrixOuter1"></feColorMatrix>
            <feMerge>
                <feMergeNode in="shadowMatrixOuter1"></feMergeNode>
                <feMergeNode in="SourceGraphic"></feMergeNode>
            </feMerge>
        </filter>
        <linearGradient x1="100%" y1="47.2370356%" x2="-6.34558088%" y2="52.7629644%" id="linearGradient-3">
            <stop stop-color="#47BBFB" offset="0%"></stop>
            <stop stop-color="#F0A202" offset="100%"></stop>
        </linearGradient>
        <linearGradient x1="45.5764889%" y1="1.95765838%" x2="54.4235111%" y2="97.9107938%" id="linearGradient-4">
            <stop stop-color="#40A5DD" offset="0%"></stop>
            <stop stop-color="#F26A8D" offset="100%"></stop>
        </linearGradient>
        <linearGradient x1="72.7420227%" y1="0%" x2="27.2579773%" y2="100%" id="linearGradient-5">
            <stop stop-color="#48BBF9" offset="0%"></stop>
            <stop stop-color="#FE5D26" offset="100%"></stop>
        </linearGradient>
        <linearGradient x1="0%" y1="45.2097506%" x2="100%" y2="54.7902494%" id="linearGradient-6">
            <stop stop-color="#FE5D26" offset="0%"></stop>
            <stop stop-color="#F26A8D" offset="100%"></stop>
        </linearGradient>
    </defs>
    <g id="Landing_Page-2" stroke="none" stroke-width="1" fill="none" fill-rule="evenodd">
        <g id="cma_3-list-1-copy-36" transform="translate(-166.000000, -1549.000000)">
            <g id="auhtorship" transform="translate(162.000000, 1550.000000)">
                <g id="Group-25">
                    <g id="Group-28" transform="translate(48.500000, 0.000000)">
                        <g id="Group-15" transform="translate(0.000000, 91.120000)">
                            <g id="Group" transform="translate(0.000000, 0.000000)">
                                <path d="M148.562191,175.625532 L114.611511,175.625532 C114.611511,173.905162 115.318839,172.346646 116.459027,171.220099 C117.599214,170.090336 119.1766,169.394685 120.9178,169.394685 L120.976382,169.394685 C120.976382,169.394685 128.182019,168.465363 128.182019,162.650406 L128.182019,127.955745 L134.992768,127.955745 L134.992768,162.650406 C134.992768,168.465363 142.19732,169.394685 142.19732,169.394685 L142.256987,169.394685 C145.739387,169.394685 148.562191,172.18372 148.562191,175.625532" id="Fill-7" fill="#47377F"></path>
                                <polyline id="Fill-8" fill="#392E7A" points="134.730433 127.955745 134.730433 129.492876 128.443269 131.719149 128.443269 127.955745 134.730433 127.955745"></polyline>
                                <path d="M163.651383,127.955745 L98.2648869,127.955745 C99.3446679,122.133219 104.548039,117.903088 110.612845,117.920051 L130.958135,117.97306 L151.303424,117.920051 C157.36823,117.903088 162.570515,122.133219 163.651383,127.955745" id="Fill-9" fill="#544186"></path>
                                <path d="M118.454382,43.0680279 C116.633118,49.8190518 107.449413,67.4075622 103.88427,69.9278571 C99.243371,73.2088307 84.6917879,79.367487 77.1222617,82.5085656 C75.7565862,83.0757959 80.8214657,89.067234 80.8214657,89.067234 C80.8214657,89.067234 100.396511,84.0758262 108.371489,78.9707537 C110.627633,77.5269941 115.515945,72.6241135 121.702357,62.792122 C123.578117,59.8117039 127.922557,53.8880274 128.404303,49.6583912 C128.959075,44.7893914 123.488743,41.4395633 118.454382,43.0680279" id="Fill-10" fill="#C7481C"></path>
                                <path d="M96.7381702,160.571915 L97.0074543,167.307388 C97.0074543,167.307388 95.0795199,168.541039 91.0913306,167.927721 L89.4628586,160.684156 L96.7381702,160.571915" id="Fill-11" fill="#F0A980"></path>
                                <path d="M92.0715484,167.303108 C92.0715484,167.303108 90.7909435,165.531162 89.7542112,165.591283 C88.7163854,165.651405 80.6281242,171.89093 77.8810025,172.377368 C75.1338808,172.862713 75.2705807,176.277618 76.3488697,176.665676 C77.5791691,177.108389 97.8894972,176.727984 97.8894972,176.727984 C97.8894972,176.727984 98.6615784,169.504651 97.991202,167.551246 C97.3219191,165.598935 94.207348,167.792826 92.0715484,167.303108" id="Fill-12" fill="#DF503D"></path>
                                <path d="M87.6924416,170.592684 C87.7913853,170.618198 87.9038213,170.61182 88.0016406,170.568082 C88.1916574,170.482428 88.2613677,170.288342 88.1568023,170.133437 C88.1208227,170.082409 87.2831745,168.861393 86.1329543,168.37481 C84.604949,167.726942 83.3906402,168.418548 83.340044,168.447706 C83.1623951,168.551584 83.1230425,168.751138 83.2500952,168.894197 C83.3771479,169.038167 83.6245071,169.07006 83.8010316,168.967093 C83.8336381,168.947958 84.6791568,168.481421 85.7686616,168.94158 C86.7052535,169.337954 87.4585747,170.431401 87.4653209,170.442335 C87.5159171,170.517054 87.5991197,170.568993 87.6924416,170.592684" id="Fill-13" fill="#FFFFFE"></path>
                                <path d="M88.9494265,169.33822 C89.0483603,169.363728 89.1596609,169.357351 89.2585948,169.313623 C89.4485928,169.228901 89.5194205,169.033949 89.4137411,168.87908 C89.3788894,168.828065 88.5402,167.607337 87.3900937,167.120868 C85.8611157,166.472243 84.6480515,167.163685 84.5974603,167.193747 C84.4198291,167.296689 84.3804804,167.497107 84.5075205,167.640133 C84.6345605,167.783158 84.8818952,167.815954 85.0584022,167.712101 C85.0921297,167.693881 85.9364404,167.227454 87.0258372,167.687504 C87.965709,168.085607 88.7155828,169.176063 88.7223283,169.187906 C88.7729194,169.262608 88.8561138,169.314534 88.9494265,169.33822" id="Fill-14" fill="#FFFFFE"></path>
                                <path d="M86.4354207,171.847158 C86.5343612,171.872663 86.6456692,171.866286 86.7434854,171.822564 C86.9346205,171.736941 87.0043285,171.542922 86.8986421,171.388071 C86.8637881,171.336151 86.0261668,170.115565 84.8759835,169.629152 C83.3457788,168.981512 82.1337577,169.672874 82.0820388,169.702933 C81.9055199,169.805863 81.8650443,170.006258 81.9932172,170.148356 C82.1202658,170.291365 82.367617,170.325068 82.5441359,170.221227 C82.5767412,170.202099 83.4222328,169.736636 84.5105783,170.196633 C85.4516373,170.59469 86.200437,171.68502 86.2083073,171.695951 C86.2589018,171.771554 86.3409775,171.823475 86.4354207,171.847158" id="Fill-15" fill="#FFFFFE"></path>
                                <path d="M114.976706,97.0816551 C114.976706,97.0816551 82.3281413,93.8547773 77.3841974,104.003248 C74.0544705,110.838689 88.5910451,161.516702 88.5910451,161.516702 C91.518834,162.440381 95.5867042,161.154647 97.176137,159.546115 C97.176137,159.546115 99.7623326,152.49693 97.3873429,132.10075 C97.0716116,129.390783 97.3873429,123.207479 94.5349847,112.257469 L115.868943,102.725147 L114.976706,97.0816551" id="Fill-16" fill="#202930"></path>
                                <path d="M140.849663,35.5527867 C140.849663,35.5527867 148.636801,38.1015449 152.799376,41.7644374 C156.961951,45.4273299 153.479994,56.3586224 153.581547,62.5648594 C153.683099,68.7721792 152.662172,104.807765 143.789286,109.335763 C137.088977,112.75504 108.884371,107.563326 110.946753,98.3514166 C112.318793,92.2231365 114.919187,80.9616098 116.725526,65.7253629 C117.917148,55.6754166 117.414787,48.2521855 118.530785,44.0793248 C119.647864,39.9075469 132.684405,35.1251064 132.684405,35.1251064 L140.849663,35.5527867" id="Fill-17" fill="#FE5D26"></path>
                                <path d="M135.395033,42.6519149 C139.505373,42.6519149 143.298522,38.301845 143.462586,38.1112913 C143.566493,37.9904257 143.553367,37.8074941 143.430867,37.7040507 C143.30946,37.5995183 143.126802,37.6136738 143.021801,37.7356282 C142.982426,37.7813611 139.010994,42.337229 135.040656,42.0617427 C134.882061,42.0508539 134.74206,42.1717194 134.731123,42.3306957 C134.720185,42.489672 134.840499,42.6268707 135.000187,42.6388484 C135.131438,42.6475594 135.263783,42.6519149 135.395033,42.6519149" id="Fill-18" fill="#D73831"></path>
                                <path d="M138.203873,91.5761702 C138.353513,91.5761702 138.482901,91.4695594 138.500903,91.3256348 C138.518905,91.1699829 138.401893,91.0303227 138.237627,91.0121989 C127.3139,89.8213559 122.788693,71.9043393 122.744814,71.7231008 C122.707685,71.5717135 122.546794,71.4768298 122.387027,71.5120114 C122.226136,71.547193 122.126001,71.6996465 122.164255,71.8510338 C122.348774,72.6058385 126.832351,90.3373523 138.17012,91.574038 C138.181371,91.5751041 138.192622,91.5761702 138.203873,91.5761702" id="Fill-19" fill="#D73831"></path>
                                <path d="M134.426535,85.3038298 C134.528387,85.3038298 134.627951,85.2591117 134.685171,85.1757735 C134.77329,85.0497498 134.728658,84.8830733 134.586752,84.8048166 C128.677038,81.5688534 127.798134,76.8002794 127.790123,76.7525123 C127.764946,76.6051459 127.611595,76.5024976 127.444512,76.525873 C127.278573,76.548232 127.164133,76.6854352 127.189309,76.8317853 C127.223642,77.037082 128.107123,81.8910268 134.267463,85.2641933 C134.316672,85.2916339 134.372748,85.3038298 134.426535,85.3038298" id="Fill-20" fill="#D73831"></path>
                                <path d="M125.928404,15.0541478 C125.928404,21.2897465 130.995019,26.3438298 137.244766,26.3438298 C143.494513,26.3438298 148.562191,21.2897465 148.562191,15.0541478 C148.562191,8.81748756 143.494513,3.76340426 137.244766,3.76340426 C130.995019,3.76340426 125.928404,8.81748756 125.928404,15.0541478" id="Fill-21" fill="#202930"></path>
                                <path d="M126.26953,13.7991489 C126.26953,13.7991489 123.024698,12.8825077 123.452387,9.66214434 C123.816514,6.91993277 126.965466,8.69812862 126.6886,6.5552594 C126.411733,4.41239018 125.796594,2.46452756 128.507085,1.93018742 C130.877148,1.46084948 130.917008,3.12226171 134.029331,0.712773285 C137.707238,-2.13520458 140.531922,4.4575612 143.813382,4.65697474 C148.654775,4.94893378 149.265605,7.74843543 149.741772,9.98825709 C150.217939,12.2280787 148.354208,13.7991489 148.354208,13.7991489 L126.26953,13.7991489" id="Fill-22" fill="#202930"></path>
                                <path d="M127.830826,18.7808154 C127.830826,18.7808154 126.238284,16.3469553 125.054983,18.3594662 C123.870736,20.3719771 125.544559,26.3141917 128.443269,24.8638407 L127.830826,18.7808154" id="Fill-23" fill="#E98867"></path>
                                <path d="M128.108084,23.8348936 C127.962295,23.8348936 127.828118,23.7444022 127.786833,23.6037736 C127.174004,21.5322537 124.909764,20.6921508 124.886541,20.6848137 C124.713658,20.622448 124.627217,20.4390194 124.693016,20.2763794 C124.758814,20.1125165 124.951049,20.0305851 125.123931,20.091728 C125.229725,20.1296365 127.723615,21.0467794 128.430625,23.4325736 C128.480942,23.6013279 128.376438,23.7761965 128.199686,23.822665 C128.168722,23.831225 128.139048,23.8348936 128.108084,23.8348936" id="Fill-24" fill="#E26351"></path>
                                <path d="M126.164677,22.5804255 C126.12091,22.5804255 126.077142,22.5669084 126.037023,22.5377945 C125.926693,22.4566916 125.895691,22.2903266 125.965901,22.1645132 C125.977755,22.1437175 126.261329,21.6519011 126.853097,21.3493249 C126.971633,21.2890176 127.112052,21.3493249 127.164938,21.4855362 C127.218735,21.6217475 127.164938,21.780834 127.046402,21.8411413 C126.588671,22.075092 126.365276,22.4535723 126.363452,22.4566916 C126.318773,22.5367547 126.242181,22.5804255 126.164677,22.5804255" id="Fill-25" fill="#E26351"></path>
                                <path d="M141.017596,30.107234 L141.017596,36.0514171 C141.017596,36.0514171 138.543232,38.6716078 136.116303,38.8775188 C133.691581,39.0866983 132.215567,36.240986 132.215567,36.240986 L132.215567,30.525593 L141.017596,30.107234" id="Fill-26" fill="#F0A980"></path>
                                <path d="M141.017596,30.107234 L141.017596,33.0410685 C139.389347,35.0260419 136.49689,35.5228912 132.215567,34.828514 L132.215567,30.5725758 L141.017596,30.107234" id="Fill-27" fill="#E98867"></path>
                                <path d="M147.297635,15.0670406 C147.187432,17.3999229 146.967027,20.3182267 146.525125,22.651109 C146.414922,23.2332292 146.290535,23.7812365 146.151963,24.2709217 C144.899362,28.6945948 141.765677,36.2819645 132.992013,33.1215691 C129.118551,31.7262414 127.322574,27.3740953 126.521695,22.9482214 C125.97941,19.9418843 125.897576,16.9036352 125.936857,14.7336145 C125.97941,12.5173763 127.178547,10.49151 129.090182,9.39989717 C134.267528,6.43867718 139.731837,7.54349504 143.329246,8.93772236 C145.826811,9.9049882 147.425296,12.3776234 147.297635,15.0670406" id="Fill-28" fill="#F0A980"></path>
                                <path d="M137.717691,18.7493964 C137.717691,18.3646159 138.01684,18.0553238 138.384481,18.0553238 L142.393278,18.0553238 C142.761926,18.0553238 143.05906,18.3646159 143.05906,18.7493964 L143.05906,19.282008 C143.05906,20.0536657 142.770991,20.7896763 142.266366,21.3002705 C141.763756,21.8087678 141.194668,22.0729767 140.575218,22.087655 L140.47953,22.087655 C139.748278,22.087655 139.059329,21.7919926 138.537581,21.2530903 C138.009789,20.7058004 137.717691,19.9781775 137.717691,19.200229 L137.717691,18.7493964 Z M137.245298,18.7493964 L137.245298,19.200229 C137.245298,20.1092335 137.585743,20.9616218 138.205193,21.6022235 C138.81457,22.2333892 139.622373,22.5804255 140.47953,22.5804255 L140.58529,22.5804255 C141.32863,22.5636504 142.004485,22.2512128 142.597746,21.6535975 C143.192015,21.0496914 143.532461,20.1857702 143.532461,19.282008 L143.532461,18.7493964 C143.532461,18.6015652 143.505265,18.4600247 143.456918,18.3289687 C143.399506,18.1696046 143.311876,18.0291126 143.198059,17.9106379 C142.991575,17.6957061 142.708542,17.5625532 142.393278,17.5625532 L138.384481,17.5625532 C137.931225,17.5625532 137.53941,17.838295 137.357101,18.2388022 C137.289616,18.3845365 137.250334,18.5470459 137.246305,18.7179429 C137.245298,18.727379 137.245298,18.7389119 137.245298,18.7493964 L137.245298,18.7493964 Z" id="Fill-29" fill="#202930"></path>
                                <path d="M128.915587,18.7493964 C128.915587,18.3646159 129.215695,18.0553238 129.58227,18.0553238 L133.591432,18.0553238 C133.959014,18.0553238 134.258115,18.3646159 134.258115,18.7493964 L134.258115,19.282008 C134.258115,20.0536657 133.968077,20.7896763 133.465548,21.3002705 C132.963018,21.8087678 132.394021,22.0729767 131.77467,22.087655 L131.676984,22.087655 C130.945848,22.087655 130.25701,21.7919926 129.73736,21.2530903 C129.207639,20.7058004 128.915587,19.9781775 128.915587,19.200229 L128.915587,18.7493964 Z M128.443269,18.7493964 L128.443269,19.200229 C128.443269,20.1092335 128.784668,20.9616218 129.403011,21.6022235 C130.013298,22.2333892 130.818957,22.5804255 131.676984,22.5804255 L131.783734,22.5804255 C132.525948,22.5636504 133.203708,22.2512128 133.794861,21.6535975 C134.389034,21.0496914 134.730433,20.1857702 134.730433,19.282008 L134.730433,18.7493964 C134.730433,18.7410088 134.730433,18.7336697 134.729425,18.7263305 C134.727411,18.5648695 134.693171,18.4107477 134.633753,18.2723525 C134.456508,17.8529733 134.0567,17.5625532 133.591432,17.5625532 L129.58227,17.5625532 C129.230801,17.5625532 128.915587,17.7303049 128.706116,17.9913684 C128.605408,18.1192791 128.528871,18.2681587 128.487581,18.4306682 C128.457369,18.5323676 128.443269,18.6393093 128.443269,18.7493964 L128.443269,18.7493964 Z" id="Fill-30" fill="#202930"></path>
                                <path d="M147.304759,17.5687902 C145.660611,17.5066465 144.487088,17.9245093 144.023759,18.1280834 C143.893638,18.1837985 143.54827,18.3820154 143.532461,18.3895155 L143.804864,18.8170213 C143.808512,18.8159498 144.186715,18.61559 144.335077,18.5555892 C144.791109,18.3680867 145.801677,17.9930816 147.304759,18.0712969 L147.304759,17.5687902" id="Fill-31" fill="#202930"></path>
                                <path d="M137.101751,18.6156791 L137.245298,18.0599498 C137.22013,18.0474051 136.605862,17.7638953 135.931006,17.7638953 C135.21234,17.7638953 134.750007,18.0599498 134.730433,18.0724945 L134.921518,18.60188 C134.924314,18.6006255 135.319534,18.3522409 135.931006,18.3522409 C136.529428,18.3522409 137.096158,18.6131702 137.101751,18.6156791" id="Fill-32" fill="#202930"></path>
                                <path d="M125.928404,17.5688255 L125.928404,18.1584255 C127.097997,18.258783 128.17975,18.8044766 128.19419,18.8107489 L128.443269,18.2826179 C128.379495,18.2500017 127.219529,17.6654196 125.928404,17.5688255" id="Fill-33" fill="#202930"></path>
                                <path d="M132.215567,20.0714894 C132.215567,20.7641843 131.933325,21.3259574 131.586382,21.3259574 C131.23944,21.3259574 130.958135,20.7641843 130.958135,20.0714894 C130.958135,19.3787945 131.23944,18.8170213 131.586382,18.8170213 C131.933325,18.8170213 132.215567,19.3787945 132.215567,20.0714894" id="Fill-34" fill="#202930"></path>
                                <path d="M141.017596,20.0714894 C141.017596,20.7641843 140.735353,21.3259574 140.38841,21.3259574 C140.041468,21.3259574 139.760163,20.7641843 139.760163,20.0714894 C139.760163,19.3787945 140.041468,18.8170213 140.38841,18.8170213 C140.735353,18.8170213 141.017596,19.3787945 141.017596,20.0714894" id="Fill-35" fill="#202930"></path>
                                <path d="M129.775041,16.7110656 C129.775041,16.7110656 132.5743,15.8972087 134.730433,16.5826783 L134.550838,17.3183223 C134.550838,17.3183223 132.216116,16.9353743 129.929552,17.5625532 C129.786077,17.2231387 129.592437,17.06081 129.775041,16.7110656" id="Fill-36" fill="#202930"></path>
                                <path d="M143.458299,16.7110656 C143.458299,16.7110656 140.65894,15.8972087 138.50273,16.5826783 L138.682331,17.3183223 C138.682331,17.3183223 141.017137,16.9353743 143.303782,17.5625532 C143.446259,17.2231387 143.64091,17.06081 143.458299,16.7110656" id="Fill-37" fill="#202930"></path>
                                <path d="M135.905124,23.8348936 C136.439082,23.8348936 136.966946,23.666639 137.049844,23.6399163 C137.210763,23.5864707 137.287565,23.4360313 137.221735,23.3053866 C137.157123,23.1747418 136.971822,23.1113989 136.809684,23.1648445 C136.524418,23.2588691 135.839293,23.4063393 135.543055,23.2618383 C135.485759,23.2341258 135.407737,23.1787008 135.387013,23.0233127 C135.273638,22.1276045 135.575971,19.1247551 135.578409,19.0940734 C135.593038,18.9535314 135.462596,18.8298148 135.289486,18.817938 C135.115157,18.8060612 134.962771,18.9109728 134.949361,19.0525046 C134.935951,19.1782007 134.638495,22.1325532 134.759184,23.0757685 C134.80429,23.4310826 135.033478,23.6122037 135.218779,23.7022694 C135.421147,23.800253 135.663745,23.8348936 135.905124,23.8348936" id="Fill-38" fill="#E98867"></path>
                                <path d="M132.215567,25.0893617 C132.459312,26.4146967 133.268729,28.852766 135.995913,28.852766 C138.729996,28.852766 139.495723,26.6248107 139.760163,25.0893617 L132.215567,25.0893617" id="Fill-39" fill="#FFFFFE"></path>
                                <path d="M135.964938,31.2583029 C136.58369,31.2583029 137.107463,30.8317837 137.130516,30.8142212 C137.243017,30.7213905 137.27898,30.5219301 137.210742,30.3676305 C137.142504,30.2133309 136.994963,30.1644067 136.882462,30.2584918 C136.878774,30.2610007 136.447215,30.6084884 135.964938,30.6084884 C135.522314,30.6084884 135.099054,30.2635097 135.095365,30.2597463 C134.982865,30.1656612 134.835323,30.2120765 134.766163,30.3651216 C134.697003,30.5181667 134.731122,30.7176271 134.843622,30.8117122 C134.865754,30.8305292 135.381227,31.2583029 135.964938,31.2583029" id="Fill-40" fill="#E98867"></path>
                                <path d="M127.397426,21.3259574 C127.183574,20.1290558 126.971905,18.5850639 127.125747,17.7923545 C127.400699,16.3916773 128.53215,15.5676178 128.154636,14.2173247 C127.778213,12.8603137 129.169341,11.4081328 130.196048,11.1674089 C131.21839,10.923326 133.613312,11.4473204 135.970046,10.2985635 C138.219854,9.20131041 142.131378,9.98618229 142.768569,11.467474 C143.539963,13.2622666 142.490343,13.4313332 144.595038,15.3705601 C145.432988,16.1442355 144.439013,18.1528806 144.297173,19.4583878 C144.232799,20.0596378 144.222979,20.352985 144.246983,20.9979012 L144.255712,21.3259574 L146.773926,21.3259574 C147.052151,19.3005177 147.210358,17.0668239 147.297644,15.1981346 C147.425301,12.4617197 145.824685,9.94811433 143.328293,8.96282581 C139.731001,7.54423427 134.269051,6.41898999 129.088601,9.43307715 C127.178119,10.5460053 125.97793,12.6039147 125.93756,14.8588819 C125.904828,16.6100083 125.949562,18.9187184 126.241972,21.3259574 L127.397426,21.3259574" id="Fill-41" fill="#202930"></path>
                                <path d="M146.04807,21.6300779 C146.040944,20.9946081 146.084721,20.3570307 146.191621,19.7310455 C146.338226,18.8742678 146.578496,18.0965287 147.425549,17.7392745 C148.10767,17.4526281 148.835606,17.446305 149.352797,18.2419595 C150.628466,20.2000074 149.208228,26.2912436 146.08574,24.8790885 L146.04807,21.6300779" id="Fill-42" fill="#F0A980"></path>
                                <path d="M146.376226,23.8297479 C146.493699,23.8060875 146.585772,23.704993 146.595297,23.5770118 C146.738169,21.6917079 148.416655,20.5968765 148.433588,20.5861218 C148.561644,20.5043859 148.600801,20.3323102 148.520369,20.202178 C148.439938,20.0720458 148.270607,20.0322533 148.142551,20.1139892 C148.064236,20.163461 146.212188,21.3626132 146.048149,23.5350683 C146.036507,23.6877855 146.149747,23.8222196 146.301086,23.8340498 C146.326485,23.8362007 146.351885,23.8340498 146.376226,23.8297479" id="Fill-43" fill="#E98867"></path>
                                <path d="M148.387668,22.5740836 C148.427145,22.5630592 148.464943,22.5361108 148.496021,22.4907885 C148.582535,22.3695207 148.584215,22.1686326 148.50106,22.0424651 C148.486781,22.0216413 148.153324,21.5267707 147.570403,21.3344571 C147.45449,21.2940345 147.336898,21.4018281 147.31002,21.572093 C147.283982,21.7435828 147.357057,21.9138477 147.474649,21.9530454 C147.924859,22.1024866 148.186081,22.4809891 148.188601,22.4846639 C148.241518,22.5642842 148.317113,22.5949073 148.387668,22.5740836" id="Fill-44" fill="#E98867"></path>
                                <path d="M113.084794,160.571915 L113.354078,167.307388 C113.354078,167.307388 111.426144,168.541039 107.437954,167.927721 L105.809483,160.684156 L113.084794,160.571915" id="Fill-45" fill="#F0A980"></path>
                                <path d="M108.418523,167.303108 C108.418523,167.303108 107.137891,165.531162 106.100043,165.591283 C105.063288,165.651405 96.9748547,171.89093 94.2276744,172.377368 C91.4804941,172.862713 91.6171969,176.277618 92.6955089,176.665676 C93.9258345,177.108389 114.236596,176.727984 114.236596,176.727984 C114.236596,176.727984 115.0076,169.504651 114.338303,167.551246 C113.669006,165.598935 110.554368,167.792826 108.418523,167.303108" id="Fill-46" fill="#DF503D"></path>
                                <path d="M104.039122,170.592684 C104.138055,170.618198 104.249354,170.61182 104.348287,170.568082 C104.538283,170.482428 104.607985,170.288342 104.503432,170.133437 C104.467456,170.082409 103.629901,168.861393 102.479808,168.37481 C100.950847,167.726942 99.7377972,168.418548 99.6860824,168.447706 C99.5095774,168.551584 99.469105,168.751138 99.5972678,168.894197 C99.7243064,169.038167 99.9716382,169.07006 100.148143,168.967093 C100.180746,168.947958 101.026171,168.481421 102.115555,168.94158 C103.052044,169.337954 103.804157,170.431401 103.812027,170.442335 C103.862617,170.517054 103.945811,170.568993 104.039122,170.592684" id="Fill-47" fill="#FFFFFE"></path>
                                <path d="M104.03904,169.33822 C104.137989,169.363728 104.249306,169.357351 104.348254,169.313623 C104.538281,169.228901 104.607994,169.033949 104.503424,168.87908 C104.468567,168.828065 103.629753,167.607337 102.479476,167.120868 C100.949146,166.472243 99.7370258,167.163685 99.6853027,167.193747 C99.5098939,167.296689 99.4694149,167.497107 99.5964739,167.640133 C99.7235329,167.783158 99.9709043,167.815954 100.147438,167.712101 C100.18117,167.693881 101.025606,167.227454 102.115165,167.687504 C103.055176,168.085607 103.805162,169.176063 103.811908,169.187906 C103.862507,169.262608 103.945714,169.314534 104.03904,169.33822" id="Fill-48" fill="#FFFFFE"></path>
                                <path d="M101.524612,171.847158 C101.623552,171.872663 101.734861,171.866286 101.832677,171.822564 C102.023812,171.736941 102.09352,171.542922 101.987833,171.388071 C101.952979,171.336151 101.114234,170.115565 99.9651748,169.629152 C98.4349701,168.981512 97.222949,169.672874 97.1712301,169.702933 C96.9947112,169.805863 96.9542356,170.006258 97.0824085,170.148356 C97.2094571,170.291365 97.4568083,170.325068 97.6333272,170.221227 C97.6659325,170.202099 98.5114241,169.736636 99.5997696,170.196633 C100.540829,170.59469 101.289628,171.68502 101.297499,171.695951 C101.348093,171.771554 101.430169,171.823475 101.524612,171.847158" id="Fill-49" fill="#FFFFFE"></path>
                                <path d="M149.439264,98.5790396 C149.439264,98.5790396 98.6745213,94.7203523 93.7307991,104.739589 C90.4012215,111.487985 104.937144,161.520646 104.937144,161.520646 C107.864802,162.432562 111.932489,161.163201 113.521851,159.575153 C113.521851,159.575153 115.013157,155.95225 112.639351,135.816879 C112.323634,133.141422 115.229741,128.702425 112.376433,117.891856 L138.911765,117.891856 C145.818753,117.891856 150.470464,108.330192 149.745284,101.467672 L149.439264,98.5790396" id="Fill-50" fill="#374D58"></path>
                                <path d="M151.497604,40.1429787 C147.35044,46.329349 131.477793,67.7155298 127.896649,70.1999898 C123.233827,73.434313 108.616935,79.5054026 101.01453,82.6018199 C99.6427254,83.160985 104.730337,89.067234 104.730337,89.067234 C104.730337,89.067234 124.392142,84.1467964 132.402913,79.1143102 C134.669183,77.6910787 144.094456,68.4007494 150.102808,60.1597975 C152.161063,57.3370371 155.510106,53.4164169 155.995109,49.2458423 C156.552371,44.4460722 155.019628,41.8775758 151.497604,40.1429787" id="Fill-51" fill="#C7481C"></path>
                                <polygon id="Fill-52" fill="#E77A38" points="19.0466326 121.683404 152.334489 121.683404 152.334489 117.92 19.0466326 117.92"></polygon>
                                <polygon id="Fill-53" fill="#E77A38" points="15.2743347 131.719149 156.106787 131.719149 156.106787 127.955745 15.2743347 127.955745"></polygon>
                                <path d="M4.36305774,176.88 L29.0102671,99.2190709 C29.3462721,98.1617314 28.7704179,97.030116 27.7245888,96.690413 C26.6776793,96.3518022 25.5583829,96.9339943 25.2234583,97.9902414 L0.185143452,176.88 L4.36305774,176.88" id="Fill-54" fill="#EE9D4C"></path>
                                <path d="M154.444818,176.88 L158.621652,176.88 L133.583337,97.9902414 C133.248413,96.9339943 132.128036,96.3518022 131.082207,96.690413 C130.036378,97.030116 129.460523,98.1617314 129.796528,99.2190709 L154.444818,176.88" id="Fill-55" fill="#EE9D4C"></path>
                                <path d="M18.1937501,176.88 L42.8421231,99.2190709 C43.1781292,98.1617314 42.6011927,97.030116 41.5564405,96.690413 C40.5095275,96.3518022 39.3902273,96.9339943 39.0542211,97.9902414 L14.0169021,176.88 L18.1937501,176.88" id="Fill-56" fill="#EE9D4C"></path>
                                <path d="M168.276577,176.88 L172.453411,176.88 L147.415096,97.9902414 C147.079091,96.9339943 145.958714,96.3518022 144.913965,96.690413 C143.868136,97.030116 143.292282,98.1617314 143.628287,99.2190709 L168.276577,176.88" id="Fill-57" fill="#EE9D4C"></path>
                                <path d="M148.5872,99.1029787 L19.020537,99.1029787 C16.9518685,99.1029787 15.2743347,97.4179864 15.2743347,95.3390288 C15.2743347,93.2611626 16.9518685,91.5761702 19.020537,91.5761702 L148.5872,91.5761702 C150.656955,91.5761702 152.334489,93.2611626 152.334489,95.3390288 C152.334489,97.4179864 150.656955,99.1029787 148.5872,99.1029787" id="Fill-58" fill="#EE9D4C"></path>
                                <path d="M115.867311,91.5761702 L80.6624623,91.5761702 C79.2731122,91.5761702 78.1459652,90.49764 78.1459652,89.1671751 L78.1459652,88.966252 C78.1459652,87.6357871 79.2731122,86.5582979 80.6624623,86.5582979 L115.867311,86.5582979 C117.25775,86.5582979 118.383809,87.6357871 118.383809,88.966252 L118.383809,89.1671751 C118.383809,90.49764 117.25775,91.5761702 115.867311,91.5761702" id="Fill-59" fill="#47377F"></path>
                                <path d="M77.7103399,91.5761702 L69.4383332,61.0970298 C68.973342,59.3850588 70.2847711,57.7055319 72.0864746,57.7055319 L90.2892863,57.7055319 C91.5171709,57.7055319 92.5955548,58.509066 92.9275343,59.6727305 L102.037185,91.5761702 L77.7103399,91.5761702" id="Fill-60" fill="#544186"></path>
                                <path d="M93.3747595,59.6891391 L102.460316,91.5761702 L104.55205,91.5761702 L95.4675994,59.6891391 C95.1304012,58.5164131 94.0480503,57.7055319 92.8120255,57.7055319 L90.7202912,57.7055319 C91.9552105,57.7055319 93.0386669,58.5164131 93.3747595,59.6891391" id="Fill-61" fill="#47377F"></path>
                                <path d="M88.107547,75.2680851 C88.5769469,77.3465665 87.312842,79.0314894 85.2835062,79.0314894 C83.2541703,79.0314894 81.2281093,77.3465665 80.7587094,75.2680851 C80.2893095,73.1896037 81.5534144,71.5046809 83.5827502,71.5046809 C85.6120861,71.5046809 87.6381471,73.1896037 88.107547,75.2680851" id="Fill-62" fill="#47377F"></path>
                                <path d="M36.7088834,72.4782033 L41.9083655,90.5736273 C42.083677,91.1800126 42.627784,91.5761702 43.2905469,91.5761702 L72.5151853,91.5761702 C73.6814342,91.5761702 74.621061,90.4098822 74.3153349,89.3471233 L69.1158528,71.2516993 C68.9405413,70.6463704 68.3953654,70.2502128 67.7326024,70.2502128 L38.5079641,70.2502128 C37.345991,70.2502128 36.4031573,71.4154444 36.7088834,72.4782033" id="Fill-63" fill="#1E766A"></path>
                                <path d="M36.7103143,72.4782033 L42.0376387,90.5736273 C42.2172607,91.1800126 42.7747459,91.5761702 43.4538046,91.5761702 L69.9589961,91.5761702 C71.1495392,91.5761702 72.1122691,90.4098822 71.7990259,89.3471233 L66.4717014,71.2516993 C66.2953653,70.6463704 65.733499,70.2502128 65.0555356,70.2502128 L38.5536299,70.2502128 C37.3630868,70.2502128 36.3970711,71.4154444 36.7103143,72.4782033" id="Fill-64" fill="#009F7D"></path>
                                <path d="M56.7488435,80.2853885 C56.9654792,82.3642214 55.4626397,84.0493617 53.3904226,84.0493617 C51.3193396,84.0493617 49.462624,82.3642214 49.2459882,80.2853885 C49.0282183,78.2065557 50.5310578,76.5225532 52.6032749,76.5225532 C54.6754921,76.5225532 56.5310735,78.2065557 56.7488435,80.2853885" id="Fill-65" fill="#1E766A"></path>
                                <polyline id="Fill-66" fill="#DF503D" points="32.8783913 71.5046809 32.7326448 73.259915 32.4358713 76.7869422 32.227813 79.3049858 31.9954636 82.0427095 31.9859584 82.1718683 31.7250934 85.3103153 31.2044196 91.5761702 21.979093 91.5761702 21.9104443 90.7824511 21.6316251 87.407765 21.4605314 85.3732388 21.1838244 82.0427095 21.1785438 81.9886174 21.0085063 79.9596108 20.7465851 76.7869422 20.7265186 76.5584306 20.3040652 71.5046809 32.8783913 71.5046809"></polyline>
                                <polyline id="Fill-67" fill="#E88577" points="32.8783913 76.5225532 32.6545801 78.926621 32.4046386 81.5404255 20.7744095 81.5404255 20.768729 81.4887818 20.5858173 79.5516154 20.3040652 76.5225532 32.8783913 76.5225532"></polyline>
                                <polygon id="Fill-68" fill="#D73831" points="20.3040652 71.5046809 34.1358239 71.5046809 34.1358239 68.9957447 20.3040652 68.9957447"></polygon>
                                <path d="M32.8783913,68.9957447 L20.3040652,68.9957447 L20.3040652,68.8966074 C20.3040652,67.5658798 21.2615184,66.4868085 22.4422645,66.4868085 L30.7413197,66.4868085 C31.9220658,66.4868085 32.8783913,67.5658798 32.8783913,68.8966074 L32.8783913,68.9957447" id="Fill-69" fill="#B42F30"></path>
                                <path d="M137.852941,80.037642 C137.852941,80.037642 137.618366,80.2488033 137.136504,80.2806367 C136.990905,80.2923089 136.823351,80.2859422 136.630375,80.2498644 C136.425843,80.2159088 136.193579,80.1490588 135.937048,80.037642 C135.937048,80.037642 136.04798,75.6838991 134.130931,72.6851963 C132.213882,69.6864935 129.676305,65.5449729 131.706598,63.4206265 C133.73689,61.2973412 137.007083,64.249355 138.078273,69.2206652 C139.150618,74.1930365 137.852941,80.037642 137.852941,80.037642" id="Fill-70" fill="#009F7D"></path>
                                <path d="M137.178455,81.5347634 C137.035967,81.5471845 136.871993,81.5404093 136.68314,81.5020167 C137.285886,73.2780854 133.547277,66.9263603 133.508827,66.8619961 C133.437584,66.7445598 133.476033,66.5921184 133.593642,66.5209791 C133.711251,66.4520981 133.863916,66.4904908 133.93516,66.6079271 C133.97474,66.6722913 137.79251,73.1493571 137.178455,81.5347634" id="Fill-71" fill="#1E766A"></path>
                                <path d="M144.569041,73.0409473 C140.050203,79.9441606 140.362249,81.5404255 140.362249,81.5404255 L139.768431,81.4403152 L139.264268,81.3567065 L138.5447,81.235694 C138.144164,78.1740777 140.632378,65.2323404 145.070875,65.2323404 C149.588548,65.2323404 146.109474,70.6900044 144.569041,73.0409473" id="Fill-72" fill="#009F7D"></path>
                                <path d="M143.501189,69.350677 C143.459252,69.4167961 139.77558,75.70244 138.993509,81.5404255 L138.50273,81.4580477 C139.306337,75.5257613 143.026279,69.1837536 143.067082,69.1154667 C143.133955,69.0016552 143.286969,68.9615503 143.40598,69.0276693 C143.526124,69.0927044 143.566928,69.2357817 143.501189,69.350677" id="Fill-73" fill="#1E766A"></path>
                                <path d="M135.349089,80.9143235 L135.369208,80.9093056 C135.365436,80.9231048 135.349089,80.9143235 135.349089,80.9143235" id="Fill-74" fill="#544186"></path>
                                <path d="M135.986341,81.2112845 L135.47151,81.3407826 L134.979713,81.4659641 L134.683713,81.5404255 C134.702141,81.4799931 134.47755,80.9620007 131.333276,77.0241792 C130.035255,75.3968196 126.570795,71.0197837 129.746166,70.284882 C132.658939,69.6114919 136.070419,78.9439885 135.986341,81.2112845" id="Fill-75" fill="#009F7D"></path>
                                <path d="M135.987865,81.4166274 L135.509475,81.5404255 C134.626637,77.7880623 131.04599,73.1829862 131.005657,73.1328266 C130.926112,73.030373 130.948519,72.883096 131.057194,72.8051886 C131.164748,72.7283483 131.319356,72.7496928 131.401142,72.8542809 C131.559112,73.0570537 135.079259,77.5788862 135.987865,81.4166274" id="Fill-76" fill="#1E766A"></path>
                                <path d="M142.275028,91.5761702 L133.473,91.5761702 L133.473,84.6577477 C133.473,82.243171 135.321416,80.2859574 137.601771,80.2859574 L138.146257,80.2859574 C140.426612,80.2859574 142.275028,82.243171 142.275028,84.6577477 L142.275028,91.5761702" id="Fill-77" fill="#FFFFFE"></path>
                            </g>
                        </g>
                        <circle id="Oval" fill="#FE5D26" fill-rule="nonzero" cx="107" cy="136" r="2"></circle>
                        <circle id="Oval-Copy-2" fill="#FE5D26" fill-rule="nonzero" cx="158" cy="124" r="2"></circle>
                        <circle id="Oval-Copy-4" fill="#47BDFE" fill-rule="nonzero" cx="186" cy="81" r="2"></circle>
                        <circle id="Oval-Copy-4" fill="#47BDFE" fill-rule="nonzero" cx="211" cy="81" r="2"></circle>
                        <circle id="Oval-Copy-5" stroke="#F26A8D" stroke-width="2" fill="#F26A8D" fill-rule="nonzero" cx="207" cy="160" r="1"></circle>
                        <circle id="Oval-Copy-3" fill="#FE5D26" fill-rule="nonzero" cx="164" cy="146.5" r="2"></circle>
                        <g id="Group-22" transform="translate(1.072289, 13.864000)">
                            <g id="Group-2-Copy" transform="translate(0.000000, 25.603102)" fill-rule="nonzero" opacity="0.852260045" stroke="#F0A202" stroke-width="1.26">
                                <g id="Group-5-Copy">
                                    <rect id="Rectangle" x="0.63" y="0.63" width="69.9317516" height="93.8417143"></rect>
                                    <g id="Group-3" transform="translate(10.449608, 10.174999)">
                                        <path d="M9.32587876,45.8670825 C9.70255469,52.6600621 9.89089266,56.0565519 9.89089266,56.0565519 L16.0537733,60.6874471 C17.4345811,61.7250099 17.7128361,63.6854868 16.6752732,65.0662946 C16.5875367,65.1830559 16.4917287,65.2935277 16.3885525,65.3968988 L16.0425484,65.7435569 C14.780897,67.0075924 12.7832679,67.155577 11.3491308,66.0912458 L2.59037189,59.5910156 C0.331044579,57.9142772 -0.262247329,54.7837442 1.22690213,52.3966025 L3.96515264,48.0071223 C4.14793558,47.7141169 4.28760729,47.3963355 4.37987433,47.0635465 L6.3105211,40.1000838 C6.80026921,38.3336588 7.86042801,36.7787782 9.32587876,35.6776131 L9.32587876,35.6776131 C9.80894068,35.314632 10.4947941,35.4119768 10.8577752,35.8950387 C11.042788,36.1412572 11.1154551,36.4540521 11.0579327,36.7566153" id="Path-3"></path>
                                        <path d="M18.3661012,31.7150417 C12.1509483,37.9419396 13.84599,44.1688376 21.7561846,45.3010009" id="Path-4"></path>
                                        <path d="M6.50080925,66.6208888 C3.44769922,67.5031404 1.46022493,69.0764294 0.538386365,71.340756 C-0.844371475,74.7372458 0.538386365,77.0015723 3.51959781,77.0015723 C6.50080925,77.0015723 9.70816585,72.2817051 12.1509483,71.8112305 C14.5937307,71.340756 34.1864904,73.6050825 37.0115599,71.340756 C38.8949396,69.8312049 38.5182637,63.4156131 35.8815321,52.0939805" id="Path-5"></path>
                                        <path d="M31.9264348,64.5477764 C28.1596755,61.9060621 23.5758498,61.9060621 18.1749576,64.5477764" id="Path-6"></path>
                                        <path d="M17.3021403,60.0191233 C18.1749576,43.0366743 31.9264348,36.8097764 34.1864904,36.8097764 C36.446546,36.8097764 41.5316712,37.9419396 44.9217546,46.4331641 C48.311838,54.9243886 50.0068797,65.6799396 51.1369075,77.0015723" id="Path-7"></path>
                                        <path d="M27.4063236,56.9056743 C30.4197311,45.7727356 34.5631664,43.0366743 39.8366295,48.6974907" id="Path-8"></path>
                                        <path d="M41.5316712,35.4582879 C39.3030052,31.0758517 36.6662737,28.8846335 33.6214765,28.8846335" id="Path-9"></path>
                                        <path d="M21.7561846,34.3261247 L21.7561846,26.4009818" id="Path-11"></path>
                                        <path d="M29.1013653,35.4582879 L30.2313931,11.3361029 C29.6438318,6.80744984 26.9958265,4.54312331 22.2873773,4.54312331 C18.9584494,4.54312331 15.5241005,7.62797857 14.5937307,10.2039396 C13.5502222,13.0931534 16.1060456,17.3668543 16.1060456,20.6587598 C16.1060456,24.8100251 19.496129,26.6085136 26.2762958,26.0542254" id="Path-12"></path>
                                        <path d="M34.7845378,28.8846335 L34.7845378,11.8818087 C34.7845378,5.31966694 29.4648708,-6.5345164e-15 22.9027291,-5.32907052e-15 L22.9027291,-5.32907052e-15 C16.3405874,-4.12362464e-15 11.0209205,5.31966694 11.0209205,11.8818087 L11.0209205,31.6053791" id="Path-13"></path>
                                    </g>
                                </g>
                            </g>
                            <path d="M70.2349398,119.907915 L104.737193,122.136" id="Path-23" stroke="url(#linearGradient-1)" fill-rule="nonzero"></path>
                            <g id="header_MOB_Logo_white" filter="url(#filter-2)" opacity="0.896949405" transform="translate(114.743999, 49.950781) rotate(-12.000000) translate(-114.743999, -49.950781) translate(97.243999, 33.796935)" fill-rule="nonzero">
                                <g id="Group-10" transform="translate(7.179487, 6.282051)" fill="#7678ED">
                                    <path d="M2.26818228,13.2648442 C3.52086477,13.2648442 4.53636457,11.780126 4.53636457,9.94863318 C4.53636457,8.72763799 3.969319,5.41142693 2.83522785,0 C0.945075951,5.41142693 0,8.72763799 0,9.94863318 C0,11.780126 1.0154998,13.2648442 2.26818228,13.2648442 Z" id="Oval-17"></path>
                                    <path d="M17.3893975,13.2648442 C18.64208,13.2648442 19.6575798,11.780126 19.6575798,9.94863318 C19.6575798,8.72763799 19.0905342,5.41142693 17.9564431,0 C16.0662912,5.41142693 15.1212152,8.72763799 15.1212152,9.94863318 C15.1212152,11.780126 16.136715,13.2648442 17.3893975,13.2648442 Z" id="Oval-17" transform="translate(17.389398, 6.632422) scale(-1, 1) translate(-17.389398, -6.632422) "></path>
                                </g>
                                <g id="Group-4" stroke="#EFEBEB" stroke-width="0.8316">
                                    <g id="Group">
                                        <path d="M17.3260912,12.0729541 C17.0081671,7.4675656 15.4981328,5.16487136 12.7959882,5.16487136 C8.74277124,5.16487136 5.7282457,10.6115984 5.7282457,15.2146026 C5.7282457,17.6193558 7.15648653,19.8992156 9.04319866,19.8992156 C10.9299108,19.8992156 11.9477761,18.0409254 11.9477761,15.2146026 C11.9477761,9.29645434 6.97157002,0 3.57554007,0 C0.17951012,7.52255322e-16 -1.89583801,16.1842449 2.49422965,23.3917132 C5.94573669,29.0582836 10.8896905,31.8915689 17.3260912,31.8915689" id="Path-Copy-7"></path>
                                        <path d="M34.6521823,12.0729541 C34.3342583,7.4675656 32.8242239,5.16487136 30.1220793,5.16487136 C26.0688624,5.16487136 23.0543368,10.6115984 23.0543368,15.2146026 C23.0543368,17.6193558 24.4825777,19.8992156 26.3692898,19.8992156 C28.2560019,19.8992156 29.2738672,18.0409254 29.2738672,15.2146026 C29.2738672,9.29645434 24.2976612,0 20.9016312,0 C17.5056013,7.52255322e-16 15.4302531,16.1842449 19.8203208,23.3917132 C23.2718278,29.0582836 28.2157817,31.8915689 34.6521823,31.8915689" id="Path-Copy-6" transform="translate(25.989137, 15.945784) scale(-1, 1) translate(-25.989137, -15.945784) "></path>
                                    </g>
                                </g>
                                <circle id="Oval-15" fill="#AFAFAF" cx="17.0512821" cy="10.7692308" r="2.69230769"></circle>
                                <path d="M16.6025641,26.025641 C19.328585,26.025641 21.5384615,23.9049017 21.5384615,22.8538689 C21.5384615,21.8028361 19.328585,23.0653204 16.6025641,23.0653204 C13.8765432,23.0653204 11.6666667,21.8028361 11.6666667,22.8538689 C11.6666667,23.9049017 13.8765432,26.025641 16.6025641,26.025641 Z" id="Oval-10-Copy-2" fill="#CACACA"></path>
                            </g>
                            <text id="#" font-family="Aldrich-Regular, Aldrich" font-size="21.6" font-weight="normal" fill="#F0A202">
                                <tspan x="25.111729" y="16.6365714">#</tspan>
                            </text>
                            <path id="Path-21" d="M167.441921,2.97163994 L160.458061,0.951990445 L160.735866,-0.00864705138 L169.553346,2.54126359 L170.407246,2.78820134 L169.752793,3.389712 L162.994831,9.60098771 L162.318131,8.86472838 L167.670756,3.94510509 L161.76727,5.33285487 L70.3493574,26.8227326 L70.1205221,25.8492674 L161.538435,4.35938972 L167.441921,2.97163994 Z" fill="url(#linearGradient-3)" fill-rule="nonzero"></path>
                        </g>
                        <g id="Group-27" transform="translate(165.481928, 0.000000)">
                            <g id="Group-8" transform="translate(50.870687, 139.768381)" stroke="#F26A8D" stroke-width="0.9">
                                <polygon id="path380-path" points="0.285578463 16.6401442 12.1247913 12.0253674 23.5997207 16.75804 12.1065772 -3.55271368e-14"></polygon>
                                <polygon id="path380-path" points="0.285578463 26.7307029 11.827057 33.1012713 23.5997207 26.7307029 11.9337579 42.1996629"></polygon>
                                <polygon id="path382" points="11.822977 16.8704575 -3.01980663e-14 21.872712 11.822977 28.4721775 23.3141423 22.0131262"></polygon>
                            </g>
                            <text id="Ethereum-Blockchain" font-family="OpenSans-Regular, Open Sans" font-size="12" font-weight="normal" fill="#F26A8D">
                                <tspan x="35.6555601" y="206.1516">Ethereum</tspan>
                                <tspan x="33.1272398" y="224.2516">Blockchain</tspan>
                            </text>
                            <g id="Logo" transform="translate(18.000000, 0.000000)" stroke-width="1.4">
                                <g id="Group-Copy-6">
                                    <path d="M22.9242425,26.1312617 L1.77399521,10.7166134 C0.0680291215,9.47323704 -0.351178242,7.01867304 0.837367117,5.23425158 C1.05834718,4.90260465 1.32696072,4.60845419 1.6335501,4.36207322 L6.71903794,0.277525306 L27.298502,15.2221834 C29.3035277,16.6782111 29.8004873,19.5585913 28.4084766,21.6558258 C28.1244763,22.0836966 27.7733636,22.4583189 27.370034,22.7637697 L22.9242425,26.1312617 Z" id="Stroke-1" stroke="#48BEFF"></path>
                                    <path d="M11.7933949,7.98228118 L1.92557116,15.386894 C-0.0576839808,16.8751104 -0.512084465,19.7633665 0.91069976,21.8380005 C1.22105398,22.2903553 1.60703249,22.6807296 2.05030213,22.9896047 L6.55534901,26.1312617 L11.9431703,22.2400175" id="Stroke-3" stroke="#3C91E6"></path>
                                    <path d="M17.5225077,18.0840722 L27.6453588,10.7078814 C29.4256397,9.41074291 29.8635076,6.84951085 28.6232365,4.98735696 C28.3862149,4.63139724 28.0968129,4.31687198 27.7656702,4.05576637 L22.7605536,0.106308509 L17.5225077,4.04429484" id="Stroke-5" stroke="#3C91E6"></path>
                                </g>
                            </g>
                            <text id="Plasma-Sidechain" font-family="OpenSans-Regular, Open Sans" font-size="12" font-weight="normal" fill="#48BEFF">
                                <tspan x="13.6397041" y="49">Plasma</tspan>
                                <tspan x="6.95708687" y="67.1">Sidechain</tspan>
                            </text>
                            <path id="Path-22" d="M59.7764156,127.683163 L61.3862376,120.593611 L62.3614132,120.815043 L60.3289307,129.765966 L60.1321016,130.632789 L59.4935263,130.014448 L52.8995167,123.629385 L53.5951498,122.910987 L58.8179165,127.968259 L57.0881964,122.15289 L45.0388227,81.6425477 L45.9973219,81.3574523 L58.0466955,121.867795 L59.7764156,127.683163 Z" fill="url(#linearGradient-4)" fill-rule="nonzero"></path>
                        </g>
                    </g>
                    <text id="Author-&amp;-Owner" font-family="OpenSans-Regular, Open Sans" font-size="12" font-weight="normal" fill="#FE5D26">
                        <tspan x="121.5" y="288">Author &amp; Owner</tspan>
                    </text>
                    <text id="Unique-Blockchain-To" transform="translate(29.000000, 114.500000) rotate(-90.000000) translate(-29.000000, -114.500000) " font-family="OpenSans-Regular, Open Sans" font-size="12" font-weight="normal" fill="#F0A202">
                        <tspan x="-36.328125" y="119">Unique Blockchain Token</tspan>
                    </text>
                    <text id="Digital-Art-Original" transform="translate(9.000000, 114.500000) rotate(-90.000000) translate(-9.000000, -114.500000) " font-family="OpenSans-Regular, Open Sans" font-size="12" font-weight="normal" fill="#F0A202">
                        <tspan x="-17.2636719" y="119">Digital Art Original</tspan>
                    </text>
                </g>
                <path d="M205.5,125 L234,82.5" id="Path-24" stroke="url(#linearGradient-5)" fill-rule="nonzero"></path>
                <path d="M213.5,147 L255.5,160" id="Path-25" stroke="url(#linearGradient-6)" fill-rule="nonzero"></path>
            </g>
        </g>
    </g>
</svg>