<?xml version="1.0" encoding="UTF-8"?>
<svg width="247px" height="283px" viewBox="0 0 247 283" version="1.1" xmlns="http://www.w3.org/2000/svg" xmlns:xlink="http://www.w3.org/1999/xlink">
    <!-- Generator: Sketch 53.2 (72643) - https://sketchapp.com -->
    <title>buy</title>
    <desc>Created with Sketch.</desc>
    <defs>
        <linearGradient x1="69.8086571%" y1="0%" x2="50%" y2="100%" id="linearGradient-1">
            <stop stop-color="#F26A8D" stop-opacity="0.746612762" offset="0%"></stop>
            <stop stop-color="#272727" offset="100%"></stop>
        </linearGradient>
        <polygon id="path-2" points="0.0237055697 0.0782222222 9.83083747 0.0782222222 9.83083747 15.4135111 0.0237055697 15.4135111"></polygon>
        <polygon id="path-4" points="0 0.00564263952 54.5714632 0.00564263952 54.5714632 105.727396 0 105.727396"></polygon>
        <linearGradient x1="30.6947271%" y1="50%" x2="90.6376001%" y2="50%" id="linearGradient-6">
            <stop stop-color="#F0A202" stop-opacity="0" offset="0%"></stop>
            <stop stop-color="#FFFFFF" stop-opacity="0.374699519" offset="100%"></stop>
        </linearGradient>
        <filter x="-29.8%" y="-34.0%" width="157.9%" height="166.0%" filterUnits="objectBoundingBox" id="filter-7">
            <feOffset dx="0" dy="3" in="SourceAlpha" result="shadowOffsetOuter1"></feOffset>
            <feGaussianBlur stdDeviation="2.5" in="shadowOffsetOuter1" result="shadowBlurOuter1"></feGaussianBlur>
            <feColorMatrix values="0 0 0 0 0   0 0 0 0 0   0 0 0 0 0  0 0 0 0.5 0" type="matrix" in="shadowBlurOuter1" result="shadowMatrixOuter1"></feColorMatrix>
            <feMerge>
                <feMergeNode in="shadowMatrixOuter1"></feMergeNode>
                <feMergeNode in="SourceGraphic"></feMergeNode>
            </feMerge>
        </filter>
    </defs>
    <g id="Landing_Page-for-Demo" stroke="none" stroke-width="1" fill="none" fill-rule="evenodd">
        <g id="cma_3-list-1-copy-46" transform="translate(-706.000000, -2417.000000)">
            <g id="buy" transform="translate(706.000000, 2417.000000)">
                <g id="Group-33" transform="translate(88.000000, 0.332201)">
                    <g id="Group-7" transform="translate(0.000000, 50.883987)" fill-rule="nonzero" opacity="0.852260045" stroke="#F0A202" stroke-width="1.26">
                        <g id="Group-2-Copy">
                            <g id="Group-5-Copy">
                                <rect id="Rectangle" fill="#272727" x="0.63" y="0.63" width="70.3610526" height="95.3708824"></rect>
                                <g id="Group-3" transform="translate(10.512621, 10.338606)">
                                    <path d="M9.38211574,46.6045926 C9.76106311,53.5067985 9.95053679,56.9579015 9.95053679,56.9579015 L16.1465426,61.6601934 C17.5513695,62.726349 17.8259168,64.7294761 16.7597612,66.134303 C16.6758877,66.2448195 16.5849008,66.3497524 16.4873789,66.4484345 L16.1366708,66.8033152 C14.871962,68.0830708 12.8566006,68.2325779 11.4169006,67.1534455 L2.53098925,60.4929779 C0.294963067,58.8169563 -0.293008037,55.7118702 1.17545482,53.3343761 L3.9945354,48.7701833 C4.17480384,48.4783222 4.31243074,48.1621933 4.40324109,47.8313866 L6.35283832,40.7293335 C6.8428706,38.9442288 7.907541,37.3703726 9.38211574,36.2512838 L9.38211574,36.2512838 C9.86595171,35.8840895 10.555848,35.9786463 10.9230423,36.4624822 C11.1108891,36.7099997 11.1852654,37.0254293 11.1277846,37.3307934" id="Path-3"></path>
                                    <path d="M18.4768526,32.224997 C12.224221,38.5520191 13.9294842,44.8790412 21.8873789,46.0294088" id="Path-4"></path>
                                    <path d="M6.54001047,67.6921054 C3.46848956,68.588543 1.46903038,70.1871294 0.541632947,72.4878647 C-0.84946321,75.9389676 0.541632947,78.2397029 3.54082171,78.2397029 C6.54001047,78.2397029 9.7667081,73.4439436 12.224221,72.9659041 C14.6817339,72.4878647 34.3926421,74.7886 37.2347473,72.4878647 C39.1294842,70.9540412 38.7505368,64.4352912 36.0979052,52.9316147" id="Path-5"></path>
                                    <path d="M32.1189578,65.5856588 C28.3294842,62.9014676 23.718017,62.9014676 18.2845564,65.5856588" id="Path-6"></path>
                                    <path d="M17.4064758,60.9841882 C18.2845564,43.7286735 32.1189578,37.4016515 34.3926421,37.4016515 C36.6663263,37.4016515 41.7821157,38.5520191 45.1926421,47.1797765 C48.6031684,55.8075338 50.3084315,66.7360265 51.4452736,78.2397029" id="Path-7"></path>
                                    <path d="M27.5715894,57.8206772 C30.6031684,46.5087287 34.7715894,43.7286735 40.0768526,49.4805117" id="Path-8"></path>
                                    <path d="M41.7821157,36.028432 C39.5400105,31.5755293 36.8873789,29.3490779 33.824221,29.3490779" id="Path-9"></path>
                                    <path d="M21.8873789,34.8780644 L21.8873789,26.8254909" id="Path-11"></path>
                                    <path d="M29.2768526,36.028432 L30.4136947,11.5183794 C29.8225902,6.91690881 27.1586169,4.61617351 22.4217748,4.61617351 C19.0727728,4.61617351 15.617714,7.75063105 14.6817339,10.3680117 C13.6319328,13.303682 16.2031684,17.646101 16.2031684,20.990938 C16.2031684,25.2089527 19.6136947,27.0363596 26.4347473,26.4731588" id="Path-12"></path>
                                    <path d="M34.9942957,29.3490779 L34.9942957,11.9534584 C34.9942957,5.35174563 29.6425501,-6.54178548e-15 23.0408373,-5.32907052e-15 L23.0408373,-5.32907052e-15 C16.4391245,-4.11635555e-15 11.0873789,5.35174563 11.0873789,11.9534584 L11.0873789,32.1135712" id="Path-13"></path>
                                </g>
                            </g>
                        </g>
                    </g>
                    <g id="Group-6" transform="translate(8.000000, 0.000000)" fill="#F0A202">
                        <text id="#" font-family="Aldrich-Regular, Aldrich" font-size="21.6" font-weight="normal">
                            <tspan x="0.342857143" y="28.0508578">#</tspan>
                        </text>
                        <g id="Set_for_sale_in_BCH_ico-orange" transform="translate(28.114286, 0.000000)">
                            <g id="Ethereum_Classic_logo">
                                <path d="M0.260046451,15.4257936 L11.0407799,11.1874788 L21.4897985,15.5340717 L11.0241942,0.143111213 L0.260046451,15.4257936 Z M0.260046451,24.6931893 L10.7696644,30.5440625 L21.4897985,24.6931893 L10.8668257,38.9002298 L0.260046451,24.6931893 Z" id="path380"></path>
                                <polygon id="path382" points="10.7659492 15.6373185 0 20.2315014 10.7659492 26.2925988 21.2297521 20.3604609"></polygon>
                            </g>
                        </g>
                    </g>
                </g>
                <g id="Group-7" opacity="0.477515811" transform="translate(0.000000, 51.216188)" fill-rule="nonzero" stroke="#F26A8D" stroke-width="1.26">
                    <g id="Group-2-Copy" opacity="0.852260045">
                        <g id="Group-5-Copy">
                            <rect id="Rectangle" fill="#272727" x="0.63" y="0.63" width="70.3610526" height="95.3708824"></rect>
                            <g id="Group-3" transform="translate(10.512621, 10.338606)">
                                <path d="M9.38211574,46.6045926 C9.76106311,53.5067985 9.95053679,56.9579015 9.95053679,56.9579015 L16.1465426,61.6601934 C17.5513695,62.726349 17.8259168,64.7294761 16.7597612,66.134303 C16.6758877,66.2448195 16.5849008,66.3497524 16.4873789,66.4484345 L16.1366708,66.8033152 C14.871962,68.0830708 12.8566006,68.2325779 11.4169006,67.1534455 L2.53098925,60.4929779 C0.294963067,58.8169563 -0.293008037,55.7118702 1.17545482,53.3343761 L3.9945354,48.7701833 C4.17480384,48.4783222 4.31243074,48.1621933 4.40324109,47.8313866 L6.35283832,40.7293335 C6.8428706,38.9442288 7.907541,37.3703726 9.38211574,36.2512838 L9.38211574,36.2512838 C9.86595171,35.8840895 10.555848,35.9786463 10.9230423,36.4624822 C11.1108891,36.7099997 11.1852654,37.0254293 11.1277846,37.3307934" id="Path-3"></path>
                                <path d="M18.4768526,32.224997 C12.224221,38.5520191 13.9294842,44.8790412 21.8873789,46.0294088" id="Path-4"></path>
                                <path d="M6.54001047,67.6921054 C3.46848956,68.588543 1.46903038,70.1871294 0.541632947,72.4878647 C-0.84946321,75.9389676 0.541632947,78.2397029 3.54082171,78.2397029 C6.54001047,78.2397029 9.7667081,73.4439436 12.224221,72.9659041 C14.6817339,72.4878647 34.3926421,74.7886 37.2347473,72.4878647 C39.1294842,70.9540412 38.7505368,64.4352912 36.0979052,52.9316147" id="Path-5"></path>
                                <path d="M32.1189578,65.5856588 C28.3294842,62.9014676 23.718017,62.9014676 18.2845564,65.5856588" id="Path-6"></path>
                                <path d="M17.4064758,60.9841882 C18.2845564,43.7286735 32.1189578,37.4016515 34.3926421,37.4016515 C36.6663263,37.4016515 41.7821157,38.5520191 45.1926421,47.1797765 C48.6031684,55.8075338 50.3084315,66.7360265 51.4452736,78.2397029" id="Path-7"></path>
                                <path d="M27.5715894,57.8206772 C30.6031684,46.5087287 34.7715894,43.7286735 40.0768526,49.4805117" id="Path-8"></path>
                                <path d="M41.7821157,36.028432 C39.5400105,31.5755293 36.8873789,29.3490779 33.824221,29.3490779" id="Path-9"></path>
                                <path d="M21.8873789,34.8780644 L21.8873789,26.8254909" id="Path-11"></path>
                                <path d="M29.2768526,36.028432 L30.4136947,11.5183794 C29.8225902,6.91690881 27.1586169,4.61617351 22.4217748,4.61617351 C19.0727728,4.61617351 15.617714,7.75063105 14.6817339,10.3680117 C13.6319328,13.303682 16.2031684,17.646101 16.2031684,20.990938 C16.2031684,25.2089527 19.6136947,27.0363596 26.4347473,26.4731588" id="Path-12"></path>
                                <path d="M34.9942957,29.3490779 L34.9942957,11.9534584 C34.9942957,5.35174563 29.6425501,-6.54178548e-15 23.0408373,-5.32907052e-15 L23.0408373,-5.32907052e-15 C16.4391245,-4.11635555e-15 11.0873789,5.35174563 11.0873789,11.9534584 L11.0873789,32.1135712" id="Path-13"></path>
                            </g>
                        </g>
                    </g>
                </g>
                <g id="Group-7-Copy" opacity="0.471191406" transform="translate(174.000000, 51.216188)" fill-rule="nonzero" stroke-width="1.26">
                    <g id="Group-2-Copy" opacity="0.852260045">
                        <g id="Group-5-Copy">
                            <rect id="Rectangle" stroke="url(#linearGradient-1)" fill="#272727" x="1.63" y="0.63" width="70.3610526" height="95.3708824"></rect>
                            <g id="Group-3" transform="translate(0.512621, 10.338606)" stroke="#F26A8D">
                                <path d="M29.4768526,32.224997 C23.224221,38.5520191 24.9294842,44.8790412 32.8873789,46.0294088" id="Path-4" opacity="0.333100818"></path>
                                <path d="M17.5400105,67.6921054 C14.4684896,68.588543 12.4690304,70.1871294 11.5416329,72.4878647 C10.1505368,75.9389676 11.5416329,78.2397029 14.5408217,78.2397029 C17.5400105,78.2397029 20.7667081,73.4439436 23.224221,72.9659041 C25.6817339,72.4878647 45.3926421,74.7886 48.2347473,72.4878647 C50.1294842,70.9540412 49.7505368,64.4352912 47.0979052,52.9316147" id="Path-5" opacity="0.333100818"></path>
                                <polyline id="Path-37" opacity="0.333100818" points="0.487378895 37 19.3715894 37 19.3715894 67.6921054"></polyline>
                                <path d="M43.1189578,65.5856588 C39.3294842,62.9014676 34.718017,62.9014676 29.2845564,65.5856588" id="Path-6"></path>
                                <path d="M28.4064758,60.9841882 C29.2845564,43.7286735 43.1189578,37.4016515 45.3926421,37.4016515 C47.6663263,37.4016515 52.7821157,38.5520191 56.1926421,47.1797765 C59.6031684,55.8075338 61.3084315,66.7360265 62.4452736,78.2397029" id="Path-7" opacity="0.446893601"></path>
                                <path d="M38.5715894,57.8206772 C41.6031684,46.5087287 45.7715894,43.7286735 51.0768526,49.4805117" id="Path-8"></path>
                                <g id="Group-36" transform="translate(30.587379, 18.500000) scale(-1, 1) translate(-30.587379, -18.500000) translate(15.087379, 0.000000)" opacity="0.333100818">
                                    <path d="M30.6947368,36.028432 C28.4526316,31.5755293 25.8,29.3490779 22.7368421,29.3490779" id="Path-9"></path>
                                    <path d="M23.9069169,29.3490779 L23.9069169,11.9534584 C23.9069169,5.35174563 18.5551712,-8.31814232e-15 11.9534584,-7.10542736e-15 L11.9534584,-7.10542736e-15 C5.35174563,-5.89271239e-15 2.14130701e-13,5.35174563 2.14939178e-13,11.9534584 L2.16715534e-13,32.1135712" id="Path-13"></path>
                                </g>
                                <path d="M32.8873789,34.8780644 L32.8873789,26.8254909" id="Path-11"></path>
                                <path d="M40.2768526,36.028432 L41.4136947,11.5183794 C40.8225902,6.91690881 38.1586169,4.61617351 33.4217748,4.61617351 C30.0727728,4.61617351 26.617714,7.75063105 25.6817339,10.3680117 C24.6319328,13.303682 27.2031684,17.646101 27.2031684,20.990938 C27.2031684,25.2089527 30.6136947,27.0363596 37.4347473,26.4731588" id="Path-12" opacity="0.333100818"></path>
                            </g>
                        </g>
                    </g>
                </g>
                <g id="Group-73" transform="translate(2.000000, 82.332201)">
                    <path d="M52.3836054,191.870357 L52.3836054,186.069083 L41.0939433,186 L41,194.67411 L41.6996943,194.72185 C44.8144625,194.907195 57.5486548,195.26665 59.6355372,194.671864 C61.9627681,194.008556 52.3836054,191.870357 52.3836054,191.870357" id="Fill-1" fill="#F26A8D"></path>
                    <path d="M51.0418669,191.993972 C50.9384969,191.952021 51.0275855,191.665708 51.2975715,191.384114 C51.5668775,191.100946 51.8960292,190.950973 51.9783172,191.014423 C52.0626453,191.079971 51.8905887,191.318041 51.6423648,191.579184 C51.3927807,191.839803 51.147277,192.037496 51.0418669,191.993972" id="Fill-5" fill="#1A2E35"></path>
                    <path d="M52.0566278,193.997506 C51.9402802,193.970578 52.0002606,193.700862 52.2640299,193.417019 C52.5249086,193.131411 52.8732287,192.960576 52.9707872,193.00781 C53.0705137,193.055485 52.9021349,193.28812 52.6593226,193.552981 C52.4143423,193.816959 52.1751433,194.025316 52.0566278,193.997506" id="Fill-7" fill="#1A2E35"></path>
                    <path d="M50.9915522,192.129707 C51.041564,192.275707 50.8654116,192.634707 50.5720094,192.827707 C50.2786073,193.023707 50.0146566,192.954707 50.0007644,192.784707 C49.9857609,192.611707 50.1935874,192.409707 50.4508699,192.237707 C50.7087082,192.067707 50.9409848,191.980707 50.9915522,192.129707" id="Fill-11" fill="#1A2E35"></path>
                    <g id="Group-17" transform="translate(82.000000, 0.000000)">
                        <mask id="mask-3" fill="white">
                            <use xlink:href="#path-2"></use>
                        </mask>
                        <g id="Clip-16"></g>
                        <path d="M0.888944444,12.0535111 L0.983944444,10.2016593 C0.983944444,10.2016593 1.21116667,9.09173333 1.20338889,7.09173333 C1.20116667,6.57321481 1.11172222,6.05943704 0.947277778,5.57114074 C0.747833333,4.97914074 0.451722222,4.20402963 0.166722222,3.83306667 C-0.186611111,3.3744 0.167277778,2.69647407 0.656722222,2.83099259 C1.14616667,2.96491852 2.14783333,4.20343704 2.60116667,6.05291852 C3.0545,7.90180741 4.22227778,5.16462222 4.6645,4.17499259 C5.10727778,3.18595556 6.61061111,0.193362963 7.00338889,0.097362963 C7.5795,-0.0430814815 7.82672222,0.589214815 7.36338889,1.5664 C6.8945,2.55543704 5.70394444,5.57765926 6.20505556,5.80225185 C6.20505556,5.80225185 6.92116667,5.61736296 7.30005556,5.75247407 C7.42672222,5.79691852 7.51505556,5.87751111 7.52727778,6.01202963 C7.57727778,6.54951111 7.6895,6.8624 7.6895,6.8624 C7.6895,6.8624 8.37894444,6.62714074 8.55172222,6.93943704 C8.7245,7.25114074 8.77672222,7.96995556 8.77672222,7.96995556 C8.77672222,7.96995556 9.30116667,7.72106667 9.57672222,7.91247407 C10.1739444,8.3266963 9.53116667,9.19780741 9.53116667,9.19780741 C8.07116667,11.6600296 4.90227778,15.4135111 4.90227778,15.4135111 L0.862833333,11.9462519" id="Fill-15" fill="#FFBF9D" mask="url(#mask-3)"></path>
                    </g>
                    <path d="M31.0702982,11.7982548 L31,34.5348592 L40.8601861,35 L41.1448361,29.4696133 C41.1448361,29.4696133 44.6470691,30.157634 45.55115,26.9398404 C46.1285171,24.8848987 45.9838872,9 45.9838872,9 L31.0702982,11.7982548 Z" id="Fill-18" fill="#FFBF9D"></path>
                    <path d="M45.0775998,5.11450461 C42.0224612,6.05592373 41.2853782,6.36954409 39.9162583,6.4738982 C38.6023022,6.574346 29.2443998,6.58160057 28.3952286,11.569392 C28.2966379,11.3645901 28.1962866,11.118493 28.1311463,10.8366811 C27.9322043,10.0492819 28.1035644,9.38576837 28.0161238,9.36344664 C27.9462887,9.32549969 27.6158924,10.02417 27.8330268,10.9019721 C27.8600218,11.016371 27.894646,11.1235154 27.933378,11.2239632 C27.8729325,11.1642525 27.8136607,11.1039838 27.7444125,11.0470634 C27.3412469,10.7161437 26.8928938,10.5236188 26.5572159,10.4471668 C26.2209511,10.3684827 26.0049905,10.385782 26.0002957,10.4209388 C25.9821034,10.5057614 26.806627,10.6452722 27.5448837,11.2669325 C27.914012,11.5649276 28.1640099,11.8980795 28.3341963,12.1575697 C28.3336094,12.1804494 28.3295015,12.201097 28.3289146,12.2245349 C28.3289146,12.2245349 26.3277578,11.3880279 26.8541618,14.8384099 C27.3811526,18.2882339 29.750851,21.2162873 30.0407546,26.8620118 C30.0407546,26.8620118 38.3358725,27.8028729 39.8106254,24.7710234 L41.0506384,21.2921812 C41.0506384,21.2921812 39.0547632,20.9835832 39.2871556,19.4573347 C39.6081623,17.3451406 41.3053311,17.2915684 42.5694049,18.2324295 L44.0242049,14.5242315 C44.0242049,14.5242315 47.7107935,12.2245349 47.9214725,10.7607872 C48.1321515,9.29703948 48.1321515,4.17364353 45.0775998,5.11450461" id="Fill-20" fill="#7678ED"></path>
                    <polygon id="Fill-22" fill="#F26A8D" points="4.40143049 187 3 193.715017 12.6541127 195 13 188.346374"></polygon>
                    <g id="Group-30" transform="translate(0.000000, 85.000000)">
                        <mask id="mask-5" fill="white">
                            <use xlink:href="#path-4"></use>
                        </mask>
                        <g id="Clip-29"></g>
                        <path d="M18.5082526,1.32373261 L-0.000115789474,104.833309 L15.8532,105.727396 C15.8532,105.727396 32.6901474,16.5036239 35.1622526,16.2806783 C36.1974105,16.1873522 36.6125158,105.022265 37.4444632,104.833309 C38.2769895,104.644928 54.5714632,105.121352 54.5714632,105.121352 C54.5714632,105.121352 52.3668316,0.00795 52.4056211,0.00564565217 C52.4444105,0.00334130435 18.5082526,1.32373261 18.5082526,1.32373261" id="Fill-28" fill="#7678ED" mask="url(#mask-5)"></path>
                    </g>
                    <path d="M41.999927,97.0095798 C42.0154168,97.1024424 39.56544,97.8453429 36.5278817,98.667934 C33.4903235,99.4918423 31.0155629,100.083265 31.0000731,99.9904023 C30.9845832,99.8981983 33.4340437,99.1559564 36.4721183,98.3327067 C39.5091602,97.509457 41.9844371,96.9167172 41.999927,97.0095798" id="Fill-31" fill="#375A64"></path>
                    <path d="M16.9999989,184.927096 C16.9976823,185.070927 13.4133633,184.995016 8.99565674,184.760291 C4.57621279,184.524567 0.997106038,184.215929 1.00000176,184.073096 C1.00231833,183.929264 4.58547909,184.004177 9.00492304,184.240899 C13.4226296,184.476623 17.0023155,184.783264 16.9999989,184.927096" id="Fill-33" fill="#375A64"></path>
                    <path d="M52.999999,184.931219 C52.9977194,185.070864 49.1896743,184.991344 44.4960107,184.751814 C39.8006375,184.513253 35.9977214,184.20778 36.000001,184.068135 C36.0022806,183.929459 39.8091859,184.008979 44.5045592,184.24754 C49.1987926,184.4861 53.0022786,184.791574 52.999999,184.931219" id="Fill-35" fill="#375A64"></path>
                    <path d="M25.9986651,101.000012 C26.0857296,101.017417 21.9029291,119.613858 16.6580654,142.530168 C11.4107317,165.4546 7.08838105,184.017972 7.00131656,183.999987 C6.91486955,183.982582 11.0964351,165.390783 16.3431513,142.46693 C21.5886325,119.55062 25.9122181,100.982607 25.9986651,101.000012" id="Fill-37" fill="#375A64"></path>
                    <path d="M45.991096,184 C45.9857536,184 45.9780367,183.926425 45.9679455,183.783364 C45.9596351,183.624536 45.9477631,183.414907 45.9323294,183.147469 C45.9073982,182.571135 45.8711885,181.749552 45.8254812,180.70199 C45.7370346,178.577669 45.6313735,175.503302 45.5185893,171.7037 C45.2930207,164.10508 45.072201,153.60435 45.0140281,142.005257 C44.9582295,130.402077 45.0769498,119.899011 45.2277246,112.298055 C45.3037056,108.497869 45.3796865,105.422918 45.4467635,103.298014 C45.4829732,102.249868 45.5108724,101.428869 45.5304613,100.851367 C45.5429269,100.584513 45.5524245,100.3743 45.5595478,100.216056 C45.5684518,100.072994 45.5749814,99.9994195 45.5803238,100.000003 C45.5856662,100.000003 45.5892278,100.072994 45.5916022,100.21664 C45.5916022,100.375467 45.5921958,100.585681 45.5927894,100.853118 C45.5868534,101.430621 45.5779494,102.25162 45.5672646,103.300933 C45.5387717,105.443939 45.4972196,108.514803 45.4467635,112.301559 C45.3511937,119.901931 45.2674959,130.403244 45.3232944,142.004089 C45.3808737,153.600263 45.5672646,164.09924 45.7370346,171.699029 C45.8248876,175.485201 45.8961198,178.55548 45.9453887,180.698486 C45.9667583,181.747216 45.9833792,182.568215 45.9946576,183.145717 C45.997032,183.413155 45.9988128,183.623368 46,183.78278 C45.9994064,183.925841 45.9964384,183.999416 45.991096,184" id="Fill-39" fill="#375A64"></path>
                    <path d="M80.4381084,11 C80.4381084,11 68.0706673,29.5718681 67.022935,30.6154794 C65.9746193,31.65851 46.6049898,33.6853344 46.6044064,33.6853344 C40.6587007,32.3490241 21.4314134,32.7898149 17.7987693,35.4525628 C14.6573225,37.1832037 10.8385834,41.2333681 8.87262698,50.860494 C5.51883364,67.2829989 2.16504029,73.3344347 8.87262698,75.6301473 C11.9697376,76.6900197 14.8865869,77.2597374 17.1308108,77.5669552 L16.9452992,85 L51.7118095,82.8494754 L49.9319481,64.3902732 C49.7231017,59.2076424 49.6262623,53.8054873 49.4973375,49.0212524 C51.671557,48.2006498 71.8911565,40.5823451 73.2795768,40.3848895 C74.746752,40.1758187 87.9839975,15.7993345 87.9839975,15.7993345 C88.4034405,12.878152 80.4381084,11 80.4381084,11" id="Fill-41" fill="#F0A202"></path>
                    <path d="M19.9828405,45.0000005 C20.0543116,45.0023586 19.8959832,54.1832315 19.6294556,65.5035372 C19.3624316,76.8273802 19.088459,86.0023577 19.0169879,85.9999995 C18.9460131,85.9976414 19.1038451,76.8185371 19.3708691,65.4946942 C19.6373968,54.174978 19.9113694,44.9976423 19.9828405,45.0000005" id="Fill-43" fill="#1A2E35"></path>
                    <path d="M69.9956754,34.9984388 C69.9494965,35.0417444 69.6584699,34.1789651 69.4189378,33.0508007 C69.1794057,31.9237467 68.9667835,31.0376491 69.0043246,31.0015612 C69.0501713,30.9582556 69.3411978,31.8210349 69.5810622,32.9497545 C69.8205943,34.0756981 70.0332165,34.9623509 69.9956754,34.9984388" id="Fill-45" fill="#1A2E35"></path>
                    <path d="M52.9999973,82.0146515 C53.0052829,82.1301363 45.1738021,82.8888068 35.5099839,83.7084275 C25.8432292,84.5288502 18.0052883,85.10066 18.0000027,84.9851753 C17.9947171,84.8704926 25.824436,84.1118221 35.4911907,83.2913993 C45.1550089,82.4709766 52.9947117,81.8999688 52.9999973,82.0146515" id="Fill-55" fill="#1A2E35"></path>
                    <path d="M40.9999999,33.4326987 C41.0005754,33.5766987 38.7623021,33.7236987 36.0014388,33.7606987 C33.2394244,33.7966987 31.0005755,33.7106987 31,33.5666987 C31,33.4226987 33.2371223,33.2766987 35.9991366,33.2396987 C38.7599999,33.2026987 40.9994243,33.2886987 40.9999999,33.4326987" id="Fill-71" fill="#1A2E35"></path>
                </g>
                <g id="Group-38" transform="translate(142.000000, 42.332201)">
                    <g id="Group-42" transform="translate(0.000000, 25.000000)">
                        <g id="Group-176" transform="translate(19.000000, 4.000000)">
                            <g id="Group-175">
                                <g id="Group-11" transform="translate(24.082724, 26.716025) rotate(-32.000000) translate(-24.082724, -26.716025) translate(9.582724, 4.716025)">
                                    <path d="M13.4160758,19.0011188 C12.0483867,21.7149589 6.6508595,36.1246403 7.20629242,37.8279879 C7.28517047,38.0715256 7.9138473,38.2744736 8.9340973,38.4514632 C8.14015218,40.3450156 7.01332291,42.086593 5.62732291,43.5690577 C2.58206681,42.8474122 0.267371692,41.9322581 0.0363716918,40.525309 C-0.644420991,36.3889447 8.42796316,21.9980405 10.8262314,18.6088081 C11.3633534,17.8503488 11.6492863,17.1999711 11.7666644,16.6052861 C12.3427558,14.9873655 12.1033834,19.8908233 13.4160758,19.0011188 Z" id="Fill-42" fill="#F15F5D"></path>
                                    <g id="Group-12" transform="translate(16.281438, 13.010939) rotate(33.000000) translate(-16.281438, -13.010939) translate(8.281438, 3.010939)">
                                        <path d="M4.47872994,12.7189762 C4.74572914,12.143977 4.96022838,11.8440266 5.54722965,10.9471473 C6.52745298,9.45046052 6.49693346,9.42041297 6.87949785,8.93596444 C7.02260629,8.754356 7.60584004,8.0382503 8.49624547,7.58683877 C8.72155667,7.47280196 9.02221491,7.34774128 9.23182522,7.47758829 C9.46070398,7.61962417 9.47859763,7.97780978 9.48127818,8.03287923 C9.48795063,8.18161532 9.45603821,8.32433261 9.31828348,8.61890442 C9.06739284,9.15431945 8.83656153,9.39923612 8.86801393,9.43257641 C8.90228217,9.46920451 9.24888777,9.23481233 10.5005565,8.16390584 C11.1677668,7.37696986 11.9158531,6.98524331 12.3159369,7.18237905 C12.3756437,7.2118796 12.5434366,7.31170857 12.6554397,7.5044189 C12.7496382,7.66516551 12.7985065,7.87922405 12.7435249,8.20323614 C12.5924408,9.09521053 11.9594301,9.76484314 11.9594301,9.76484314 C9.91925141,11.925217 8.18198187,14.3601816 6.1244312,16.5031835 C5.5603617,17.0911982 4.17493074,17.7226173 3.92900125,17.9807541 C3.85932771,17.9823484 3.57756835,17.8274366 3.03942812,16.9593878 C2.50832196,16.1016769 2.83630905,14.7055496 4.01465688,13.9511713 C4.10299721,13.6515504 4.24723444,13.2180937 4.47872994,12.7189762 Z" id="Fill-117" fill="#F15F5D" transform="translate(7.779751, 12.556350) scale(-1, 1) rotate(-45.000000) translate(-7.779751, -12.556350) "></path>
                                        <rect id="Rectangle" stroke="#FFFFFF" stroke-width="2" fill-rule="nonzero" x="9.54505757" y="1" width="1" height="11.6871937"></rect>
                                    </g>
                                </g>
                                <path d="M34.6631933,39.4642864 C40.5522848,36.2572353 44.5328091,33.6005039 44.5328091,33.6005039 C44.5328091,33.6005039 50.2082726,41.016131 46.454053,42.3546442 C43.9764372,43.2377041 36.7599878,52.4059056 23.0060976,51.6606615 C22.8356646,50.6992542 27.5392848,45.4668288 25.9772177,44.1405869 C27.4843518,43.8309732 33.4269677,40.1377907 34.6631933,39.4642864 Z" id="Fill-56" fill="#007D7E"></path>
                                <path d="M46.610072,203.715566 C49.4473341,203.073684 51.4709317,201.095649 51.6648402,198.769298 C51.7061573,198.278919 51.750761,197.775324 51.8014683,197.257571 C51.9939683,195.269624 52.3498585,190.559341 52.654572,185.226056 C55.3988707,184.967415 58.1441085,184.964583 60.8888768,185.107119 C58.7732549,191.267772 56.717261,197.291081 56.9153951,199.017555 C57.0783159,200.435832 57.7332854,202.151451 57.7332854,202.151451 L57.8647488,205.455728 C56.1181634,206.283095 52.3921146,205.608647 48.7055049,206.252889 C45.0179561,206.896659 39.856139,205.20983 39.856139,205.20983 C39.856139,205.20983 43.4098768,204.4391 46.610072,203.715566" id="Fill-58" fill="#F15F5D"></path>
                                <path d="M48.7054579,203.829878 C49.6937811,204.118253 55.4847445,202.840152 57.7398116,202.322871 L57.8647018,205.45535 C56.1181165,206.28319 52.3925372,205.608741 48.7054579,206.252983 C45.0179091,206.896753 39.8560921,205.209925 39.8560921,205.209925 C39.8560921,205.209925 43.4098299,204.439194 46.610025,203.715661 C47.3556104,203.546695 48.0781896,203.647225 48.7054579,203.829878" id="Fill-60" fill="#52003B"></path>
                                <path d="M37.7892994,96.7816283 L53.4987079,102.091787 C53.4987079,102.091787 50.9877567,137.681795 57.4008238,147.447372 C64.1688421,157.752413 66.8840311,189.048417 66.8840311,189.048417 L56.9003238,191.721195 L48.5040372,158.824733 C47.938275,156.795253 47.2264945,154.236692 46.3433421,151.054655 C37.5254335,119.288094 37.7892994,96.7816283 37.7892994,96.7816283" id="Fill-62" fill="#7678ED"></path>
                                <path d="M51.7614189,190.611872 C53.8793884,190.381078 56.0067482,190.197952 58.1416201,190.048809 C58.290925,199.503828 58.1035896,200.742283 59.1820591,201.876432 C59.1820591,201.876432 63.5719982,207.945523 63.5719982,209.335009 C63.5719982,210.724495 60.5948213,211.665136 59.4694006,211.665136 C58.4303701,211.665136 56.3616994,204.452457 55.6222177,202.322446 C55.6217482,202.320558 52.6844799,195.582683 51.7614189,190.611872" id="Fill-64" fill="#F37575"></path>
                                <path d="M58.1892287,193.259353 C56.7515823,193.241418 54.4246799,193.139472 52.1480152,192.724608 C52.022186,192.026089 51.8930701,191.321435 51.7616067,190.612061 C53.8791067,190.380794 56.006936,190.198141 58.1413384,190.048526 C58.1596494,191.172292 58.1746738,192.250276 58.1892287,193.259353" id="Fill-66" fill="#F15F5D"></path>
                                <path d="M62.4340884,165.988233 C61.4570335,160.969753 60.6569848,160.344861 60.896436,154.427746 C60.955125,152.973128 64.1168201,103.718109 62.8275396,98.8596275 C61.8058811,92.7834574 54.9448994,80.8524723 54.9448994,80.8524723 L39.4768201,80.8128266 L37.7893933,96.7815339 L46.0560945,103.847902 C46.3871006,107.482559 51.254064,160.789459 52.485125,164.160285 C53.1776555,166.058557 50.5460396,180.288047 49.345497,193.507516 C51.4728567,193.721319 57.5788628,194.764378 59.6987104,195.082487 C62.1744482,184.170962 63.0425762,169.116465 62.4340884,165.988233" id="Fill-68" fill="#7678ED"></path>
                                <path d="M52.5917512,85.507298 L52.1884402,82.0298069 L39.4266293,81.2888106 C39.3444646,81.5092216 39.1801354,82.469213 38.9496049,84.0182258 L38.9496049,84.0186977 C44.5950195,86.7820949 49.3882695,86.4219802 52.5917512,85.507298" id="Fill-72" fill="#5D5BA3"></path>
                                <polygon id="Fill-74" fill="#5D5BA3" points="52.4101909 84.3116981 56.5935445 81.7304821 52.1881116 82.0297125"></polygon>
                                <path d="M44.5330439,33.6005039 C44.5330439,33.6005039 47.5233671,32.1189831 59.8457146,33.6340139 C60.4701659,33.7104734 61.6354951,48.0452129 61.6354951,48.0452129 C61.6354951,48.0452129 55.5529646,74.8093403 56.8248732,80.8128266 C56.8248732,80.8128266 49.4375683,86.1744307 38.8862207,81.1804929 C38.8862207,81.1804929 40.7267085,60.638847 39.7012939,56.4335748 C38.6768183,52.2278305 36.7114402,48.4322301 39.3294402,44.0027711 C41.9474402,39.573312 44.5330439,33.6005039 44.5330439,33.6005039" id="Fill-76" fill="#77BA99"></path>
                                <path d="M55.6330634,89.9361907 C55.6903439,89.9361907 55.7476244,89.9225035 55.8011488,89.8927693 C55.9701732,89.7997908 56.0321488,89.5864593 55.9387159,89.4156054 C55.52085,88.6510104 55.2546366,88.1842299 55.2546366,88.1842299 C55.1593256,88.0162078 54.9456976,87.9581553 54.7785512,88.0544376 C54.6109354,88.1507199 54.5527159,88.3654673 54.6484963,88.5334894 C54.6494354,88.5344333 54.9128317,88.997438 55.326472,89.7544814 C55.3898561,89.8705866 55.5095817,89.9361907 55.6330634,89.9361907" id="Fill-78" fill="#3E3E6E"></path>
                                <path d="M57.8783646,94.684939 C57.4994683,93.9019371 57.0806634,93.0684342 56.6336878,92.205669 C56.544011,92.0343431 56.6106817,91.8219556 56.7815841,91.7322809 C56.9524866,91.6426062 57.1637671,91.7096263 57.2529744,91.8814241 C57.7027671,92.748909 58.124389,93.5890196 58.5070415,94.3772131 C58.5915537,94.5518428 58.5192488,94.7618705 58.3455293,94.8468255 C58.2967,94.870896 58.2441146,94.8822234 58.1929378,94.8822234 C58.063822,94.8822234 57.9389317,94.8100116 57.8783646,94.684939 L57.8783646,94.684939 Z M60.0334256,99.7643038 C59.7967915,99.0407704 59.4620293,98.1780052 59.0385293,97.1991349 C58.9610598,97.0212014 59.0422854,96.8149495 59.218822,96.7375461 C59.395828,96.6601426 59.6014744,96.7408499 59.6784744,96.9187834 C60.1113646,97.9179485 60.453639,98.8014805 60.6968463,99.5448367 C60.7569439,99.7289059 60.6569378,99.9271342 60.473828,99.9875466 C60.4376756,100.00029 60.4010537,100.005482 60.3653707,100.005482 C60.2179439,100.005482 60.0813159,99.9115591 60.0334256,99.7643038 L60.0334256,99.7643038 Z M60.7006024,105.544547 C60.5076329,105.53794 60.3569195,105.375109 60.3639622,105.181129 C60.4080963,103.946921 60.4395537,102.992594 60.454578,102.384693 C60.4597427,102.194489 60.6146817,102.042986 60.8034256,102.042986 L60.8099988,102.042986 C61.0053159,102.048177 61.1579073,102.20912 61.1532122,102.4031 C61.1372488,103.011944 61.106261,103.969104 61.0621268,105.206615 C61.0550841,105.395876 60.9006146,105.545491 60.7128098,105.545491 C60.7090537,105.545491 60.704828,105.545491 60.7006024,105.544547 L60.7006024,105.544547 Z M60.4874439,111.13317 C60.2944744,111.125618 60.1442305,110.961844 60.1517427,110.768336 C60.1907122,109.774362 60.2268646,108.839385 60.2597305,107.975204 C60.2672427,107.781695 60.4306329,107.630192 60.6221939,107.637744 C60.8156329,107.645296 60.9649378,107.808598 60.9583646,108.002578 C60.9245598,108.86676 60.8888768,109.801264 60.8503768,110.79571 C60.8423951,110.984499 60.6879256,111.133642 60.5010598,111.133642 C60.4968341,111.133642 60.4916695,111.133642 60.4874439,111.13317 L60.4874439,111.13317 Z M60.2634866,116.716601 C60.0709866,116.708578 59.9212122,116.544803 59.9287244,116.351295 L60.0414073,113.560051 C60.0489195,113.366542 60.2118402,113.217871 60.4048098,113.223535 C60.5973098,113.231558 60.7466146,113.394861 60.739572,113.588841 L60.626889,116.379613 C60.6193768,116.568874 60.4644378,116.717073 60.2780415,116.717073 C60.2738159,116.717073 60.2686512,116.717073 60.2634866,116.716601 L60.2634866,116.716601 Z M60.0362427,122.296728 C59.8432732,122.288233 59.6930293,122.124931 59.7014805,121.931422 L59.815572,119.141122 C59.8235537,118.947614 59.9911695,118.792335 60.1789744,118.804606 C60.3719439,118.81263 60.5212488,118.976404 60.5137366,119.170385 L60.3991756,121.95974 C60.3921329,122.148529 60.2367244,122.296728 60.0507976,122.296728 L60.0362427,122.296728 Z M59.8052427,127.874968 C59.6122732,127.866944 59.4620293,127.70317 59.4704805,127.509661 L59.58645,124.720778 C59.5944317,124.526797 59.7545354,124.36963 59.9498524,124.384261 C60.1423524,124.392285 60.2925963,124.555587 60.2846146,124.749568 L60.1681756,127.538924 C60.1601939,127.728184 60.0057244,127.87544 59.8197976,127.87544 C59.8146329,127.87544 59.8094683,127.87544 59.8052427,127.874968 L59.8052427,127.874968 Z M59.5718951,133.455095 C59.3789256,133.4466 59.2296207,133.282825 59.2376024,133.088845 L59.354511,130.299961 C59.3624927,130.10598 59.5263524,129.954949 59.7179134,129.963445 C59.9104134,129.97194 60.0601878,130.135243 60.0526756,130.328751 L59.9357671,133.119051 C59.9277854,133.307368 59.7728463,133.455095 59.5869195,133.455095 C59.5822244,133.455095 59.5765902,133.455095 59.5718951,133.455095 L59.5718951,133.455095 Z M59.3366695,139.033806 C59.1437,139.025311 58.9943951,138.862009 59.0028463,138.667556 L59.1202244,135.877728 C59.1282061,135.68422 59.2915963,135.530829 59.4840963,135.542156 C59.6765963,135.550652 59.8259012,135.713954 59.818389,135.907935 L59.701011,138.697762 C59.6930293,138.886079 59.5380902,139.033806 59.3521634,139.033806 L59.3366695,139.033806 Z M59.1009744,144.613462 C58.9080049,144.605438 58.7582305,144.441664 58.7666817,144.247683 L58.8849988,141.457856 C58.8929805,141.262931 59.0610659,141.10954 59.2484012,141.121339 C59.4418402,141.129835 59.5906756,141.293609 59.5831634,141.48759 L59.4648463,144.277418 C59.4563951,144.466678 59.3019256,144.613934 59.1159988,144.613934 C59.1108341,144.613934 59.1056695,144.613934 59.1009744,144.613462 L59.1009744,144.613462 Z M58.8634012,150.196421 C58.6704317,150.188397 58.5211268,150.025095 58.529578,149.830642 L58.6483646,147.038927 C58.6568159,146.844946 58.8178585,146.695803 59.0122366,146.702883 C59.2042671,146.710906 59.354511,146.874681 59.3465293,147.069133 L59.2272732,149.860849 C59.218822,150.050109 59.0643524,150.197365 58.8784256,150.197365 C58.873261,150.197365 58.8685659,150.197365 58.8634012,150.196421 L58.8634012,150.196421 Z M58.624889,155.785044 C58.432389,155.776076 58.2821451,155.612774 58.2910659,155.418793 L58.410322,152.624246 C58.4183037,152.430737 58.583572,152.282066 58.7737244,152.288202 C58.9666939,152.296697 59.1164683,152.460471 59.1080171,152.65398 L58.988761,155.448999 C58.9807793,155.637788 58.8258402,155.785044 58.6394439,155.785044 L58.624889,155.785044 Z M59.126328,160.97721 C58.7309988,159.664655 58.3769866,158.709383 58.2431756,158.360124 C58.1741573,158.178887 58.2638341,157.975939 58.4441268,157.905615 C58.62395,157.837651 58.8258402,157.926381 58.895328,158.107619 C59.0319561,158.46443 59.3934805,159.438108 59.7949134,160.773318 C59.8512549,160.959275 59.7465537,161.155143 59.5620354,161.211308 C59.5287,161.221691 59.4939561,161.226411 59.4606207,161.226411 C59.3108463,161.226411 59.1723402,161.128713 59.126328,160.97721 L59.126328,160.97721 Z M60.3348524,166.355333 C60.2193524,165.504367 60.0517366,164.592517 59.835761,163.646213 C59.7925659,163.457896 59.9104134,163.269107 60.0986878,163.226157 C60.2860232,163.181792 60.4733585,163.300729 60.5165537,163.48999 C60.7376939,164.456117 60.9090659,165.388734 61.0269134,166.260467 C61.0532061,166.452559 60.9193951,166.630021 60.7273646,166.655507 C60.7118707,166.657867 60.6959073,166.659283 60.6804134,166.659283 C60.508572,166.659283 60.3587976,166.531379 60.3348524,166.355333 L60.3348524,166.355333 Z M60.7578829,172.222891 C60.5658524,172.212036 60.4184256,172.045902 60.4296939,171.852393 C60.4954256,170.675294 60.5292305,169.743621 60.5311085,169.084276 C60.5311085,168.890296 60.6879256,168.733601 60.8808951,168.733601 L60.8813646,168.733601 C61.0743341,168.734073 61.2302122,168.891711 61.2302122,169.085692 C61.2283341,169.75778 61.1940598,170.702197 61.12645,171.892039 C61.1161207,172.078468 60.9621207,172.223363 60.778072,172.223363 C60.7714988,172.223363 60.7649256,172.222891 60.7578829,172.222891 L60.7578829,172.222891 Z M60.3541024,177.783668 C60.1616024,177.768093 60.0188707,177.598655 60.0343646,177.405146 C60.1118341,176.448458 60.1836695,175.514897 60.2479927,174.628534 C60.262078,174.435025 60.4306329,174.287298 60.6212549,174.303345 C60.8137549,174.317976 60.9588341,174.485998 60.9447488,174.679035 C60.8808951,175.567758 60.8081207,176.503207 60.7301817,177.462255 C60.7156268,177.64538 60.5630354,177.784612 60.3827427,177.784612 C60.3728829,177.784612 60.3634927,177.78414 60.3541024,177.783668 L60.3541024,177.783668 Z M59.8700354,183.338308 C59.6775354,183.320374 59.5362122,183.149992 59.5535841,182.956011 C59.6366878,182.046521 59.7197915,181.113432 59.8010171,180.181286 C59.8179195,179.987778 59.9902305,179.843354 60.1789744,179.862233 C60.3714744,179.878752 60.5132671,180.048662 60.4968341,180.241699 C60.4156085,181.176204 60.3325049,182.108821 60.2498707,183.020671 C60.2334378,183.20238 60.0803768,183.339724 59.9024317,183.339724 C59.8916329,183.339724 59.8813037,183.33878 59.8700354,183.338308 L59.8700354,183.338308 Z M59.3446512,188.889173 C59.1526207,188.869823 59.0127061,188.698025 59.0310171,188.50546 C59.1122427,187.667709 59.202389,186.730845 59.296761,185.730736 C59.3155415,185.537699 59.489261,185.395163 59.6775354,185.414514 C59.8700354,185.432921 60.0104195,185.604247 59.992578,185.797284 C59.8977366,186.797865 59.8075902,187.734729 59.7263646,188.573424 C59.7085232,188.754661 59.5564012,188.890589 59.3789256,188.890589 C59.3676573,188.890589 59.3559195,188.890117 59.3446512,188.889173 L59.3446512,188.889173 Z" id="Fill-80" fill="#3E3E6E"></path>
                                <path d="M58.990686,192.801209 C59.1672226,192.801209 59.318875,192.666697 59.337186,192.486404 C59.337186,192.486404 59.3907104,191.970538 59.4785091,191.088422 C59.4977591,190.895858 59.3578445,190.723588 59.165814,190.704709 C58.974253,190.682998 58.8028811,190.825534 58.7836311,191.019042 C58.6953628,191.899271 58.6427774,192.41372 58.6427774,192.41372 C58.6230579,192.606757 58.762503,192.779499 58.954064,192.799322 C58.9667409,192.800737 58.9784787,192.801209 58.990686,192.801209" id="Fill-82" fill="#3E3E6E"></path>
                                <path d="M61.5372732,205.333393 C62.5434378,206.439224 63.572139,208.533364 63.572139,209.335245 C63.572139,210.724731 60.5949622,211.665372 59.4695415,211.665372 C58.7854622,211.665372 57.8647488,209.587278 57.0844195,206.789427 C60.0822549,206.688425 60.9616512,206.646891 61.5372732,205.333393" id="Fill-84" fill="#6F004F"></path>
                                <path d="M74.3553317,58.759265 C72.3467585,59.0084663 70.3729293,59.6225021 68.5577951,60.5688064 C69.2296671,61.3607757 69.5841488,61.9200628 69.4902463,62.1584087 C68.8329293,63.8249425 54.0141854,71.252369 51.2365512,72.4601458 C51.2365512,72.4601458 47.9386976,71.9527757 46.4832098,72.4601458 C46.0268439,72.6192005 45.6517037,72.8023257 45.3493378,72.9996101 L45.3493378,72.9915865 C45.3493378,72.9915865 38.601039,76.6432354 39.2081183,77.2534955 C39.8156671,77.8642275 44.0614659,73.8689829 44.6492951,74.459892 C44.661972,74.4872664 44.6708927,74.511337 44.6831,74.5382394 C44.741789,75.258469 38.6681793,77.8193901 39.4555512,78.6104155 C40.0828195,79.2409704 43.6421915,76.8324963 45.1291366,76.1061311 C45.1507341,76.2043013 45.1746793,76.3076632 45.2023805,76.4204645 C45.2178744,76.481349 45.2390024,76.532322 45.2582524,76.5870707 C44.0178012,77.48193 41.0547098,78.5485872 41.6087341,79.1050424 C42.1129902,79.6119405 44.5436549,78.144107 45.7305817,77.3762082 C45.7451366,77.3950871 45.7596915,77.413966 45.7733073,77.4328449 C44.8624537,78.1790329 43.314472,79.5114105 43.8966671,79.5114105 C44.3084293,79.5114105 45.4901915,78.8246909 46.5498805,78.1521305 C48.0457463,77.9647576 52.2023378,76.4336798 52.4845146,75.5449561 C52.9530878,75.1636026 53.5873988,74.8473812 54.4818195,74.6095072 C58.4815939,73.544738 74.6112159,68.3110383 76.7183866,64.6933714 C77.4358012,63.4629399 76.2380756,61.271101 74.3553317,58.759265" id="Fill-86" fill="#FF9292"></path>
                                <path d="M59.8458085,33.6341555 C59.8458085,33.6341555 61.710711,32.2710998 64.1000585,33.0739245 C66.2992537,33.812561 72.7559854,54.2720837 76.0078268,58.3692743 C74.2833085,59.9281985 70.3102963,60.1773998 68.8698329,62.0289467 C67.3162171,59.5374055 66.7744,57.6683956 65.6414671,54.7388642 C63.3089305,48.7070595 62.4755463,48.6268243 60.8144122,47.5077782 C57.940528,45.5703323 59.8458085,33.6341555 59.8458085,33.6341555" id="Fill-88" fill="#66CACB"></path>
                                <path d="M56.8302256,82.1122132 C56.8302256,82.5667225 56.4635366,82.9353328 56.0113963,82.9353328 C55.5583171,82.9353328 55.1920976,82.5667225 55.1920976,82.1122132 C55.1920976,81.657232 55.5583171,81.2886218 56.0113963,81.2886218 C56.4635366,81.2886218 56.8302256,81.657232 56.8302256,82.1122132" id="Fill-90" fill="#5D5BA3"></path>
                                <path d="M49.3679866,99.9241136 C49.616828,100.001989 49.7548646,100.04777 49.7548646,100.04777 C49.7548646,100.04777 49.7032183,100.004349 49.6013341,99.9241136 L49.3679866,99.9241136 Z" id="Fill-92" fill="#C44246"></path>
                                <path d="M46.8287707,99.9241136 C47.0081244,99.9916056 47.1208073,100.032195 47.1513256,100.043523 C47.1250329,100.030779 47.0381732,99.9892457 46.897789,99.9241136 L46.8287707,99.9241136 Z" id="Fill-94" fill="#C44246"></path>
                                <path d="M52.171303,3.73075227 C52.171303,3.73075227 46.8709799,3.22904583 45.4187787,8.22109575 C43.9665774,13.2131457 46.2746994,19.0075483 45.8521384,21.3107726 C45.430047,23.6144689 42.4716506,23.3345894 43.0003213,22.187697 C43.0003213,22.187697 41.4800409,24.0930487 43.6322848,25.2998816 C45.7849982,26.5071865 47.0390652,25.5014138 47.0390652,25.5014138 C47.0390652,25.5014138 47.3536384,28.9354835 51.9661262,28.8203223 C56.579553,28.706105 57.4185713,26.6199879 57.4185713,26.6199879 C57.4185713,26.6199879 64.2598335,30.5453806 66.4590287,24.0590667 C64.3513884,24.5140479 63.0146872,22.8333549 62.968675,20.9808641 C62.9170287,18.8758681 63.2316018,17.4302172 63.372925,15.3606192 C63.5719982,12.4414711 63.5311506,8.36363135 61.3197482,6.07220634 C59.3290165,4.00921587 56.5297848,2.68722175 53.4065896,3.64060558 C53.0126689,3.76048652 52.5797787,3.67458758 52.171303,3.73075227" id="Fill-130" fill="#540049"></path>
                                <path d="M52.171303,3.73075227 C50.0049738,3.70290591 47.7757299,4.50667456 46.5047604,6.31668794 C43.7858152,10.1901638 45.6056445,17.1659128 46.0347787,20.7500697 C46.257797,22.6181356 44.2224616,23.545089 43.2050287,22.9216137 C42.9472665,22.7564235 42.8477299,22.4949509 43.0003213,22.187697 C42.4763457,23.4738212 46.1944128,23.375651 45.7652787,20.7434621 C45.0567848,16.3909345 41.6809921,4.92484193 50.5261323,3.76284638 C51.072175,3.69110661 51.6261994,3.67317166 52.171303,3.73075227" id="Fill-131" fill="#91007E"></path>
                                <path d="M64.833014,23.5166763 C64.194947,23.2339649 63.5686177,22.5009921 63.3930201,21.2450741 C63.1798616,17.7137781 64.7700994,12.3134723 62.8357091,7.89486857 C62.3140811,6.69464327 61.5623921,5.98432512 61.503703,5.90739365 C61.3520506,5.81394315 58.1203982,2.07545139 53.4064957,3.64051119 C58.1265018,2.44500562 61.0027335,6.18680119 61.1492213,6.25240532 C61.193825,6.3156496 61.8337701,6.96838714 62.3028128,8.125191 C64.1428311,12.6834985 62.0718128,19.3378345 62.6680933,21.8326795 C62.9868921,23.3731967 64.1747579,24.5635106 65.8462213,24.5323605 C63.5118067,29.9067079 57.3020384,26.1899268 57.2611909,26.1951185 C57.2438189,26.2177732 57.1071909,26.9894477 55.9235506,27.6577603 L55.6080384,27.8295582 C53.6745872,28.6781642 51.3857152,28.7286653 50.5523311,28.580466 C49.0714896,28.4284909 47.698636,27.5241922 47.1601055,26.0360639 C47.4418128,27.0451404 48.0798799,27.8423015 49.045197,28.3614709 C51.4040262,29.4956201 55.9958555,29.1392811 57.5278738,27.0267335 C59.0951055,27.8465492 61.0412335,28.3704384 62.7751421,28.0693201 C66.1471787,27.5199445 66.8965201,23.8527205 67.0688311,23.5251718 C66.6378189,23.5775607 65.7260262,23.9485308 64.833014,23.5166763" id="Fill-132" fill="#3F0037"></path>
                                <path d="M47.4280561,14.3749996 C47.4280561,14.3749996 46.8632329,13.1384325 46.1242207,13.5787825 C45.384739,14.0186606 46.1702329,18.9309472 47.5604585,17.9242305 C48.4159098,17.3040591 47.4280561,14.3749996 47.4280561,14.3749996" id="Fill-133" fill="#DD5757"></path>
                                <path d="M50.3863585,24.4159249 C50.3863585,24.4159249 49.7050963,30.8295551 48.8731207,32.5376225 C48.0411451,34.2447459 46.8302732,41.6400782 48.0524134,41.609872 C49.2759622,41.5791938 54.8246573,35.7111635 55.1345354,33.3833966 C55.4444134,31.0556298 56.9909866,21.4401402 56.9909866,21.4401402 L50.3863585,24.4159249 Z" id="Fill-134" fill="#FF9292"></path>
                                <path d="M50.481247,23.6964505 C50.4347652,23.7200491 50.3267774,25.0481789 50.3206738,25.1005678 C50.153997,26.5296996 50.0924909,26.4428567 50.157753,26.6311736 C50.6676433,28.1098625 52.6039116,28.9962263 55.3622957,26.3914117 C55.4491555,26.3088166 56.3581311,25.4092376 56.3698689,25.3318342 C56.7135518,23.1659538 56.9910335,21.4404234 56.9910335,21.4404234 C56.9910335,21.4404234 50.5371189,23.671436 50.481247,23.6964505" id="Fill-135" fill="#F15F5D"></path>
                                <path d="M51.1538701,4.25388625 C51.1538701,4.25388625 46.9676994,6.16065393 46.8550165,9.33655484 C46.7423335,12.5124557 47.204803,13.7325039 46.9155835,15.7931345 C46.626364,17.8532931 47.6400409,23.3163713 50.8749799,24.6213744 C54.1103884,25.9277935 58.2402177,20.5123845 58.9275835,18.109102 C59.6149494,15.7062916 59.7910165,12.288269 58.8900226,8.57951143 C57.9885591,4.87028194 53.4906323,3.54026429 51.1538701,4.25388625" id="Fill-136" fill="#F37575"></path>
                                <path d="M51.1538701,4.25388625 C51.1538701,4.25388625 46.9676994,6.16065393 46.8550165,9.33655484 C46.7423335,12.5124557 47.204803,13.7325039 46.9155835,15.7931345 C46.626364,17.8532931 47.6400409,23.3163713 50.8749799,24.6213744 C54.1103884,25.9277935 58.2402177,20.5123845 58.9275835,18.109102 C59.6149494,15.7062916 59.7910165,12.288269 58.8900226,8.57951143 C57.9885591,4.87028194 53.4906323,3.54026429 51.1538701,4.25388625" id="Fill-137" fill="#FF9292"></path>
                                <path d="M50.0553055,18.239744 C50.5680128,17.5752071 50.6520555,16.2225348 50.5313909,15.370625 C50.3717567,16.1810012 50.1689274,17.6356195 49.7693726,18.1566768 L49.6853299,18.2661744 C49.7289945,18.2888291 50.2985128,18.8750185 50.9952689,18.8084704 C50.786336,18.7494739 50.3219884,18.4969688 50.0553055,18.239744" id="Fill-138" fill="#45003B"></path>
                                <path d="M51.2708256,23.40699 L51.2703561,23.40699 L51.2708256,23.40699 Z" id="Fill-139" fill="#FFFFFF"></path>
                                <path d="M52.6293591,12.4764915 C52.6293591,12.4764915 53.0124811,12.0328376 53.8205116,11.8336653 C54.6285421,11.6340211 56.3854567,12.5373759 56.3854567,12.5373759 C56.3854567,12.5373759 54.6435665,12.1192085 54.162786,12.1503587 C53.6810665,12.1810369 52.9354811,12.670944 52.9354811,12.670944 L52.6293591,12.4764915 Z" id="Fill-140" fill="#5C004F"></path>
                                <path d="M49.9058128,12.4317957 C49.9058128,12.4317957 49.6039165,12.0948075 48.9752396,11.9310332 C48.3470323,11.7682028 46.9934287,12.4067812 46.9934287,12.4067812 C46.9934287,12.4067812 48.3399896,12.1283176 48.7137213,12.1604117 C49.0869835,12.1925058 49.6696482,12.5710275 49.6696482,12.5710275 L49.9058128,12.4317957 Z" id="Fill-141" fill="#5C004F"></path>
                                <path d="M52.3221573,14.5008274 C52.655511,14.0005369 53.5114317,13.7027224 54.0537183,13.7282089 C54.8312305,13.7692705 55.3462854,14.3290295 55.8312915,14.3559319 C55.1481512,14.6329796 54.7932,13.8693286 53.1738524,14.1879098 C52.8851024,14.2610655 52.5916573,14.3356371 52.3221573,14.5008274" id="Fill-142" fill="#2E0028"></path>
                                <path d="M50.0195287,14.4814766 C49.6838274,14.0609493 48.897864,13.8617771 48.416614,13.9259653 C47.7269006,14.0222476 47.3099738,14.5607679 46.8799006,14.6225962 C47.5095165,14.8165768 47.7677482,14.1081465 49.2354433,14.2686171 C49.4988396,14.3115666 49.7664616,14.354988 50.0195287,14.4814766" id="Fill-143" fill="#2E0028"></path>
                                <path d="M54.566097,7.35257251 C54.566097,7.35257251 56.3662067,8.1964588 57.0812738,12.232293 C57.7972799,16.2681273 59.4471457,14.7394094 59.4128713,13.3277405 C59.3508957,10.8149605 56.9277433,6.86077748 54.566097,7.35257251" id="Fill-144" fill="#552E5D"></path>
                                <path d="M59.3831982,8.45873375 C58.4812652,4.74997623 53.5086616,3.60591563 51.1540579,4.25393345 C49.0079177,4.84484264 46.9678872,6.16070113 46.8547348,9.33613006 C46.845814,9.58108363 46.8420579,11.6195315 46.8392409,11.8423024 C47.3247165,8.80185754 48.0881433,7.04140124 51.4291921,6.95833414 C56.4895945,6.83278953 58.1605884,9.51311964 59.5038628,13.6674189 C59.5076189,12.0933916 59.818436,10.2508122 59.3831982,8.45873375" id="Fill-145" fill="#39C08A"></path>
                                <path d="M46.8393348,11.8423024 C47.0163409,9.5017923 47.5459506,7.56717827 49.7944445,6.88565042 C50.9381762,6.53403113 52.2908409,6.57178891 53.4646213,6.76954526 C57.1451274,7.43644197 58.6569567,10.0063306 59.5039567,13.6674189 C58.6071884,11.5227772 57.5958591,9.1605564 55.5215543,8.08493177 C54.1965909,7.38263714 52.374414,7.1542026 51.0621274,7.23254998 C47.9314201,7.41614717 47.4346762,9.45837086 46.8393348,11.8423024" id="Fill-146" fill="#1D6045"></path>
                                <path d="M59.5995963,11.1426508 C58.2643037,7.13938267 54.0269561,4.89562685 49.9933768,6.41018563 C49.9727183,6.40924168 49.7943037,6.47295793 49.7262244,6.28983272 C49.654389,6.09726806 49.8736512,6.00240165 49.8534622,6.02175251 C54.0922183,4.59073281 58.3798037,7.02799723 59.5995963,11.1426508" id="Fill-147" fill="#1D6045"></path>
                                <path d="M58.1704482,7.4309199 C57.105125,5.92580056 55.2904604,5.12155994 53.487064,4.96392123 L53.4781433,4.96297728 C53.2072348,4.93985064 53.2429177,4.52781892 53.5138262,4.55141753 C54.0608079,4.59908672 56.8285823,5.19896338 58.1704482,7.4309199" id="Fill-148" fill="#1D6045"></path>
                                <path d="M58.8614293,14.2800388 C58.8614293,14.2800388 59.2830512,12.6517347 60.142728,13.4739103 C61.0019354,14.2956139 59.9197098,18.0850787 58.9276305,18.1091492 C57.9350817,18.1341638 58.8614293,14.2800388 58.8614293,14.2800388" id="Fill-149" fill="#F37575"></path>
                                <path d="M59.0315335,14.7663118 C59.0315335,14.7663118 59.1310701,14.1994732 59.4977591,14.1905057 C59.8644482,14.1815382 59.6217104,16.8420455 59.1451555,16.7769133 C58.6686006,16.7113092 59.0315335,14.7663118 59.0315335,14.7663118" id="Fill-150" fill="#F15F5D"></path>
                                <path d="M55.9746335,16.5933633 C56.0844994,17.0591999 55.5168591,17.5934724 54.7069506,17.7865091 C53.8965726,17.9800177 53.1505177,17.7600786 53.0411213,17.2942421 C52.9312555,16.8284055 53.4984262,16.294133 54.3083348,16.1006244 C55.1182433,15.9075877 55.8642982,16.1279988 55.9746335,16.5933633" id="Fill-151" fill="#FF8383"></path>
                                <path d="M47.6760994,16.2490596 C47.391575,16.1801517 47.1155018,16.1678804 46.8779287,16.2018624 C46.8558616,16.6181419 46.8732335,17.1203203 46.9352091,17.6696959 C47.0511787,17.719253 47.1760689,17.7612585 47.3084713,17.7928807 C48.0503006,17.9712862 48.7339104,17.770698 48.8357945,17.3440351 C48.9372091,16.9178442 48.4179287,16.4274651 47.6760994,16.2490596" id="Fill-152" fill="#FF8383"></path>
                                <path d="M50.2033896,20.3543682 C50.4944872,20.3543682 53.3852738,20.6356636 54.0355482,19.4179753 C54.0355482,19.4179753 53.3059262,21.9175401 50.6146823,21.9175401 L50.2033896,20.3543682 Z" id="Fill-172" fill="#2E0028"></path>
                            </g>
                        </g>
                        <polygon id="Path-39" fill="url(#linearGradient-6)" fill-rule="nonzero" points="40 11.6344632 0 0 2.1934888 28 40 12.8943792"></polygon>
                    </g>
                    <g id="Group-32" transform="translate(57.500000, 12.500000) scale(-1, 1) translate(-57.500000, -12.500000) translate(42.000000, 0.000000)" fill-rule="nonzero">
                        <path d="M10.0490419,18.1818182 L1.72222222,25 L2.87037037,18.1818182 L1,18.1818182 C0.44771525,18.1818182 6.76353751e-17,17.7341029 0,17.1818182 L0,1 C-6.76353751e-17,0.44771525 0.44771525,7.20688042e-15 1,7.10542736e-15 L30,7.10542736e-15 C30.5522847,7.00397429e-15 31,0.44771525 31,1 L31,17.1818182 C31,17.7341029 30.5522847,18.1818182 30,18.1818182 L10.0490419,18.1818182 Z" id="Combined-Shape" stroke="#F7F7F7" stroke-width="0.5" fill="#272727"></path>
                        <path d="M18.0705493,8.08503429 L19.9891579,8.08503429 C20.1402295,8.08503429 20.2634109,8.20870489 20.2634109,8.36299868 L20.2634109,12.8280962 C20.2634109,12.9812122 20.1413915,13.1060606 19.9891579,13.1060606 L18.0705493,13.1060606 C17.9194777,13.1060606 17.7962963,12.98239 17.7962963,12.8280962 L17.7962963,8.36182087 C17.7974584,8.20870489 17.9194777,8.08503429 18.0705493,8.08503429 Z M20.9339361,12.0566272 L20.9339361,8.85768108 C20.9350982,8.06972269 21.1524088,7.29825372 21.5626262,6.62925467 C21.8124753,6.22408623 22.3726021,5.57511004 22.6863661,5.2394327 C22.7560914,5.16405253 23.0094268,4.94262326 23.0094268,4.82130829 C23.0094268,4.66583668 23.0268581,4.41496204 23.0326685,3.9473694 C23.0361548,3.65055996 23.274383,3.40675221 23.5672294,3.40910784 L23.5800124,3.40910784 C24.0924935,3.41853036 24.2563481,3.89907897 24.2563481,3.89907897 C24.2563481,3.89907897 24.6944555,4.7753735 24.2854003,5.84718536 C23.9402599,6.75292527 23.8693725,6.82594981 23.8693725,6.82594981 C23.8693725,6.82594981 23.757812,6.98966613 24.111087,6.98259924 C24.111087,6.98259924 26.2679238,6.97317672 26.3422975,6.97317672 C26.5015037,6.97317672 27.0093365,7.12040362 26.9802843,7.7764467 C26.9593667,8.26170657 26.6618719,8.43131197 26.5096383,8.48666928 C26.4898828,8.49373617 26.479424,8.51611466 26.4875586,8.53613752 C26.4910449,8.54438223 26.4968553,8.55144912 26.5049899,8.55616038 C26.6607098,8.64802997 26.9791222,8.88005957 26.9721496,9.23575977 C26.9628529,9.66684014 26.7920259,9.8258452 26.4364267,9.92478168 C26.4166712,9.92949294 26.4038882,9.95069361 26.4096986,9.97071647 C26.4120228,9.98131681 26.4189954,9.98956151 26.42713,9.99427277 C26.5619323,10.0720086 26.793188,10.2616368 26.7792429,10.6456046 C26.7652978,11.0366393 26.4863965,11.1744436 26.3341629,11.2215562 C26.3144074,11.2274453 26.3027865,11.248646 26.3085969,11.2686689 C26.3109211,11.2769136 26.3167315,11.2851583 26.3237041,11.2898695 C26.4201574,11.357005 26.5630944,11.5089432 26.5561218,11.8210642 C26.5526356,11.9859583 26.4980174,12.1060955 26.4294542,12.192076 C26.3213799,12.3275247 26.1517149,12.3981937 25.9797258,12.3993715 L21.194244,12.408794 C21.1930819,12.4076162 20.9339361,12.408794 20.9339361,12.0566272 L20.9339361,12.0566272 Z" id="Shape" fill="#FFFFFF"></path>
                        <g id="Group-31" transform="translate(8.777778, 7.545455) scale(-1, 1) translate(-8.777778, -7.545455) translate(3.777778, 4.545455)" stroke="#F7F7F7">
                            <path d="M0,1.42045455 L9.4708697,1.42045455" id="Path-30"></path>
                            <path d="M0,4.82954545 L6.02642526,4.82954545" id="Path-30"></path>
                        </g>
                    </g>
                </g>
                <g id="header_MOB_Logo_white" filter="url(#filter-7)" opacity="0.896949405" transform="translate(128.059979, 197.150591) rotate(9.000000) translate(-128.059979, -197.150591) translate(99.559979, 172.150591)" fill-rule="nonzero">
                    <g id="Group-10" transform="translate(11.728900, 9.907337)" fill="#7678ED">
                        <path d="M3.63177424,21.2676923 C5.63754776,21.2676923 7.26354848,18.8872248 7.26354848,15.9507692 C7.26354848,13.9931322 6.35560492,8.67620913 4.5397178,0 C1.51323927,8.67620913 0,13.9931322 0,15.9507692 C0,18.8872248 1.62600071,21.2676923 3.63177424,21.2676923 Z" id="Oval-17"></path>
                        <path d="M27.8436025,21.2676923 C29.849376,21.2676923 31.4753767,18.8872248 31.4753767,15.9507692 C31.4753767,13.9931322 30.5674332,8.67620913 28.7515461,0 C25.7250675,8.67620913 24.2118283,13.9931322 24.2118283,15.9507692 C24.2118283,18.8872248 25.837829,21.2676923 27.8436025,21.2676923 Z" id="Oval-17" transform="translate(27.843602, 10.633846) scale(-1, 1) translate(-27.843602, -10.633846) "></path>
                    </g>
                    <g id="Group-4" transform="translate(0.432855, 0.851934)" stroke="#EFEBEB" stroke-width="0.756">
                        <g id="Group">
                            <path d="M27.532241,18.1980045 C27.0270398,11.2561343 24.6275009,7.78519921 20.3336244,7.78519921 C13.8928095,7.78519921 9.10254018,15.9952498 9.10254018,22.9335261 C9.10254018,26.5582984 11.3721041,29.9948143 14.3702075,29.9948143 C17.3683109,29.9948143 18.9857624,27.1937457 18.9857624,22.9335261 C18.9857624,14.0128851 11.0782602,0 5.68175649,0 C0.285252793,1.13390192e-15 -3.01260501,24.3951032 3.96348669,35.2591834 C9.44814695,43.800612 17.3043984,48.0713263 27.532241,48.0713263" id="Path-Copy-7"></path>
                            <path d="M55.064482,18.1980045 C54.5592808,11.2561343 52.1597419,7.78519921 47.8658654,7.78519921 C41.4250505,7.78519921 36.6347812,15.9952498 36.6347812,22.9335261 C36.6347812,26.5582984 38.9043451,29.9948143 41.9024485,29.9948143 C44.9005519,29.9948143 46.5180034,27.1937457 46.5180034,22.9335261 C46.5180034,14.0128851 38.6105012,0 33.2139975,0 C27.8174938,1.13390192e-15 24.519636,24.3951032 31.4957277,35.2591834 C36.9803879,43.800612 44.8366394,48.0713263 55.064482,48.0713263" id="Path-Copy-6" transform="translate(41.298361, 24.035663) scale(-1, 1) translate(-41.298361, -24.035663) "></path>
                        </g>
                    </g>
                    <circle id="Oval-15" fill="#AFAFAF" cx="27.2595969" cy="17.9442716" r="4"></circle>
                    <path d="M26.8531598,40.2517149 C31.5475802,40.2517149 35.3531598,37.297828 35.3531598,35.8338895 C35.3531598,34.3699509 31.5475802,36.1284112 26.8531598,36.1284112 C22.1587394,36.1284112 18.3531598,34.3699509 18.3531598,35.8338895 C18.3531598,37.297828 22.1587394,40.2517149 26.8531598,40.2517149 Z" id="Oval-10-Copy-2" fill="#CACACA"></path>
                </g>
            </g>
        </g>
    </g>
</svg>