<?xml version="1.0" encoding="UTF-8"?>
<svg width="31px" height="31px" viewBox="0 0 31 31" version="1.1" xmlns="http://www.w3.org/2000/svg" xmlns:xlink="http://www.w3.org/1999/xlink">
    <!-- Generator: Sketch 53.2 (72643) - https://sketchapp.com -->
    <title>fb_icon</title>
    <desc>Created with Sketch.</desc>
    <g id="Landing-Page-and-Hero" stroke="none" stroke-width="1" fill="none" fill-rule="evenodd">
        <g id="cma_3-list-1-copy-35" transform="translate(-585.000000, -3927.000000)" fill-rule="nonzero">
            <g id="fb_icon" transform="translate(585.000000, 3927.000000)">
                <path d="M31,15.5945419 C31,6.98245614 24.059875,0 15.5,0 C6.940125,0 0,6.98245614 0,15.5945419 C0,23.3781676 5.6671875,29.8304094 13.078125,31 L13.078125,20.1033138 L9.1430625,20.1033138 L9.1430625,15.5945419 L13.078125,15.5945419 L13.078125,12.1598441 C13.078125,8.25146199 15.3915,6.09161793 18.93325,6.09161793 C20.6285625,6.09161793 22.4033125,6.3957115 22.4033125,6.3957115 L22.4033125,10.2339181 L20.448375,10.2339181 C18.5225,10.2339181 17.921875,11.4366472 17.921875,12.668616 L17.921875,15.5945419 L22.2211875,15.5945419 L21.533375,20.1033138 L17.921875,20.1033138 L17.921875,31 C25.3328125,29.8304094 31,23.3781676 31,15.5945419" id="Path" fill="#AFAFAF"></path>
                <path d="M22.437503,15.382052 L18.0911274,15.382052 L18.0911274,12.4517345 C18.0911274,11.2159643 18.6983272,10.0133823 20.6452841,10.0133823 L22.6216216,10.0133823 L22.6216216,6.16941485 C22.6216216,6.16941485 20.827444,5.86486486 19.1135735,5.86486486 C15.5330532,5.86486486 13.1943545,8.02795067 13.1943545,11.9421989 L13.1943545,15.382052 L9.21621622,15.382052 L9.21621622,19.8975912 L13.1943545,19.8975912 L13.1943545,30.8106324 C13.9915491,30.935576 14.8102895,31 15.6427409,31 C16.4751923,31 17.2939327,30.935576 18.0911274,30.8106324 L18.0911274,19.8975912 L21.7421612,19.8975912 L22.437503,15.382052 Z" id="Path" fill="#202020"></path>
            </g>
        </g>
    </g>
</svg>