<?xml version="1.0" encoding="UTF-8"?>
<svg width="331px" height="321px" viewBox="0 0 331 321" version="1.1" xmlns="http://www.w3.org/2000/svg" xmlns:xlink="http://www.w3.org/1999/xlink">
    <!-- Generator: Sketch 53.2 (72643) - https://sketchapp.com -->
    <title>how_it_works</title>
    <desc>Created with Sketch.</desc>
    <defs>
        <filter x="-37.0%" y="-40.2%" width="172.0%" height="178.3%" filterUnits="objectBoundingBox" id="filter-1">
            <feOffset dx="0" dy="3" in="SourceAlpha" result="shadowOffsetOuter1"></feOffset>
            <feGaussianBlur stdDeviation="3" in="shadowOffsetOuter1" result="shadowBlurOuter1"></feGaussianBlur>
            <feColorMatrix values="0 0 0 0 0   0 0 0 0 0   0 0 0 0 0  0 0 0 0.5 0" type="matrix" in="shadowBlurOuter1" result="shadowMatrixOuter1"></feColorMatrix>
            <feMerge>
                <feMergeNode in="shadowMatrixOuter1"></feMergeNode>
                <feMergeNode in="SourceGraphic"></feMergeNode>
            </feMerge>
        </filter>
        <linearGradient x1="11.8278253%" y1="0%" x2="88.1721747%" y2="100%" id="linearGradient-2">
            <stop stop-color="#F6FF40" stop-opacity="0" offset="0%"></stop>
            <stop stop-color="#F0A202" offset="100%"></stop>
        </linearGradient>
        <linearGradient x1="44.7057222%" y1="0%" x2="55.2942778%" y2="100%" id="linearGradient-3">
            <stop stop-color="#F6FF40" stop-opacity="0" offset="0%"></stop>
            <stop stop-color="#F0A202" offset="100%"></stop>
        </linearGradient>
        <linearGradient x1="49.8422798%" y1="0%" x2="50.1577202%" y2="100%" id="linearGradient-4">
            <stop stop-color="#F6FF40" stop-opacity="0" offset="0%"></stop>
            <stop stop-color="#F0A202" offset="100%"></stop>
        </linearGradient>
    </defs>
    <g id="Landing_Page-2" stroke="none" stroke-width="1" fill="none" fill-rule="evenodd">
        <g id="cma_3-list-1-copy-36" transform="translate(-721.000000, -1057.000000)">
            <g id="how_it_works" transform="translate(721.000000, 1057.000000)">
                <g id="Group-2" transform="translate(0.000000, 102.000000)" fill-rule="nonzero" opacity="0.852260045" stroke="#7678ED" stroke-width="1.386">
                    <g id="Group-5-Copy">
                        <rect id="Rectangle" x="0.693" y="0.693" width="75.614" height="101.614"></rect>
                        <g id="Group-3" transform="translate(11.302149, 11.020042)">
                            <path d="M10.0867397,49.6763863 C10.4941471,57.0335292 10.6978508,60.7121006 10.6978508,60.7121006 L17.3629458,65.7271518 C18.8586943,66.8526054 19.1588776,68.9775095 18.033424,70.4732579 C17.9391579,70.5985393 17.8363124,70.7171288 17.7256285,70.828172 L17.3934386,71.1614405 C16.005158,72.5542286 13.8051168,72.7172398 12.226727,71.5442661 L2.86770903,64.5891517 C0.385944152,62.7448387 -0.265881087,59.3050736 1.36907242,56.6806548 L4.28415112,52.0013856 C4.48483451,51.6792496 4.63816585,51.3299366 4.73944027,50.964165 L6.8259984,43.4281674 C7.3553103,41.5164578 8.50168688,39.8333213 10.0867397,38.640672 L10.0867397,38.640672 C10.6089007,38.2477797 11.350698,38.3525728 11.7435903,38.8747338 C11.9439485,39.1410136 12.0227299,39.4794376 11.9605716,39.8068284" id="Path-3"></path>
                            <path d="M19.8645174,34.3490054 C13.1422952,41.093053 14.9756285,47.8371006 23.5311841,49.0632911" id="Path-4"></path>
                            <path d="M7.0311841,72.1538155 C3.72898312,73.1093389 1.5793588,74.8132911 0.582311141,77.265672 C-0.913260344,80.9442434 0.582311141,83.3966244 3.80674762,83.3966244 C7.0311841,83.3966244 10.500216,78.2847678 13.1422952,77.7752199 C15.7843744,77.265672 36.9756285,79.718053 40.0311841,77.265672 C42.0682211,75.6307514 41.6608137,68.6823387 38.8089619,56.4204339" id="Path-5"></path>
                            <path d="M34.5311841,69.9085292 C30.45711,67.0474181 25.4993084,67.0474181 19.6577793,69.9085292" id="Path-6"></path>
                            <path d="M18.7137522,65.0037673 C19.6577793,46.6109101 34.5311841,39.8668625 36.9756285,39.8668625 C39.420073,39.8668625 44.920073,41.093053 48.5867397,50.2894815 C52.2534063,59.4859101 54.0867397,71.1347196 55.3089619,83.3966244" id="Path-7"></path>
                            <path d="M29.6422952,61.6317434 C32.9015545,49.5742038 37.383036,46.6109101 43.0867397,52.7418625" id="Path-8"></path>
                            <path d="M44.920073,38.4031317 C42.5095792,33.65673 39.6577273,31.2835292 36.3645174,31.2835292" id="Path-9"></path>
                            <path d="M23.5311841,37.1769412 L23.5311841,28.5936079" id="Path-11"></path>
                            <path d="M31.4756285,38.4031317 L32.6978508,12.2775768 C32.0623526,7.37281488 29.1983073,4.92043393 24.1057147,4.92043393 C20.505193,4.92043393 16.7906493,8.26148927 15.7843744,11.0513863 C14.6557303,14.1805519 17.420073,18.8091876 17.420073,22.374489 C17.420073,26.8705207 21.0867397,28.8183754 28.420073,28.218053" id="Path-12"></path>
                            <path d="M37.6224682,31.2835292 L37.6224682,12.8511976 C37.6224682,5.75367714 31.868791,-6.63286387e-15 24.7712706,-5.32907052e-15 L24.7712706,-5.32907052e-15 C17.6737501,-4.02527716e-15 11.920073,5.75367714 11.920073,12.8511976 L11.920073,34.2302352" id="Path-13"></path>
                        </g>
                    </g>
                </g>
                <g id="Group-2-Copy" transform="translate(237.000000, 102.000000)" fill-rule="nonzero" opacity="0.852260045" stroke="#F0A202" stroke-width="1.386">
                    <g id="Group-5-Copy">
                        <rect id="Rectangle" x="0.693" y="0.693" width="75.614" height="101.614"></rect>
                        <g id="Group-3" transform="translate(11.302149, 11.020042)">
                            <path d="M10.0867397,49.6763863 C10.4941471,57.0335292 10.6978508,60.7121006 10.6978508,60.7121006 L17.3629458,65.7271518 C18.8586943,66.8526054 19.1588776,68.9775095 18.033424,70.4732579 C17.9391579,70.5985393 17.8363124,70.7171288 17.7256285,70.828172 L17.3934386,71.1614405 C16.005158,72.5542286 13.8051168,72.7172398 12.226727,71.5442661 L2.86770903,64.5891517 C0.385944152,62.7448387 -0.265881087,59.3050736 1.36907242,56.6806548 L4.28415112,52.0013856 C4.48483451,51.6792496 4.63816585,51.3299366 4.73944027,50.964165 L6.8259984,43.4281674 C7.3553103,41.5164578 8.50168688,39.8333213 10.0867397,38.640672 L10.0867397,38.640672 C10.6089007,38.2477797 11.350698,38.3525728 11.7435903,38.8747338 C11.9439485,39.1410136 12.0227299,39.4794376 11.9605716,39.8068284" id="Path-3"></path>
                            <path d="M19.8645174,34.3490054 C13.1422952,41.093053 14.9756285,47.8371006 23.5311841,49.0632911" id="Path-4"></path>
                            <path d="M7.0311841,72.1538155 C3.72898312,73.1093389 1.5793588,74.8132911 0.582311141,77.265672 C-0.913260344,80.9442434 0.582311141,83.3966244 3.80674762,83.3966244 C7.0311841,83.3966244 10.500216,78.2847678 13.1422952,77.7752199 C15.7843744,77.265672 36.9756285,79.718053 40.0311841,77.265672 C42.0682211,75.6307514 41.6608137,68.6823387 38.8089619,56.4204339" id="Path-5"></path>
                            <path d="M34.5311841,69.9085292 C30.45711,67.0474181 25.4993084,67.0474181 19.6577793,69.9085292" id="Path-6"></path>
                            <path d="M18.7137522,65.0037673 C19.6577793,46.6109101 34.5311841,39.8668625 36.9756285,39.8668625 C39.420073,39.8668625 44.920073,41.093053 48.5867397,50.2894815 C52.2534063,59.4859101 54.0867397,71.1347196 55.3089619,83.3966244" id="Path-7"></path>
                            <path d="M29.6422952,61.6317434 C32.9015545,49.5742038 37.383036,46.6109101 43.0867397,52.7418625" id="Path-8"></path>
                            <path d="M44.920073,38.4031317 C42.5095792,33.65673 39.6577273,31.2835292 36.3645174,31.2835292" id="Path-9"></path>
                            <path d="M23.5311841,37.1769412 L23.5311841,28.5936079" id="Path-11"></path>
                            <path d="M31.4756285,38.4031317 L32.6978508,12.2775768 C32.0623526,7.37281488 29.1983073,4.92043393 24.1057147,4.92043393 C20.505193,4.92043393 16.7906493,8.26148927 15.7843744,11.0513863 C14.6557303,14.1805519 17.420073,18.8091876 17.420073,22.374489 C17.420073,26.8705207 21.0867397,28.8183754 28.420073,28.218053" id="Path-12"></path>
                            <path d="M37.6224682,31.2835292 L37.6224682,12.8511976 C37.6224682,5.75367714 31.868791,-6.63286387e-15 24.7712706,-5.32907052e-15 L24.7712706,-5.32907052e-15 C17.6737501,-4.02527716e-15 11.920073,5.75367714 11.920073,12.8511976 L11.920073,34.2302352" id="Path-13"></path>
                        </g>
                    </g>
                </g>
                <g id="Group-11" transform="translate(144.000000, 151.000000)" stroke="#F0A202" stroke-width="0.99">
                    <polygon id="path380-path" points="0.263468115 15.1585207 11.1860533 10.9546394 21.772559 15.2659191 11.1692494 7.81597009e-14"></polygon>
                    <polygon id="path380-path" points="0.263468115 24.350625 10.9113705 30.1539637 21.772559 24.350625 11.0098103 38.4422426"></polygon>
                    <polygon id="path382" points="10.9076064 15.3683271 -3.01980663e-14 19.9251853 10.9076064 25.9370403 21.5090909 20.0530971"></polygon>
                </g>
                <g id="header_MOB_Logo_white" filter="url(#filter-1)" opacity="0.896949405" transform="translate(129.000000, 34.000000)" fill-rule="nonzero">
                    <g id="Group-10" transform="translate(9.583333, 8.572727)" fill="#7678ED">
                        <path d="M3.21669487,18.7223802 C4.9932264,18.7223802 6.43338975,16.6268064 6.43338975,14.0417851 C6.43338975,12.3184376 5.62921603,7.63784258 4.02086859,0 C1.34028953,7.63784258 0,12.3184376 0,14.0417851 C0,16.6268064 1.44016335,18.7223802 3.21669487,18.7223802 Z" id="Oval-17"></path>
                        <path d="M24.6613274,18.7223802 C26.4378589,18.7223802 27.8780222,16.6268064 27.8780222,14.0417851 C27.8780222,12.3184376 27.0738485,7.63784258 25.4655011,0 C22.784922,7.63784258 21.4446325,12.3184376 21.4446325,14.0417851 C21.4446325,16.6268064 22.8847958,18.7223802 24.6613274,18.7223802 Z" id="Oval-17" transform="translate(24.661327, 9.361190) scale(-1, 1) translate(-24.661327, -9.361190) "></path>
                    </g>
                    <g id="Group-4" transform="translate(0.208333, 0.209091)" stroke="#EFEBEB" stroke-width="0.8316">
                        <g id="Group">
                            <path d="M24.2565276,16.8159003 C23.8114339,10.4012521 21.6973859,7.19392797 17.9143834,7.19392797 C12.2398797,7.19392797 8.01954397,14.7804406 8.01954397,21.191768 C8.01954397,24.5412456 10.0190811,27.7167646 12.6604781,27.7167646 C15.3018751,27.7167646 16.7268865,25.1284318 16.7268865,21.191768 C16.7268865,12.9486328 9.76019803,0 5.0057561,0 C0.251314169,1.0477842e-15 -2.65417321,22.542341 3.4919215,32.5813148 C8.32403137,40.4740379 15.2455667,44.4203995 24.2565276,44.4203995" id="Path-Copy-7"></path>
                            <path d="M48.5130552,16.8159003 C48.0679616,10.4012521 45.9539135,7.19392797 42.170911,7.19392797 C36.4964073,7.19392797 32.2760716,14.7804406 32.2760716,21.191768 C32.2760716,24.5412456 34.2756088,27.7167646 36.9170057,27.7167646 C39.5584027,27.7167646 40.9834141,25.1284318 40.9834141,21.191768 C40.9834141,12.9486328 34.0167256,0 29.2622837,0 C24.5078418,1.0477842e-15 21.6023544,22.542341 27.7484491,32.5813148 C32.580559,40.4740379 39.5020943,44.4203995 48.5130552,44.4203995" id="Path-Copy-6" transform="translate(36.384791, 22.210200) scale(-1, 1) translate(-36.384791, -22.210200) "></path>
                        </g>
                    </g>
                    <ellipse id="Oval-15" fill="#AFAFAF" cx="23.6458333" cy="15.3681818" rx="3.64583333" ry="3.65909091"></ellipse>
                    <path d="M23.6458333,36.8 C27.3852613,36.8 30.4166667,33.7118456 30.4166667,32.1813643 C30.4166667,30.6508831 27.3852613,32.4892734 23.6458333,32.4892734 C19.9064053,32.4892734 16.875,30.6508831 16.875,32.1813643 C16.875,33.7118456 19.9064053,36.8 23.6458333,36.8 Z" id="Oval-10-Copy-2" fill="#CACACA"></path>
                </g>
                <text id="Digital-Art-Original" font-family="OpenSans-Regular, Open Sans" font-size="15.4" font-weight="normal" fill="#F0A202">
                    <tspan x="241.090527" y="63">Digital Art </tspan>
                    <tspan x="248.290479" y="84">Original</tspan>
                </text>
                <g id="lock" transform="translate(216.000000, 103.000000)" stroke="#F0A202" stroke-linecap="square" stroke-width="1.1">
                    <path d="M7.5,0 L7.5,0 C4.875,0 2.8125,2.1 2.8125,4.77272727 L2.8125,7.63636364 L12.1875,7.63636364 L12.1875,4.77272727 C12.1875,2.1 10.125,0 7.5,0 Z" id="Path"></path>
                    <rect id="Rectangle" x="0" y="7.63636364" width="15" height="13.3636364"></rect>
                    <ellipse id="Oval" cx="7.5" cy="13.3636364" rx="1.875" ry="1.90909091"></ellipse>
                    <path d="M7.5,15.2727273 L7.5,17.1818182" id="Path"></path>
                </g>
                <path d="M325.119024,124 L325.119024,104 L326.127805,104 L326.127805,124 L325.119024,124 Z M330.946341,115.986791 C330.982114,116.353698 331,116.775635 331,117.252614 C331,117.729593 330.985691,118.160703 330.957073,118.545955 C330.928455,118.931207 330.876586,119.283433 330.801463,119.602642 C330.726341,119.921851 330.645854,120.20253 330.56,120.444689 C330.474146,120.686848 330.352521,120.901485 330.195122,121.088608 C330.037723,121.27573 329.882115,121.435332 329.728293,121.567419 C329.574471,121.699505 329.374148,121.81141 329.127317,121.903137 C328.880487,121.994864 328.642603,122.068244 328.413659,122.12328 C328.184714,122.178316 327.898538,122.22051 327.555122,122.249862 C327.211706,122.279215 326.884392,122.299395 326.573171,122.310402 C326.26195,122.321409 325.880978,122.326912 325.430244,122.326912 C324.578858,122.326912 323.865206,122.301229 323.289268,122.249862 C322.71333,122.198495 322.223254,122.088425 321.819024,121.919648 C321.414795,121.750871 321.10179,121.576592 320.88,121.396808 C320.65821,121.217024 320.482927,120.93084 320.354146,120.53825 C320.225365,120.145659 320.141301,119.769585 320.101951,119.410017 C320.062601,119.050448 320.028618,118.540455 320,117.880022 L321.985366,117.549807 C322.006829,117.711246 322.028293,117.938725 322.049756,118.232251 C322.092683,118.687216 322.133821,119.008254 322.173171,119.195377 C322.212521,119.3825 322.28943,119.589799 322.403902,119.817281 C322.518375,120.044764 322.697235,120.193359 322.940488,120.263071 C323.183741,120.332783 323.502112,120.393322 323.89561,120.444689 C324.289108,120.496056 324.814956,120.521739 325.473171,120.521739 C326.102767,120.521739 326.614307,120.505229 327.007805,120.472207 C327.401303,120.439185 327.726828,120.393323 327.98439,120.334618 C328.241953,120.275912 328.429756,120.180518 328.547805,120.048431 C328.665854,119.916345 328.744553,119.771419 328.783902,119.613649 C328.823252,119.455879 328.842927,119.241241 328.842927,118.96973 L328.842927,118.474408 C328.842927,117.072824 328.805366,116.151901 328.730244,115.711613 C328.655122,115.271324 328.435124,115.018162 328.070244,114.952119 L322.725854,113.994496 C321.795768,113.833057 321.148295,113.469825 320.783415,112.904788 C320.418535,112.339751 320.225366,111.426167 320.203902,110.164007 C320.203902,109.488898 320.237886,108.911028 320.305854,108.43038 C320.373821,107.949732 320.491869,107.527795 320.66,107.164557 C320.828131,106.801319 321.035609,106.509632 321.282439,106.289488 C321.52927,106.069344 321.854795,105.891397 322.259024,105.755641 C322.663254,105.619886 323.106827,105.52816 323.589756,105.480462 C324.072685,105.432764 324.664712,105.408916 325.365854,105.408916 C325.938214,105.408916 326.430079,105.421757 326.841463,105.447441 C327.252848,105.473124 327.653494,105.518987 328.043415,105.58503 C328.433335,105.651074 328.757072,105.742799 329.014634,105.860209 C329.272196,105.977619 329.51008,106.129883 329.728293,106.317006 C329.946505,106.504129 330.116422,106.731608 330.238049,106.99945 C330.359675,107.267292 330.452683,107.580993 330.517073,107.940561 C330.581464,108.30013 330.613659,108.714729 330.613659,109.18437 L328.703415,109.635663 C328.63187,108.828468 328.585366,108.369841 328.563902,108.259769 C328.478048,107.885524 328.274148,107.632362 327.952195,107.500275 C327.59447,107.346174 326.846835,107.269125 325.709268,107.269125 C325.086826,107.269125 324.573498,107.28747 324.169268,107.324161 C323.765039,107.360851 323.434148,107.414052 323.176585,107.483764 C322.919023,107.553477 322.727643,107.658044 322.602439,107.797468 C322.477235,107.936893 322.393171,108.085488 322.350244,108.243258 C322.307317,108.401028 322.285854,108.608327 322.285854,108.865162 L322.285854,110.7694 C322.285854,111.444509 322.579184,111.840763 323.165854,111.958173 L327.007805,112.629609 C327.44423,112.717667 327.764389,112.785544 327.968293,112.833242 C328.172196,112.88094 328.436909,112.952485 328.762439,113.047881 C329.087969,113.143277 329.324064,113.238671 329.470732,113.334067 C329.617399,113.429463 329.798048,113.557878 330.012683,113.719318 C330.227318,113.880757 330.377561,114.062373 330.463415,114.264172 C330.549269,114.465971 330.644065,114.70996 330.747805,114.996147 C330.851545,115.282335 330.917723,115.612546 330.946341,115.986791 Z" id="$" fill="#F0A202" fill-rule="nonzero"></path>
                <g id="Group-7" opacity="0.385184152" transform="translate(109.000000, 0.000000)" fill-rule="nonzero" stroke-width="2">
                    <path d="M12.6694118,29 L-5.68434189e-14,14.5" id="Path-18" stroke="url(#linearGradient-2)"></path>
                    <path d="M88.6858824,29 L76.0164706,14.5" id="Path-18" stroke="url(#linearGradient-2)" transform="translate(82.351176, 21.750000) scale(-1, 1) translate(-82.351176, -21.750000) "></path>
                    <path d="M28.0088235,20.7142857 L22.6164706,4.14285714" id="Path-19" stroke="url(#linearGradient-3)"></path>
                    <path d="M65.7029412,20.7142857 L60.3105882,4.14285714" id="Path-19" stroke="url(#linearGradient-3)" transform="translate(63.006765, 12.428571) scale(-1, 1) translate(-63.006765, -12.428571) "></path>
                    <path d="M44.2905882,18.6428571 L44.2905882,0" id="Path-20" stroke="url(#linearGradient-4)"></path>
                </g>
                <path id="Path-2" d="M143.990873,90.5814389 L139.626992,97.712018 L138.688751,97.137819 L143.538727,89.2129621 L144.024821,88.4186843 L144.485747,89.2278272 L149.084607,97.3009995 L148.128807,97.8454684 L143.990873,90.5814389 Z M77,154.55 L77,153.45 C78.8673133,153.45 80.6923113,153.414814 82.4754175,153.344843 L82.5185497,154.443997 C80.7209489,154.514537 78.8815749,154.55 77,154.55 Z M88.0327463,154.107097 L87.9406922,153.010955 C89.8032945,152.854534 91.6152975,152.656684 93.377316,152.417973 L93.5249904,153.508015 C91.7443155,153.749254 89.9137716,153.949128 88.0327463,154.107097 Z M98.9977163,152.606458 L98.7864675,151.526933 C100.623206,151.167508 102.398498,150.758754 104.113281,150.301503 L104.396696,151.364365 C102.657829,151.828038 100.858473,152.242333 98.9977163,152.606458 Z M109.690104,149.73606 L109.32529,148.698317 C111.085536,148.079511 112.771517,147.402564 114.384709,146.668687 L114.840205,147.669948 C113.197109,148.417429 111.48087,149.106524 109.690104,149.73606 Z M119.78753,145.116565 L119.233418,144.166323 C120.833427,143.233313 122.346525,142.234368 123.775009,141.171143 L124.431787,142.05355 C122.970263,143.141366 121.422883,144.162945 119.78753,145.116565 Z M128.712637,138.449018 L127.954082,137.652404 C129.277635,136.392086 130.507836,135.063703 131.647921,133.669194 L132.499537,134.365435 C131.330676,135.795141 130.069416,137.157062 128.712637,138.449018 Z M135.749798,129.84635 L134.819216,129.259821 C135.781431,127.733178 136.654538,126.14515 137.442614,124.49739 L138.434958,124.972 C137.628722,126.65773 136.735066,128.283133 135.749798,129.84635 Z M140.557824,119.84125 L139.520951,119.47397 C140.119686,117.78367 140.641888,116.044995 141.09258,114.257593 L142.159195,114.526539 C141.700293,116.346503 141.168247,118.117955 140.557824,119.84125 Z M143.297832,109.060784 L142.21294,108.879097 C142.508857,107.112111 142.744529,105.31057 142.9268,103.463445 L144.021484,103.571467 C143.836849,105.442545 143.597973,107.268569 143.297832,109.060784 Z M144.408392,98.0691198 L143.309477,98.0202726 C143.317711,97.8350443 143.325532,97.6492056 143.332585,97.475901 L143.410098,92.5377638 L144.509962,92.555028 L144.432083,97.5063948 C144.424595,97.6946269 144.416702,97.8821733 144.408392,98.0691198 Z" fill="#7678ED" fill-rule="nonzero"></path>
                <path id="Path-10" d="M230.418493,153.998096 L223.234258,149.723124 L223.796758,148.777823 L231.781247,153.528986 L232.581502,154.005177 L231.778147,154.476118 L223.762722,159.174904 L223.206423,158.225941 L230.418493,153.998096 Z M163.45,90 L164.55,90 C164.55,91.8718797 164.581553,93.6968173 164.644374,95.4754142 L163.545059,95.5142421 C163.481777,93.7225714 163.45,91.8846946 163.45,90 Z M163.850792,101.038643 L164.947592,100.9548 C165.090734,102.827311 165.272269,104.642874 165.491797,106.402384 L164.400259,106.538571 C164.178535,104.761452 163.995256,102.928444 163.850792,101.038643 Z M165.23442,112.002025 L166.316555,111.80458 C166.654248,113.655375 167.039634,115.435764 167.472143,117.147153 L166.405673,117.416676 C165.967061,115.681138 165.576474,113.876721 165.23442,112.002025 Z M167.971865,122.734899 L169.013356,122.380927 C169.617172,124.157527 170.280729,125.846761 171.003262,127.450963 L170.000299,127.902698 C169.263202,126.266162 168.586831,124.544306 167.971865,122.734899 Z M172.567596,132.854534 L173.513151,132.292461 C174.461979,133.888639 175.483539,135.380891 176.577114,136.773043 L175.712086,137.452547 C174.58898,136.022801 173.540556,134.491308 172.567596,132.854534 Z M179.476729,141.605222 L180.236429,140.8097 C181.551031,142.065107 182.945266,143.212893 184.419365,144.258332 L183.783025,145.155589 C182.265651,144.07946 180.830163,142.897712 179.476729,141.605222 Z M188.522537,148.0419 L189.029583,147.065732 C190.610007,147.886643 192.265438,148.616414 193.998494,149.260793 L193.615137,150.29183 C191.840531,149.632002 190.143808,148.884029 188.522537,148.0419 Z M198.94967,151.955163 L199.223846,150.88988 C200.933467,151.329891 202.709254,151.704372 204.55951,152.01902 L204.375095,153.103451 C202.495462,152.783808 200.689808,152.403028 198.94967,151.955163 Z M209.891418,153.848994 L210.0047,152.754843 C211.749266,152.935464 213.558887,153.075214 215.461397,153.179796 L215.401021,154.278138 C213.481501,154.17262 211.654355,154.031518 209.891418,153.848994 Z M220.908779,154.483013 L220.932856,153.383277 C221.760739,153.401401 222.613507,153.415256 223.502444,153.425432 L226.42491,153.43502 L226.421301,154.535014 L223.494355,154.525393 C222.597241,154.515142 221.740661,154.501225 220.908779,154.483013 Z" fill="#F0A202" fill-rule="nonzero"></path>
                <g id="Group-2" transform="translate(93.000000, 190.000000)">
                    <path d="M14.2111768,38.8968733 C14.1122451,39.8563366 14.0104866,40.7681487 13.9143815,41.588522 C13.6515056,43.8551735 13.4395089,45.4334584 13.4395089,45.4334584 L11.6862962,51.082057 C11.0877589,53.0138623 8.73459556,53.9971512 6.73688004,53.1510205 C6.70154725,53.13621 6.66762778,53.1220434 6.632295,53.1072329 C3.18028215,51.5939854 5.13418502,45.4186479 5.13418502,45.4186479 L5.78996146,45.3748603 C6.06061058,44.6993724 6.79341249,42.9749142 7.72407798,40.8080726 C7.83714288,40.5421275 7.95515438,40.269099 8.07387252,39.991563 C8.25760299,39.5665658 8.4455734,39.1274021 8.63778373,38.6798672 C8.86179357,38.1595676 9.09145666,37.630253 9.32323971,37.0925672 C11.6813496,31.6255582 14.3136419,25.566129 14.3136419,25.566129 C15.3510124,26.0220351 14.8012343,33.2836911 14.2111768,38.8968733" id="Fill-183" fill="#F0A980"></path>
                    <path d="M12.6041667,40.2146734 C12.5228092,41.2066667 12.4391272,42.1493931 12.3600941,42.9975806 C10.686454,42.4103739 9.04187006,40.9956185 8.02083333,39.9903099 C8.20504998,39.4523699 8.39391562,38.9051092 8.58452464,38.3491935 L12.6041667,40.2146734" id="Fill-184" fill="#E98867"></path>
                    <path d="M9.02259653,47.6441561 C9.01384368,47.6459677 9.00596612,47.6459677 8.99677563,47.6459677 C8.91449888,47.6459677 8.84228791,47.563234 8.83003392,47.4484938 C8.52981131,44.6941252 8.22389935,42.6596003 8.02083333,41.4391269 C8.0908561,41.189718 8.16394236,40.9330623 8.23746627,40.6733871 C8.4282783,41.7489255 8.80027425,44.04071 9.16483027,47.3784419 C9.17839718,47.5058639 9.11537669,47.6242275 9.02259653,47.6441561" id="Fill-185" fill="#E98867"></path>
                    <path d="M6.875,36.4527377 C6.875,36.4527377 7.37022257,37.0710874 8.23516187,37.7499702 C9.28125,38.5759551 10.8701664,39.4937162 12.77192,39.5112903 C13.0012927,32.3931096 13.258487,26.1699087 13.75,24.4040323 C12.8745504,25.5430974 8.7489321,31.3568858 6.875,36.4527377" id="Fill-186" fill="#DF503D"></path>
                    <path d="M3.4375,42.2521528 C3.56105512,42.6086094 3.70651319,43.3684882 3.77390689,43.8953456 C3.89465394,44.8370654 4.6455321,51.1322581 4.6455321,51.1322581 L8.02083333,49.3343197 C8.02083333,49.3343197 7.67937191,44.2421682 6.91950792,41.8354839 L3.4375,42.2521528" id="Fill-187" fill="#F0A980"></path>
                    <path d="M2.19088393,35.1041479 C2.19088393,35.1041479 1.23281181,35.0953525 0.941684925,35.7368294 C0.941684925,35.7368294 0.673054207,35.6705709 0.154980678,36.1396582 C-0.432566313,36.6703132 0.755099057,38.7806198 1.96195233,38.27811 C1.96195233,38.27811 1.96195233,38.2769373 1.96327564,38.2769373 C1.98841841,38.2681419 2.01223789,38.2558283 2.03605736,38.2441012 C2.03605736,38.2441012 2.04664379,38.3414368 2.07840309,38.5003401 C2.19286889,39.0497586 2.60309314,40.338576 3.65511984,40.6733871 C3.65511984,40.6733871 6.22100636,40.3391624 7.06262773,39.5739637 L7.95254969,35.8793147 C7.95254969,35.8793147 8.39453324,34.2117093 7.02954513,34.2685861 C5.66521867,34.325463 5.5917753,34.6227471 5.5917753,34.6227471 C5.5917753,34.6227471 5.23448321,33.6857452 4.55099667,33.7009905 C3.86751014,33.7174085 3.65048828,34.4632574 3.65048828,34.4632574 C3.65048828,34.4632574 3.19990326,33.9296706 2.6229427,34.2416136 C2.04664379,34.554143 2.19088393,35.1041479 2.19088393,35.1041479" id="Fill-188" fill="#F0A980"></path>
                    <path d="M4.5925339,37.6483699 C4.61171012,37.7828879 4.65864141,37.9003708 4.7338324,38.0043432 C4.77773587,38.0666092 4.83122745,38.1212387 4.8938025,38.1717564 C4.94275234,38.2099384 4.99573928,38.2451832 5.05579114,38.277491 C5.16378357,38.3362325 5.28489658,38.3556172 5.40752349,38.3473934 C6.04689923,38.3062744 6.8023416,37.5203136 6.84069405,37.4803694 C6.88358824,37.4351384 6.88661607,37.3581871 6.84775898,37.3094317 C6.80890189,37.258914 6.74380365,37.2548021 6.70090946,37.3006205 C6.42184491,37.5925656 5.59676256,38.3009876 5.1425888,38.0572105 C5.10675953,38.0372385 5.07345346,38.0166789 5.0431752,37.995532 C4.97656305,37.9479514 4.92307147,37.8939093 4.88270047,37.8345804 C4.8372831,37.7676151 4.80902339,37.692426 4.79741673,37.6084257 C4.77773587,37.4639217 4.80549093,37.3059072 4.86049642,37.1514171 C4.8938025,37.0539063 4.93871524,36.9563955 4.98816971,36.8641714 C5.17337168,36.5170093 5.42114871,36.2391622 5.42619508,36.2338754 C5.46808,36.1874697 5.46959391,36.1111058 5.42972755,36.0623504 C5.38986118,36.0147698 5.32375367,36.0118327 5.28186875,36.0582385 C5.26572035,36.0770357 5.06588389,36.2996659 4.88370975,36.6080586 C4.83829237,36.6850099 4.79438891,36.767248 4.75502718,36.8518357 C4.63593273,37.1050114 4.55519072,37.3869704 4.5925339,37.6483699" id="Fill-189" fill="#E98867"></path>
                    <path d="M2.29166667,40.4661794 C2.32179055,40.4580001 2.35032897,40.4470945 2.37807465,40.4356435 C2.37807465,40.4356435 2.39155112,40.5261606 2.42960235,40.6733871 C2.73876853,40.5283417 2.88304608,40.2775113 2.92981737,40.0757564 C3.23739808,40.1351923 3.82164289,40.1869943 4.30917417,39.8756374 C4.47327006,39.7698524 4.55175071,39.6351674 4.57473999,39.4890314 C4.58821646,39.4159634 4.58504553,39.3396238 4.57077632,39.2627388 C4.50180848,38.8483234 4.1387364,38.4290004 4.11416166,38.4033721 C4.06739036,38.3504796 3.9651277,38.3330305 3.88823252,38.3657475 C3.81133735,38.3979192 3.7867626,38.4682608 3.83274116,38.5211533 C3.95402943,38.65911 4.15776201,38.9410216 4.22910805,39.2071199 C4.25447554,39.2949105 4.26398834,39.3810653 4.24971913,39.4601314 C4.24337726,39.5064805 4.22990079,39.5490126 4.20691151,39.5888183 L4.20453331,39.5899089 C4.17916583,39.6351674 4.1387364,39.6755184 4.08562324,39.7104165 C3.9675059,39.7867562 3.83987576,39.8336506 3.71303836,39.8609147 C3.28179117,39.9557941 2.86402046,39.8227449 2.85688586,39.8211091 L2.62857853,39.7447694 L2.62540759,39.9214412 C2.62223666,39.9394356 2.60955292,40.2867811 2.29166667,40.4661794" id="Fill-190" fill="#E98867"></path>
                    <path d="M4.8915625,37.7129456 C4.97635417,37.8895843 5.06,38.0929512 5.13104167,38.3056149 C5.20666667,38.1127069 5.30864583,37.9197988 5.4209375,37.7373496 C5.33614583,37.5270101 5.245625,37.3515335 5.18375,37.2306754 C5.080625,37.3829101 4.9809375,37.5456036 4.8915625,37.7129456" id="Fill-191" fill="#E98867"></path>
                    <path d="M3.45295211,39.3876402 C3.45414073,39.3795055 3.45473504,39.3702087 3.45592367,39.3632362 C3.52129798,39.3992612 3.60390733,39.4317999 3.69661999,39.4492313 C3.90641209,39.4852563 4.1667207,39.4248273 4.40741701,39.0692257 C4.43594398,39.0308765 4.46387664,38.9855547 4.49002637,38.9367466 C4.52627939,38.8705071 4.55718361,38.7961329 4.58333333,38.7205966 C4.50488416,38.6264668 4.4418871,38.5195539 4.39434215,38.4021821 C4.37591848,38.4695837 4.35274032,38.5311749 4.32243041,38.5834692 C4.28914895,38.6438983 4.25408454,38.6973547 4.21902014,38.7380281 C4.04072657,38.9692854 3.84757521,38.9983378 3.69364843,38.9669612 C3.57954054,38.9425571 3.48563926,38.8844523 3.4375,38.8484273 C3.45651798,39.0355249 3.46364972,39.2191362 3.45295211,39.3876402" id="Fill-192" fill="#E98867"></path>
                    <path d="M3.65520833,39.0214665 C3.664375,39.1097859 3.68385417,39.2457512 3.71364583,39.4165794 C4.06197917,39.1771875 4.2625,38.8006681 4.365625,38.4439044 C4.32895833,38.5403585 4.27052083,38.6263536 4.19375,38.7007278 C4.02302083,38.8634214 3.83854167,38.9633617 3.65520833,39.0214665" id="Fill-193" fill="#E98867"></path>
                    <path d="M5.09025088,40.6513779 C5.24425333,40.6767161 5.41258158,40.6808029 5.59595194,40.6603689 C5.67689276,40.6513779 5.73634487,40.5688246 5.72846567,40.4764629 C5.71987019,40.3832839 5.64824114,40.315443 5.56586774,40.324434 C4.02727585,40.4960796 3.74290854,38.5736491 3.73144789,38.4919131 C3.71855466,38.3995514 3.64334416,38.3366147 3.56240334,38.3513272 C3.48146252,38.3652223 3.42702445,38.4510451 3.43920138,38.5434068 C3.44206654,38.5646581 3.71210805,40.4257866 5.09025088,40.6513779" id="Fill-194" fill="#E98867"></path>
                    <path d="M3.61241248,40.6719185 C3.65878159,40.6764544 3.70811042,40.6706225 3.7515198,40.6524789 C3.78309026,40.6388712 4.54571407,40.3103419 4.58320398,39.6500435 C4.58715029,39.576173 4.50033154,39.5146143 4.38687521,39.5113744 C4.27440547,39.5087824 4.1796941,39.5664532 4.17574779,39.6403237 C4.14713707,40.1574171 3.55617761,40.4166118 3.53052661,40.4269795 C3.43581525,40.4678027 3.40917768,40.550097 3.47034543,40.6123037 C3.50388904,40.645999 3.55617761,40.6667346 3.61241248,40.6719185" id="Fill-195" fill="#E98867"></path>
                    <path d="M7.85864683,39.4040917 C7.94363079,39.3971191 8.01361758,39.3041513 8.02028298,39.1832933 C8.02778157,39.0508142 7.95779478,38.9357667 7.86281271,38.9253078 C7.39456776,38.8718513 7.17960834,38.5429779 7.17794199,38.5406537 C7.11462061,38.4395513 7.00714089,38.4279304 6.93465458,38.5139255 C6.86300143,38.6010828 6.85466967,38.7533175 6.9163247,38.8532578 C6.92882234,38.8730134 7.21960079,39.3343658 7.8353179,39.4029296 C7.84364966,39.4040917 7.85114824,39.4040917 7.85864683,39.4040917" id="Fill-196" fill="#E98867"></path>
                    <path d="M7.32507443,32.734334 L5.72916667,35.4882887 C5.8873243,35.7446105 5.96768271,36.025 5.96768271,36.025 C5.96768271,36.025 6.00095211,35.8462968 6.48668543,35.7367884 L7.95361027,33.2427657 C8.00530581,33.15552 8.02629112,33.0526303 8.01963724,32.9539524 C8.01247152,32.8396305 7.9679417,32.7277154 7.88809513,32.64769 C7.7161179,32.472597 7.45252185,32.5135122 7.32507443,32.734334" id="Fill-197" fill="#544186"></path>
                    <path d="M1.14583333,42.2133209 L1.78179101,42.9975806 L3.4375,39.5382622 C3.4284221,39.5465613 3.41833553,39.5548603 3.40824897,39.5617762 C3.14650271,39.7519626 2.69109448,39.5908228 2.48431998,39.5112903 C2.47574641,39.6323181 2.44195643,39.9677378 2.27401518,40.1572326 C2.27300653,40.1572326 2.27300653,40.1593074 2.27300653,40.1593074 C2.24980744,40.1738307 2.22509536,40.1869709 2.2024006,40.1980363 L2.20139195,40.1994194 L1.14583333,42.2133209" id="Fill-198" fill="#544186"></path>
                    <polyline id="Fill-200" fill="#F0A980" points="18.3333333 119.937562 18.3333333 123.182258 21.5604408 123.134781 21.7708333 119.695968 18.3333333 119.937562"></polyline>
                    <path d="M17.0836796,123.067342 C17.0836796,123.067342 16.3398154,121.967346 15.7580523,122.022143 C15.1762893,122.07694 10.7275131,126.15694 9.19295542,126.508722 C7.65839778,126.861181 7.96999223,128.13301 8.25877244,128.781778 C8.54695228,129.42987 20.5250272,128.377905 20.5250272,128.377905 C20.5250272,128.377905 20.8138074,124.352702 20.4097552,123.128228 C20.0057031,121.903754 18.2892319,123.34268 17.0836796,123.067342" id="Fill-201" fill="#DF503D"></path>
                    <path d="M15.7010526,125.500792 C15.768773,125.511375 15.843191,125.507565 15.9094231,125.485553 C16.0366779,125.443221 16.0798403,125.350515 16.0046781,125.278128 C15.9801202,125.253999 15.3862645,124.682098 14.5974336,124.46282 C13.549628,124.169885 12.7429368,124.510655 12.7094487,124.525047 C12.5918682,124.575845 12.5695428,124.671515 12.6588444,124.737976 C12.7474019,124.80486 12.9155866,124.817983 13.033167,124.766761 C13.0547483,124.757872 13.61586,124.528011 14.3630168,124.735436 C15.0052443,124.914499 15.5388214,125.426288 15.5440306,125.431368 C15.5804955,125.466504 15.6370531,125.490209 15.7010526,125.500792" id="Fill-202" fill="#FFFFFE"></path>
                    <path d="M15.7004169,125.500587 C15.7681376,125.511591 15.8440442,125.507359 15.9095324,125.485774 C16.0367877,125.443449 16.0792061,125.350336 16.005532,125.277962 C15.9802298,125.253837 15.3871158,124.682038 14.5982816,124.462799 C13.5489833,124.169916 12.7437771,124.510625 12.7095447,124.525015 C12.5927079,124.575804 12.568894,124.671457 12.6589402,124.737906 C12.7482422,124.804778 12.9156834,124.817899 13.0332643,124.766686 C13.0555898,124.757798 13.6174481,124.527978 14.3638639,124.735366 C15.0083265,124.915244 15.5389291,125.426097 15.5441384,125.431175 C15.5798592,125.466304 15.6379055,125.490006 15.7004169,125.500587" id="Fill-203" fill="#FFFFFE"></path>
                    <path d="M15.7006581,126.662581 C15.7683747,126.673585 15.8435328,126.669776 15.9097611,126.647769 C16.0370089,126.605448 16.0794248,126.512342 16.0050109,126.439974 C15.9797102,126.415851 15.3866315,125.84452 14.5978444,125.624875 C13.5486087,125.332015 12.7434505,125.672698 12.7092201,125.68751 C12.5923903,125.737872 12.569322,125.833517 12.6586187,125.900384 C12.7479153,125.966827 12.9153465,125.979947 13.0321763,125.929162 C13.0552446,125.919851 13.6170694,125.690049 14.3634407,125.897844 C15.008609,126.077708 15.53918,126.588097 15.5436448,126.593175 C15.5793635,126.628301 15.6366622,126.652424 15.7006581,126.662581" id="Fill-204" fill="#FFFFFE"></path>
                    <path d="M25.2083333,68.7024875 C25.1875839,69.1214393 25.086801,71.1389543 24.9338482,73.9511686 C24.5206384,81.677557 23.749353,95.4073945 23.2964229,98.4912729 C22.831636,101.655669 23.0415015,112.033891 23.1908973,117.465864 C23.2152038,118.389522 22.8962556,119.228735 22.3626992,119.844725 C22.1646905,120.07253 21.9340755,120.268913 21.683304,120.429948 C21.2469735,120.701612 20.7454305,120.858065 20.211874,120.858065 L17.9804226,120.858065 C16.2991271,120.858065 14.9492294,119.322344 15.0013994,117.465864 C15.1270815,112.873104 15.2800344,104.494722 14.9889497,98.0225705 C14.7109075,91.8633238 15.1146319,80.9633751 15.4258731,74.1698091 L15.4294302,74.1698091 C15.5551123,71.4564412 15.664195,69.4029226 15.708658,68.5637097 L25.2083333,68.7024875" id="Fill-205" fill="#F0A202"></path>
                    <path d="M15.1902976,69.7258065 L25.2083333,69.8641434 C25.1864517,70.2817645 25.0801695,72.292871 24.9188706,75.0961525 C21.5165896,75.5320445 17.9742662,75.7147537 14.8958333,75.3140985 C15.0283735,72.6093495 15.1434084,70.5623537 15.1902976,69.7258065" id="Fill-206" fill="#E77A38"></path>
                    <path d="M23.6049624,108.39298 C23.6808744,111.815944 23.7594976,115.355007 23.7085281,118.207799 C23.6933457,119.008232 23.6700298,119.693212 23.6391228,120.280798 C23.4580183,120.50848 23.2476335,120.702622 23.0155595,120.858065 C23.0654446,120.176955 23.1039428,119.304928 23.1250898,118.192964 C23.175517,115.356296 23.0968939,111.826909 23.0204396,108.411685 C22.926634,104.239242 22.8393351,100.297061 23.0301997,98.6187959 C23.4471737,94.9468656 24.3792653,75.0405273 24.6238105,69.7258065 L25.2083333,69.757411 C24.9637881,75.0676169 24.0284432,95.0152346 23.608758,98.7116745 C23.4249424,100.333825 23.5122412,104.249562 23.6049624,108.39298" id="Fill-207" fill="#E77A38"></path>
                    <polyline id="Fill-208" fill="#F0A980" points="33.2291667 120.044364 33.3609747 123.182258 36.5951887 123.028708 36.6666667 119.695968 33.2291667 120.044364"></polyline>
                    <path d="M37.7193353,98.4593694 C37.4276592,104.807721 37.5812041,113.025841 37.7068857,117.53075 C37.7549055,119.35172 36.4091641,120.858065 34.7278765,120.858065 L32.4964357,120.858065 C32.0031947,120.858065 31.5342602,120.726436 31.125795,120.499136 C30.8791746,120.35916 30.6491536,120.183869 30.4511458,119.973263 C29.8523798,119.365203 29.4889703,118.493886 29.5174265,117.53075 C29.6668216,112.202681 29.8766861,102.022973 29.4119014,98.9191064 C28.9506737,95.8415652 28.1592355,81.9627727 27.7507703,74.4631523 C27.616789,71.9589982 27.5243063,70.168207 27.5,69.7258065 L37.015637,69.8619297 C37.0440932,70.3961492 37.0879632,71.2186675 37.1407257,72.2607809 C37.4478156,78.2591931 38.041839,91.4676427 37.7193353,98.4593694" id="Fill-209" fill="#F0A202"></path>
                    <path d="M37.8125,72.2131787 C35.8967416,72.7329563 32.0962981,73.686827 27.7682442,74.3741935 C27.624927,71.9170629 27.526,70.1598995 27.5,69.7258065 L37.678695,69.8593736 C37.709134,70.3835614 37.7560609,71.1906343 37.8125,72.2131787" id="Fill-210" fill="#E77A38"></path>
                    <path d="M31.8754739,118.136413 C31.8955418,119.281117 31.9373047,120.170083 31.9872033,120.858065 C31.7604902,120.719566 31.552218,120.543706 31.3678103,120.334992 C31.3325559,119.724312 31.3065218,119.003477 31.2907929,118.151229 C31.2398096,115.302031 31.3189965,111.767427 31.3954714,108.348776 C31.4876753,104.210577 31.5744554,100.299774 31.3905901,98.6796666 C30.9702489,94.9865952 30.0351933,75.0538011 29.7916667,69.7573712 L30.3752629,69.7258065 C30.6193319,75.0261015 31.552218,94.9183124 31.9698472,98.586905 C32.1613058,100.263056 32.0723562,104.20027 31.9801524,108.367457 C31.9036774,111.778378 31.8250329,115.303319 31.8754739,118.136413" id="Fill-211" fill="#E77A38"></path>
                    <path d="M34.1245679,123.505538 C34.1245679,123.505538 35.8673899,123.155483 36.3430061,123.183899 C36.8192847,123.21171 39.85051,126.597389 40.9150158,126.832573 C42.8459646,127.260015 42.7128186,130.036272 41.5211284,130.12575 C38.0725798,130.385117 32.2717845,128.824682 32.2717845,128.824682 C32.2717845,128.824682 31.9054673,125.240699 32.1942816,124.131889 C32.4844207,123.023684 33.1508133,123.795135 34.1245679,123.505538" id="Fill-212" fill="#DF503D"></path>
                    <path d="M36.9695953,126.666048 C36.9019379,126.673626 36.8306816,126.664154 36.7716613,126.635264 C36.6564997,126.579853 36.6327476,126.473293 36.7169595,126.39799 C36.7450302,126.372416 37.4201652,125.777101 38.2176594,125.58624 C39.2793056,125.331917 39.9925879,125.765261 40.0228179,125.783731 C40.1271831,125.848614 40.1315016,125.956121 40.0336143,126.02432 C39.9357269,126.092518 39.7723413,126.09536 39.6679761,126.03095 C39.6492623,126.01911 39.1504686,125.725478 38.3940007,125.90592 C37.7440572,126.061261 37.138739,126.594534 37.1329809,126.599744 C37.0919546,126.636211 37.0322145,126.658944 36.9695953,126.666048" id="Fill-213" fill="#FFFFFE"></path>
                    <path d="M36.9696517,125.503755 C36.9027015,125.511807 36.8307121,125.501861 36.7716808,125.473444 C36.6564978,125.417558 36.6327413,125.310995 36.7169689,125.235691 C36.7457646,125.210116 37.4203053,124.614786 38.2179479,124.424394 C39.2812314,124.16959 39.9939265,124.602945 40.0234421,124.62189 C40.1271069,124.685827 40.1314262,124.793811 40.0335207,124.862011 C39.936335,124.930211 39.7721991,124.933526 39.6685344,124.868642 C39.6490972,124.856801 39.1502107,124.563162 38.394322,124.743608 C37.742098,124.8999 37.1388268,125.43224 37.1330676,125.43745 C37.0920337,125.473918 37.0330024,125.496651 36.9696517,125.503755" id="Fill-214" fill="#FFFFFE"></path>
                    <path d="M38.1154515,126.666049 C38.0485088,126.673623 37.9765273,126.664155 37.9175025,126.635277 C37.8023322,126.579415 37.7785784,126.472898 37.8627966,126.397626 C37.8915892,126.372535 38.5660553,125.77746 39.3636097,125.586202 C40.4267756,125.331981 41.1393919,125.765151 41.1689043,125.784087 C41.2725575,125.848471 41.2775962,125.955935 41.1797015,126.024106 C41.0818067,126.092277 40.917689,126.095591 40.8147556,126.030734 C40.7946008,126.018898 40.2957694,125.725385 39.5399642,125.905754 C38.8878124,126.061979 38.2846079,126.594091 38.2788494,126.599298 C38.23782,126.636224 38.1787952,126.658474 38.1154515,126.666049" id="Fill-215" fill="#FFFFFE"></path>
                    <path d="M23.6290641,18.5935484 C20.9739689,20.1490333 14.9547579,23.4799837 13.9098855,25.0231028 C13.9098855,25.0231028 13.9098855,25.0231028 13.9092636,25.0244045 C13.3482666,25.8548642 13.0211221,32.0715971 12.8339158,39.6843614 C12.8301841,39.8314491 12.8270744,39.9804893 12.8239646,40.1301803 C12.8214768,40.2401706 12.8183671,40.3514626 12.8158793,40.4627547 C12.5465759,52.1269388 12.593222,66.6795086 12.64049,70.2668863 C21.4006251,72.6476243 30.1700893,72.641116 38.9501267,70.2668863 C39.0104557,64.2733883 38.7641643,26.9092096 37.3349282,24.8005188 C36.3068485,23.2840838 30.9307315,20.2492612 28.4236599,18.7575577 L23.6290641,18.5935484" id="Fill-216" fill="#FE5D26"></path>
                    <path d="M19.82787,22.1397363 L20.1303202,33.4855074 C24.1304037,34.2113636 28.1875656,34.1630591 32.2972135,33.4004914 L32.1056399,22.0798387 C32.6318112,22.0985165 33.0202071,22.2698366 33.3456198,22.7618989 L33.3456198,34.4689879 C33.3456198,39.552558 35.7429144,45.4366953 39.7475904,48.5262539 L41.25,82.138487 C41.25,82.138487 28.9039985,85.6408884 11.4583333,82.0560472 L12.1891998,48.7671325 C13.3937518,47.7566015 14.4303488,46.5676657 15.264875,45.2460534 C17.6162444,41.520163 18.8332618,38.9142939 18.8253889,34.928203 L18.8037384,22.667222 C19.0779774,22.231837 19.4224163,22.0714659 19.82787,22.1397363" id="Fill-217" fill="#7678ED"></path>
                    <path d="M23.8070563,44.1760501 C23.8070563,44.1760501 28.3225089,44.1064292 28.7218433,47.0887381 C29.074346,49.7153472 25.5758987,47.9476076 26.9485709,50.4482661 C28.3218761,52.9495575 34.9599395,52.3400576 34.3334086,55.3970509 C33.7062448,58.4534112 17.5683272,60.6179903 16.195655,52.1501822 C15.0349906,44.9868179 20.7168033,44.0108586 23.8070563,44.1760501" id="Fill-218" fill="#FFFFFE"></path>
                    <path d="M19.4797913,47.0034099 C19.4544679,47.3223123 20.2022132,47.6085674 21.1518426,47.6426341 C22.1000652,47.6767009 22.8900162,47.4458042 22.9160431,47.1269018 C22.9413666,46.8075263 22.1922144,46.5212712 21.2432884,46.4872044 C20.2943624,46.4531377 19.5051148,46.6840344 19.4797913,47.0034099" id="Fill-219" fill="#009F7D"></path>
                    <path d="M16.0422913,49.3273479 C16.0169679,49.6468069 16.764713,49.9331368 17.7143423,49.9667391 C18.6632682,50.001288 19.4532191,49.770331 19.4785426,49.450872 C19.503866,49.1318863 18.7554174,48.8450832 17.8064916,48.8114808 C16.8568623,48.7769319 16.0676148,49.0083622 16.0422913,49.3273479" id="Fill-220" fill="#DF503D"></path>
                    <path d="M19.4798249,53.9758179 C19.453793,54.2946143 20.203091,54.5807743 21.1514983,54.6153027 C22.1006092,54.6488851 22.890714,54.4180651 22.9160424,54.0992687 C22.9413708,53.7799993 22.1927763,53.4938394 21.2436655,53.459784 C20.2945546,53.4257286 19.5051533,53.6565485 19.4798249,53.9758179" id="Fill-221" fill="#544186"></path>
                    <path d="M18.3339569,51.651324 C18.3086334,51.9706995 19.0577857,52.2569546 20.0060084,52.2910214 C20.9549346,52.3250881 21.7448858,52.0941914 21.7702092,51.7748159 C21.7955327,51.4559135 21.0470839,51.1696584 20.0981577,51.1355917 C19.1499349,51.1015249 18.3599838,51.3324216 18.3339569,51.651324" id="Fill-222" fill="#EE9D4C"></path>
                    <path d="M29.3954462,48.3422886 C29.3954462,48.3422886 28.0529581,46.3789454 27.0101325,46.4882731 C25.9673068,46.5976008 23.9495791,47.2665822 24.0674464,47.8984702 C24.1853137,48.5303583 26.8196803,47.7442401 27.0927061,48.3247181 C27.365732,48.9051961 26.6512033,49.5123553 26.6512033,49.5123553 C26.6512033,49.5123553 27.4369851,51.8212522 28.701561,52.0737472 L29.7916667,52.2943548 L29.3954462,48.3422886" id="Fill-223" fill="#F0A980"></path>
                    <path d="M47.0013719,50.4368544 C43.1860636,51.5737617 35.4340013,52.7715525 29.2070397,52.1005908 L28.6458333,48.0841398 C28.6458333,48.0841398 30.6177258,48.4736703 34.5774905,47.6101178 C37.9843582,46.8695749 40.8830721,46.5539744 42.1454668,46.4421475 C42.5845884,46.4017655 42.8274796,46.3874765 42.8274796,46.3874765 C42.7718703,46.3222442 42.6919719,46.269437 42.6600125,46.1874306 C42.2253652,45.07848 41.6769426,43.7769387 41.0971998,42.4816099 C40.8082872,41.8342562 40.5123436,41.1893875 40.2183174,40.5681267 C40.213204,40.5588077 40.210008,40.5513526 40.2055337,40.5420337 C39.9799006,40.0661479 39.7561851,39.6070362 39.540779,39.1733962 C39.4308388,36.2037696 39.3087541,33.4143086 39.1572667,31.1404941 C39.6385747,30.5266884 40.3416806,30.1483406 41.3656585,30.2241344 C41.3656585,30.2241344 43.2269716,33.2571296 45.1752141,37.0499268 C45.3030516,37.3034012 45.4340849,37.5593606 45.5632008,37.8171838 C45.6418208,37.972499 45.7204408,38.129678 45.7984216,38.2880995 C47.1982416,41.1160787 48.545009,44.2149275 49.1797219,46.7372464 C49.5811314,48.3369929 48.6204331,49.9553773 47.0013719,50.4368544" id="Fill-224" fill="#F0A980"></path>
                    <path d="M44.6875,38.5116186 C44.6875,38.5116186 43.3583333,40.9878697 39.8717262,42.9975806 C39.5757738,42.305081 39.272619,41.6152397 38.9714286,40.9506528 C38.9661905,40.940684 38.9629167,40.9327089 38.9583333,40.9227401 L44.0491071,37.1870968 C44.1800595,37.4582483 44.3142857,37.7320581 44.4465476,38.0078617 C44.5270833,38.1740084 44.6875,38.5116186 44.6875,38.5116186" id="Fill-225" fill="#E98867"></path>
                    <path d="M39.8961644,38.6160979 C39.9004135,38.7358505 39.9107327,40.5524062 39.9149818,40.6733871 C41.4828897,40.392736 44.7710651,38.6289943 45.8333333,37.1176544 C43.8957561,32.4583549 39.7790114,26.5910889 38.9583333,25.566129 C39.1920323,26.3736918 39.3789916,28.2209533 39.5319582,30.6755757 C39.6758196,32.9232409 39.7917586,35.6806225 39.8961644,38.6160979" id="Fill-227" fill="#DF503D"></path>
                    <path d="M19.9460036,8.13467742 C19.9460036,8.13467742 19.3482622,6.10954562 19.5055289,4.36523743 C19.6627956,2.62092924 20.9260437,1.30752855 22.1950454,0.996021118 C23.4640472,0.68451369 25.9841504,-0.786975359 29.8998358,0.556442114 C33.8155212,1.90052663 33.9740665,4.08441382 31.9430245,5.65462471 L19.9460036,8.13467742" id="Fill-228" fill="#7678ED"></path>
                    <path d="M31.3096392,10.0493029 C31.3096392,10.0493029 32.2768583,8.54601789 32.9959845,9.78887561 C33.7151107,11.0317333 32.6987304,14.7016937 30.9375,13.8058504 L31.3096392,10.0493029" id="Fill-229" fill="#E98867"></path>
                    <path d="M31.1407611,12.7830645 C31.2297309,12.7830645 31.3108963,12.7266803 31.3366507,12.6402246 C31.7081387,11.3606797 33.0840489,10.842697 33.0973164,10.8374345 C33.2026753,10.7990933 33.255745,10.6863249 33.2159428,10.5848334 C33.1761405,10.4840937 33.0590749,10.4337238 32.9544964,10.4713133 C32.8897201,10.4946187 31.3733313,11.0614677 30.9448714,12.5342223 C30.9152148,12.638721 30.9776497,12.7462269 31.08535,12.7755466 C31.1040805,12.7808091 31.1220306,12.7830645 31.1407611,12.7830645" id="Fill-230" fill="#E26351"></path>
                    <path d="M33.0140551,11.6209677 C33.0537492,11.6209677 33.0942703,11.6075431 33.1306565,11.5816527 C33.2307187,11.5058994 33.2588353,11.3515159 33.1951594,11.2364476 C33.183582,11.2172695 32.9255704,10.7608316 32.3863923,10.4808318 C32.2780605,10.4242565 32.1507086,10.4808318 32.101918,10.6064482 C32.0539543,10.7320645 32.101918,10.8797356 32.2102498,10.9363109 C32.6278647,11.153023 32.8304699,11.5030226 32.8321239,11.5058994 C32.8734719,11.5806938 32.9429365,11.6209677 33.0140551,11.6209677" id="Fill-231" fill="#E26351"></path>
                    <path d="M20.2534218,10.0493029 C20.2534218,10.0493029 19.2856035,8.54601789 18.5664568,9.78887561 C17.8473101,11.0317333 18.864291,14.7016937 20.625,13.8058504 L20.2534218,10.0493029" id="Fill-232" fill="#E98867"></path>
                    <path d="M20.4214503,12.7830645 C20.3332543,12.7830645 20.2513023,12.7266803 20.2263264,12.6402246 C19.8540301,11.3606797 18.4780167,10.842697 18.4639677,10.8374345 C18.3601619,10.7990933 18.3063077,10.6863249 18.3468934,10.5848334 C18.3866987,10.4840937 18.503773,10.4337238 18.6083594,10.4713133 C18.67236,10.4946187 20.1880822,11.0614677 20.6173546,12.5342223 C20.647794,12.638721 20.5845738,12.7462269 20.4768655,12.7755466 C20.4581336,12.7808091 20.4401822,12.7830645 20.4214503,12.7830645" id="Fill-233" fill="#E26351"></path>
                    <path d="M19.69475,11.6209677 C19.654209,11.6209677 19.613668,11.6075431 19.5780912,11.5816527 C19.4779798,11.5058994 19.4490219,11.3515159 19.5135566,11.2364476 C19.5243123,11.2172695 19.7816236,10.7608316 20.3218944,10.4808318 C20.4302795,10.4242565 20.5576941,10.4808318 20.6056814,10.6064482 C20.6553234,10.7320645 20.6056814,10.8797356 20.4981236,10.9363109 C20.0803031,11.153023 19.8775982,11.5030226 19.8759434,11.5058994 C19.8345751,11.5806938 19.7650762,11.6209677 19.69475,11.6209677" id="Fill-234" fill="#E26351"></path>
                    <path d="M25.2083333,17.4314516 L25.2083333,21.1899752 C25.2083333,21.1899752 26.1428438,23.1045653 27.4067777,23.2349029 C28.6695678,23.3672984 29.7916667,21.5864758 29.7916667,21.5864758 L29.7916667,17.6955567 L25.2083333,17.4314516" id="Fill-235" fill="#F0A980"></path>
                    <path d="M25.2083333,17.4314516 L25.2083333,18.7902193 C26.0564845,19.710224 27.5629107,19.9399457 29.7916667,19.618 L29.7916667,17.6466411 L25.2083333,17.4314516" id="Fill-236" fill="#E98867"></path>
                    <path d="M19.4833328,7.8102936 C19.5486707,9.14854961 19.678706,10.8216838 19.9387766,12.1593115 C20.003474,12.4929331 20.0771393,12.8070777 20.1584914,13.0885512 C20.8970663,15.625583 22.7451048,19.9764858 27.9176912,18.1638714 C30.2019565,17.3640593 31.2614559,14.8678663 31.732914,12.3295779 C32.0531979,10.6055523 32.1018811,8.86330631 32.0781801,7.61929368 C32.0531979,6.34826461 31.3466515,5.18655787 30.2192519,4.56015353 C27.1656644,2.86251609 23.9442481,3.49583161 21.822687,4.29501548 C20.3506618,4.84979485 19.4083863,6.26784359 19.4833328,7.8102936" id="Fill-237" fill="#F0A980"></path>
                    <path d="M28.6458333,11.0399194 C28.6458333,11.3608951 28.9027314,11.6209677 29.2183247,11.6209677 C29.5347686,11.6209677 29.7916667,11.3608951 29.7916667,11.0399194 C29.7916667,10.7189436 29.5347686,10.458871 29.2183247,10.458871 C28.9027314,10.458871 28.6458333,10.7189436 28.6458333,11.0399194" id="Fill-238" fill="#202930"></path>
                    <path d="M24.0625,11.0401936 C24.0625,11.3610178 24.3187376,11.6209677 24.6354167,11.6209677 C24.9520957,11.6209677 25.2083333,11.3610178 25.2083333,11.0401936 C25.2083333,10.7193693 24.9520957,10.458871 24.6354167,10.458871 C24.3187376,10.458871 24.0625,10.7193693 24.0625,11.0401936" id="Fill-239" fill="#202930"></path>
                    <path d="M30.8487996,8.4612248 C30.8487996,8.4612248 28.9565411,7.80193364 27.5,8.3569336 L27.6452391,9.07172476 C27.6452391,9.07172476 29.7837126,8.91193356 30.8612486,9.29677419 C30.9580747,9.02232366 30.971907,8.74421379 30.8487996,8.4612248" id="Fill-240" fill="#202930"></path>
                    <path d="M21.8591815,8.4612248 C21.8591815,8.4612248 23.7519398,7.80193364 25.2083333,8.3569336 L25.0624174,9.07172476 C25.0624174,9.07172476 22.9241606,8.91193356 21.8474252,9.29677419 C21.7506089,9.02232366 21.7360865,8.74421379 21.8591815,8.4612248" id="Fill-241" fill="#202930"></path>
                    <path d="M25.8192423,12.7830645 C25.5759552,12.7830645 25.3354328,12.6659892 25.2978339,12.6475036 C25.2237419,12.6098478 25.1889076,12.5064656 25.2193185,12.415407 C25.2486235,12.3236638 25.3332211,12.2798461 25.4062072,12.3175019 C25.5366975,12.3825437 25.8485473,12.4852414 25.983461,12.3845977 C26.0100014,12.3654275 26.0459416,12.327087 26.0547884,12.2189122 C26.1067633,11.5965645 25.969085,9.5104332 25.9674262,9.48920902 C25.9607911,9.39130394 26.0199541,9.30503793 26.0990224,9.29750677 C26.1791965,9.2886063 26.2483122,9.36186395 26.2549473,9.45976903 C26.2599236,9.54740435 26.3959432,11.6006724 26.3412036,12.2558833 C26.3207454,12.5023576 26.2156896,12.6283334 26.131645,12.6906366 C26.0398594,12.7591017 25.9292744,12.7830645 25.8192423,12.7830645" id="Fill-242" fill="#E98867"></path>
                    <path d="M29.7916667,13.9451613 C29.6435255,14.7632163 29.1518083,16.2693548 27.4951315,16.2693548 C25.8342817,16.2693548 25.3682979,14.8931876 25.2083333,13.9451613 L29.7916667,13.9451613" id="Fill-243" fill="#FFFFFE"></path>
                    <path d="M25.7916152,18.5005095 C25.5096856,18.5005095 25.2708403,18.1030724 25.2608012,18.086803 C25.2093512,17.9996458 25.1930377,17.8137103 25.2239914,17.6707724 C25.2553634,17.5278345 25.3222903,17.4813506 25.3737404,17.5685079 C25.3754135,17.5719942 25.5720113,17.893895 25.7916152,17.893895 C25.9932324,17.893895 26.1860656,17.5731563 26.188157,17.56967 C26.2391888,17.4825127 26.3061157,17.5266724 26.3374877,17.6684482 C26.3696962,17.810224 26.3538011,17.9973216 26.302351,18.0844788 C26.2927303,18.1019103 26.0580679,18.5005095 25.7916152,18.5005095" id="Fill-244" fill="#E98867"></path>
                    <path d="M19.6594883,9.29677419 L20.4153557,9.29677419 C20.3314416,8.52430374 20.2122964,7.16334652 20.8349262,6.96827163 C22.8046654,6.35238303 21.5965587,5.19041523 22.4856637,4.48383965 C23.3741282,3.77530678 24.6232312,3.99647864 26.1618697,3.94558954 C27.7101168,3.89470044 28.7407868,4.03627653 29.3454808,4.17915747 C29.9501747,4.32008113 30.6945119,5.05144884 30.4722357,5.84414445 C30.2493188,6.63618763 31.2140106,7.51239355 31.3760737,8.33249098 C31.422835,8.56801618 31.4132265,8.91771564 31.3754332,9.29677419 L32.0057497,9.29677419 C32.0806959,8.29856491 32.0922261,7.36886019 32.0781336,6.61596247 C32.0531516,5.29610798 31.3466077,4.08977533 30.2192123,3.43930824 C27.165636,1.6764576 23.9442316,2.33410136 21.8226783,3.16398515 C20.3506586,3.74007587 19.4083866,5.21259766 19.4833328,6.81429948 C19.5192044,7.57567872 19.5742931,8.44144585 19.6594883,9.29677419" id="Fill-245" fill="#8C8C8C"></path>
                </g>
                <text id="Digital-Creative" font-family="OpenSans-Regular, Open Sans" font-size="14" font-weight="normal" fill="#7678ED">
                    <tspan x="40.7724609" y="290">Digital</tspan>
                    <tspan x="28.4609375" y="310">Creative</tspan>
                </text>
                <text id="Blockchain-Art-Colle" font-family="OpenSans-Regular, Open Sans" font-size="14" font-weight="normal" fill="#F0A202">
                    <tspan x="225" y="290">Blockchain</tspan>
                    <tspan x="225" y="310">Art Collector</tspan>
                </text>
                <path d="M86,250 C54.6666667,250 39,235 39,205" id="Path-14" stroke="#7678ED" stroke-width="1.1" stroke-dasharray="4.4" fill-rule="nonzero"></path>
                <path d="M277,250 C245.666667,250 230,235 230,205" id="Path-14" stroke="#F0A202" stroke-width="1.1" stroke-dasharray="4.4" fill-rule="nonzero" transform="translate(253.500000, 227.500000) scale(-1, 1) translate(-253.500000, -227.500000) "></path>
                <text id="Art-file" font-family="OpenSans-Regular, Open Sans" font-size="15.4" font-weight="normal" fill="#7678ED">
                    <tspan x="14.4413086" y="91">Art file</tspan>
                </text>
                <g id="Group-163" transform="translate(165.000000, 190.000000)">
                    <polygon id="Fill-112" fill="#4E3D5B" points="26.7596154 128.992742 23.075545 68.5637097 20.9423077 68.8032457 24.6115621 128.992742"></polygon>
                    <polygon id="Fill-113" fill="#C29533" points="27.9230769 128.992742 24.2387372 68.5637097 22.1057692 68.8032457 25.7750236 128.992742"></polygon>
                    <polygon id="Fill-114" fill="#C29533" points="14.9461302 128.992742 18.6153846 68.8032457 16.4821473 68.5637097 12.7980769 128.992742"></polygon>
                    <polygon id="Fill-115" fill="#4E3D5B" points="14.9457614 128.992742 18.6153846 68.8032457 16.4819767 68.5637097 12.7980769 128.992742"></polygon>
                    <polygon id="Fill-116" fill="#4E3D5B" points="13.9615385 128.992742 11.0143097 68.5637097 9.30769231 68.8032457 12.2431846 128.992742"></polygon>
                    <polygon id="Fill-117" fill="#C29533" points="15.125 128.992742 12.1776868 68.5637097 10.4711538 68.8032457 13.4067311 128.992742"></polygon>
                    <polygon id="Fill-118" fill="#C29533" points="4.04519193 128.992742 6.98076923 68.8032457 5.27423625 68.5637097 2.32692308 128.992742"></polygon>
                    <polygon id="Fill-119" fill="#4E3D5B" points="1.71835382 128.992742 4.65384615 68.8032457 2.94722878 68.5637097 0 128.992742"></polygon>
                    <polygon id="Fill-120" fill="#FFAF00" points="2.32692308 69.7258065 26.7596154 69.7258065 26.7596154 68.5637097 2.32692308 68.5637097"></polygon>
                    <polygon id="Fill-121" fill="#4E3D5B" points="2.32692308 70.8879032 26.7596154 70.8879032 26.7596154 69.7258065 2.32692308 69.7258065"></polygon>
                    <polygon id="Fill-122" fill="#4E3D5B" points="1.16346154 108.075 12.7980769 108.075 12.7980769 106.912903 1.16346154 106.912903"></polygon>
                    <polygon id="Fill-123" fill="#C29533" points="13.9615385 108.075 26.7596154 108.075 26.7596154 106.912903 13.9615385 106.912903"></polygon>
                    <path d="M29.1760533,33.7008065 C29.1760533,33.7008065 30.2196315,34.4811488 30.249381,34.7889189 C30.2790185,35.0960908 29.2351047,34.3474527 29.1249424,34.3474527 C29.0150038,34.3474527 29.1760533,33.7008065 29.1760533,33.7008065" id="Fill-124" fill="#FD5E5A"></path>
                    <path d="M20.4661823,58.1048387 C20.4661823,58.1048387 43.9242034,75.7008864 43.0227456,79.5109743 C41.5648584,85.6715289 25.7325935,104.246707 26.1313729,105.646959 C26.5301524,107.046903 31.9653241,109.572401 31.2686612,110.28637 C30.571698,111.000031 19.6743288,108.094631 19.6743288,108.094631 C19.6743288,108.094631 23.2501313,103.873265 24.0702117,101.819645 C24.890292,99.7663316 32.430767,83.0580535 34.9480623,81.564595 L15.125,65.8240657 L20.4661823,58.1048387 Z" id="Fill-125" fill="#FD5E5A"></path>
                    <path d="M8.14423077,70.9425879 L22.7458241,95.6460853 C22.7458241,95.6460853 19.1971957,95.6460853 13.7842815,123.644109 C13.5948996,124.623722 12.1787974,128.679678 11.9306522,129.711113 C11.9306522,129.711113 14.8170527,130.154839 18.5057384,130.154839 L23.8614118,130.154839 C23.8614118,130.154839 16.792471,127.046695 16.792471,125.170208 C16.792471,123.294016 29.77427,98.1038035 30.2364594,95.6019188 C30.6983444,93.1003287 19.1901929,67.4016129 19.1901929,67.4016129 L8.14423077,70.9425879 Z" id="Fill-126" fill="#FC7575"></path>
                    <path d="M39.8228769,45.6153665 C39.1183705,44.8911879 39.0153903,45.1757533 37.5448923,45.1757533 C36.0746972,45.1757533 28.1358254,46.0879817 26.2976272,45.426694 C24.7489853,44.869394 24.5733131,33.9064634 23.7131248,30.6560659 C22.4758469,25.9766144 17.4519231,24.4040323 17.4519231,24.4040323 C17.4519231,24.4040323 21.0323055,48.8906712 22.7481389,49.7677181 C24.4636694,50.6450763 34.4509403,48.3866105 36.2276532,48.3866105 C38.004669,48.3866105 39.3524993,50.0239515 40.2714469,49.7331593 C41.1906975,49.4420557 40.5273832,46.339545 39.8228769,45.6153665" id="Fill-127" fill="#FD5E5A"></path>
                    <path d="M21.8773922,58.7448862 C20.6328165,55.5079541 18.5209731,52.9895953 22.4079065,44.2337873 C26.7941122,34.3515829 24.7387448,32.6060183 22.5439898,29.2338253 C20.6364214,26.3026877 19.4131744,25.6091843 19.4131744,25.6091843 C19.4131744,25.6091843 13.8004173,24.2638636 11.5068292,24.4160321 C10.9150324,24.455386 13.5018152,38.4059103 11.8159454,44.7861996 C10.0456618,51.4851099 4.75734154,57.0966861 6.00612292,63.2493058 L8.37331014,83.5168617 C23.0657923,85.3784474 38.3942308,69.7596088 38.3942308,69.7596088 L21.8773922,58.7448862 Z" id="Fill-128" fill="#7678ED"></path>
                    <path d="M28.0434547,33.7008065 C28.0434547,33.7008065 29.0865385,34.2745086 29.0865385,34.7093144 C29.0865385,35.1444557 27.9230769,34.5167384 27.9230769,34.5167384 L28.0434547,33.7008065 Z" id="Fill-129" fill="#FD5E5A"></path>
                    <path d="M33.8441803,36.3528116 C33.3152547,36.1880635 31.9167242,36.1880635 30.6504251,36.2291039 C30.4407527,36.1385218 30.217,36.0555614 29.9907987,35.9872584 C31.073137,35.7372048 32.3134184,35.400673 32.6130816,35.113683 C33.0673209,34.6786542 29.871117,35.4915483 28.6822589,35.8049215 C27.1661894,35.9752394 26.3700463,38.3963331 25.3345399,39.3880464 C24.2607721,40.4161098 16.2427142,44.4105186 14.4263693,44.7831074 C13.5013618,44.9727729 12.7912303,43.7512331 12.2892408,42.4417494 C11.5610499,39.7392354 12.6332873,34.8422297 12.4202478,33.4442159 C12.088445,31.2676061 11.2766912,25.0731357 11.2766912,25.0731357 C11.2766912,25.0731357 8.28403797,24.5771325 6.84479734,27.3072022 C5.40525061,30.0366856 5.58155912,48.909432 9.74899026,51.4123134 C13.5530912,53.6970942 23.2733221,44.2413733 25.2485283,42.3494084 C27.2240407,40.4574434 29.0642607,37.9976544 29.0642607,37.9976544 C29.0642607,37.9976544 30.5374775,37.3638725 31.1132349,37.0229436 C31.3721881,36.8699213 32.1876149,36.8611269 32.4875842,36.8124647 C33.5316612,36.6436125 34.2304673,36.4724152 33.8441803,36.3528116" id="Fill-130" fill="#FC7575"></path>
                    <path d="M10.4711538,47.8808216 C10.4711538,47.8808216 10.5431696,48.8080645 10.6865869,48.8080645 C10.8303114,48.8080645 11.6346154,48.4219657 11.6346154,48.0355915 C11.6346154,47.648942 10.4711538,47.468836 10.4711538,47.8808216" id="Fill-131" fill="#FD5E5A"></path>
                    <path d="M13.3920698,6.17841267 C13.3920698,6.17841267 8.40505909,10.7713071 9.45220281,11.8013929 C10.4990476,12.8314786 9.90627398,15.4315409 10.1729175,16.1963862 C10.9121657,18.3150753 13.1478459,18.3988819 15.2014792,17.9813193 C17.1531781,17.5843408 18.1545859,17.999845 18.1545859,17.999845 C18.1545859,17.999845 18.7264345,18.5935484 20.3938532,18.5935484 C22.0615708,18.5935484 24.1971103,16.8559587 23.5747428,15.290393 C23.5747428,15.290393 24.5205501,15.2674565 25.3695047,13.7418827 C26.2181604,12.2160149 24.4102457,10.3857969 24.4102457,10.3857969 C24.4102457,10.3857969 26.24895,8.84875486 24.8347231,7.45756568 C24.8347231,7.45756568 26.3643361,5.34475777 24.1555593,3.17196199 C22.3300079,1.37673689 19.5434039,3.08844947 18.1782012,2.47592631 C16.8129984,1.86369721 13.3920698,6.17841267 13.3920698,6.17841267" id="Fill-132" fill="#F0A202"></path>
                    <path d="M20.9423077,17.9848259 C20.9423077,17.9848259 19.244427,19.5150776 18.9780196,21.5636352 C18.8337863,22.6717485 18.7689661,24.0852252 18.958336,24.948236 C19.1572083,25.8530859 18.7465675,26.5118965 17.7613691,26.6879957 C17.1593223,26.7957159 16.5209626,26.6833122 15.8218552,26.3963705 C14.5437783,25.8718198 12.1488265,24.558882 12.9633205,23.5516198 C14.1823466,22.0435367 16.5301257,13.9451613 16.5301257,13.9451613 L20.9423077,17.9848259 Z" id="Fill-133" fill="#FC7575"></path>
                    <path d="M19.7788462,16.6755066 L16.737524,13.9949397 C16.737524,13.9949397 15.8479558,13.6660172 15.125,14.699197 C15.125,16.2693983 16.9306135,18.0174296 18.2221826,18.5935484 C18.7701307,17.4508959 19.7788462,16.6755066 19.7788462,16.6755066" id="Fill-134" fill="#FD5E5A"></path>
                    <path d="M19.9707106,4.64847905 C19.9707106,4.64847905 21.1951498,5.23343123 21.7737916,6.69137543 C22.3518202,8.14995338 21.7618324,10.0857458 22.0540665,11.3618035 C22.3459939,12.6372274 21.4441467,19.2741848 18.2608501,18.5364987 C15.0778601,17.7991294 14.2508346,13.1182444 14.0134903,12.0817446 C13.7764526,11.0452449 14.3440551,7.11820673 15.8499958,5.86623162 C17.3556298,4.6142565 19.9707106,4.64847905 19.9707106,4.64847905" id="Fill-135" fill="#FC7575"></path>
                    <path d="M14.9224745,11.9974303 C14.8606253,11.8603712 14.8408705,11.4941333 14.2454572,11.6659334 C13.5280073,11.8730349 14.3553087,12.8168707 14.7007407,12.7821297 C15.4375762,12.7079407 15.0092479,12.1894026 14.9224745,11.9974303" id="Fill-136" fill="#FC7575"></path>
                    <path d="M13.6306855,11.8465655 C13.513586,11.753168 13.0274785,11.4896398 12.8355654,11.7010437 C12.6436523,11.9126413 13.2269813,13.0035704 13.7127274,12.7431426 C14.1981121,12.4827147 13.8638002,12.0329729 13.6306855,11.8465655" id="Fill-137" fill="#FD5E5A"></path>
                    <path d="M18.8145765,12.7830645 C18.9935706,13.1088909 19.3038502,13.4966026 19.6008968,13.8129476 C19.3365845,13.8826486 18.9733728,13.9347962 18.6153846,13.9335149 C19.2032095,13.9868156 19.7436742,13.8401105 19.7788462,13.8360104 C19.5632871,13.5719411 19.3149938,13.2165174 18.8145765,12.7830645" id="Fill-138" fill="#510B5E"></path>
                    <path d="M16.2884615,10.8548545 C16.2884615,10.8548545 16.0232988,10.4264744 15.7402613,10.4608325 C15.4572239,10.4948251 15.125,11.6209677 15.125,11.6209677 C15.125,11.6209677 15.5071499,10.7134013 15.6966223,10.7123048 C15.8860947,10.7115738 16.0866617,10.9882664 16.0866617,10.9882664 L16.2884615,10.8548545 Z" id="Fill-139" fill="#510B5E"></path>
                    <path d="M22.1057692,11.6209677 C22.1057692,11.6209677 22.3140405,10.7796873 22.5829314,10.5044296 C22.8513892,10.2296566 23.2692308,11.2875571 23.2692308,11.2875571 C23.2692308,11.2875571 22.825265,10.5630673 22.6475922,10.7753258 C22.4697749,10.9866151 22.3075456,11.5637839 22.3075456,11.5637839 L22.1057692,11.6209677 Z" id="Fill-140" fill="#510B5E"></path>
                    <path d="M18.6153846,14.8738192 C19.3156704,15.1858301 19.5591888,15.0625888 19.7788462,14.8738192 C19.4933324,15.5639705 18.9075794,15.424798 18.6153846,14.8738192" id="Fill-141" fill="#510B5E"></path>
                    <path d="M18.612715,12.2455162 C18.5826863,12.5652569 18.2980858,12.8051613 17.9780783,12.7814475 C17.6580708,12.7577337 17.4241158,12.4787016 17.4545927,12.1589609 C17.4850696,11.838825 17.7692219,11.5985254 18.0892294,11.6226344 C18.4092369,11.6463481 18.6431919,11.9253802 18.612715,12.2455162" id="Fill-142" fill="#510B5E"></path>
                    <path d="M17.4519231,12.7830645 C18.0787085,10.6862086 18.3862739,12.0567571 18.6153846,12.1086928 C18.4320392,12.179262 18.2069081,11.6706089 18.0090657,11.8605114 C17.8470395,12.0107682 17.6109645,12.4857225 17.4519231,12.7830645" id="Fill-143" fill="#42004A"></path>
                    <path d="M22.1026306,12.242717 C22.0700609,12.562572 21.7843618,12.8041436 21.4643788,12.7816075 C21.1449671,12.7594667 20.9118366,12.481521 20.9455491,12.161666 C20.9775474,11.8410202 21.2632466,11.6002393 21.583801,11.6223801 C21.9026412,11.6445208 22.1357717,11.9220712 22.1026306,12.242717" id="Fill-144" fill="#510B5E"></path>
                    <path d="M20.9423077,12.7830645 C21.5281124,10.5961759 21.872364,12.1490041 22.1057692,12.2450873 C21.9219308,12.2911363 21.681396,11.6955977 21.4851659,11.8696101 C21.3247528,12.0059863 21.0966098,12.4850738 20.9423077,12.7830645" id="Fill-145" fill="#42004A"></path>
                    <path d="M18.6141915,14.5911056 C18.5938099,14.9099685 18.3171773,15.1393663 17.9966458,15.1035802 C17.6757659,15.0677942 17.4325801,14.7803588 17.4531359,14.4617253 C17.4735175,14.1428623 17.7501501,13.9132352 18.0708558,13.9487918 C18.3913873,13.9845779 18.6345732,14.2720133 18.6141915,14.5911056" id="Fill-146" fill="#FD5E5A"></path>
                    <path d="M22.1057692,12.7830645 C21.9342937,12.7918383 21.7548053,12.8232956 21.5826887,12.8847122 C21.0599288,13.0702459 20.8060809,13.4342514 21.0160182,13.6976793 C21.1727501,13.8943408 21.5432654,13.9792968 21.9381399,13.9326459 C22.0503201,13.494598 22.1032051,13.0916454 22.1057692,12.7830645" id="Fill-147" fill="#FD5E5A"></path>
                    <path d="M21.1640485,5.82690134 C21.1640485,5.82690134 19.2287123,8.44052214 16.4513827,7.24094108 C16.4513827,7.24094108 15.60712,12.894687 13.6737695,12.1240233 C13.6737695,12.1240233 15.1696693,13.3459249 13.6737695,15.2311101 C11.3480752,18.1611404 5.60845004,14.368751 9.41415743,10.3223894 C9.41415743,10.3223894 7.79570341,8.46827206 9.05926067,5.35635911 C9.94040321,3.18643551 12.4652482,3.90039286 12.4652482,3.90039286 C12.4652482,3.90039286 11.683681,1.01922658 14.5225714,0.216891747 C17.1759282,-0.532959527 17.7756498,0.90219428 17.7756498,0.90219428 C17.7756498,0.90219428 18.9424686,-0.206294632 20.6880159,0.931753984 C23.5714457,2.81120825 21.1640485,5.82690134 21.1640485,5.82690134" id="Fill-148" fill="#7678ED"></path>
                    <path d="M38.3942308,43.1106574 C38.3942308,43.1106574 39.2670369,44.1596774 39.5163272,44.1596774 C39.6464863,44.1596774 39.4288289,43.7827595 39.4183814,43.5083231 C39.4086594,43.2557346 39.3886349,43.2665801 39.3704968,43.1100287 C39.3408954,42.8566544 38.3942308,43.1106574 38.3942308,43.1106574" id="Fill-156" fill="#FC7575"></path>
                    <path d="M41.7440612,45.96853 C41.1399925,45.5300232 38.5143071,45.0775079 38.3978081,45.4746261 C38.2815968,45.8719566 41.0318354,46.483871 41.5335001,46.483871 C42.0348771,46.483871 41.896229,46.0791118 41.7440612,45.96853" id="Fill-157" fill="#FC7575"></path>
                    <path d="M41.7438142,44.8063561 C41.1400259,44.3677836 38.5140213,43.9154129 38.3978085,44.3125906 C38.2815958,44.7097682 41.0315799,45.3217742 41.5335383,45.3217742 C42.0349213,45.3217742 41.8962715,44.9171667 41.7438142,44.8063561" id="Fill-158" fill="#FC7575"></path>
                    <path d="M40.5804914,45.9686481 C39.9763935,45.5300612 37.3505812,45.0774633 37.2343643,45.4746541 C37.1178597,45.8720571 39.8682312,46.483871 40.3699201,46.483871 C40.8716091,46.483871 40.7326665,46.0792501 40.5804914,45.9686481" id="Fill-159" fill="#FC7575"></path>
                    <g id="Group-9" transform="translate(42.682692, 40.700806) scale(-1, 1) translate(-42.682692, -40.700806) translate(30.682692, 33.700806)">
                        <path d="M0.0358969003,1.45689529 L3.24317146,13.289593 C3.35131148,13.6861116 3.68694116,13.9451613 4.09576316,13.9451613 L22.1228354,13.9451613 C22.8422302,13.9451613 23.4218343,13.1825191 23.2332487,12.4875752 L20.0259741,0.65487754 C19.9178341,0.25904966 19.5815451,0 19.172723,0 L1.14565083,0 C0.428893537,0 -0.152688734,0.7619514 0.0358969003,1.45689529" id="Fill-63" fill="#1E766A"></path>
                        <path d="M0.038396198,1.45689529 L3.46897511,13.289593 C3.5846443,13.6861116 3.94364197,13.9451613 4.38092793,13.9451613 L21.4491865,13.9451613 C22.2158475,13.9451613 22.8358062,13.1825191 22.6340904,12.4875752 L19.2035115,0.65487754 C19.0899582,0.25904966 18.7281393,0 18.2915587,0 L1.225416,0 C0.458754962,0 -0.163319585,0.7619514 0.038396198,1.45689529" id="Fill-64" fill="#77BA99"></path>
                        <path d="M11.9206213,7.28212177 C12.0491123,8.56596201 11.1577479,9.60666667 9.92867404,9.60666667 C8.70027292,9.60666667 7.59901736,8.56596201 7.47052634,7.28212177 C7.34136258,5.99828152 8.23272703,4.95827957 9.46180089,4.95827957 C10.6908747,4.95827957 11.7914576,5.99828152 11.9206213,7.28212177" id="Fill-65" fill="#F7F7F7"></path>
                    </g>
                </g>
            </g>
        </g>
    </g>
</svg>