<?xml version="1.0" encoding="UTF-8"?>
<svg width="30px" height="30px" viewBox="0 0 30 30" version="1.1" xmlns="http://www.w3.org/2000/svg" xmlns:xlink="http://www.w3.org/1999/xlink">
    <!-- Generator: Sketch 53.2 (72643) - https://sketchapp.com -->
    <title>ico_vk</title>
    <desc>Created with Sketch.</desc>
    <g id="html-corrections" stroke="none" stroke-width="1" fill="none" fill-rule="evenodd">
        <g id="Create-1-Copy-6" transform="translate(-514.000000, -942.000000)" fill-rule="nonzero">
            <g id="ico_vk" transform="translate(514.000000, 942.000000)">
                <rect id="Rectangle-Copy-3" fill="#EFEBEB" opacity="0.011971" x="0" y="0" width="30" height="30"></rect>
                <g id="iconmonstr-vk-1" transform="translate(0.000000, 7.000000)" fill="#5F5C5C">
                    <path d="M15.3550269,16.5055274 C16.0654973,16.5055274 16.3559852,16.0266619 16.3478188,15.4263107 C16.3116537,13.1652634 17.1807841,11.9480486 18.7498854,13.5344381 C20.4858131,15.289492 20.8451315,16.5055274 22.9532103,16.5055274 L26.6863881,16.5055274 C27.6290155,16.5055274 28,16.1988647 28,15.7176403 C28,14.6997562 26.3422357,12.9034207 24.9376276,11.5847713 C22.9707096,9.73889806 22.8785467,9.69525761 24.5724761,7.47313287 C26.6735553,4.7143485 29.4221074,1.17947173 26.9908754,1.17947173 L22.3465689,1.17947173 C21.4459398,1.17947173 21.3806091,1.69254193 21.0597892,2.45683961 C19.8990042,5.22505976 17.6929295,8.81065381 16.8552977,8.26219946 C15.9791675,7.69015567 16.3804841,5.42439048 16.4469814,2.05699869 C16.4644806,1.16767701 16.4598142,0.557890128 15.1158702,0.241791704 C14.3820674,0.0707683037 13.6680972,0 13.0054581,0 C10.3537353,0 8.52447815,1.12403656 9.56393484,1.31982886 C11.3966918,1.66541408 11.2205325,5.67443849 10.7935503,7.40590298 C10.0492479,10.4206327 7.25169785,5.01865221 6.08624641,2.32827719 C5.80509145,1.68192669 5.71876172,1.17947173 4.71547019,1.17947173 L0.918128411,1.17947173 C0.344152327,1.17947173 0,1.36818721 0,1.78807914 C0,2.49812112 3.45318945,9.71412916 6.75005208,13.3115179 C9.96525145,16.8204463 13.143119,16.5055274 15.3550269,16.5055274 L15.3550269,16.5055274 Z" id="Path"></path>
                </g>
            </g>
        </g>
    </g>
</svg>