<?xml version="1.0" encoding="UTF-8"?>
<svg width="248px" height="46px" viewBox="0 0 248 46" version="1.1" xmlns="http://www.w3.org/2000/svg" xmlns:xlink="http://www.w3.org/1999/xlink">
    <!-- Generator: Sketch 58 (84663) - https://sketch.com -->
    <title>logo_and_sign</title>
    <desc>Created with Sketch.</desc>
    <g id="Landing-Page-and-Hero" stroke="none" stroke-width="1" fill="none" fill-rule="evenodd">
        <g id="cma_3-list-1-copy-34" transform="translate(-24.000000, -22.000000)" fill-rule="nonzero">
            <g id="logo_and_sign" transform="translate(25.000000, 23.000000)">
                <path d="M71.75,13.1123047 C71.5214832,13.1123047 71.2548843,13.1588537 70.9501953,13.2519531 C70.6455063,13.3450525 70.3344742,13.5206693 70.0170898,13.7788086 C69.6997054,14.0369479 69.3886734,14.3987607 69.0839844,14.8642578 C68.7792954,15.3297549 68.5063489,15.9327762 68.2651367,16.6733398 C68.0239246,17.4139034 67.8292651,18.3131458 67.6811523,19.3710938 C67.5330396,20.4290417 67.4589844,21.6774017 67.4589844,23.1162109 C67.4589844,24.4873115 67.5330396,25.6764273 67.6811523,26.6835938 C67.8292651,27.6907602 68.0281563,28.5476853 68.277832,29.2543945 C68.5275078,29.9611038 68.8131494,30.5387347 69.1347656,30.9873047 C69.4563818,31.4358746 69.7949201,31.7849922 70.1503906,32.034668 C70.5058612,32.2843437 70.8613263,32.4557287 71.2167969,32.5488281 C71.5722674,32.6419275 71.906574,32.6884766 72.2197266,32.6884766 C72.5498063,32.6884766 72.8841129,32.6461593 73.2226562,32.5615234 C73.5611996,32.4768876 73.8933903,32.3541675 74.2192383,32.1933594 C74.5450863,32.0325513 74.8582342,31.8378918 75.1586914,31.609375 C75.4591486,31.3808582 75.7363269,31.1184911 75.9902344,30.8222656 L76.5615234,31.3935547 C76.3076159,31.7067073 76.0029315,32.0262028 75.6474609,32.3520508 C75.2919904,32.6778988 74.8793969,32.9741198 74.409668,33.2407227 C73.9399391,33.5073256 73.4130889,33.7252596 72.8291016,33.8945312 C72.2451143,34.0638029 71.5976598,34.1484375 70.8867188,34.1484375 C69.7779892,34.1484375 68.7475634,33.9368511 67.7954102,33.5136719 C66.843257,33.0904927 66.0138382,32.4324589 65.3071289,31.5395508 C64.6004196,30.6466427 64.0460632,29.5019601 63.644043,28.1054688 C63.2420227,26.7089774 63.0410156,25.0374446 63.0410156,23.0908203 C63.0410156,21.2626862 63.2526021,19.6588611 63.6757812,18.2792969 C64.0989604,16.8997327 64.6744755,15.7465867 65.4023438,14.8198242 C66.130212,13.8930618 66.9850211,13.1948266 67.9667969,12.7250977 C68.9485726,12.2553687 69.9938096,12.0205078 71.1025391,12.0205078 C71.8388709,12.0205078 72.5095998,12.0903313 73.1147461,12.2299805 C73.7198923,12.3696296 74.2425108,12.5727526 74.6826172,12.8393555 C75.1227236,13.1059584 75.4633777,13.4360332 75.7045898,13.8295898 C75.945802,14.2231465 76.0664062,14.6695939 76.0664062,15.1689453 C76.0664062,15.3974621 76.0283207,15.6365547 75.9521484,15.8862305 C75.8759762,16.1359062 75.7596036,16.3644195 75.6030273,16.5717773 C75.446451,16.7791352 75.2539074,16.9484043 75.0253906,17.0795898 C74.7968739,17.2107754 74.530275,17.2763672 74.2255859,17.2763672 C73.9547513,17.2763672 73.7452807,17.217123 73.597168,17.0986328 C73.4490552,16.9801426 73.3390303,16.8235687 73.2670898,16.6289062 C73.1951494,16.4342438 73.1486004,16.2120781 73.1274414,15.9624023 L73.1004638,15.5831299 L73.1004638,15.5831299 L73.0830078,15.1943359 C73.0745442,14.9319648 73.0555015,14.6759453 73.0258789,14.4262695 C72.9962564,14.1765938 72.9370122,13.9544281 72.8481445,13.7597656 C72.7592769,13.5651032 72.6302092,13.4085292 72.4609375,13.2900391 C72.2916658,13.1715489 72.054689,13.1123047 71.75,13.1123047 Z M81.8046875,20.5009766 C82.1263037,20.0100887 82.4690737,19.5657572 82.8330078,19.1679688 C82.9853523,18.9986971 83.1503897,18.8336597 83.328125,18.6728516 C83.5058603,18.5120435 83.6899405,18.3681647 83.8803711,18.2412109 C84.0708017,18.1142572 84.2675771,18.0126957 84.4707031,17.9365234 C84.6738291,17.8603512 84.8769521,17.8222656 85.0800781,17.8222656 C85.5117209,17.8222656 85.8502592,17.9513333 86.0957031,18.2094727 C86.3411471,18.467612 86.4638672,18.8294248 86.4638672,19.2949219 C86.4638672,19.5826837 86.4405927,19.8598619 86.394043,20.1264648 C86.3474933,20.3930677 86.2565111,20.716795 86.1210938,21.0976562 L85.765625,21.0976562 C85.7148435,20.8352851 85.5963551,20.6173511 85.4101562,20.4438477 C85.2239574,20.2703442 84.9531268,20.1835938 84.5976562,20.1835938 C84.3352851,20.1835938 84.0771497,20.2322586 83.8232422,20.3295898 C83.5693347,20.4269211 83.3217785,20.5475253 83.0805664,20.6914062 C82.8393543,20.8352872 82.6108409,20.9918611 82.3950195,21.1611328 C82.1791981,21.3304045 81.9824228,21.4912102 81.8046875,21.6435547 L81.8046875,29.8828125 C81.8046875,29.9928391 81.7877606,30.1240227 81.7539062,30.2763672 C81.7200519,30.4287117 81.6375332,30.5725905 81.5063477,30.7080078 C81.3751621,30.8434252 81.1805026,30.9597977 80.9223633,31.0571289 C80.664224,31.1544601 80.3108746,31.203125 79.8623047,31.203125 C79.4137347,31.203125 79.0603854,31.1502284 78.8022461,31.0444336 C78.5441068,30.9386388 78.3473314,30.8138028 78.2119141,30.6699219 C78.0764967,30.5260409 77.9918621,30.3779304 77.9580078,30.2255859 C77.9241535,30.0732414 77.9072266,29.9505213 77.9072266,29.8574219 L77.9072266,20.0566406 C77.9072266,19.8111967 77.8500982,19.5974944 77.7358398,19.4155273 C77.6215815,19.2335603 77.4290378,19.1425781 77.1582031,19.1425781 C77.0143222,19.1425781 76.8916021,19.1679685 76.7900391,19.21875 C76.6884761,19.2695315 76.5784511,19.3414709 76.4599609,19.4345703 L76.1933594,19.1171875 C76.3880218,18.9563794 76.6059558,18.7976896 76.847168,18.6411133 C77.0883801,18.484537 77.3486314,18.3470058 77.6279297,18.2285156 C77.907228,18.1100254 78.2076807,18.0126957 78.5292969,17.9365234 C78.8509131,17.8603512 79.1894513,17.8222656 79.5449219,17.8222656 C79.908856,17.8222656 80.219888,17.8709305 80.4780273,17.9682617 C80.7361667,18.0655929 80.9477531,18.1925448 81.112793,18.3491211 C81.2778329,18.5056974 81.4069006,18.6813141 81.5,18.8759766 C81.5930994,19.070639 81.6629229,19.2674144 81.7094727,19.4663086 C81.7560224,19.6652028 81.7835286,19.8556306 81.7919922,20.0375977 C81.8004558,20.2195647 81.8046875,20.3740228 81.8046875,20.5009766 Z M98.1943359,19.8154297 C98.1943359,21.3642656 98.0441096,22.8601816 97.7436523,24.3032227 C97.4431951,25.7462637 97.0284857,27.1004169 96.4995117,28.3657227 C95.9705377,29.6310285 95.342126,30.7862903 94.6142578,31.831543 C93.8863896,32.8767956 93.0950564,33.7718062 92.2402344,34.5166016 C91.3854124,35.261397 90.4819384,35.8411438 89.5297852,36.2558594 C88.577632,36.670575 87.6149137,36.8779297 86.6416016,36.8779297 C85.8968062,36.8779297 85.3212911,36.7530937 84.9150391,36.503418 C84.508787,36.2537422 84.3056641,35.9173198 84.3056641,35.4941406 C84.3056641,35.3333325 84.3310544,35.1767586 84.3818359,35.0244141 C84.4326174,34.8720696 84.5003251,34.7366542 84.5849609,34.6181641 C84.6695968,34.4996739 84.7711583,34.40446 84.8896484,34.3325195 C85.0081386,34.2605791 85.1350905,34.2246094 85.2705078,34.2246094 C85.4313159,34.2246094 85.5646154,34.3050122 85.6704102,34.4658203 L85.8904621,34.8071829 C85.928548,34.867368 85.9673392,34.9291989 86.0068359,34.9926758 C86.1253261,35.1831064 86.2692049,35.3587232 86.4384766,35.5195312 C86.6077482,35.6803393 86.8404933,35.7607422 87.1367188,35.7607422 C87.51758,35.7607422 87.9153625,35.6951504 88.3300781,35.5639648 C88.7447937,35.4327793 89.161619,35.2444674 89.5805664,34.9990234 C89.9995138,34.7535795 90.4184549,34.4552426 90.8374023,34.1040039 C91.2563498,33.7527652 91.6689433,33.3613303 92.0751953,32.9296875 L91.7735546,31.8663277 C91.6141019,31.3158603 91.4417001,30.7372101 91.2563477,30.1303711 C90.9474268,29.1189728 90.6215837,28.1012421 90.2788086,27.0771484 C89.9360334,26.0530548 89.5848,25.0649462 89.2250977,24.112793 C88.8653953,23.1606398 88.5141619,22.3164099 88.1713867,21.5800781 C87.8286116,20.8437463 87.4985367,20.2534202 87.1811523,19.809082 C86.8637679,19.3647439 86.582358,19.1425781 86.3369141,19.1425781 C86.176106,19.1425781 86.05127,19.1679685 85.9624023,19.21875 C85.8735347,19.2695315 85.7698574,19.3414709 85.6513672,19.4345703 L85.3974609,19.1171875 C85.5667326,18.9733066 85.7444652,18.8251961 85.9306641,18.6728516 C86.1168629,18.5205071 86.3369128,18.38086 86.5908203,18.2539062 C86.8447278,18.1269525 87.1409488,18.0232751 87.4794922,17.9428711 C87.8180355,17.862467 88.2242815,17.8222656 88.6982422,17.8222656 C89.2145208,17.8222656 89.694822,17.9386382 90.1391602,18.1713867 C90.5834983,18.4041353 90.9876284,18.8336557 91.3515625,19.4599609 C91.6139336,19.9254581 91.8868801,20.4840462 92.1704102,21.1357422 C92.4539402,21.7874382 92.7395819,22.5152955 93.0273438,23.3193359 C93.2575532,23.9625683 93.4891141,24.6477717 93.7220308,25.3749595 L93.8969727,25.9282227 C94.1889663,26.8634487 94.4830714,27.8430938 94.7792969,28.8671875 C95.3040391,27.7669216 95.7272119,26.6010804 96.0488281,25.3696289 C96.3704443,24.1381774 96.53125,22.8707747 96.53125,21.5673828 C96.53125,21.1018857 96.5016279,20.7041032 96.4423828,20.3740234 C96.3831377,20.0439437 96.3154301,19.7625337 96.2392578,19.5297852 L96.0821534,19.0632326 C96.0662843,19.0177411 96.0509441,18.9743654 96.0361328,18.9331055 C95.9768877,18.7680656 95.9472656,18.6220709 95.9472656,18.4951172 C95.9472656,18.3681634 95.9980464,18.2602544 96.0996094,18.1713867 C96.2011724,18.0825191 96.3238925,18.0126956 96.4677734,17.9619141 C96.6116544,17.9111326 96.757649,17.8751629 96.9057617,17.8540039 C97.0538744,17.8328449 97.1787104,17.8222656 97.2802734,17.8222656 C97.5087902,17.8222656 97.6844069,17.8688146 97.8071289,17.9619141 C97.9298509,18.0550135 98.020833,18.1883129 98.0800781,18.3618164 C98.1393232,18.5353199 98.173177,18.7447904 98.1816406,18.9902344 C98.1901042,19.2356783 98.1943359,19.5107407 98.1943359,19.8154297 Z M100.708008,20.0566406 C100.708008,19.8111967 100.650879,19.5974944 100.536621,19.4155273 C100.422363,19.2335603 100.229819,19.1425781 99.9589844,19.1425781 C99.8151034,19.1425781 99.6923833,19.1679685 99.5908203,19.21875 C99.4892573,19.2695315 99.3792324,19.3414709 99.2607422,19.4345703 L98.9941406,19.1171875 C99.1888031,18.9563794 99.4067371,18.7976896 99.6479492,18.6411133 C99.8891614,18.484537 100.149413,18.3470058 100.428711,18.2285156 C100.708009,18.1100254 101.008462,18.0126957 101.330078,17.9365234 C101.651694,17.8603512 101.990233,17.8222656 102.345703,17.8222656 C102.726564,17.8222656 103.052408,17.8815098 103.323242,18 C103.594077,18.1184902 103.820474,18.2602531 104.002441,18.425293 C104.184408,18.5903329 104.32194,18.7638337 104.415039,18.9458008 C104.508138,19.1277678 104.563151,19.2822259 104.580078,19.4091797 C104.74935,19.1721993 104.950357,18.9563812 105.183105,18.7617188 C105.415854,18.5670563 105.669758,18.399903 105.944824,18.2602539 C106.219891,18.1206048 106.51188,18.0126957 106.820801,17.9365234 C107.129722,17.8603512 107.449217,17.8222656 107.779297,17.8222656 C108.456384,17.8222656 109.069984,17.9619127 109.620117,18.2412109 C110.17025,18.5205092 110.642088,18.9352186 111.035645,19.4853516 C111.429201,20.0354845 111.73177,20.7167928 111.943359,21.5292969 C112.154949,22.3418009 112.260742,23.2812447 112.260742,24.3476562 C112.260742,25.5833395 112.131674,26.634924 111.873535,27.5024414 C111.615396,28.3699588 111.276858,29.0787733 110.85791,29.6289062 C110.438963,30.1790392 109.960777,30.5789376 109.42334,30.8286133 C108.885902,31.078289 108.337893,31.203125 107.779297,31.203125 C107.3138,31.203125 106.905438,31.156576 106.554199,31.0634766 C106.20296,30.9703771 105.900392,30.8561205 105.646484,30.7207031 C105.392577,30.5852858 105.18099,30.4477546 105.011719,30.3081055 L104.687988,30.0331727 C104.658366,30.0069887 104.63086,29.9822592 104.605469,29.9589844 L104.605469,36.1542969 C104.605469,36.2643235 104.588542,36.3955071 104.554688,36.5478516 C104.520833,36.7001961 104.438314,36.8461907 104.307129,36.9858398 C104.175943,37.125489 103.981284,37.2460932 103.723145,37.3476562 C103.465005,37.4492193 103.111656,37.5 102.663086,37.5 C102.214516,37.5 101.861167,37.4471034 101.603027,37.3413086 C101.344888,37.2355138 101.148113,37.1085619 101.012695,36.9604492 C100.877278,36.8123365 100.792643,36.664226 100.758789,36.5161133 C100.724935,36.3680006 100.708008,36.2473963 100.708008,36.1542969 L100.708008,20.0566406 Z M104.605469,28.1435547 C104.605469,28.2112634 104.635091,28.3297518 104.694336,28.4990234 C104.753581,28.6682951 104.846679,28.841796 104.973633,29.0195312 C105.100587,29.1972665 105.263508,29.3559563 105.462402,29.4956055 C105.661297,29.6352546 105.904621,29.7050781 106.192383,29.7050781 C106.564781,29.7050781 106.88216,29.5633152 107.144531,29.2797852 C107.406902,28.9962551 107.622721,28.6111678 107.791992,28.1245117 C107.961264,27.6378556 108.083984,27.070804 108.160156,26.4233398 C108.236329,25.7758757 108.274414,25.0839881 108.274414,24.3476562 C108.274414,23.4420528 108.225749,22.6761099 108.128418,22.0498047 C108.031087,21.4234995 107.889324,20.9178079 107.703125,20.5327148 C107.516926,20.1476218 107.29476,19.8683277 107.036621,19.6948242 C106.778482,19.5213207 106.488608,19.4345703 106.166992,19.4345703 C105.980793,19.4345703 105.794597,19.4874669 105.608398,19.5932617 C105.4222,19.6990565 105.255046,19.8302401 105.106934,19.9868164 C104.958821,20.1433927 104.838217,20.3190094 104.745117,20.5136719 C104.652018,20.7083343 104.605469,20.8945304 104.605469,21.0722656 L104.605469,28.1435547 Z M118.786133,18.9140625 L118.786133,28.2958984 C118.786133,28.7444684 118.870767,29.0555004 119.040039,29.2290039 C119.209311,29.4025074 119.442056,29.4892578 119.738281,29.4892578 C119.966798,29.4892578 120.169921,29.4257819 120.347656,29.2988281 C120.525392,29.1718744 120.677734,29.0279956 120.804688,28.8671875 C120.957032,28.6894522 121.088216,28.4820975 121.198242,28.2451172 L121.591797,28.4228516 C121.464843,28.6936862 121.314617,28.9899072 121.141113,29.3115234 C120.96761,29.6331396 120.736981,29.9314765 120.449219,30.206543 C120.161457,30.4816094 119.799644,30.7122387 119.36377,30.8984375 C118.927895,31.0846363 118.379886,31.1777344 117.719727,31.1777344 C117.347329,31.1777344 116.989748,31.1227219 116.646973,31.0126953 C116.304198,30.9026687 115.999513,30.7291679 115.73291,30.4921875 C115.466307,30.2552071 115.252605,29.9589862 115.091797,29.6035156 C114.930989,29.2480451 114.850586,28.8206405 114.850586,28.3212891 L114.850586,18.9140625 L113.428711,18.9140625 L113.428711,18 C113.665691,18 113.995766,17.9386399 114.418945,17.815918 C114.842125,17.693196 115.275877,17.4879572 115.720215,17.2001953 C116.164553,16.9124335 116.577147,16.5273462 116.958008,16.0449219 C117.338869,15.5624976 117.6097,14.9658239 117.770508,14.2548828 L118.786133,14.2548828 L118.786133,18 L120.855469,18 C121.532555,18 121.871094,17.8857433 121.871094,17.6572266 C121.871094,17.5725907 121.828776,17.5154624 121.744141,17.4858398 C121.659505,17.4562173 121.564291,17.4181317 121.458496,17.371582 C121.352701,17.3250323 121.257487,17.2594405 121.172852,17.1748047 C121.088216,17.0901688 121.045898,16.9505218 121.045898,16.7558594 C121.045898,16.518879 121.119954,16.332683 121.268066,16.1972656 C121.416179,16.0618483 121.608723,15.9941406 121.845703,15.9941406 C121.998048,15.9941406 122.131347,16.0258786 122.245605,16.0893555 C122.359864,16.1528323 122.455078,16.2374669 122.53125,16.3432617 C122.607422,16.4490565 122.664551,16.5696608 122.702637,16.7050781 C122.740723,16.8404955 122.759766,16.9759108 122.759766,17.1113281 C122.759766,17.6614611 122.601076,18.099445 122.283691,18.425293 C121.966307,18.751141 121.456384,18.9140625 120.753906,18.9140625 L118.786133,18.9140625 Z M122.620117,24.5 C122.620117,23.3912705 122.780923,22.4200888 123.102539,21.5864258 C123.424155,20.7527628 123.853676,20.0566434 124.391113,19.4980469 C124.928551,18.9394503 125.552731,18.5205092 126.263672,18.2412109 C126.974613,17.9619127 127.719397,17.8222656 128.498047,17.8222656 C129.276697,17.8222656 130.021481,17.9513333 130.732422,18.2094727 C131.443363,18.467612 132.067543,18.8632786 132.60498,19.3964844 C133.142418,19.9296902 133.571938,20.6046509 133.893555,21.4213867 C134.215171,22.2381226 134.375977,23.2050725 134.375977,24.3222656 C134.375977,25.4309951 134.215171,26.4127561 133.893555,27.2675781 C133.571938,28.1224001 133.142418,28.841794 132.60498,29.4257812 C132.067543,30.0097685 131.443363,30.4519842 130.732422,30.7524414 C130.021481,31.0528986 129.276697,31.203125 128.498047,31.203125 C127.719397,31.203125 126.974613,31.0613621 126.263672,30.777832 C125.552731,30.494302 124.928551,30.073245 124.391113,29.5146484 C123.853676,28.9560519 123.424155,28.2578167 123.102539,27.4199219 C122.780923,26.5820271 122.620117,25.6087295 122.620117,24.5 Z M130.427734,24.3730469 C130.427734,23.6959602 130.40446,23.0421581 130.35791,22.4116211 C130.31136,21.7810841 130.220378,21.2203801 130.084961,20.7294922 C129.949544,20.2386043 129.754884,19.8471694 129.500977,19.5551758 C129.247069,19.2631821 128.912762,19.1171875 128.498047,19.1171875 C128.083331,19.1171875 127.749025,19.2716456 127.495117,19.5805664 C127.24121,19.8894872 127.04655,20.2957332 126.911133,20.7993164 C126.775715,21.3028997 126.686849,21.8762989 126.644531,22.5195312 C126.602213,23.1627636 126.581055,23.8229133 126.581055,24.5 C126.581055,25.1770867 126.602213,25.8393522 126.644531,26.4868164 C126.686849,27.1342806 126.775715,27.7119115 126.911133,28.2197266 C127.04655,28.7275416 127.24121,29.1359034 127.495117,29.4448242 C127.749025,29.753745 128.083331,29.9082031 128.498047,29.9082031 C128.912762,29.9082031 129.247069,29.7473974 129.500977,29.4257812 C129.754884,29.1041651 129.949544,28.6809922 130.084961,28.15625 C130.220378,27.6315078 130.31136,27.0390658 130.35791,26.3789062 C130.40446,25.7187467 130.427734,25.0501336 130.427734,24.3730469 Z M148.239258,26.4550781 L143.668945,17.3525391 L143.503906,20.4121094 C143.453125,21.3007857 143.408692,22.1831011 143.370605,23.059082 C143.332519,23.935063 143.262696,24.7687135 143.161133,25.5600586 C143.05957,26.3514037 142.90088,27.0856086 142.685059,27.7626953 C142.469237,28.439782 142.156089,29.0258764 141.745605,29.5209961 C141.335122,30.0161158 140.801924,30.4033189 140.145996,30.6826172 C139.490068,30.9619155 138.671229,31.1015625 137.689453,31.1015625 C137.25781,31.1015625 136.843101,31.0655928 136.445312,30.9936523 C136.047524,30.9217119 135.696291,30.8222663 135.391602,30.6953125 C135.086913,30.5683587 134.843588,30.4181324 134.661621,30.2446289 C134.479654,30.0711254 134.388672,29.8828135 134.388672,29.6796875 C134.388672,29.527343 134.409831,29.3728849 134.452148,29.2163086 C134.494466,29.0597323 134.557942,28.9158535 134.642578,28.784668 C134.727214,28.6534824 134.830891,28.5476892 134.953613,28.4672852 C135.076335,28.3868811 135.213866,28.3466797 135.366211,28.3466797 C135.45931,28.3466797 135.541829,28.3932287 135.61377,28.4863281 C135.66173,28.5483944 135.71063,28.6208043 135.760471,28.7035588 L136.002387,29.1288518 C136.03248,29.1801032 136.063748,29.2325301 136.096191,29.2861328 C136.193523,29.4469409 136.320474,29.5971673 136.477051,29.7368164 C136.633627,29.8764655 136.821939,29.9928381 137.041992,30.0859375 C137.262045,30.1790369 137.537108,30.2255859 137.867188,30.2255859 C138.518883,30.2255859 139.066892,30.1134451 139.51123,29.8891602 C139.955569,29.6648752 140.321613,29.3411479 140.609375,28.9179688 C140.897137,28.4947896 141.117187,27.9827504 141.269531,27.3818359 C141.421876,26.7809215 141.536132,26.0996132 141.612305,25.3378906 L141.713867,24.112793 L141.713867,24.112793 L141.81543,22.9384766 L141.81543,22.9384766 L141.864624,22.3497315 L141.864624,22.3497315 L142.005859,20.4755859 L142.005859,20.4755859 L142.066162,19.5218505 L142.066162,19.5218505 L142.120117,18.6157227 C142.145508,18.1745583 142.167328,17.7560123 142.185577,17.3600776 L142.243103,15.9147954 L142.243103,15.9147954 L142.285156,14.546875 L142.285156,14.546875 L142.120625,14.2188277 C142.042422,14.0685155 141.970313,13.9387701 141.904297,13.8295898 C141.79427,13.6476228 141.680014,13.5079757 141.561523,13.4106445 C141.443033,13.3133133 141.31185,13.2477215 141.167969,13.2138672 C141.024088,13.1800129 140.850587,13.1630859 140.647461,13.1630859 C140.478189,13.1630859 140.268719,13.1948239 140.019043,13.2583008 C139.769367,13.3217777 139.511232,13.4127598 139.244629,13.53125 C138.978026,13.6497402 138.711427,13.7957348 138.444824,13.9692383 C138.178221,14.1427418 137.941245,14.341633 137.733887,14.565918 C137.526529,14.7902029 137.35726,15.0377591 137.226074,15.3085938 C137.094889,15.5794284 137.029297,15.8714177 137.029297,16.1845703 C137.029297,16.455405 137.065267,16.6712232 137.137207,16.8320312 C137.209147,16.9928393 137.293782,17.1134436 137.391113,17.1938477 C137.488444,17.2742517 137.585774,17.3250324 137.683105,17.3461914 L137.841092,17.3744032 C137.86131,17.3767542 137.878472,17.3779297 137.892578,17.3779297 C138.104168,17.3779297 138.277669,17.34196 138.413086,17.2700195 C138.548503,17.1980791 138.671223,17.121908 138.78125,17.0415039 L139.092285,16.8129883 L139.092285,16.8129883 C139.189616,16.7410478 139.301757,16.7050781 139.428711,16.7050781 C139.530274,16.7050781 139.638183,16.7283526 139.752441,16.7749023 C139.8667,16.8214521 139.972493,16.8955073 140.069824,16.9970703 C140.167155,17.0986333 140.249674,17.2319328 140.317383,17.3969727 C140.385091,17.5620125 140.418945,17.7630196 140.418945,18 C140.418945,18.3385434 140.353354,18.6305326 140.222168,18.8759766 C140.090982,19.1214205 139.921713,19.3266593 139.714355,19.4916992 C139.506998,19.6567391 139.270021,19.7794592 139.003418,19.8598633 C138.736815,19.9402673 138.472332,19.9804688 138.209961,19.9804688 C137.803709,19.9804688 137.437664,19.9106452 137.111816,19.7709961 C136.785968,19.631347 136.50879,19.4388033 136.280273,19.1933594 C136.051757,18.9479154 135.878256,18.6601579 135.759766,18.3300781 C135.641275,17.9999983 135.582031,17.6487649 135.582031,17.2763672 C135.582031,16.3961545 135.785154,15.6280957 136.191406,14.972168 C136.597658,14.3162402 137.130856,13.7682314 137.791016,13.328125 C138.451175,12.8880186 139.198075,12.5600597 140.031738,12.3442383 C140.865401,12.1284169 141.713863,12.0205078 142.577148,12.0205078 C143.271162,12.0205078 143.850909,12.0903313 144.316406,12.2299805 C144.781903,12.3696296 145.171222,12.5558257 145.484375,12.7885742 C145.797528,13.0213228 146.055663,13.2942693 146.258789,13.6074219 C146.461915,13.9205745 146.648111,14.2506493 146.817383,14.5976562 L150.168945,21.4023438 L151.28488,19.2181218 C151.730521,18.3524393 152.151998,17.5422672 152.549316,16.7875977 L153.075776,15.7993448 C153.592317,14.8416424 154.079099,13.9755898 154.536133,13.2011719 C155.145511,12.1686146 155.714678,11.2884151 156.243652,10.5605469 C156.772626,9.83267865 157.284665,9.2381208 157.779785,8.77685547 C158.274905,8.31559014 158.765785,7.97916772 159.252441,7.76757812 C159.739097,7.55598853 160.244789,7.45019531 160.769531,7.45019531 C161.218101,7.45019531 161.58203,7.5454092 161.861328,7.73583984 C162.140626,7.92627048 162.280273,8.21191216 162.280273,8.59277344 C162.280273,8.9313168 162.225261,9.21061088 162.115234,9.43066406 C162.005208,9.65071725 161.852866,9.76074219 161.658203,9.76074219 C161.497395,9.76074219 161.374675,9.69938212 161.290039,9.57666016 C161.205403,9.45393819 161.122885,9.32063874 161.04248,9.17675781 C160.962076,9.03287688 160.862631,8.89957744 160.744141,8.77685547 C160.62565,8.6541335 160.45215,8.59277344 160.223633,8.59277344 C160.088215,8.59277344 159.923178,8.63085899 159.728516,8.70703125 C159.533853,8.78320351 159.332846,8.89746018 159.125488,9.04980469 C158.91813,9.2021492 158.712892,9.39257698 158.509766,9.62109375 C158.30664,9.84961052 158.128907,10.1162094 157.976562,10.4208984 C157.824218,10.7255875 157.70573,11.0725892 157.621094,11.4619141 C157.536458,11.8512389 157.511068,12.2786435 157.544922,12.7441406 L157.629557,13.9318566 L157.629557,13.9318566 L157.828583,16.3115222 L157.828583,16.3115222 L158.03087,18.5846886 L158.03087,18.5846886 L158.190972,20.3147796 L158.190972,20.3147796 L158.482788,23.2685548 L158.482788,23.2685548 L158.785762,26.1884757 L158.785762,26.1884757 L158.893446,27.1737748 C158.915075,27.3623234 158.936234,27.5400572 158.956923,27.7069767 L159.086755,28.6599178 C159.114391,28.8416245 159.137881,28.9784222 159.157227,29.0703125 C159.208008,29.3157564 159.275716,29.5125318 159.360352,29.6606445 C159.444987,29.8087573 159.59733,29.8828125 159.817383,29.8828125 C160.0459,29.8828125 160.261718,29.8426111 160.464844,29.762207 C160.66797,29.681803 160.849934,29.5992843 161.010742,29.5146484 L161.213867,29.984375 C161.061523,30.0944016 160.868979,30.2192376 160.63623,30.3588867 C160.403482,30.4985359 160.136883,30.6318353 159.836426,30.7587891 C159.535969,30.8857428 159.205894,30.991536 158.846191,31.0761719 C158.486489,31.1608077 158.099286,31.203125 157.68457,31.203125 C157.100583,31.203125 156.639325,31.1290698 156.300781,30.980957 C155.962238,30.8328443 155.701987,30.65088 155.52002,30.4350586 C155.338052,30.2192372 155.215332,29.9907239 155.151855,29.7495117 C155.088379,29.5082996 155.039714,29.2903656 155.005859,29.0957031 L154.928277,28.6344398 C154.875615,28.3071836 154.821072,27.9404317 154.764648,27.5341797 C154.701172,27.0771462 154.638886,26.5951241 154.577789,26.0881053 L154.51709,25.5727539 C154.436686,24.8745082 154.358399,24.1551144 154.282227,23.4145508 L154.138346,21.9560012 L154.138346,21.9560012 L154.026337,20.7211598 L154.026337,20.7211598 L153.901367,19.2441406 C153.850586,18.6178354 153.808268,18.0719424 153.774414,17.6064453 C153.520507,18.0211609 153.285646,18.4210593 153.069824,18.8061523 C152.854003,19.1912454 152.644532,19.5847962 152.441406,19.9868164 C152.305989,20.2548299 152.168692,20.5313042 152.029514,20.816243 L151.819336,21.25 C151.660644,21.5800798 151.496002,21.931579 151.325409,22.3045036 L150.391113,24.3857422 C150.116047,25.0035838 149.813478,25.6933556 149.483398,26.4550781 L148.239258,26.4550781 Z M166.101562,25.1728516 C166.101562,25.4436862 166.141764,25.7377914 166.222168,26.0551758 C166.302572,26.3725602 166.418945,26.6920557 166.571289,27.0136719 C166.723634,27.3352881 166.911945,27.6420884 167.13623,27.934082 C167.360515,28.2260757 167.618651,28.486327 167.910645,28.7148438 C168.202638,28.9433605 168.526365,29.1253248 168.881836,29.2607422 C169.237306,29.3961595 169.626625,29.4638672 170.049805,29.4638672 C170.34603,29.4638672 170.621092,29.4300134 170.875,29.3623047 C171.128908,29.294596 171.365884,29.201498 171.585938,29.0830078 C171.805991,28.9645176 172.017577,28.8269865 172.220703,28.6704102 C172.423829,28.5138339 172.626952,28.3466806 172.830078,28.1689453 L173.147461,28.4736328 C172.952799,28.7360039 172.703127,29.0237615 172.398438,29.3369141 C172.093748,29.6500667 171.725588,29.9441718 171.293945,30.2192383 C170.862303,30.4943048 170.358727,30.7228181 169.783203,30.9047852 C169.207679,31.0867522 168.551761,31.1777344 167.81543,31.1777344 C167.079098,31.1777344 166.36182,31.0444349 165.663574,30.777832 C164.965329,30.5112291 164.34538,30.1113308 163.803711,29.578125 C163.262042,29.0449192 162.828289,28.3805378 162.502441,27.5849609 C162.176593,26.789384 162.013672,25.8584038 162.013672,24.7919922 C162.013672,24.021806 162.111002,23.3151074 162.305664,22.671875 C162.500326,22.0286426 162.76481,21.4488958 163.099121,20.9326172 C163.433433,20.4163386 163.822752,19.9635436 164.26709,19.5742188 C164.711428,19.1848939 165.179034,18.8611667 165.669922,18.6030273 C166.16081,18.344888 166.66227,18.1502285 167.174316,18.019043 C167.686363,17.8878574 168.17936,17.8222656 168.65332,17.8222656 C169.279626,17.8222656 169.825519,17.8899733 170.291016,18.0253906 C170.756513,18.160808 171.143716,18.3427723 171.452637,18.5712891 C171.761558,18.7998058 171.992187,19.0642889 172.144531,19.3647461 C172.296876,19.6652033 172.373047,19.9804671 172.373047,20.3105469 C172.373047,20.7083353 172.25879,21.0659164 172.030273,21.3833008 C171.801757,21.7006852 171.497072,21.9778634 171.116211,22.2148438 L166.101562,25.1728516 Z M168.65332,22.5957031 C168.763347,22.5279945 168.854329,22.4624027 168.92627,22.3989258 C168.99821,22.3354489 169.055338,22.2592778 169.097656,22.1704102 C169.139974,22.0815425 169.171712,21.9715176 169.192871,21.840332 C169.21403,21.7091465 169.224609,21.5462249 169.224609,21.3515625 C169.224609,21.1399729 169.201335,20.905112 169.154785,20.6469727 C169.108235,20.3888333 169.029948,20.145509 168.919922,19.9169922 C168.809895,19.6884754 168.670248,19.4980476 168.500977,19.3457031 C168.331705,19.1933586 168.128582,19.1171875 167.891602,19.1171875 C167.586913,19.1171875 167.326661,19.2081697 167.11084,19.3901367 C166.895018,19.5721038 166.717286,19.8069647 166.577637,20.0947266 C166.437988,20.3824884 166.327963,20.7104474 166.247559,21.0786133 C166.167155,21.4467792 166.105794,21.8170554 166.063477,22.1894531 C166.021159,22.5618508 165.995768,22.9194319 165.987305,23.262207 L165.977783,23.7366945 C165.975667,23.8816323 165.974609,24.0133458 165.974609,24.1318359 L168.65332,22.5957031 Z M185.703125,29.8828125 C185.703125,29.9928391 185.686198,30.1240227 185.652344,30.2763672 C185.618489,30.4287117 185.535971,30.5725905 185.404785,30.7080078 C185.2736,30.8434252 185.076824,30.9597977 184.814453,31.0571289 C184.552082,31.1544601 184.196617,31.203125 183.748047,31.203125 C183.299477,31.203125 182.946128,31.1502284 182.687988,31.0444336 C182.429849,30.9386388 182.235189,30.8138028 182.104004,30.6699219 C181.972818,30.5260409 181.8903,30.3779304 181.856445,30.2255859 C181.822591,30.0732414 181.805664,29.9505213 181.805664,29.8574219 L181.805664,20.8818359 C181.805664,20.7633458 181.788737,20.6427415 181.754883,20.5200195 C181.721028,20.3972976 181.670248,20.2851568 181.602539,20.1835938 C181.53483,20.0820307 181.450196,19.999512 181.348633,19.9360352 C181.24707,19.8725583 181.128581,19.8408203 180.993164,19.8408203 C180.764647,19.8408203 180.540366,19.9064121 180.320312,20.0375977 C180.100259,20.1687832 179.89502,20.3190096 179.70459,20.4882812 C179.514159,20.6575529 179.349122,20.8268221 179.209473,20.9960938 L179.061191,21.1789065 C178.996699,21.2601564 178.94668,21.3261716 178.911133,21.3769531 L178.911133,29.8828125 C178.911133,29.9928391 178.894206,30.1240227 178.860352,30.2763672 C178.826497,30.4287117 178.743979,30.5725905 178.612793,30.7080078 C178.481607,30.8434252 178.286948,30.9597977 178.028809,31.0571289 C177.770669,31.1544601 177.41732,31.203125 176.96875,31.203125 C176.52018,31.203125 176.166831,31.1502284 175.908691,31.0444336 C175.650552,30.9386388 175.453777,30.8138028 175.318359,30.6699219 C175.182942,30.5260409 175.098307,30.3779304 175.064453,30.2255859 C175.030599,30.0732414 175.013672,29.9505213 175.013672,29.8574219 L175.013672,20.0566406 C175.013672,19.8111967 174.956544,19.5974944 174.842285,19.4155273 C174.728027,19.2335603 174.535483,19.1425781 174.264648,19.1425781 C174.120768,19.1425781 173.998047,19.1679685 173.896484,19.21875 C173.794921,19.2695315 173.684896,19.3414709 173.566406,19.4345703 L173.299805,19.1171875 C173.494467,18.9563794 173.712401,18.7976896 173.953613,18.6411133 C174.194825,18.484537 174.455077,18.3470058 174.734375,18.2285156 C175.013673,18.1100254 175.314126,18.0126957 175.635742,17.9365234 C175.957358,17.8603512 176.295897,17.8222656 176.651367,17.8222656 C177.2015,17.8222656 177.628905,17.9132478 177.933594,18.0952148 C178.238283,18.2771819 178.462564,18.4951159 178.606445,18.7490234 C178.750326,19.002931 178.837077,19.267414 178.866699,19.5424805 C178.896322,19.8175469 178.911133,20.0481762 178.911133,20.234375 C179.308921,19.785805 179.736326,19.3837908 180.193359,19.0283203 C180.379558,18.8759758 180.584797,18.7278653 180.809082,18.5839844 C181.033367,18.4401034 181.263996,18.3110357 181.500977,18.1967773 C181.737957,18.082519 181.983397,17.9915368 182.237305,17.9238281 C182.491212,17.8561195 182.745116,17.8222656 182.999023,17.8222656 C183.489911,17.8222656 183.908852,17.9111319 184.255859,18.0888672 C184.602866,18.2666025 184.88216,18.4803047 185.09375,18.7299805 C185.30534,18.9796562 185.459798,19.2420234 185.557129,19.5170898 C185.65446,19.7921563 185.703125,20.031249 185.703125,20.234375 C186.109377,19.785805 186.536782,19.3837908 186.985352,19.0283203 C187.17155,18.8759758 187.374673,18.7278653 187.594727,18.5839844 C187.81478,18.4401034 188.045409,18.3110357 188.286621,18.1967773 C188.527833,18.082519 188.773273,17.9915368 189.022949,17.9238281 C189.272625,17.8561195 189.524413,17.8222656 189.77832,17.8222656 C190.269208,17.8222656 190.688149,17.9132478 191.035156,18.0952148 C191.382163,18.2771819 191.661457,18.5162746 191.873047,18.8125 C192.084636,19.1087254 192.239095,19.443032 192.336426,19.8154297 C192.433757,20.1878274 192.482422,20.5602195 192.482422,20.9326172 L192.482422,28.7910156 C192.482422,28.8671879 192.486654,28.9497066 192.495117,29.0385742 C192.503581,29.1274419 192.524739,29.2120764 192.558594,29.2924805 C192.592448,29.3728845 192.645345,29.4384763 192.717285,29.4892578 C192.789226,29.5400393 192.88444,29.5654297 193.00293,29.5654297 C193.163738,29.5654297 193.307617,29.5083014 193.43457,29.394043 C193.561524,29.2797846 193.680012,29.1634121 193.790039,29.0449219 L194.094727,29.3115234 C193.976236,29.4892587 193.819662,29.6860341 193.625,29.9018555 C193.430338,30.1176769 193.199708,30.3229157 192.933105,30.5175781 C192.666503,30.7122406 192.357586,30.8751621 192.006348,31.0063477 C191.655109,31.1375332 191.259442,31.203125 190.819336,31.203125 C190.446938,31.203125 190.123211,31.1544601 189.848145,31.0571289 C189.573078,30.9597977 189.340333,30.8286141 189.149902,30.6635742 C188.959472,30.4985343 188.817709,30.3038748 188.724609,30.0795898 C188.63151,29.8553049 188.584961,29.6162122 188.584961,29.3623047 L188.584961,20.8818359 C188.584961,20.7633458 188.568034,20.6427415 188.53418,20.5200195 C188.500325,20.3972976 188.45166,20.2851568 188.388184,20.1835938 C188.324707,20.0820307 188.242188,19.999512 188.140625,19.9360352 C188.039062,19.8725583 187.920574,19.8408203 187.785156,19.8408203 C187.556639,19.8408203 187.330242,19.9064121 187.105957,20.0375977 C186.881672,20.1687832 186.674317,20.3190096 186.483887,20.4882812 C186.293456,20.6575529 186.130535,20.8268221 185.995117,20.9960938 L185.850898,21.1789065 C185.78793,21.2601564 185.738672,21.3261716 185.703125,21.3769531 L185.703125,29.8828125 Z M199.09668,25.1728516 C199.09668,25.4436862 199.136881,25.7377914 199.217285,26.0551758 C199.297689,26.3725602 199.414062,26.6920557 199.566406,27.0136719 C199.718751,27.3352881 199.907063,27.6420884 200.131348,27.934082 C200.355633,28.2260757 200.613768,28.486327 200.905762,28.7148438 C201.197755,28.9433605 201.521483,29.1253248 201.876953,29.2607422 C202.232424,29.3961595 202.621743,29.4638672 203.044922,29.4638672 C203.341147,29.4638672 203.61621,29.4300134 203.870117,29.3623047 C204.124025,29.294596 204.361002,29.201498 204.581055,29.0830078 C204.801108,28.9645176 205.012694,28.8269865 205.21582,28.6704102 C205.418946,28.5138339 205.622069,28.3466806 205.825195,28.1689453 L206.142578,28.4736328 C205.947916,28.7360039 205.698244,29.0237615 205.393555,29.3369141 C205.088866,29.6500667 204.720705,29.9441718 204.289062,30.2192383 C203.85742,30.4943048 203.353844,30.7228181 202.77832,30.9047852 C202.202797,31.0867522 201.546879,31.1777344 200.810547,31.1777344 C200.074215,31.1777344 199.356937,31.0444349 198.658691,30.777832 C197.960446,30.5112291 197.340497,30.1113308 196.798828,29.578125 C196.257159,29.0449192 195.823407,28.3805378 195.497559,27.5849609 C195.171711,26.789384 195.008789,25.8584038 195.008789,24.7919922 C195.008789,24.021806 195.106119,23.3151074 195.300781,22.671875 C195.495444,22.0286426 195.759927,21.4488958 196.094238,20.9326172 C196.42855,20.4163386 196.817869,19.9635436 197.262207,19.5742188 C197.706545,19.1848939 198.174151,18.8611667 198.665039,18.6030273 C199.155927,18.344888 199.657387,18.1502285 200.169434,18.019043 C200.68148,17.8878574 201.174477,17.8222656 201.648438,17.8222656 C202.274743,17.8222656 202.820636,17.8899733 203.286133,18.0253906 C203.75163,18.160808 204.138833,18.3427723 204.447754,18.5712891 C204.756675,18.7998058 204.987304,19.0642889 205.139648,19.3647461 C205.291993,19.6652033 205.368164,19.9804671 205.368164,20.3105469 C205.368164,20.7083353 205.253907,21.0659164 205.025391,21.3833008 C204.796874,21.7006852 204.492189,21.9778634 204.111328,22.2148438 L199.09668,25.1728516 Z M201.648438,22.5957031 C201.758464,22.5279945 201.849446,22.4624027 201.921387,22.3989258 C201.993327,22.3354489 202.050456,22.2592778 202.092773,22.1704102 C202.135091,22.0815425 202.166829,21.9715176 202.187988,21.840332 C202.209147,21.7091465 202.219727,21.5462249 202.219727,21.3515625 C202.219727,21.1399729 202.196452,20.905112 202.149902,20.6469727 C202.103353,20.3888333 202.025066,20.145509 201.915039,19.9169922 C201.805012,19.6884754 201.665365,19.4980476 201.496094,19.3457031 C201.326822,19.1933586 201.123699,19.1171875 200.886719,19.1171875 C200.58203,19.1171875 200.321778,19.2081697 200.105957,19.3901367 C199.890136,19.5721038 199.712403,19.8069647 199.572754,20.0947266 C199.433105,20.3824884 199.32308,20.7104474 199.242676,21.0786133 C199.162272,21.4467792 199.100912,21.8170554 199.058594,22.1894531 C199.016276,22.5618508 198.990885,22.9194319 198.982422,23.262207 L198.9729,23.7366945 C198.970784,23.8816323 198.969727,24.0133458 198.969727,24.1318359 L201.648438,22.5957031 Z M207.831055,29.0703125 C207.831055,28.7740871 207.886067,28.494793 207.996094,28.2324219 C208.10612,27.9700508 208.256347,27.7415374 208.446777,27.546875 C208.637208,27.3522126 208.863605,27.1977545 209.125977,27.0834961 C209.388348,26.9692377 209.667642,26.9121094 209.963867,26.9121094 C210.260093,26.9121094 210.539387,26.9692377 210.801758,27.0834961 C211.064129,27.1977545 211.292642,27.3522126 211.487305,27.546875 C211.681967,27.7415374 211.836425,27.9700508 211.950684,28.2324219 C212.064942,28.494793 212.12207,28.7740871 212.12207,29.0703125 C212.12207,29.3750015 212.064942,29.6564115 211.950684,29.9145508 C211.836425,30.1726901 211.681967,30.3969717 211.487305,30.5874023 C211.292642,30.777833 211.064129,30.9280593 210.801758,31.0380859 C210.539387,31.1481125 210.260093,31.203125 209.963867,31.203125 C209.667642,31.203125 209.388348,31.1481125 209.125977,31.0380859 C208.863605,30.9280593 208.637208,30.777833 208.446777,30.5874023 C208.256347,30.3969717 208.10612,30.1726901 207.996094,29.9145508 C207.886067,29.6564115 207.831055,29.3750015 207.831055,29.0703125 Z M220.983398,24.4238281 C220.983398,24.2122385 220.915691,24.0514328 220.780273,23.9414062 C220.644856,23.8313797 220.471355,23.7763672 220.259766,23.7763672 C219.96354,23.7763672 219.68213,23.8440748 219.415527,23.9794922 C219.148924,24.1149095 218.914064,24.3138008 218.710938,24.5761719 C218.507811,24.838543 218.347006,25.1622702 218.228516,25.5473633 C218.110025,25.9324564 218.050781,26.3789037 218.050781,26.8867188 C218.050781,27.3776066 218.086751,27.7838526 218.158691,28.1054688 C218.230632,28.4270849 218.327962,28.6831045 218.450684,28.8735352 C218.573406,29.0639658 218.715168,29.1972652 218.875977,29.2734375 C219.036785,29.3496098 219.206054,29.3876953 219.383789,29.3876953 C219.603842,29.3876953 219.811197,29.330567 220.005859,29.2163086 C220.200522,29.1020502 220.369791,28.9560556 220.513672,28.7783203 C220.657553,28.600585 220.771809,28.4016938 220.856445,28.1816406 C220.941081,27.9615874 220.983398,27.7415376 220.983398,27.5214844 L220.983398,24.4238281 Z M218.964844,18.8632812 C218.677082,18.8632812 218.410483,18.8971351 218.165039,18.9648438 C217.919595,19.0325524 217.708009,19.117187 217.530273,19.21875 C217.352538,19.320313 217.212891,19.4324538 217.111328,19.5551758 C217.009765,19.6778977 216.958984,19.7942703 216.958984,19.9042969 C216.958984,20.0312506 217.024576,20.1222328 217.155762,20.1772461 L217.59375,20.3676758 L217.59375,20.3676758 C217.754558,20.4396162 217.900553,20.5411777 218.031738,20.6723633 C218.162924,20.8035488 218.228516,21.0045559 218.228516,21.2753906 C218.228516,21.4531259 218.192546,21.6160474 218.120605,21.7641602 C218.048665,21.9122729 217.951335,22.0434565 217.828613,22.1577148 C217.705891,22.2719732 217.562013,22.3608395 217.396973,22.4243164 C217.231933,22.4877933 217.060548,22.5195312 216.882812,22.5195312 C216.408852,22.5195312 216.02588,22.3587256 215.733887,22.0371094 C215.441893,21.7154932 215.295898,21.2880886 215.295898,20.7548828 C215.295898,20.2386042 215.431314,19.7963886 215.702148,19.4282227 C215.972983,19.0600568 216.326332,18.7574882 216.762207,18.5205078 C217.198082,18.2835275 217.691078,18.1079107 218.241211,17.9936523 C218.791344,17.879394 219.341469,17.8222656 219.891602,17.8222656 C220.551761,17.8222656 221.182289,17.894205 221.783203,18.0380859 C222.384118,18.1819669 222.9152,18.4104802 223.376465,18.7236328 C223.83773,19.0367854 224.205891,19.4345679 224.480957,19.9169922 C224.756024,20.3994165 224.893555,20.983395 224.893555,21.6689453 L224.893555,28.8417969 C224.893555,28.9179691 224.897786,29.0026037 224.90625,29.0957031 C224.914714,29.1888025 224.935872,29.2734371 224.969727,29.3496094 C225.003581,29.4257816 225.054362,29.4892576 225.12207,29.5400391 C225.189779,29.5908206 225.287109,29.6162109 225.414062,29.6162109 C225.566407,29.6162109 225.70817,29.5590826 225.839355,29.4448242 C225.970541,29.3305658 226.086914,29.2141933 226.188477,29.0957031 L226.505859,29.3623047 C226.378906,29.54004 226.226563,29.7346995 226.048828,29.9462891 C225.871093,30.1578787 225.655275,30.3567699 225.401367,30.5429688 C225.14746,30.7291676 224.851239,30.8857416 224.512695,31.0126953 C224.174152,31.1396491 223.789065,31.203125 223.357422,31.203125 C222.824216,31.203125 222.350262,31.0444352 221.935547,30.7270508 C221.520831,30.4096664 221.250001,29.9209017 221.123047,29.2607422 C220.852212,29.6246763 220.570802,29.9293608 220.278809,30.1748047 C219.986815,30.4202486 219.688478,30.6191399 219.383789,30.7714844 C219.0791,30.9238289 218.7723,31.0338538 218.463379,31.1015625 C218.154458,31.1692712 217.843426,31.203125 217.530273,31.203125 C217.124021,31.203125 216.730471,31.1396491 216.349609,31.0126953 C215.968748,30.8857416 215.628094,30.6847344 215.327637,30.409668 C215.027179,30.1346015 214.785971,29.7770204 214.604004,29.3369141 C214.422037,28.8968077 214.331055,28.3593782 214.331055,27.7246094 C214.331055,26.9544232 214.483397,26.3238957 214.788086,25.8330078 C215.092775,25.3421199 215.492673,24.9295264 215.987793,24.5952148 C216.482913,24.2609033 217.045733,23.9752616 217.67627,23.7382812 C218.306807,23.5013009 218.952145,23.2516289 219.612305,22.9892578 C220.103193,22.7945954 220.460774,22.504722 220.685059,22.1196289 C220.909344,21.7345358 221.021484,21.3388692 221.021484,20.9326172 C221.021484,20.306312 220.837404,19.8048521 220.469238,19.4282227 C220.101072,19.0515932 219.599613,18.8632812 218.964844,18.8632812 Z M232.269531,20.5009766 C232.591147,20.0100887 232.933917,19.5657572 233.297852,19.1679688 C233.450196,18.9986971 233.615233,18.8336597 233.792969,18.6728516 C233.970704,18.5120435 234.154784,18.3681647 234.345215,18.2412109 C234.535645,18.1142572 234.732421,18.0126957 234.935547,17.9365234 C235.138673,17.8603512 235.341796,17.8222656 235.544922,17.8222656 C235.976565,17.8222656 236.315103,17.9513333 236.560547,18.2094727 C236.805991,18.467612 236.928711,18.8294248 236.928711,19.2949219 C236.928711,19.5826837 236.905436,19.8598619 236.858887,20.1264648 C236.812337,20.3930677 236.721355,20.716795 236.585938,21.0976562 L236.230469,21.0976562 C236.179687,20.8352851 236.061199,20.6173511 235.875,20.4438477 C235.688801,20.2703442 235.417971,20.1835938 235.0625,20.1835938 C234.800129,20.1835938 234.541993,20.2322586 234.288086,20.3295898 C234.034178,20.4269211 233.786622,20.5475253 233.54541,20.6914062 C233.304198,20.8352872 233.075685,20.9918611 232.859863,21.1611328 C232.644042,21.3304045 232.447267,21.4912102 232.269531,21.6435547 L232.269531,29.8828125 C232.269531,29.9928391 232.252604,30.1240227 232.21875,30.2763672 C232.184896,30.4287117 232.102377,30.5725905 231.971191,30.7080078 C231.840006,30.8434252 231.645346,30.9597977 231.387207,31.0571289 C231.129068,31.1544601 230.775718,31.203125 230.327148,31.203125 C229.878578,31.203125 229.525229,31.1502284 229.26709,31.0444336 C229.008951,30.9386388 228.812175,30.8138028 228.676758,30.6699219 C228.54134,30.5260409 228.456706,30.3779304 228.422852,30.2255859 C228.388997,30.0732414 228.37207,29.9505213 228.37207,29.8574219 L228.37207,20.0566406 C228.37207,19.8111967 228.314942,19.5974944 228.200684,19.4155273 C228.086425,19.2335603 227.893882,19.1425781 227.623047,19.1425781 C227.479166,19.1425781 227.356446,19.1679685 227.254883,19.21875 C227.15332,19.2695315 227.043295,19.3414709 226.924805,19.4345703 L226.658203,19.1171875 C226.852866,18.9563794 227.0708,18.7976896 227.312012,18.6411133 C227.553224,18.484537 227.813475,18.3470058 228.092773,18.2285156 C228.372072,18.1100254 228.672524,18.0126957 228.994141,17.9365234 C229.315757,17.8603512 229.654295,17.8222656 230.009766,17.8222656 C230.3737,17.8222656 230.684732,17.8709305 230.942871,17.9682617 C231.20101,18.0655929 231.412597,18.1925448 231.577637,18.3491211 C231.742677,18.5056974 231.871744,18.6813141 231.964844,18.8759766 C232.057943,19.070639 232.127767,19.2674144 232.174316,19.4663086 C232.220866,19.6652028 232.248372,19.8556306 232.256836,20.0375977 L232.268121,20.3648545 C232.269061,20.4132847 232.269531,20.4586586 232.269531,20.5009766 Z M242.654297,18.9140625 L242.654297,28.2958984 C242.654297,28.7444684 242.738931,29.0555004 242.908203,29.2290039 C243.077475,29.4025074 243.31022,29.4892578 243.606445,29.4892578 C243.834962,29.4892578 244.038085,29.4257819 244.21582,29.2988281 C244.393556,29.1718744 244.545898,29.0279956 244.672852,28.8671875 C244.825196,28.6894522 244.95638,28.4820975 245.066406,28.2451172 L245.459961,28.4228516 C245.333007,28.6936862 245.182781,28.9899072 245.009277,29.3115234 C244.835774,29.6331396 244.605145,29.9314765 244.317383,30.206543 C244.029621,30.4816094 243.667808,30.7122387 243.231934,30.8984375 C242.796059,31.0846363 242.24805,31.1777344 241.587891,31.1777344 C241.215493,31.1777344 240.857912,31.1227219 240.515137,31.0126953 C240.172362,30.9026687 239.867677,30.7291679 239.601074,30.4921875 C239.334471,30.2552071 239.120769,29.9589862 238.959961,29.6035156 C238.799153,29.2480451 238.71875,28.8206405 238.71875,28.3212891 L238.71875,18.9140625 L237.296875,18.9140625 L237.296875,18 C237.533855,18 237.86393,17.9386399 238.287109,17.815918 C238.710289,17.693196 239.144041,17.4879572 239.588379,17.2001953 C240.032717,16.9124335 240.445311,16.5273462 240.826172,16.0449219 C241.207033,15.5624976 241.477864,14.9658239 241.638672,14.2548828 L242.654297,14.2548828 L242.654297,18 L244.723633,18 C245.40072,18 245.739258,17.8857433 245.739258,17.6572266 C245.739258,17.5725907 245.696941,17.5154624 245.612305,17.4858398 L245.428928,17.4153104 C245.396014,17.4016747 245.361925,17.3870986 245.32666,17.371582 C245.220865,17.3250323 245.125651,17.2594405 245.041016,17.1748047 C244.95638,17.0901688 244.914062,16.9505218 244.914062,16.7558594 C244.914062,16.518879 244.988118,16.332683 245.13623,16.1972656 C245.284343,16.0618483 245.476887,15.9941406 245.713867,15.9941406 C245.866212,15.9941406 245.999511,16.0258786 246.11377,16.0893555 C246.228028,16.1528323 246.323242,16.2374669 246.399414,16.3432617 C246.475586,16.4490565 246.532715,16.5696608 246.570801,16.7050781 C246.608887,16.8404955 246.62793,16.9759108 246.62793,17.1113281 C246.62793,17.6614611 246.46924,18.099445 246.151855,18.425293 C245.834471,18.751141 245.324548,18.9140625 244.62207,18.9140625 L242.654297,18.9140625 Z" id="CryptoMeme.art" fill="#AFAFAF"></path>
                <g id="Group-19">
                    <g id="Group-10" transform="translate(10.000000, 8.888889)" fill="#CACACA" opacity="0.174246652">
                        <path d="M3.33333333,17.7777778 C5.1742825,17.7777778 6.66666667,15.7879322 6.66666667,13.3333333 C6.66666667,11.6969341 5.83333333,7.25248963 4.16666667,0 C1.38888889,7.25248963 0,11.6969341 0,13.3333333 C0,15.7879322 1.49238417,17.7777778 3.33333333,17.7777778 Z" id="Oval-17"></path>
                        <path d="M25.5555556,17.7777778 C27.3965047,17.7777778 28.8888889,15.7879322 28.8888889,13.3333333 C28.8888889,11.6969341 28.0555556,7.25248963 26.3888889,0 C23.6111111,7.25248963 22.2222222,11.6969341 22.2222222,13.3333333 C22.2222222,15.7879322 23.7146064,17.7777778 25.5555556,17.7777778 Z" id="Oval-17" transform="translate(25.555556, 8.888889) scale(-1, 1) translate(-25.555556, -8.888889) "></path>
                    </g>
                    <g id="Group-4" stroke="#AFAFAF" stroke-width="1.4">
                        <g id="Group">
                            <path d="M24.5746692,16.4592419 C24.1237378,10.1806458 21.9819625,7.04134768 18.1493433,7.04134768 C12.4004144,7.04134768 8.12472598,14.4669535 8.12472598,20.7422992 C8.12472598,24.0207358 10.1504885,27.1289033 12.8265293,27.1289033 C15.5025701,27.1289033 16.9462715,24.595468 16.9462715,20.7422992 C16.9462715,12.6739976 9.88820995,0 5.07141014,0 C0.254610332,0 -2.68898458,22.0642271 3.53772053,31.8902783 C8.43320694,39.6156 15.4455232,43.4782609 24.5746692,43.4782609" id="Path-Copy-6"></path>
                            <path d="M49.1493384,16.4592419 C48.698407,10.1806458 46.5566317,7.04134768 42.7240125,7.04134768 C36.9750836,7.04134768 32.6993952,14.4669535 32.6993952,20.7422992 C32.6993952,24.0207358 34.7251577,27.1289033 37.4011985,27.1289033 C40.0772392,27.1289033 41.5209407,24.595468 41.5209407,20.7422992 C41.5209407,12.6739976 34.4628791,0 29.6460793,0 C24.8292795,0 21.8856846,22.0642271 28.1123897,31.8902783 C33.0078761,39.6156 40.0201924,43.4782609 49.1493384,43.4782609" id="Path-Copy-6" transform="translate(36.862004, 21.739130) scale(-1, 1) translate(-36.862004, -21.739130) "></path>
                        </g>
                    </g>
                    <circle id="Oval-15" stroke="#848080" stroke-width="1.2" fill="#272727" cx="24.8611111" cy="15.9722222" r="3.15"></circle>
                    <path d="M24.2281033,35.837009 C28.4041695,35.837009 31.78954,33.0450555 31.78954,31.6613706 C31.78954,30.2776858 28.4041695,31.9397465 24.2281033,31.9397465 C20.0520372,31.9397465 16.6666667,30.2776858 16.6666667,31.6613706 C16.6666667,33.0450555 20.0520372,35.837009 24.2281033,35.837009 Z" id="Oval-10-Copy-2" fill="#AFAFAF"></path>
                </g>
            </g>
        </g>
    </g>
</svg>