<?xml version="1.0" encoding="UTF-8"?>
<svg width="254px" height="46px" viewBox="0 0 254 46" version="1.1" xmlns="http://www.w3.org/2000/svg" xmlns:xlink="http://www.w3.org/1999/xlink">
    <!-- Generator: Sketch 53.2 (72643) - https://sketchapp.com -->
    <title>Group 20</title>
    <desc>Created with Sketch.</desc>
    <g id="Landing-Page-and-Hero" stroke="none" stroke-width="1" fill="none" fill-rule="evenodd">
        <g id="cma_3-list-1-copy-32" transform="translate(-24.000000, -22.000000)">
            <g id="Group-20" transform="translate(25.000000, 23.000000)">
                <g id="header_MOB_Logo_white" fill-rule="nonzero">
                    <g id="Group-10" transform="translate(10.000000, 8.000000)" fill="#7678ED">
                        <path d="M3.33333333,18.5777778 C5.1742825,18.5777778 6.66666667,16.4983892 6.66666667,13.9333333 C6.66666667,12.2232961 5.83333333,7.57885166 4.16666667,0 C1.38888889,7.57885166 0,12.2232961 0,13.9333333 C0,16.4983892 1.49238417,18.5777778 3.33333333,18.5777778 Z" id="Oval-17"></path>
                        <path d="M25.5555556,18.5777778 C27.3965047,18.5777778 28.8888889,16.4983892 28.8888889,13.9333333 C28.8888889,12.2232961 28.0555556,7.57885166 26.3888889,0 C23.6111111,7.57885166 22.2222222,12.2232961 22.2222222,13.9333333 C22.2222222,16.4983892 23.7146064,18.5777778 25.5555556,18.5777778 Z" id="Oval-17" transform="translate(25.555556, 9.288889) scale(-1, 1) translate(-25.555556, -9.288889) "></path>
                    </g>
                    <g id="Group-4" stroke="#AFAFAF" stroke-width="1.4">
                        <g id="Group">
                            <path d="M24.8857409,16.5308038 C24.4291016,10.2249094 22.2602152,7.07196224 18.3790818,7.07196224 C12.5573817,7.07196224 8.22757062,14.5298533 8.22757062,20.8324831 C8.22757062,24.1251737 10.2789757,27.2468551 12.9888904,27.2468551 C15.6988051,27.2468551 17.1607813,24.7024048 17.1607813,20.8324831 C17.1607813,12.7291019 10.0133772,0 5.13560521,0 C0.257833248,1.03002008e-15 -2.72302236,22.1601586 3.5825018,32.0289317 C8.5399564,39.7878418 15.6410361,43.6672968 24.8857409,43.6672968" id="Path-Copy-7"></path>
                            <path d="M49.7714819,16.5308038 C49.3148425,10.2249094 47.1459561,7.07196224 43.2648227,7.07196224 C37.4431227,7.07196224 33.1133116,14.5298533 33.1133116,20.8324831 C33.1133116,24.1251737 35.1647167,27.2468551 37.8746314,27.2468551 C40.5845461,27.2468551 42.0465222,24.7024048 42.0465222,20.8324831 C42.0465222,12.7291019 34.8991181,0 30.0213462,0 C25.1435742,1.03002008e-15 22.1627186,22.1601586 28.4682428,32.0289317 C33.4256973,39.7878418 40.5267771,43.6672968 49.7714819,43.6672968" id="Path-Copy-6" transform="translate(37.328611, 21.833648) scale(-1, 1) translate(-37.328611, -21.833648) "></path>
                        </g>
                    </g>
                    <circle id="Oval-15" fill="#F6FF40" cx="24.5" cy="15.5" r="3.5"></circle>
                    <path d="M24.5,36 C28.6421356,36 32,33.0461131 32,31.5821746 C32,30.118236 28.6421356,31.8766963 24.5,31.8766963 C20.3578644,31.8766963 17,30.118236 17,31.5821746 C17,33.0461131 20.3578644,36 24.5,36 Z" id="Oval-10-Copy-2" fill="#CACACA"></path>
                </g>
                <text id="CryptoMeme.art" font-family="BerkshireSwash-Regular, Berkshire Swash" font-size="26" font-weight="normal" fill="#AFAFAF">
                    <tspan x="68" y="31">CryptoMeme.art</tspan>
                </text>
            </g>
        </g>
    </g>
</svg>