<?xml version="1.0" encoding="UTF-8"?>
<svg width="248px" height="46px" viewBox="0 0 248 46" version="1.1" xmlns="http://www.w3.org/2000/svg" xmlns:xlink="http://www.w3.org/1999/xlink">
    <!-- Generator: Sketch 53.2 (72643) - https://sketchapp.com -->
    <title>logo_and_sign</title>
    <desc>Created with Sketch.</desc>
    <g id="Landing-Page-and-Hero" stroke="none" stroke-width="1" fill="none" fill-rule="evenodd">
        <g id="cma_3-list-1-copy-34" transform="translate(-24.000000, -22.000000)">
            <g id="logo_and_sign" transform="translate(25.000000, 23.000000)">
                <text id="CryptoMeme.art" font-family="BerkshireSwash-Regular, Berkshire Swash" font-size="26" font-weight="normal" fill="#AFAFAF">
                    <tspan x="62" y="31">CryptoMeme.art</tspan>
                </text>
                <g id="Group-19" fill-rule="nonzero">
                    <g id="Group-10" transform="translate(10.000000, 8.888889)" fill="#CACACA" opacity="0.174246652">
                        <path d="M3.33333333,17.7777778 C5.1742825,17.7777778 6.66666667,15.7879322 6.66666667,13.3333333 C6.66666667,11.6969341 5.83333333,7.25248963 4.16666667,0 C1.38888889,7.25248963 0,11.6969341 0,13.3333333 C0,15.7879322 1.49238417,17.7777778 3.33333333,17.7777778 Z" id="Oval-17"></path>
                        <path d="M25.5555556,17.7777778 C27.3965047,17.7777778 28.8888889,15.7879322 28.8888889,13.3333333 C28.8888889,11.6969341 28.0555556,7.25248963 26.3888889,0 C23.6111111,7.25248963 22.2222222,11.6969341 22.2222222,13.3333333 C22.2222222,15.7879322 23.7146064,17.7777778 25.5555556,17.7777778 Z" id="Oval-17" transform="translate(25.555556, 8.888889) scale(-1, 1) translate(-25.555556, -8.888889) "></path>
                    </g>
                    <g id="Group-4" stroke="#AFAFAF" stroke-width="1.4">
                        <g id="Group">
                            <path d="M24.5746692,16.4592419 C24.1237378,10.1806458 21.9819625,7.04134768 18.1493433,7.04134768 C12.4004144,7.04134768 8.12472598,14.4669535 8.12472598,20.7422992 C8.12472598,24.0207358 10.1504885,27.1289033 12.8265293,27.1289033 C15.5025701,27.1289033 16.9462715,24.595468 16.9462715,20.7422992 C16.9462715,12.6739976 9.88820995,0 5.07141014,0 C0.254610332,1.02556112e-15 -2.68898458,22.0642271 3.53772053,31.8902783 C8.43320694,39.6156 15.4455232,43.4782609 24.5746692,43.4782609" id="Path-Copy-6"></path>
                            <path d="M49.1493384,16.4592419 C48.698407,10.1806458 46.5566317,7.04134768 42.7240125,7.04134768 C36.9750836,7.04134768 32.6993952,14.4669535 32.6993952,20.7422992 C32.6993952,24.0207358 34.7251577,27.1289033 37.4011985,27.1289033 C40.0772392,27.1289033 41.5209407,24.595468 41.5209407,20.7422992 C41.5209407,12.6739976 34.4628791,0 29.6460793,0 C24.8292795,1.02556112e-15 21.8856846,22.0642271 28.1123897,31.8902783 C33.0078761,39.6156 40.0201924,43.4782609 49.1493384,43.4782609" id="Path-Copy-6" transform="translate(36.862004, 21.739130) scale(-1, 1) translate(-36.862004, -21.739130) "></path>
                        </g>
                    </g>
                    <circle id="Oval-15" stroke="#848080" stroke-width="1.2" fill="#272727" cx="24.8611111" cy="15.9722222" r="3.15"></circle>
                    <path d="M24.2281033,35.837009 C28.4041695,35.837009 31.78954,33.0450555 31.78954,31.6613706 C31.78954,30.2776858 28.4041695,31.9397465 24.2281033,31.9397465 C20.0520372,31.9397465 16.6666667,30.2776858 16.6666667,31.6613706 C16.6666667,33.0450555 20.0520372,35.837009 24.2281033,35.837009 Z" id="Oval-10-Copy-2" fill="#AFAFAF"></path>
                </g>
            </g>
        </g>
    </g>
</svg>