<?xml version="1.0" encoding="UTF-8"?>
<svg width="27px" height="27px" viewBox="0 0 27 27" version="1.1" xmlns="http://www.w3.org/2000/svg" xmlns:xlink="http://www.w3.org/1999/xlink">
    <!-- Generator: Sketch 53.2 (72643) - https://sketchapp.com -->
    <title>medium_icon</title>
    <desc>Created with Sketch.</desc>
    <g id="Landing-Page-and-Hero" stroke="none" stroke-width="1" fill="none" fill-rule="evenodd">
        <g id="cma_3-list-1-copy-35" transform="translate(-664.000000, -3930.000000)" fill="#AFAFAF" fill-rule="nonzero">
            <path d="M664,3930 L664,3957 L691,3957 L691,3930 L664,3930 Z M686.5,3936.60741 L685.064784,3937.99376 C684.939203,3938.09021 684.879402,3938.24692 684.903322,3938.39761 L684.903322,3948.60239 C684.879402,3948.7591 684.939203,3948.91582 685.064784,3949.00624 L686.4701,3950.39259 L686.4701,3950.7 L679.413621,3950.7 L679.413621,3950.40465 L680.866777,3948.98213 C681.010299,3948.83746 681.010299,3948.79527 681.010299,3948.57828 L681.010299,3940.32645 L676.967774,3950.66986 L676.423588,3950.66986 L671.717276,3940.32645 L671.717276,3947.25823 C671.675415,3947.54755 671.777076,3947.8429 671.980399,3948.05387 L673.8701,3950.36245 L673.8701,3950.66986 L668.5,3950.66986 L668.5,3950.36245 L670.389701,3948.05387 C670.593023,3947.8429 670.682724,3947.54755 670.634884,3947.25823 L670.634884,3939.24148 C670.658804,3939.01846 670.575083,3938.80147 670.407641,3938.65077 L668.727243,3936.60741 L668.727243,3936.3 L673.947841,3936.3 L677.978405,3945.22089 L681.524585,3936.30603 L686.5,3936.30603 L686.5,3936.60741 Z" id="medium_icon"></path>
        </g>
    </g>
</svg>