<?xml version="1.0" encoding="UTF-8"?>
<svg width="286px" height="241px" viewBox="0 0 286 241" version="1.1" xmlns="http://www.w3.org/2000/svg" xmlns:xlink="http://www.w3.org/1999/xlink">
    <!-- Generator: Sketch 53.2 (72643) - https://sketchapp.com -->
    <title>value</title>
    <desc>Created with Sketch.</desc>
    <defs>
        <filter x="-34.7%" y="-39.5%" width="167.3%" height="176.7%" filterUnits="objectBoundingBox" id="filter-1">
            <feOffset dx="0" dy="3" in="SourceAlpha" result="shadowOffsetOuter1"></feOffset>
            <feGaussianBlur stdDeviation="2.5" in="shadowOffsetOuter1" result="shadowBlurOuter1"></feGaussianBlur>
            <feColorMatrix values="0 0 0 0 0   0 0 0 0 0   0 0 0 0 0  0 0 0 0.5 0" type="matrix" in="shadowBlurOuter1" result="shadowMatrixOuter1"></feColorMatrix>
            <feMerge>
                <feMergeNode in="shadowMatrixOuter1"></feMergeNode>
                <feMergeNode in="SourceGraphic"></feMergeNode>
            </feMerge>
        </filter>
        <linearGradient x1="50%" y1="-86.6455078%" x2="50%" y2="100%" id="linearGradient-2">
            <stop stop-color="#F9CF05" offset="0%"></stop>
            <stop stop-color="#F0A202" stop-opacity="0" offset="100%"></stop>
        </linearGradient>
        <linearGradient x1="50%" y1="-86.6455078%" x2="50%" y2="100%" id="linearGradient-3">
            <stop stop-color="#F9CF05" offset="0%"></stop>
            <stop stop-color="#F0A202" stop-opacity="0" offset="100%"></stop>
        </linearGradient>
        <linearGradient x1="50%" y1="-86.6455078%" x2="50%" y2="100%" id="linearGradient-4">
            <stop stop-color="#F9CF05" offset="0%"></stop>
            <stop stop-color="#F0A202" stop-opacity="0" offset="100%"></stop>
        </linearGradient>
        <linearGradient x1="50%" y1="-86.6455078%" x2="50%" y2="100%" id="linearGradient-5">
            <stop stop-color="#F9CF05" offset="0%"></stop>
            <stop stop-color="#F0A202" stop-opacity="0" offset="100%"></stop>
        </linearGradient>
        <linearGradient x1="50%" y1="-86.6455078%" x2="50%" y2="100%" id="linearGradient-6">
            <stop stop-color="#F9CF05" offset="0%"></stop>
            <stop stop-color="#F0A202" stop-opacity="0" offset="100%"></stop>
        </linearGradient>
        <linearGradient x1="50%" y1="-86.6455078%" x2="50%" y2="100%" id="linearGradient-7">
            <stop stop-color="#F9CF05" offset="0%"></stop>
            <stop stop-color="#F0A202" stop-opacity="0" offset="100%"></stop>
        </linearGradient>
    </defs>
    <g id="Landing_Page-2" stroke="none" stroke-width="1" fill="none" fill-rule="evenodd">
        <g id="cma_3-list-1-copy-36" transform="translate(-167.000000, -2476.000000)">
            <g id="value" transform="translate(168.000000, 2477.000000)">
                <g id="Group-33" transform="translate(128.000000, 0.000000)">
                    <g id="Group-7" transform="translate(0.000000, 50.883987)" fill-rule="nonzero" opacity="0.852260045" stroke="#F0A202" stroke-width="1.26">
                        <g id="Group-2-Copy">
                            <g id="Group-5-Copy">
                                <rect id="Rectangle" fill="#272727" x="0.63" y="0.63" width="70.3610526" height="95.3708824"></rect>
                                <g id="Group-3" transform="translate(10.512621, 10.338606)">
                                    <path d="M9.38211574,46.6045926 C9.76106311,53.5067985 9.95053679,56.9579015 9.95053679,56.9579015 L16.1465426,61.6601934 C17.5513695,62.726349 17.8259168,64.7294761 16.7597612,66.134303 C16.6758877,66.2448195 16.5849008,66.3497524 16.4873789,66.4484345 L16.1366708,66.8033152 C14.871962,68.0830708 12.8566006,68.2325779 11.4169006,67.1534455 L2.53098925,60.4929779 C0.294963067,58.8169563 -0.293008037,55.7118702 1.17545482,53.3343761 L3.9945354,48.7701833 C4.17480384,48.4783222 4.31243074,48.1621933 4.40324109,47.8313866 L6.35283832,40.7293335 C6.8428706,38.9442288 7.907541,37.3703726 9.38211574,36.2512838 L9.38211574,36.2512838 C9.86595171,35.8840895 10.555848,35.9786463 10.9230423,36.4624822 C11.1108891,36.7099997 11.1852654,37.0254293 11.1277846,37.3307934" id="Path-3"></path>
                                    <path d="M18.4768526,32.224997 C12.224221,38.5520191 13.9294842,44.8790412 21.8873789,46.0294088" id="Path-4"></path>
                                    <path d="M6.54001047,67.6921054 C3.46848956,68.588543 1.46903038,70.1871294 0.541632947,72.4878647 C-0.84946321,75.9389676 0.541632947,78.2397029 3.54082171,78.2397029 C6.54001047,78.2397029 9.7667081,73.4439436 12.224221,72.9659041 C14.6817339,72.4878647 34.3926421,74.7886 37.2347473,72.4878647 C39.1294842,70.9540412 38.7505368,64.4352912 36.0979052,52.9316147" id="Path-5"></path>
                                    <path d="M32.1189578,65.5856588 C28.3294842,62.9014676 23.718017,62.9014676 18.2845564,65.5856588" id="Path-6"></path>
                                    <path d="M17.4064758,60.9841882 C18.2845564,43.7286735 32.1189578,37.4016515 34.3926421,37.4016515 C36.6663263,37.4016515 41.7821157,38.5520191 45.1926421,47.1797765 C48.6031684,55.8075338 50.3084315,66.7360265 51.4452736,78.2397029" id="Path-7"></path>
                                    <path d="M27.5715894,57.8206772 C30.6031684,46.5087287 34.7715894,43.7286735 40.0768526,49.4805117" id="Path-8"></path>
                                    <path d="M41.7821157,36.028432 C39.5400105,31.5755293 36.8873789,29.3490779 33.824221,29.3490779" id="Path-9"></path>
                                    <path d="M21.8873789,34.8780644 L21.8873789,26.8254909" id="Path-11"></path>
                                    <path d="M29.2768526,36.028432 L30.4136947,11.5183794 C29.8225902,6.91690881 27.1586169,4.61617351 22.4217748,4.61617351 C19.0727728,4.61617351 15.617714,7.75063105 14.6817339,10.3680117 C13.6319328,13.303682 16.2031684,17.646101 16.2031684,20.990938 C16.2031684,25.2089527 19.6136947,27.0363596 26.4347473,26.4731588" id="Path-12"></path>
                                    <path d="M34.9942957,29.3490779 L34.9942957,11.9534584 C34.9942957,5.35174563 29.6425501,-6.54178548e-15 23.0408373,-5.32907052e-15 L23.0408373,-5.32907052e-15 C16.4391245,-4.11635555e-15 11.0873789,5.35174563 11.0873789,11.9534584 L11.0873789,32.1135712" id="Path-13"></path>
                                </g>
                            </g>
                        </g>
                    </g>
                    <g id="Group-6" transform="translate(8.000000, 0.000000)" fill="#F0A202">
                        <text id="#" font-family="Aldrich-Regular, Aldrich" font-size="21.6" font-weight="normal">
                            <tspan x="0.342857143" y="28.0508578">#</tspan>
                        </text>
                        <g id="Set_for_sale_in_BCH_ico-orange" transform="translate(28.114286, 0.000000)">
                            <g id="Ethereum_Classic_logo">
                                <path d="M0.260046451,15.4257936 L11.0407799,11.1874788 L21.4897985,15.5340717 L11.0241942,0.143111213 L0.260046451,15.4257936 Z M0.260046451,24.6931893 L10.7696644,30.5440625 L21.4897985,24.6931893 L10.8668257,38.9002298 L0.260046451,24.6931893 Z" id="path380"></path>
                                <polygon id="path382" points="10.7659492 15.6373185 0 20.2315014 10.7659492 26.2925988 21.2297521 20.3604609"></polygon>
                            </g>
                        </g>
                    </g>
                </g>
                <path d="M253.789474,25.0727081 C253.789474,27.2940048 253.037409,29.0793751 251.533257,30.4288725 C250.029106,31.7783699 248.081135,32.560589 245.689287,32.7755532 L245.689287,34.9968388 C245.689287,35.3073426 245.602985,35.5521593 245.430377,35.7312961 C245.25777,35.9104329 245.035849,36 244.764608,36 C244.46871,36 244.23446,35.9104329 244.061852,35.7312961 C243.889245,35.5521593 243.802942,35.3073426 243.802942,34.9968388 L243.802942,32.8113804 C241.780968,32.6919558 239.993273,32.1844091 238.439805,31.288725 C236.886337,30.3930408 235.776734,29.1928421 235.110961,27.6880927 C235.036987,27.4970134 235,27.3178793 235,27.1506849 C235,26.5774471 235.320552,26.1952942 235.961666,26.004215 C236.035641,25.9803301 236.146601,25.9683878 236.29455,25.9683878 C236.886348,25.9683878 237.31786,26.2550024 237.589101,26.8282403 C238.032949,27.8075216 238.809671,28.5957118 239.919291,29.1928346 C241.028911,29.7899573 242.323449,30.1243411 243.802942,30.1959958 L243.802942,19.1970495 C241.386436,18.791006 239.481617,17.9192199 238.088427,16.5816649 C236.695238,15.2441099 235.998653,13.5841336 235.998653,11.601686 C235.998653,9.64312333 236.719895,8.05480061 238.162402,6.83667018 C239.604908,5.61853975 241.485069,4.91394546 243.802942,4.72286617 L243.802942,3.00316122 C243.802942,2.69265739 243.889245,2.44784073 244.061852,2.2687039 C244.23446,2.08956707 244.46871,2 244.764608,2 C245.035849,2 245.25777,2.08956707 245.430377,2.2687039 C245.602985,2.44784073 245.689287,2.69265739 245.689287,3.00316122 L245.689287,4.72286617 C247.366047,4.84229073 248.839353,5.30206836 250.109252,6.10221286 C251.379151,6.90235736 252.346971,7.89953741 253.012743,9.09378293 C253.185351,9.35651694 253.271654,9.64313157 253.271654,9.95363541 C253.271654,10.4074487 253.062062,10.7418324 252.642872,10.9567966 C252.470264,11.0523363 252.273002,11.1001054 252.051077,11.1001054 C251.557913,11.1001054 251.151058,10.8732021 250.830501,10.4193888 C249.720881,8.508596 248.00716,7.4576757 245.689287,7.26659642 L245.689287,17.1190727 C248.327717,17.572886 250.337333,18.480499 251.718193,19.8419389 C253.099054,21.2033788 253.789474,22.9469511 253.789474,25.0727081 Z M238.578947,11.0247329 C238.578947,13.7381088 240.368403,15.5017767 243.947368,16.3157895 L243.947368,6.47368421 C242.263149,6.59701948 240.947373,7.04101979 240,7.80569846 C239.052627,8.57037713 238.578947,9.64337787 238.578947,11.0247329 Z M251.105263,24.6034024 C251.105263,23.2296582 250.657899,22.0487379 249.763158,21.0606061 C248.868417,20.0724742 247.526325,19.3856124 245.736842,19 L245.736842,29.7368421 C247.375101,29.5440359 248.679387,29.0017766 249.649741,28.1100478 C250.620094,27.2183191 251.105263,26.049449 251.105263,24.6034024 Z" id="$" fill="#F0A202" fill-rule="nonzero"></path>
                <g id="header_MOB_Logo_white" filter="url(#filter-1)" opacity="0.896949405" transform="translate(95.749210, 179.282867) rotate(-5.000000) translate(-95.749210, -179.282867) translate(71.249210, 157.782867)" fill-rule="nonzero">
                    <g id="Group-10" transform="translate(10.419355, 8.076923)" fill="#7678ED">
                        <path d="M3.17780246,18.3675524 C4.93285429,18.3675524 6.35560492,16.3116941 6.35560492,13.7756643 C6.35560492,12.0849778 5.5611543,7.49308971 3.97225307,0 C1.32408436,7.49308971 0,12.0849778 0,13.7756643 C0,16.3116941 1.42275062,18.3675524 3.17780246,18.3675524 Z" id="Oval-17"></path>
                        <path d="M24.3631522,18.3675524 C26.118204,18.3675524 27.5409546,16.3116941 27.5409546,13.7756643 C27.5409546,12.0849778 26.746504,7.49308971 25.1576028,0 C22.5094341,7.49308971 21.1853497,12.0849778 21.1853497,13.7756643 C21.1853497,16.3116941 22.6081003,18.3675524 24.3631522,18.3675524 Z" id="Oval-17" transform="translate(24.363152, 9.183776) scale(-1, 1) translate(-24.363152, -9.183776) "></path>
                    </g>
                    <g id="Group-4" stroke="#EFEBEB" stroke-width="0.756">
                        <g id="Group">
                            <path d="M24.0907109,15.9696775 C23.6486598,9.87783216 21.5490633,6.83190951 17.7919213,6.83190951 C12.1562084,6.83190951 7.96472266,14.0366478 7.96472266,20.1253393 C7.96472266,23.3062619 9.95059107,26.3219799 12.5739315,26.3219799 C15.197272,26.3219799 16.6125421,23.8638992 16.6125421,20.1253393 C16.6125421,12.2970216 9.69347766,0 4.97153693,0 C0.249596194,9.95056783e-16 -2.63602938,21.4079477 3.46805085,30.9417324 C8.26712858,38.4372718 15.1413486,42.1850415 24.0907109,42.1850415" id="Path-Copy-7"></path>
                            <path d="M48.1814217,15.9696775 C47.7393707,9.87783216 45.6397742,6.83190951 41.8826322,6.83190951 C36.2469192,6.83190951 32.0554335,14.0366478 32.0554335,20.1253393 C32.0554335,23.3062619 34.0413019,26.3219799 36.6646424,26.3219799 C39.2879829,26.3219799 40.703253,23.8638992 40.703253,20.1253393 C40.703253,12.2970216 33.7841885,0 29.0622478,0 C24.340307,9.95056783e-16 21.4546815,21.4079477 27.5587617,30.9417324 C32.3578394,38.4372718 39.2320594,42.1850415 48.1814217,42.1850415" id="Path-Copy-6" transform="translate(36.136066, 21.092521) scale(-1, 1) translate(-36.136066, -21.092521) "></path>
                        </g>
                    </g>
                    <ellipse id="Oval-15" fill="#AFAFAF" cx="24.311828" cy="15" rx="3.47311828" ry="3.46153846"></ellipse>
                    <path d="M23.7329749,34.6153846 C27.8889671,34.6153846 31.2580645,31.8887198 31.2580645,30.5373919 C31.2580645,29.186064 27.8889671,30.8092581 23.7329749,30.8092581 C19.5769827,30.8092581 16.2078853,29.186064 16.2078853,30.5373919 C16.2078853,31.8887198 19.5769827,34.6153846 23.7329749,34.6153846 Z" id="Oval-10-Copy-2" fill="#CACACA"></path>
                </g>
                <g id="Group-176" transform="translate(45.000000, 149.500000) scale(-1, 1) translate(-45.000000, -149.500000) translate(12.000000, 59.000000)">
                    <g id="Group-175">
                        <g id="Group-11" transform="translate(20.394318, 23.219631) rotate(-32.000000) translate(-20.394318, -23.219631) translate(8.394318, 4.219631)">
                            <path d="M11.4994935,16.2226533 C10.3271886,18.5396583 5.70073671,30.8422636 6.17682208,32.2965369 C6.24443183,32.5044629 6.78329769,32.6777346 7.65779769,32.8288436 C6.9772733,34.4455086 6.01141964,35.9324214 4.82341964,37.1981106 C2.21320013,36.5819887 0.229175736,35.8006544 0.0311757358,34.5994384 C-0.55236085,31.0679198 7.22396842,18.7813459 9.27962696,15.8877088 C9.7400172,15.2401563 9.98510257,14.684881 10.0857123,14.1771547 C10.579505,12.7958167 10.3743286,16.9822595 11.4994935,16.2226533 Z" id="Fill-42" fill="#F15F5D"></path>
                            <g id="Group-12" transform="translate(13.403200, 11.302348) rotate(33.000000) translate(-13.403200, -11.302348) translate(6.903200, 2.302348)">
                                <path d="M3.84609183,10.8543962 C4.07352982,10.3629582 4.25651965,10.1067245 4.7571638,9.34047058 C5.59318253,8.06176891 5.56702374,8.03601307 5.89347547,7.62223207 C6.01559281,7.46711473 6.51331855,6.85549875 7.27426272,6.47083506 C7.46681493,6.3736609 7.72380481,6.26718322 7.90333642,6.37861502 C8.09937192,6.50050636 8.11528261,6.80694933 8.11766847,6.85406346 C8.12362704,6.98131221 8.09656773,7.10334713 7.97922056,7.35510893 C7.76549607,7.81271147 7.56844213,8.02183858 7.59540451,8.05041279 C7.62478126,8.08180433 7.920893,7.88187552 8.98983918,6.96786836 C9.55928407,6.29580152 10.1985807,5.96195607 10.5411678,6.13127145 C10.5922941,6.15660853 10.7360022,6.24229071 10.8321408,6.40733504 C10.9129945,6.54500573 10.9551599,6.7282062 10.9086713,7.00529237 C10.7809277,7.76808468 10.2405417,8.33986101 10.2405417,8.33986101 C8.49889345,10.1845336 7.01683396,12.2646175 5.26029551,14.0943998 C4.77874821,14.5964715 3.59463362,15.1342903 3.38468608,15.3547012 C3.32508596,15.3559477 3.08379163,15.2229525 2.6219728,14.4794665 C2.16618874,13.7448359 2.44441603,12.5510598 3.45117251,11.9077058 C3.52623922,11.6515415 3.64889793,11.2809803 3.84609183,10.8543962 Z" id="Fill-117" fill="#F15F5D" transform="translate(6.668759, 10.721215) scale(-1, 1) rotate(-45.000000) translate(-6.668759, -10.721215) "></path>
                                <rect id="Rectangle" stroke="#FFFFFF" stroke-width="2" fill-rule="nonzero" x="8.32433506" y="1" width="1" height="9.68576443"></rect>
                            </g>
                        </g>
                        <path d="M29.7113085,33.6935653 C34.7591012,30.9554698 38.1709793,28.6872226 38.1709793,28.6872226 C38.1709793,28.6872226 43.0356622,35.0184892 39.8177598,36.1612764 C37.694089,36.9152097 31.508561,44.7427779 19.7195122,44.1065082 C19.5734268,43.285684 23.6051012,38.8183774 22.2661866,37.6860672 C23.5580159,37.4217271 28.6516866,34.2685855 29.7113085,33.6935653 Z" id="Fill-56" fill="#007D7E"></path>
                        <path d="M39.9514902,173.926969 C42.3834293,173.378947 44.1179415,171.690153 44.2841488,169.703976 C44.3195634,169.285303 44.3577951,168.855348 44.4012585,168.413303 C44.5662585,166.716047 44.8713073,162.694532 45.1324902,158.141114 C47.4847463,157.920293 49.8378073,157.917875 52.1904659,158.039568 C50.3770756,163.299371 48.6147951,168.441913 48.7846244,169.915932 C48.9242707,171.126819 49.4856732,172.591569 49.4856732,172.591569 L49.5983561,175.412673 C48.1012829,176.119058 44.9075268,175.543232 41.7475756,176.093268 C38.5868195,176.642902 34.1624049,175.202733 34.1624049,175.202733 C34.1624049,175.202733 37.2084659,174.544703 39.9514902,173.926969" id="Fill-58" fill="#F15F5D"></path>
                        <path d="M41.7475354,174.024566 C42.5946695,174.270773 47.5583524,173.179564 49.4912671,172.737923 L49.5983159,175.412351 C48.1012427,176.119138 44.907889,175.543312 41.7475354,176.093349 C38.5867793,176.642983 34.1623646,175.202813 34.1623646,175.202813 C34.1623646,175.202813 37.2084256,174.544784 39.95145,173.92705 C40.5905232,173.782791 41.2098768,173.868621 41.7475354,174.024566" id="Fill-60" fill="#52003B"></path>
                        <path d="M32.390828,82.6295977 L45.8560354,87.1632714 C45.8560354,87.1632714 43.7037915,117.54908 49.2007061,125.886671 C55.0018646,134.684843 57.3291695,161.404545 57.3291695,161.404545 L48.7717061,163.686492 L41.574889,135.600362 C41.08995,133.867645 40.4798524,131.683213 39.7228646,128.966474 C32.1646573,101.845024 32.390828,82.6295977 32.390828,82.6295977" id="Fill-62" fill="#7678ED"></path>
                        <path d="M44.3669305,162.739381 C46.1823329,162.542335 48.0057841,162.385988 49.8356744,162.258653 C49.96365,170.331099 49.8030768,171.388459 50.7274793,172.356765 C50.7274793,172.356765 54.4902841,177.538395 54.4902841,178.724701 C54.4902841,179.911008 51.9384183,180.714102 50.973772,180.714102 C50.0831744,180.714102 48.310028,174.556107 47.6761866,172.73756 C47.6757841,172.735948 45.1581256,166.983329 44.3669305,162.739381" id="Fill-64" fill="#F37575"></path>
                        <path d="M49.8764817,164.99973 C48.6442134,164.984418 46.6497256,164.897379 44.6982988,164.54318 C44.5904451,163.946803 44.4797744,163.345187 44.3670915,162.739542 C46.1820915,162.542093 48.0059451,162.386149 49.8354329,162.258411 C49.851128,163.217853 49.8640061,164.138208 49.8764817,164.99973" id="Fill-66" fill="#F15F5D"></path>
                        <path d="M53.5149329,141.716369 C52.6774573,137.431723 51.9917012,136.898207 52.1969451,131.84633 C52.24725,130.604416 54.9572744,88.551782 53.8521768,84.4037385 C52.9764695,79.2160651 47.095628,69.0297051 47.095628,69.0297051 L33.8372744,68.9958567 L32.3909085,82.6295171 L39.4766524,88.6625952 C39.760372,91.7657701 43.9320549,137.277793 44.98725,140.155715 C45.5808476,141.776409 43.3251768,153.925172 42.2961402,165.211605 C44.1195915,165.394145 49.353311,166.284681 51.1703232,166.556274 C53.2923841,157.240302 54.0364939,144.38717 53.5149329,141.716369" id="Fill-68" fill="#7678ED"></path>
                        <path d="M45.0786439,73.0038724 L44.7329488,70.0348823 L33.7942537,69.4022392 C33.7238268,69.5904203 33.5829732,70.4100356 33.3853756,71.7325418 L33.3853756,71.7329448 C38.2243024,74.0922603 42.3328024,73.7848038 45.0786439,73.0038724" id="Fill-72" fill="#5D5BA3"></path>
                        <polygon id="Fill-74" fill="#5D5BA3" points="44.9230207 71.9831007 48.5087524 69.7793267 44.7326671 70.0348017"></polygon>
                        <path d="M38.1711805,28.6872226 C38.1711805,28.6872226 40.7343146,27.4223394 51.2963268,28.7158326 C51.8315707,28.7811117 52.8304244,41.0197337 52.8304244,41.0197337 C52.8304244,41.0197337 47.6168268,63.8702386 48.7070341,68.9958567 C48.7070341,68.9958567 42.3750585,73.5734527 33.3310463,69.3097605 C33.3310463,69.3097605 34.9086073,51.7718458 34.0296805,48.1814954 C33.1515585,44.5907421 31.4669488,41.3501587 33.7109488,37.5684036 C35.9549488,33.7866485 38.1711805,28.6872226 38.1711805,28.6872226" id="Fill-76" fill="#77BA99"></path>
                        <path d="M47.6854829,76.785144 C47.7345805,76.785144 47.783678,76.7734582 47.8295561,76.7480719 C47.9744341,76.6686893 48.0275561,76.4865526 47.9474707,76.340682 C47.5893,75.687891 47.3611171,75.2893661 47.3611171,75.2893661 C47.279422,75.1459133 47.0963122,75.0963495 46.9530439,75.1785528 C46.8093732,75.2607562 46.7594707,75.4441018 46.8415683,75.5875546 C46.8423732,75.5883605 47.0681415,75.9836617 47.4226902,76.6300054 C47.4770195,76.7291329 47.5796415,76.785144 47.6854829,76.785144" id="Fill-78" fill="#3E3E6E"></path>
                        <path d="M49.6100268,80.8394998 C49.2852585,80.1709935 48.9262829,79.4593707 48.543161,78.7227646 C48.4662951,78.5764911 48.5234415,78.3951602 48.6699293,78.3185983 C48.8164171,78.2420364 48.9975146,78.2992564 49.073978,78.4459329 C49.4595146,79.1865686 49.8209049,79.9038327 50.1488927,80.5767716 C50.2213317,80.7258658 50.1593561,80.9051819 50.0104537,80.9777142 C49.9686,80.998265 49.9235268,81.007936 49.879661,81.007936 C49.7689902,81.007936 49.6619415,80.9462835 49.6100268,80.8394998 L49.6100268,80.8394998 Z M51.457222,85.1761273 C51.2543927,84.5583936 50.9674537,83.8217875 50.6044537,82.9860538 C50.5380512,82.8341389 50.6076732,82.6580465 50.7589902,82.5919615 C50.9107098,82.5258765 51.086978,82.5947822 51.152978,82.7466971 C51.5240268,83.5997579 51.8174049,84.3540942 52.0258683,84.9887521 C52.0773805,85.1459055 51.991661,85.3151476 51.8347098,85.3667261 C51.803722,85.377606 51.7723317,85.3820385 51.7417463,85.3820385 C51.6153805,85.3820385 51.4982707,85.30185 51.457222,85.1761273 L51.457222,85.1761273 Z M52.0290878,90.1111465 C51.8636854,90.1055051 51.7345024,89.9664848 51.740539,89.8008693 C51.7783683,88.7471357 51.8053317,87.9323558 51.8182098,87.4133467 C51.8226366,87.2509549 51.9554415,87.1216056 52.117222,87.1216056 L52.1228561,87.1216056 C52.2902707,87.1260381 52.4210634,87.2634466 52.417039,87.4290621 C52.4033561,87.9488771 52.3767951,88.7660747 52.3389659,89.822629 C52.3329293,89.9842149 52.2005268,90.1119524 52.0395512,90.1119524 C52.0363317,90.1119524 52.0327098,90.1119524 52.0290878,90.1111465 L52.0290878,90.1111465 Z M51.8463805,94.882565 C51.680978,94.8761177 51.5521976,94.7362914 51.5586366,94.5710789 C51.592039,93.7224506 51.6230268,92.924192 51.6511976,92.1863771 C51.6576366,92.0211645 51.7976854,91.8918152 51.9618805,91.8982625 C52.1276854,91.9047098 52.255661,92.0441331 52.2500268,92.2097486 C52.2210512,92.9475636 52.1904659,93.7454192 52.1574659,94.5944504 C52.1506244,94.7556334 52.018222,94.8829679 51.8580512,94.8829679 C51.8544293,94.8829679 51.8500024,94.8829679 51.8463805,94.882565 L51.8463805,94.882565 Z M51.6544171,99.649551 C51.4894171,99.6427007 51.361039,99.5028745 51.367478,99.3376619 L51.4640634,96.9545719 C51.4705024,96.7893594 51.6101488,96.6624278 51.7755512,96.6672633 C51.9405512,96.6741136 52.0685268,96.8135368 52.0624902,96.9791523 L51.9659049,99.3618394 C51.9594659,99.5234253 51.826661,99.6499539 51.6668927,99.6499539 C51.6632707,99.6499539 51.6588439,99.6499539 51.6544171,99.649551 L51.6544171,99.649551 Z M51.4596366,104.413716 C51.2942341,104.406463 51.1654537,104.26704 51.1726976,104.101827 L51.2704902,101.719543 C51.2773317,101.554331 51.4210024,101.421758 51.581978,101.432234 C51.7473805,101.439085 51.8753561,101.578911 51.8689171,101.744526 L51.770722,104.126005 C51.7646854,104.287188 51.631478,104.413716 51.4721122,104.413716 L51.4596366,104.413716 Z M51.2616366,109.17627 C51.0962341,109.169419 50.9674537,109.029593 50.9746976,108.864381 L51.0741,106.483305 C51.0809415,106.31769 51.2181732,106.183505 51.3855878,106.195997 C51.5505878,106.202847 51.6793683,106.34227 51.6725268,106.507886 L51.572722,108.889364 C51.5658805,109.05095 51.433478,109.176673 51.2741122,109.176673 C51.2696854,109.176673 51.2652585,109.176673 51.2616366,109.17627 L51.2616366,109.17627 Z M51.0616244,113.940435 C50.896222,113.933182 50.7682463,113.793355 50.7750878,113.62774 L50.8752951,111.246665 C50.8821366,111.081049 51.0225878,110.952103 51.1867829,110.959356 C51.3517829,110.966609 51.480161,111.106033 51.473722,111.271245 L51.3735146,113.653529 C51.3666732,113.814309 51.2338683,113.940435 51.0745024,113.940435 C51.070478,113.940435 51.0656488,113.940435 51.0616244,113.940435 L51.0616244,113.940435 Z M50.8600024,118.703391 C50.6946,118.696138 50.5666244,118.556715 50.5738683,118.390696 L50.674478,116.008815 C50.6813195,115.843603 50.8213683,115.712642 50.9863683,115.722313 C51.1513683,115.729566 51.2793439,115.868989 51.2729049,116.034605 L51.1722951,118.416486 C51.1654537,118.577266 51.0326488,118.703391 50.8732829,118.703391 L50.8600024,118.703391 Z M50.657978,123.467154 C50.4925756,123.460303 50.3641976,123.320477 50.3714415,123.154862 L50.4728561,120.772981 C50.4796976,120.606559 50.6237707,120.475598 50.7843439,120.485672 C50.9501488,120.492925 51.077722,120.632751 51.0712829,120.798367 L50.9698683,123.180248 C50.9626244,123.341834 50.830222,123.467557 50.6708561,123.467557 C50.6664293,123.467557 50.6620024,123.467557 50.657978,123.467154 L50.657978,123.467154 Z M50.4543439,128.233737 C50.2889415,128.226886 50.1609659,128.087463 50.1682098,127.921445 L50.2700268,125.537952 C50.2772707,125.372336 50.4153073,125.245002 50.5819171,125.251046 C50.7465146,125.257896 50.8752951,125.397723 50.8684537,125.563741 L50.7662341,127.947234 C50.7589902,128.10882 50.6265878,128.234543 50.467222,128.234543 C50.4627951,128.234543 50.4587707,128.234543 50.4543439,128.233737 L50.4543439,128.233737 Z M50.2499049,133.005155 C50.0849049,132.997499 49.9561244,132.858076 49.9637707,132.69246 L50.0659902,130.306549 C50.0728317,130.141337 50.2144902,130.014405 50.377478,130.019644 C50.5428805,130.026897 50.6712585,130.166723 50.6640146,130.331936 L50.5617951,132.718249 C50.5549537,132.879432 50.4221488,133.005155 50.2623805,133.005155 L50.2499049,133.005155 Z M50.6797098,137.438089 C50.3408561,136.317465 50.0374171,135.501879 49.922722,135.203691 C49.8635634,135.048955 49.9404293,134.875683 50.0949659,134.815643 C50.2491,134.757617 50.4221488,134.833373 50.4817098,134.988108 C50.5988195,135.292744 50.9086976,136.124045 51.2527829,137.264012 C51.3010756,137.422777 51.2113317,137.590004 51.0531732,137.637956 C51.0246,137.646821 50.9948195,137.650851 50.9662463,137.650851 C50.8378683,137.650851 50.7191488,137.567439 50.6797098,137.438089 L50.6797098,137.438089 Z M51.7155878,142.029789 C51.6165878,141.303257 51.4729171,140.524743 51.2877951,139.716814 C51.2507707,139.556034 51.3517829,139.394851 51.513161,139.358181 C51.6737341,139.320303 51.8343073,139.421849 51.8713317,139.583435 C52.0608805,140.408288 52.2077707,141.204532 52.3087829,141.948795 C52.3313195,142.112798 52.2166244,142.26431 52.0520268,142.28607 C52.0387463,142.288085 52.0250634,142.289294 52.0117829,142.289294 C51.8644902,142.289294 51.7361122,142.180092 51.7155878,142.029789 L51.7155878,142.029789 Z M52.0781854,147.039355 C51.9135878,147.030087 51.787222,146.888246 51.7968805,146.723034 C51.853222,145.718058 51.8821976,144.92262 51.8838073,144.359689 C51.8838073,144.194073 52.018222,144.060291 52.1836244,144.060291 L52.1840268,144.060291 C52.3494293,144.060694 52.483039,144.195282 52.483039,144.360897 C52.4814293,144.934709 52.4520512,145.741027 52.3941,146.756882 C52.3852463,146.91605 52.2532463,147.039758 52.0954902,147.039758 C52.0898561,147.039758 52.084222,147.039355 52.0781854,147.039355 L52.0781854,147.039355 Z M51.7320878,151.786999 C51.5670878,151.773702 51.4447463,151.62904 51.4580268,151.463827 C51.5244293,150.647033 51.5860024,149.849983 51.6411366,149.093229 C51.6532098,148.928017 51.7976854,148.801891 51.9610756,148.815591 C52.1260756,148.828083 52.2504293,148.971536 52.2383561,149.136346 C52.1836244,149.895114 52.1212463,150.693776 52.0544415,151.512585 C52.0419659,151.668933 51.9111732,151.787805 51.7566366,151.787805 C51.7481854,151.787805 51.7401366,151.787402 51.7320878,151.786999 L51.7320878,151.786999 Z M51.3171732,156.529405 C51.1521732,156.514092 51.031039,156.368625 51.0459293,156.203009 C51.117161,155.42651 51.1883927,154.629864 51.2580146,153.834023 C51.2725024,153.66881 51.4201976,153.545505 51.581978,153.561624 C51.746978,153.575727 51.8685146,153.720792 51.8544293,153.885601 C51.7848073,154.683457 51.7135756,155.479701 51.6427463,156.258215 C51.628661,156.413353 51.4974659,156.530614 51.3449415,156.530614 C51.3356854,156.530614 51.3268317,156.529808 51.3171732,156.529405 L51.3171732,156.529405 Z M50.8668439,161.268587 C50.7022463,161.252066 50.5823195,161.105389 50.5980146,160.940982 C50.6676366,160.225733 50.7449049,159.425863 50.8257951,158.571996 C50.8418927,158.407186 50.9907951,158.285493 51.1521732,158.302014 C51.3171732,158.31773 51.4375024,158.464003 51.4222098,158.628813 C51.3409171,159.483083 51.2636488,160.282953 51.1940268,160.999008 C51.1787341,161.153744 51.0483439,161.269796 50.896222,161.269796 C50.8865634,161.269796 50.8765024,161.269393 50.8668439,161.268587 L50.8668439,161.268587 Z" id="Fill-80" fill="#3E3E6E"></path>
                        <path d="M50.5634451,164.60858 C50.7147622,164.60858 50.84475,164.493737 50.8604451,164.339807 C50.8604451,164.339807 50.9063232,163.899375 50.9815793,163.146247 C50.9980793,162.981841 50.8781524,162.834761 50.7135549,162.818643 C50.5493598,162.800107 50.4024695,162.9218 50.3859695,163.087013 C50.310311,163.838528 50.2652378,164.277752 50.2652378,164.277752 C50.2483354,164.442561 50.3678598,164.590044 50.5320549,164.606968 C50.5429207,164.608177 50.5529817,164.60858 50.5634451,164.60858" id="Fill-82" fill="#3E3E6E"></path>
                        <path d="M52.7462341,175.308227 C53.608661,176.252356 54.4904049,178.040278 54.4904049,178.724903 C54.4904049,179.911209 51.938539,180.714303 50.9738927,180.714303 C50.387539,180.714303 49.5983561,178.940082 48.9295024,176.55135 C51.4990756,176.465117 52.2528439,176.429657 52.7462341,175.308227" id="Fill-84" fill="#6F004F"></path>
                        <path d="M63.7331415,50.1671083 C62.0115073,50.3798698 60.3196537,50.9041174 58.7638244,51.7120469 C59.3397146,52.3882094 59.6435561,52.865714 59.5630683,53.0692074 C58.9996537,54.49205 46.2978732,60.8333905 43.9170439,61.8645585 C43.9170439,61.8645585 41.0903122,61.4313793 39.8427512,61.8645585 C39.4515805,62.0003551 39.1300317,62.1567026 38.870861,62.3251388 L38.870861,62.3182885 C38.870861,62.3182885 33.0866049,65.4359699 33.6069585,65.9569938 C34.1277146,66.4784206 37.7669707,63.0673863 38.2708244,63.571889 C38.2816902,63.5952605 38.2893366,63.6158113 38.2998,63.6387799 C38.3501049,64.2536929 33.1441537,66.4401397 33.8190439,67.1154963 C34.3567024,67.6538474 37.4075927,65.5975558 38.6821171,64.9774044 C38.7006293,65.0612195 38.7211537,65.1494672 38.7448976,65.245774 C38.758178,65.2977555 38.7762878,65.3412749 38.7927878,65.3880179 C37.7295439,66.1520252 35.1897512,67.0627089 35.6646293,67.5377956 C36.0968488,67.9705719 38.1802756,66.7173744 39.1976415,66.0617627 C39.2101171,66.077881 39.2225927,66.0939993 39.2342634,66.1101176 C38.4535317,66.7471932 37.1266902,67.8847419 37.6257146,67.8847419 C37.9786537,67.8847419 38.9915927,67.2984389 39.8998976,66.7242247 C41.1820683,66.5642506 44.744861,65.2570568 44.9867268,64.498288 C45.388361,64.1726984 45.9320561,63.902717 46.6987024,63.6996265 C50.1270805,62.7905546 63.9524707,58.32216 65.7586171,55.2334916 C66.3735439,54.1829817 65.346922,52.3116475 63.7331415,50.1671083" id="Fill-86" fill="#FF9292"></path>
                        <path d="M51.2964073,28.7159535 C51.2964073,28.7159535 52.8948951,27.5522125 54.9429073,28.2376431 C56.8279317,28.8682714 62.3622732,46.3360715 65.1495659,49.8341446 C63.6714073,51.1651129 60.2659683,51.3778744 59.0312854,52.9586762 C57.6996146,50.8314641 57.2352,49.2357529 56.2641146,46.7345963 C54.2647976,41.5848008 53.5504683,41.5162981 52.126639,40.5608861 C49.6633098,38.906746 51.2964073,28.7159535 51.2964073,28.7159535" id="Fill-88" fill="#66CACB"></path>
                        <path d="M48.711622,70.1052387 C48.711622,70.4932866 48.3973171,70.8079964 48.0097683,70.8079964 C47.6214146,70.8079964 47.3075122,70.4932866 47.3075122,70.1052387 C47.3075122,69.7167877 47.6214146,69.402078 48.0097683,69.402078 C48.3973171,69.402078 48.711622,69.7167877 48.711622,70.1052387" id="Fill-90" fill="#5D5BA3"></path>
                        <path d="M42.3154171,85.3125686 C42.5287098,85.3790566 42.6470268,85.4181435 42.6470268,85.4181435 C42.6470268,85.4181435 42.6027585,85.3810714 42.5154293,85.3125686 L42.3154171,85.3125686 Z" id="Fill-92" fill="#C44246"></path>
                        <path d="M40.1389463,85.3125686 C40.292678,85.3701916 40.3892634,85.4048459 40.415422,85.4145169 C40.3928854,85.403637 40.3184341,85.3681768 40.1981049,85.3125686 L40.1389463,85.3125686 Z" id="Fill-94" fill="#C44246"></path>
                        <path d="M44.7182598,3.18521774 C44.7182598,3.18521774 40.1751256,2.75687403 38.9303817,7.01895439 C37.6856378,11.2810347 39.664028,16.2281427 39.3018329,18.1945748 C38.9400402,20.1614098 36.404272,19.9224561 36.8574183,18.9432696 C36.8574183,18.9432696 35.5543207,20.5700086 37.3991012,21.6003706 C39.2442841,22.6311357 40.3191988,21.7724335 40.3191988,21.7724335 C40.3191988,21.7724335 40.5888329,24.7043515 44.5423939,24.6060298 C48.4967598,24.5085142 49.2159183,22.7274425 49.2159183,22.7274425 C49.2159183,22.7274425 55.0798573,26.0788391 56.9648817,20.5409957 C55.1583329,20.9294466 54.012589,19.4945153 53.97315,17.9129075 C53.9288817,16.1157176 54.1985159,14.8814591 54.31965,13.1144909 C54.4902841,10.6221994 54.455272,7.14064752 52.5597841,5.18428937 C50.8534427,3.4229626 48.4541012,2.29427894 45.7770768,3.10825288 C45.4394305,3.21060406 45.0683817,3.13726581 44.7182598,3.18521774" id="Fill-130" fill="#540049"></path>
                        <path d="M44.7182598,3.18521774 C42.8614061,3.16144326 40.9506256,3.8476797 39.8612232,5.3930213 C37.5306988,8.70009264 39.0905524,14.6558029 39.4583817,17.7158614 C39.6495402,19.3107667 37.9049671,20.1021751 37.0328817,19.5698683 C36.8119427,19.4288333 36.7266256,19.2055949 36.8574183,18.9432696 C36.4082963,20.0413285 39.595211,19.9575134 39.2273817,17.71022 C38.6201012,13.9941469 35.7265646,4.20469995 43.3081134,3.21261884 C43.77615,3.15136932 44.251028,3.13605694 44.7182598,3.18521774" id="Fill-131" fill="#91007E"></path>
                        <path d="M55.5711549,20.077917 C55.0242402,19.8365455 54.4873866,19.2107527 54.3368744,18.1384831 C54.1541671,15.1235559 55.517228,10.5129174 53.8591793,6.74043024 C53.4120695,5.71570958 52.7677646,5.10925871 52.7174598,5.04357665 C52.587472,4.96379109 49.8174841,1.77196557 45.7769963,3.10817229 C49.8227159,2.08748121 52.2880573,5.28212743 52.4136183,5.33813851 C52.45185,5.3921348 53.0003744,5.94942487 53.402411,6.93707345 C54.9795695,10.828836 53.204411,16.5101323 53.7155085,18.640165 C53.9887646,19.955418 55.0069354,20.9716765 56.4396183,20.9450813 C54.4386915,25.5335572 49.1160329,22.3602677 49.0810207,22.3647002 C49.0661305,22.3840422 48.9490207,23.0428775 47.934472,23.6134652 L47.6640329,23.7601417 C46.006789,24.4846591 44.0448988,24.5277755 43.3305695,24.4012469 C42.0612768,24.2714946 40.8845451,23.4994283 40.4229476,22.2289036 C40.664411,23.0904265 41.2113256,23.7710215 42.0387402,24.2142747 C44.0605939,25.1825813 47.9964476,24.8783485 49.3096061,23.0747112 C50.6529476,23.7746482 52.3210573,24.2219309 53.8072646,23.964844 C56.6975817,23.4958016 57.3398744,20.3648227 57.4875695,20.0851703 C57.1181305,20.1298985 56.3365939,20.446623 55.5711549,20.077917" id="Fill-132" fill="#3F0037"></path>
                        <path d="M40.6526195,12.272995 C40.6526195,12.272995 40.1684854,11.2172466 39.5350463,11.5932058 C38.9012049,11.9687621 39.5744854,16.1627427 40.7661073,15.3032346 C41.4993512,14.7737485 40.6526195,12.272995 40.6526195,12.272995" id="Fill-133" fill="#DD5757"></path>
                        <path d="M43.1883073,20.8456717 C43.1883073,20.8456717 42.6043683,26.3214598 41.8912463,27.7797626 C41.1781244,29.2372595 40.1402341,35.5511989 41.1877829,35.5254096 C42.236539,35.4992174 46.9925634,30.4892481 47.2581732,28.5018622 C47.5237829,26.5144764 48.8494171,18.3050254 48.8494171,18.3050254 L43.1883073,20.8456717 Z" id="Fill-134" fill="#FF9292"></path>
                        <path d="M43.2696402,20.2314035 C43.2297988,20.2515514 43.1372378,21.3854735 43.1320061,21.4302017 C42.9891402,22.6503567 42.9364207,22.5762126 42.9923598,22.7369926 C43.4294085,23.9994581 45.0890671,24.7562121 47.4533963,22.5322902 C47.5278476,22.4617727 48.3069695,21.6937359 48.3170305,21.6276509 C48.6116159,19.7784794 48.8494573,18.3052671 48.8494573,18.3052671 C48.8494573,18.3052671 43.3175305,20.2100468 43.2696402,20.2314035" id="Fill-135" fill="#F15F5D"></path>
                        <path d="M43.8461744,3.63185572 C43.8461744,3.63185572 40.258028,5.25980359 40.1614427,7.97130389 C40.0648573,10.6828042 40.4612598,11.7244491 40.2133573,13.483761 C39.9654549,15.2426701 40.8343207,19.9069019 43.6071256,21.0210791 C46.3803329,22.1364652 49.9201866,17.512932 50.5093573,15.461073 C51.098528,13.4096169 51.2494427,10.4913994 50.4771622,7.32496023 C49.7044793,4.15811807 45.8491134,3.02258414 43.8461744,3.63185572" id="Fill-136" fill="#F37575"></path>
                        <path d="M43.8461744,3.63185572 C43.8461744,3.63185572 40.258028,5.25980359 40.1614427,7.97130389 C40.0648573,10.6828042 40.4612598,11.7244491 40.2133573,13.483761 C39.9654549,15.2426701 40.8343207,19.9069019 43.6071256,21.0210791 C46.3803329,22.1364652 49.9201866,17.512932 50.5093573,15.461073 C51.098528,13.4096169 51.2494427,10.4913994 50.4771622,7.32496023 C49.7044793,4.15811807 45.8491134,3.02258414 43.8461744,3.63185572" id="Fill-137" fill="#FF9292"></path>
                        <path d="M42.9045476,15.5726116 C43.344011,15.0052476 43.4160476,13.8503717 43.3126207,13.1230336 C43.1757915,13.8149114 43.0019378,15.0568261 42.6594622,15.5016911 L42.5874256,15.5951772 C42.6248524,15.6145192 43.113011,16.1149922 43.7102305,16.0581752 C43.5311451,16.0078056 43.1331329,15.7922234 42.9045476,15.5726116" id="Fill-138" fill="#45003B"></path>
                        <path d="M43.946422,19.9842697 L43.9460195,19.9842697 L43.946422,19.9842697 Z" id="Fill-139" fill="#FFFFFF"></path>
                        <path d="M45.1108793,10.6520988 C45.1108793,10.6520988 45.4392695,10.2733189 46.1318671,10.1032709 C46.8244646,9.9328199 48.3303915,10.7040803 48.3303915,10.7040803 C48.3303915,10.7040803 46.8373427,10.3470601 46.4252451,10.3736553 C46.0123427,10.3998475 45.3732695,10.8181173 45.3732695,10.8181173 L45.1108793,10.6520988 Z" id="Fill-140" fill="#5C004F"></path>
                        <path d="M42.776411,10.6139388 C42.776411,10.6139388 42.5176427,10.3262272 41.9787768,10.186401 C41.4403134,10.0473807 40.2800817,10.592582 40.2800817,10.592582 C40.2800817,10.592582 41.4342768,10.3548372 41.7546183,10.3822383 C42.0745573,10.4096394 42.5739841,10.7328112 42.5739841,10.7328112 L42.776411,10.6139388 Z" id="Fill-141" fill="#5C004F"></path>
                        <path d="M44.8475634,12.3804234 C45.1332951,11.9532886 45.8669415,11.6990224 46.3317585,11.7207821 C46.9981976,11.7558394 47.4396732,12.2337469 47.8553927,12.2567155 C47.2698439,12.4932515 46.9656,11.8412664 45.5775878,12.1132627 C45.3300878,12.175721 45.0785634,12.2393883 44.8475634,12.3804234" id="Fill-142" fill="#2E0028"></path>
                        <path d="M42.8738817,12.3639021 C42.5861378,12.0048671 41.9124549,11.8348191 41.4999549,11.8896213 C40.908772,11.9718246 40.5514061,12.431599 40.182772,12.4843864 C40.7224427,12.6500019 40.9437841,12.0451629 42.2018085,12.1821684 C42.4275768,12.2188375 42.6569671,12.2559096 42.8738817,12.3639021" id="Fill-143" fill="#2E0028"></path>
                        <path d="M46.7709402,6.27743219 C46.7709402,6.27743219 48.3138915,6.99792001 48.9268061,10.4436087 C49.5405256,13.8892974 50.9546963,12.5841184 50.9253183,11.3788728 C50.8721963,9.23352763 48.7952085,5.85755059 46.7709402,6.27743219" id="Fill-144" fill="#552E5D"></path>
                        <path d="M50.8998841,7.22184344 C50.1267988,4.05540423 45.8645671,3.07863551 43.8463354,3.63189601 C42.0067866,4.13639867 40.258189,5.25984389 40.1612012,7.97094123 C40.1535549,8.18007612 40.1503354,9.9204491 40.1479207,10.110645 C40.5640427,7.51479346 41.2184085,6.01176238 44.0821646,5.94084188 C48.4196524,5.83365521 49.8519329,8.12205025 51.003311,11.6688812 C51.0065305,10.3250183 51.2729451,8.75187266 50.8998841,7.22184344" id="Fill-145" fill="#39C08A"></path>
                        <path d="M40.1480012,10.110645 C40.2997207,8.11237928 40.753672,6.46065692 42.6809524,5.87878644 C43.6612939,5.57858318 44.8207207,5.61081978 45.8268183,5.77965892 C48.9815378,6.34903772 50.2773915,8.54314073 51.0033915,11.6688812 C50.2347329,9.83784284 49.3678793,7.82104108 47.5899037,6.90270118 C46.4542207,6.30310058 44.8923549,6.1080692 43.7675378,6.17496013 C41.0840744,6.33171055 40.6582939,8.0753072 40.1480012,10.110645" id="Fill-146" fill="#1D6045"></path>
                        <path d="M51.0853683,9.51330095 C49.9408317,6.09541634 46.3088195,4.17975689 42.8514659,5.47284716 C42.8337585,5.47204125 42.6808317,5.5264405 42.622478,5.37009303 C42.5609049,5.20568641 42.7488439,5.12469198 42.731539,5.14121323 C46.3647585,3.91944641 50.0398317,6.00031839 51.0853683,9.51330095" id="Fill-147" fill="#1D6045"></path>
                        <path d="M49.8603841,6.34432312 C48.94725,5.05929199 47.3918232,4.37265259 45.8460549,4.23806482 L45.8384085,4.23725891 C45.6062012,4.21751399 45.6367866,3.86573219 45.8689939,3.88588006 C46.3378354,3.92657876 48.7102134,4.4387376 49.8603841,6.34432312" id="Fill-148" fill="#1D6045"></path>
                        <path d="M50.4526537,12.1919199 C50.4526537,12.1919199 50.8140439,10.8017169 51.5509098,11.5036687 C52.2873732,12.2052175 51.3597512,15.4405624 50.5093976,15.4611133 C49.6586415,15.48247 50.4526537,12.1919199 50.4526537,12.1919199" id="Fill-149" fill="#F37575"></path>
                        <path d="M50.5984573,12.6070869 C50.5984573,12.6070869 50.6837744,12.1231351 50.9980793,12.1154789 C51.3123841,12.1078227 51.1043232,14.3792936 50.6958476,14.3236854 C50.287372,14.2676744 50.5984573,12.6070869 50.5984573,12.6070869" id="Fill-150" fill="#F15F5D"></path>
                        <path d="M47.9782573,14.1669753 C48.072428,14.5646943 47.5858793,15.020842 46.891672,15.1856516 C46.1970622,15.3508641 45.5575866,15.163086 45.4638183,14.765367 C45.3696476,14.3676481 45.8557939,13.9115003 46.5500012,13.7462878 C47.2442085,13.5814782 47.8836841,13.7696593 47.9782573,14.1669753" id="Fill-151" fill="#FF8383"></path>
                        <path d="M40.865228,13.8730179 C40.62135,13.8141861 40.3847159,13.8037092 40.1810817,13.8327221 C40.1621671,14.1881306 40.1770573,14.6168772 40.2301793,15.0859196 C40.3295817,15.1282302 40.4366305,15.1640934 40.5501183,15.1910915 C41.185972,15.3434094 41.7719232,15.1721525 41.8592524,14.807879 C41.9461793,14.4440085 41.5010817,14.0253358 40.865228,13.8730179" id="Fill-152" fill="#FF8383"></path>
                        <path d="M43.0314768,17.3780219 C43.280989,17.3780219 45.7588061,17.6181845 46.3161841,16.5785544 C46.3161841,16.5785544 45.6907939,18.7126168 43.3840134,18.7126168 L43.0314768,17.3780219 Z" id="Fill-172" fill="#2E0028"></path>
                    </g>
                </g>
                <g id="Group-32" transform="translate(31.000000, 25.500000) scale(-1, 1) translate(-31.000000, -25.500000) " fill-rule="nonzero">
                    <path d="M36.1410985,16.49347 L39.9783158,16.49347 C40.2804589,16.49347 40.5268217,16.745758 40.5268217,17.0605173 L40.5268217,26.1693163 C40.5268217,26.4816729 40.2827831,26.7363636 39.9783158,26.7363636 L36.1410985,26.7363636 C35.8389554,26.7363636 35.5925926,26.4840756 35.5925926,26.1693163 L35.5925926,17.0581146 C35.5949168,16.745758 35.8389554,16.49347 36.1410985,16.49347 Z M41.8678722,24.5955196 L41.8678722,18.0696694 C41.8701964,16.4622343 42.3048176,14.8884376 43.1252523,13.5236795 C43.6249505,12.6971359 44.7452042,11.3732245 45.3727321,10.6884427 C45.5121828,10.5346672 46.0188535,10.0829515 46.0188535,9.83546892 C46.0188535,9.51830684 46.0537162,9.00652256 46.0653371,8.05263357 C46.0723096,7.44714232 46.548766,6.9497745 47.1344588,6.95457999 L47.1600247,6.95457999 C48.1849871,6.97380193 48.5126961,7.9541211 48.5126961,7.9541211 C48.5126961,7.9541211 49.3889111,9.74176194 48.5708006,11.9282581 C47.8805198,13.7759675 47.738745,13.9249376 47.738745,13.9249376 C47.738745,13.9249376 47.5156239,14.2589189 48.2221739,14.2445024 C48.2221739,14.2445024 52.5358476,14.2252805 52.684595,14.2252805 C53.0030073,14.2252805 54.018673,14.5256234 53.9605685,15.8639513 C53.9187333,16.8538814 53.3237438,17.1998764 53.0192766,17.3128053 C52.9797656,17.3272218 52.958848,17.3728739 52.9751172,17.4137205 C52.9820897,17.4305397 52.9937106,17.4449562 53.0099799,17.4545672 C53.3214197,17.6419811 53.9582443,18.1153215 53.9442993,18.8409499 C53.9257059,19.7203539 53.5840517,20.0447242 52.8728534,20.2465546 C52.8333424,20.2561656 52.8077764,20.299415 52.8193973,20.3402616 C52.8240457,20.3618863 52.8379907,20.3787055 52.85426,20.3883165 C53.1238646,20.5468975 53.5863759,20.9337391 53.5584858,21.7170334 C53.5305957,22.5147441 52.972793,22.795865 52.6683258,22.8919747 C52.6288147,22.9039884 52.605573,22.9472378 52.6171938,22.9880845 C52.6218422,23.0049037 52.6334631,23.0217229 52.6474082,23.0313338 C52.8403149,23.1682902 53.1261887,23.478244 53.1122437,24.114971 C53.1052711,24.451355 52.9960348,24.6964348 52.8589083,24.871835 C52.6427598,25.1481505 52.3034299,25.2923151 51.9594516,25.2947178 L42.388488,25.3139397 C42.3861638,25.311537 41.8678722,25.3139397 41.8678722,24.5955196 L41.8678722,24.5955196 Z" id="Shape" fill="#7678ED"></path>
                    <path d="M20.0980837,37.0909091 L3.44444444,51 L5.74074074,37.0909091 L2,37.0909091 C0.8954305,37.0909091 1.3527075e-16,36.1954786 0,35.0909091 L0,2 C-1.3527075e-16,0.8954305 0.8954305,7.30833348e-15 2,7.10542736e-15 L60,7.10542736e-15 C61.1045695,6.90252123e-15 62,0.8954305 62,2 L62,35.0909091 C62,36.1954786 61.1045695,37.0909091 60,37.0909091 L20.0980837,37.0909091 Z" id="Combined-Shape" stroke="#7678ED"></path>
                    <g id="Group-31" transform="translate(18.851852, 16.090909) scale(-1, 1) translate(-18.851852, -16.090909) translate(7.851852, 11.590909)" stroke="#7678ED" stroke-width="2">
                        <path d="M0,0.579545455 L21.2380354,0.579545455" id="Path-30"></path>
                        <path d="M1.687539e-14,7.53409091 L14.3491468,7.53409091" id="Path-30"></path>
                    </g>
                </g>
                <g id="Group-32" transform="translate(73.000000, 13.000000)" fill-rule="nonzero">
                    <path d="M18.0705493,8.08503429 L19.9891579,8.08503429 C20.1402295,8.08503429 20.2634109,8.20870489 20.2634109,8.36299868 L20.2634109,12.8280962 C20.2634109,12.9812122 20.1413915,13.1060606 19.9891579,13.1060606 L18.0705493,13.1060606 C17.9194777,13.1060606 17.7962963,12.98239 17.7962963,12.8280962 L17.7962963,8.36182087 C17.7974584,8.20870489 17.9194777,8.08503429 18.0705493,8.08503429 Z M20.9339361,12.0566272 L20.9339361,8.85768108 C20.9350982,8.06972269 21.1524088,7.29825372 21.5626262,6.62925467 C21.8124753,6.22408623 22.3726021,5.57511004 22.6863661,5.2394327 C22.7560914,5.16405253 23.0094268,4.94262326 23.0094268,4.82130829 C23.0094268,4.66583668 23.0268581,4.41496204 23.0326685,3.9473694 C23.0361548,3.65055996 23.274383,3.40675221 23.5672294,3.40910784 L23.5800124,3.40910784 C24.0924935,3.41853036 24.2563481,3.89907897 24.2563481,3.89907897 C24.2563481,3.89907897 24.6944555,4.7753735 24.2854003,5.84718536 C23.9402599,6.75292527 23.8693725,6.82594981 23.8693725,6.82594981 C23.8693725,6.82594981 23.757812,6.98966613 24.111087,6.98259924 C24.111087,6.98259924 26.2679238,6.97317672 26.3422975,6.97317672 C26.5015037,6.97317672 27.0093365,7.12040362 26.9802843,7.7764467 C26.9593667,8.26170657 26.6618719,8.43131197 26.5096383,8.48666928 C26.4898828,8.49373617 26.479424,8.51611466 26.4875586,8.53613752 C26.4910449,8.54438223 26.4968553,8.55144912 26.5049899,8.55616038 C26.6607098,8.64802997 26.9791222,8.88005957 26.9721496,9.23575977 C26.9628529,9.66684014 26.7920259,9.8258452 26.4364267,9.92478168 C26.4166712,9.92949294 26.4038882,9.95069361 26.4096986,9.97071647 C26.4120228,9.98131681 26.4189954,9.98956151 26.42713,9.99427277 C26.5619323,10.0720086 26.793188,10.2616368 26.7792429,10.6456046 C26.7652978,11.0366393 26.4863965,11.1744436 26.3341629,11.2215562 C26.3144074,11.2274453 26.3027865,11.248646 26.3085969,11.2686689 C26.3109211,11.2769136 26.3167315,11.2851583 26.3237041,11.2898695 C26.4201574,11.357005 26.5630944,11.5089432 26.5561218,11.8210642 C26.5526356,11.9859583 26.4980174,12.1060955 26.4294542,12.192076 C26.3213799,12.3275247 26.1517149,12.3981937 25.9797258,12.3993715 L21.194244,12.408794 C21.1930819,12.4076162 20.9339361,12.408794 20.9339361,12.0566272 L20.9339361,12.0566272 Z" id="Shape" fill="#FFFFFF"></path>
                    <path d="M10.0490419,18.1818182 L1.72222222,25 L2.87037037,18.1818182 L1,18.1818182 C0.44771525,18.1818182 1.84399221e-15,17.7341029 1.77635684e-15,17.1818182 L0,1 C-6.76353751e-17,0.44771525 0.44771525,7.20688042e-15 1,7.10542736e-15 L30,7.10542736e-15 C30.5522847,7.00397429e-15 31,0.44771525 31,1 L31,17.1818182 C31,17.7341029 30.5522847,18.1818182 30,18.1818182 L10.0490419,18.1818182 Z" id="Combined-Shape" stroke="#F7F7F7" stroke-width="0.5"></path>
                    <g id="Group-31" transform="translate(8.777778, 7.545455) scale(-1, 1) translate(-8.777778, -7.545455) translate(3.777778, 4.545455)" stroke="#F7F7F7">
                        <path d="M0,1.42045455 L9.4708697,1.42045455" id="Path-30"></path>
                        <path d="M0,4.82954545 L6.02642526,4.82954545" id="Path-30"></path>
                    </g>
                </g>
                <g id="Group-34" transform="translate(193.000000, 0.000000)" fill-rule="nonzero">
                    <rect id="Rectangle" fill="url(#linearGradient-2)" x="0" y="202.304348" width="10.2222222" height="32.6956522"></rect>
                    <rect id="Rectangle-Copy" fill="url(#linearGradient-3)" x="16.3555556" y="163.478261" width="10.2222222" height="71.5217391"></rect>
                    <rect id="Rectangle-Copy-2" fill="url(#linearGradient-4)" x="32.7111111" y="126.695652" width="10.2222222" height="108.304348"></rect>
                    <rect id="Rectangle-Copy-3" fill="url(#linearGradient-5)" x="49.0666667" y="100.130435" width="10.2222222" height="134.869565"></rect>
                    <rect id="Rectangle-Copy-4" fill="url(#linearGradient-6)" x="65.4222222" y="51.0869565" width="10.2222222" height="183.913043"></rect>
                    <rect id="Rectangle-Copy-5" fill="url(#linearGradient-7)" x="81.7777778" y="0" width="10.2222222" height="235"></rect>
                </g>
                <path d="M201,102 L226,127.895963" id="Path-36" stroke="#F0A202" opacity="0.513857887" stroke-dasharray="4" fill-rule="nonzero"></path>
                <path id="Path-28" d="M108.64643,100.365623 L102.685927,96.2032095 L103.258471,95.3833358 L110.783911,100.638595 L111.512688,101.147523 L110.699313,101.506055 L102.300302,105.2083 L101.896954,104.293253 L108.549367,101.360901 L105.795002,101.092284 L105.892066,100.097006 L108.64643,100.365623 Z M77.570382,87.2557897 L78.429618,86.7442103 C79.0854771,87.8457749 79.8676125,88.8832785 80.7700719,89.8583891 L80.0361533,90.5376266 C79.0870662,89.5121346 78.2627621,88.4186942 77.570382,87.2557897 Z M83.1013363,93.2983819 L83.7054532,92.5014862 C84.7178346,93.26896 85.8180474,93.9834365 86.9995685,94.646085 L86.5104051,95.5182772 C85.2899639,94.8338006 84.1513699,94.0943995 83.1013363,93.2983819 Z M90.1660722,97.3046555 L90.5573391,96.3843782 C91.7442436,96.8890049 92.9826311,97.3490082 94.2648188,97.7655255 L93.9558627,98.7166018 C92.6465159,98.2912619 91.380722,97.8210784 90.1660722,97.3046555 Z M97.8390215,99.8176073 L98.0770265,98.8463433 C99.3630745,99.1614851 100.662328,99.4330647 101.959581,99.6621828 L101.785655,100.646941 C100.46737,100.414109 99.1467842,100.13807 97.8390215,99.8176073 Z" fill="#7678ED" fill-rule="nonzero" opacity="0.513857887"></path>
                <path id="Path-35" d="M93.0811888,151.480148 L97.0948617,144.226685 L97.9698386,144.71085 L93.525797,152.74207 L93.0954283,153.519827 L92.6542427,152.748155 L88.0985036,144.779765 L88.9666353,144.283431 L93.0811888,151.480148 Z M111,113.5 L111,114.5 C109.63211,114.5 108.347434,114.647914 107.145295,114.943121 L106.906812,113.971974 C108.188964,113.657118 109.553586,113.5 111,113.5 Z M103.065525,115.531416 L103.575426,116.391649 C102.488625,117.035848 101.489966,117.845562 100.578738,118.822056 L99.8476205,118.139805 C100.822902,117.094669 101.895773,116.224784 103.065525,115.531416 Z M97.4132856,121.452275 L98.2770883,121.956105 C97.6558151,123.021261 97.0945658,124.201517 96.593676,125.49702 L95.6609638,125.136398 C96.1804672,123.792753 96.7644626,122.564664 97.4132856,121.452275 Z M94.4115376,129.05736 L95.3793909,129.308876 C95.0635355,130.524315 94.7873736,131.814607 94.5509991,133.179709 L93.5656615,133.009093 C93.8066371,131.617419 94.0885645,130.300189 94.4115376,129.05736 Z M93.0010661,137.07077 L93.9952896,137.178099 C93.858428,138.445889 93.7499103,139.766644 93.6697615,141.140341 L92.6714593,141.082095 C92.7525471,139.692303 92.8624077,138.355203 93.0010661,137.07077 Z M92.5358768,144.991381 L93.5358524,144.9844 L93.5637768,148.984302 L92.5638012,148.991283 L92.5358768,144.991381 Z" fill="#7678ED" fill-rule="nonzero" opacity="0.513857887"></path>
                <path id="Path-32" d="M178.538506,215.402521 L170.253395,215.121049 L170.287349,214.121625 L179.460836,214.433278 L180.349213,214.463459 L179.862097,215.206993 L174.832078,222.884812 L173.995603,222.336807 L178.538506,215.402521 Z M106.655794,209.36266 L107.344206,208.63734 C108.304204,209.54849 109.29188,210.430035 110.305366,211.279062 L109.663195,212.045623 C108.633778,211.183251 107.630687,210.287947 106.655794,209.36266 Z M112.838754,214.538456 L113.430629,213.732426 C114.499691,214.517447 115.591315,215.265451 116.704125,215.974346 L116.166849,216.817753 C115.035305,216.096923 113.925481,215.336448 112.838754,214.538456 Z M119.643527,218.86908 L120.121616,217.990768 C121.28573,218.624427 122.468561,219.215351 123.669086,219.761958 L123.254709,220.672063 C122.032439,220.115555 120.828365,219.514019 119.643527,218.86908 Z M127.014721,222.219465 L127.360645,221.281202 C128.600733,221.738405 129.856373,222.148845 131.126812,222.511282 L130.852472,223.472915 C129.557769,223.103555 128.278255,222.685312 127.014721,222.219465 Z M134.75858,224.428365 L134.958978,223.44865 C136.249271,223.712576 137.552392,223.927692 138.867792,224.093007 L138.743096,225.085202 C137.402242,224.916688 136.07387,224.697404 134.75858,224.428365 Z M142.793578,225.436946 L142.841974,224.438117 C144.152416,224.501613 145.47325,224.516417 146.804085,224.48174 L146.830133,225.4814 C145.474473,225.516724 144.128807,225.501642 142.793578,225.436946 Z M150.896399,225.226387 L150.797825,224.231258 C152.09977,224.102291 153.409986,223.926632 154.728191,223.703658 L154.894972,224.689652 C153.554184,224.916446 152.22122,225.095155 150.896399,225.226387 Z M158.826236,223.891529 L158.59592,222.918413 C159.867011,222.617573 161.144597,222.27329 162.428476,221.885077 L162.717909,222.842276 C161.414557,223.236377 160.117258,223.585972 158.826236,223.891529 Z M166.536931,221.565936 L166.193318,220.626825 C167.419506,220.178173 168.650752,219.689899 169.886907,219.161623 L170.27988,220.081173 C169.027518,220.616375 167.779816,221.111175 166.536931,221.565936 Z M173.921317,218.360311 L173.460931,217.472592 L177.011808,215.63105 L177.472193,216.518769 L173.921317,218.360311 Z" fill="#F0A202" fill-rule="nonzero" opacity="0.513857887"></path>
            </g>
        </g>
    </g>
</svg>